<?xml version="1.0" standalone="no"?>
<!DOCTYPE svg PUBLIC "-//W3C//DTD SVG 1.1//EN" "http://www.w3.org/Graphics/SVG/1.1/DTD/svg11.dtd" >
<svg xmlns="http://www.w3.org/2000/svg" xmlns:xlink="http://www.w3.org/1999/xlink" version="1.1">
<metadata>
Created by FontForge 20161003 at Sat Dec 16 23:40:58 2017
 By www-data
Copyright (c) 2018 by www.fontiran.com (Moslem Ebrahimi). All rights reserved.
</metadata>
<defs>
<font id="IRANSansDN-Bold" horiz-adv-x="0" >
  <font-face 
    font-family="IRANSansDN"
    font-weight="700"
    font-stretch="normal"
    units-per-em="2300"
    panose-1="2 11 5 6 3 8 4 2 2 4"
    ascent="1840"
    descent="-460"
    x-height="1215"
    cap-height="1635"
    bbox="-1106 -1206 3318 2712.01"
    underline-thickness="100"
    underline-position="-650"
    unicode-range="U+001D-FEFF"
  />
<missing-glyph horiz-adv-x="1229" 
d="M102 -362v1806h1024v-1806h-1024zM217 -248h795v1577h-795v-1577z" />
    <glyph glyph-name="uni06440627.isol" unicode="&#xfedf;&#xfe8e;" horiz-adv-x="1264" arabic-form="isolated" 
d="M551 150q72 -5 199 15q116 18 141 33q-3 6 -8 18q-8 14 -16 30q-23 44 -45 76q-131 -103 -271 -172zM639 -85q-239 1 -381 52q-85 30 -97 119t61 141q41 29 92 62l92 58q187 116 261 185q-47 68 -103 143q-123 165 -260 328q-124 147 -205 229q-43 43 -43 105
q0 61 44 104q43 44 105 44q61 -1 104 -44q92 -93 229 -256q152 -180 284 -360l13 -18q71 249 -6 673q-11 61 24 111q35 51 96 62q60 10 111 -25q50 -35 61 -95q116 -642 -77 -994l-13 -23q144 -241 129 -368q-11 -96 -91 -145t-207 -71q-98 -17 -217 -17h-6z" />
    <glyph glyph-name="uni06440627.fina" unicode="&#xfee0;&#xfe8e;" horiz-adv-x="1370" arabic-form="final" 
d="M1371 296q59 1 103 -42q43 -44 43 -105q0 -62 -43 -105q-44 -44 -105 -44q-223 0 -356 210q-19 -23 -40 -44q-226 -232 -672 -232q-61 0 -104 43q-44 44 -44 105q0 62 44 105q43 43 104 43q72 0 135 8q-31 33 -39 78q-59 326 -307 891q-25 57 -2 114q22 57 78 82
q56 24 114 2q57 -22 81 -78q263 -599 327 -959q5 -26 1 -52q41 25 72 57q115 118 109 350q-3 114 -80 721l-7 57q-8 61 30 109q37 49 98 56q61 8 110 -29q48 -38 56 -99l7 -56q79 -618 82 -747q16 -181 63 -299q55 -140 142 -140z" />
    <glyph glyph-name="uni06440623.isol" unicode="&#xfedf;&#xfe84;" horiz-adv-x="1317" arabic-form="isolated" 
d="M598 150q72 -5 199 15q116 18 141 33q-3 6 -8 18q-8 14 -16 30q-23 44 -45 76q-131 -103 -271 -172zM686 -85q-239 1 -381 52q-85 30 -97 119t61 141q41 29 92 62l92 58q187 116 261 185q-47 68 -103 143q-123 165 -260 328q-124 147 -205 229q-43 43 -43 105
q0 61 44 104q43 44 105 44q61 -1 104 -44q92 -93 229 -256q152 -180 284 -360l13 -18q71 249 -6 673q-11 61 24 111q35 51 96 62q60 10 111 -25q50 -35 61 -95q116 -642 -77 -994l-13 -23q144 -241 129 -368q-11 -96 -91 -145t-207 -71q-98 -17 -217 -17h-6zM-1 1496
q-14 25 -6 52q7 28 32 42l128 73l-3 2q-52 32 -80 90q-29 58 -23 121q6 57 40 108q33 51 86 81q101 57 218 24q27 -8 41 -33t6 -53q-8 -27 -33 -41t-52 -6q-62 17 -112 -11q-51 -29 -56 -83q-5 -53 37 -79q34 -21 88 -9q38 7 115 45q25 12 52 4q26 -9 39 -34t6 -51
q-8 -27 -32 -41l-396 -227q-16 -9 -35 -9q-40 0 -60 35z" />
    <glyph glyph-name="uni06440623.fina" unicode="&#xfee0;&#xfe84;" horiz-adv-x="1370" arabic-form="final" 
d="M1371 296q59 1 103 -42q43 -44 43 -105q0 -62 -43 -105q-44 -44 -105 -44q-223 0 -356 210q-19 -23 -40 -44q-226 -232 -672 -232q-61 0 -104 43q-44 44 -44 105q0 62 44 105q43 43 104 43q72 0 135 8q-31 33 -39 78q-59 326 -307 891q-25 57 -2 114q22 57 78 82
q56 24 114 2q57 -22 81 -78q263 -599 327 -959q5 -26 1 -52q41 25 72 57q115 118 109 350q-3 114 -80 721l-7 57q-8 61 30 109q37 49 98 56q61 8 110 -29q48 -38 56 -99l7 -56q79 -618 82 -747q16 -181 63 -299q55 -140 142 -140zM-8 1488q-14 25 -6 52q7 28 32 42l128 73
l-3 2q-52 32 -80 90q-29 58 -23 121q6 57 40 108q33 51 86 81q101 57 218 24q27 -8 41 -33t6 -53q-8 -27 -33 -41t-52 -6q-62 17 -112 -11q-51 -29 -56 -83q-5 -53 37 -79q34 -21 88 -9q38 7 115 45q25 12 52 4q26 -9 39 -34t6 -51q-8 -27 -32 -41l-396 -227q-16 -9 -35 -9
q-40 0 -60 35z" />
    <glyph glyph-name="uni06440625.isol" unicode="&#xfedf;&#xfe88;" horiz-adv-x="1270" arabic-form="isolated" 
d="M551 150q72 -5 199 15q116 18 141 33q-3 6 -8 18q-8 14 -16 30q-23 44 -45 76q-131 -103 -271 -172zM639 -85q-239 1 -381 52q-85 30 -97 119t61 141q41 29 92 62l92 58q187 116 261 185q-47 68 -103 143q-123 165 -260 328q-124 147 -205 229q-43 43 -43 105
q0 61 44 104q43 44 105 44q61 -1 104 -44q92 -93 229 -256q152 -180 284 -360l13 -18q71 249 -6 673q-11 61 24 111q35 51 96 62q60 10 111 -25q50 -35 61 -95q116 -642 -77 -994l-13 -23q144 -241 129 -368q-11 -96 -91 -145t-207 -71q-98 -17 -217 -17h-6zM113 -748
q-14 25 -6 52q7 28 32 42l128 73l-3 2q-52 32 -80 90q-29 58 -23 121q6 57 40 108q33 51 86 81q101 57 218 24q27 -8 41 -33t6 -53q-8 -27 -33 -41t-52 -6q-62 17 -112 -11q-51 -29 -56 -83q-5 -53 37 -79q34 -21 88 -9q38 7 115 45q25 12 52 4q26 -9 39 -34t6 -51
q-8 -27 -32 -41l-396 -227q-16 -9 -35 -9q-40 0 -60 35z" />
    <glyph glyph-name="uni06440625.fina" unicode="&#xfee0;&#xfe88;" horiz-adv-x="1370" arabic-form="final" 
d="M1371 296q59 1 103 -42q43 -44 43 -105q0 -62 -43 -105q-44 -44 -105 -44q-223 0 -356 210q-19 -23 -40 -44q-226 -232 -672 -232q-61 0 -104 43q-44 44 -44 105q0 62 44 105q43 43 104 43q72 0 135 8q-31 33 -39 78q-59 326 -307 891q-25 57 -2 114q22 57 78 82
q56 24 114 2q57 -22 81 -78q263 -599 327 -959q5 -26 1 -52q41 25 72 57q115 118 109 350q-3 114 -80 721l-7 57q-8 61 30 109q37 49 98 56q61 8 110 -29q48 -38 56 -99l7 -56q79 -618 82 -747q16 -181 63 -299q55 -140 142 -140zM113 -748q-14 25 -6 52q7 28 32 42l128 73
l-3 2q-52 32 -80 90q-29 58 -23 121q6 57 40 108q33 51 86 81q101 57 218 24q27 -8 41 -33t6 -53q-8 -27 -33 -41t-52 -6q-62 17 -112 -11q-51 -29 -56 -83q-5 -53 37 -79q34 -21 88 -9q38 7 115 45q25 12 52 4q26 -9 39 -34t6 -51q-8 -27 -32 -41l-396 -227q-16 -9 -35 -9
q-40 0 -60 35z" />
    <glyph glyph-name="uni06440622.isol" unicode="&#xfedf;&#xfe82;" horiz-adv-x="1361" arabic-form="isolated" 
d="M642 150q72 -5 199 15q116 18 141 33q-3 6 -8 18q-8 14 -16 30q-23 44 -45 76q-131 -103 -271 -172zM730 -85q-239 1 -381 52q-85 30 -97 119t61 141q41 29 92 62l92 58q187 116 261 185q-47 68 -103 143q-123 165 -260 328q-124 147 -205 229q-43 43 -43 105
q0 61 44 104q43 44 105 44q61 -1 104 -44q92 -93 229 -256q152 -180 284 -360l13 -18q71 249 -6 673q-11 61 24 111q35 51 96 62q60 10 111 -25q50 -35 61 -95q116 -642 -77 -994l-13 -23q144 -241 129 -368q-11 -96 -91 -145t-207 -71q-98 -17 -217 -17h-6zM49 1571
q-43 25 -56 72q-14 47 11 90q99 176 279 216q123 28 299 -11q90 -19 166 6q90 31 130 118q21 45 67 62t90 -4q45 -20 62 -66t-3 -91q-76 -165 -242 -233q-149 -61 -320 -23q-152 33 -228 2q-54 -22 -94 -93q-34 -60 -103 -60q-31 0 -58 15z" />
    <glyph glyph-name="uni06440622.fina" unicode="&#xfee0;&#xfe82;" horiz-adv-x="1451" arabic-form="final" 
d="M1452 296q59 1 103 -42q43 -44 43 -105q0 -62 -43 -105q-44 -44 -105 -44q-223 0 -356 210q-19 -23 -40 -44q-226 -232 -672 -232q-61 0 -104 43q-44 44 -44 105q0 62 44 105q43 43 104 43q72 0 135 8q-31 33 -39 78q-59 326 -307 891q-25 57 -2 114q22 57 78 82
q56 24 114 2q57 -22 81 -78q263 -599 327 -959q5 -26 1 -52q41 25 72 57q115 118 109 350q-3 114 -80 721l-7 57q-8 61 30 109q37 49 98 56q61 8 110 -29q48 -38 56 -99l7 -56q79 -618 82 -747q16 -181 63 -299q55 -140 142 -140zM49 1515q-43 25 -56 72q-14 47 11 90
q99 176 279 216q123 28 299 -11q90 -19 166 6q90 31 130 118q21 45 67 62t90 -4q45 -20 62 -66t-3 -91q-76 -165 -242 -233q-149 -61 -320 -23q-152 33 -228 2q-54 -22 -94 -93q-34 -60 -103 -60q-31 0 -58 15z" />
    <glyph glyph-name="uni06440671.isol" unicode="&#xfedf;&#xfb51;" horiz-adv-x="1339" 
d="M620 150q72 -5 199 15q116 18 141 33q-3 6 -8 18q-8 14 -16 30q-23 44 -45 76q-131 -103 -271 -172zM708 -85q-239 1 -381 52q-85 30 -97 119t61 141q41 29 92 62l92 58q187 116 261 185q-47 68 -103 143q-123 165 -260 328q-124 147 -205 229q-43 43 -43 105
q0 61 44 104q43 44 105 44q61 -1 104 -44q92 -93 229 -256q152 -180 284 -360l13 -18q71 249 -6 673q-11 61 24 111q35 51 96 62q60 10 111 -25q50 -35 61 -95q116 -642 -77 -994l-13 -23q144 -241 129 -368q-11 -96 -91 -145t-207 -71q-98 -17 -217 -17h-6zM477 1710
q27 0 50 5q29 7 48 23q35 28 23 60q-5 11 -15 17q-12 6 -33 5q-72 -2 -131 -74q-10 -13 -20 -28q40 -9 78 -8zM261 1545q-24 9 -34 31q-11 22 -2 45l9 26q-22 6 -45 9q-26 3 -57 -17q-9 -7 -18 -15l-5 -5l-2 -1v-1q-16 -19 -41 -21q-24 -2 -43 14t-21 40q-2 25 14 44l18 18
q19 17 39 30q64 40 131 32q39 -5 80 -18q20 36 44 65q92 113 218 118q52 1 92 -20q49 -26 70 -77q20 -50 4 -105q-17 -54 -62 -91q-66 -54 -172 -55q-65 0 -132 18l-10 -28q-14 -39 -55 -39q-11 0 -20 3z" />
    <glyph glyph-name="uni06440671.fina" unicode="&#xfee0;&#xfb51;" horiz-adv-x="1370" 
d="M1371 296q59 1 103 -42q43 -44 43 -105q0 -62 -43 -105q-44 -44 -105 -44q-223 0 -356 210q-19 -23 -40 -44q-226 -232 -672 -232q-61 0 -104 43q-44 44 -44 105q0 62 44 105q43 43 104 43q72 0 135 8q-31 33 -39 78q-59 326 -307 891q-25 57 -2 114q22 57 78 82
q56 24 114 2q57 -22 81 -78q263 -599 327 -959q5 -26 1 -52q41 25 72 57q115 118 109 350q-3 114 -80 721l-7 57q-8 61 30 109q37 49 98 56q61 8 110 -29q48 -38 56 -99l7 -56q79 -618 82 -747q16 -181 63 -299q55 -140 142 -140zM478 1702q27 0 50 5q29 7 48 23
q35 28 23 60q-5 11 -15 17q-12 6 -33 5q-72 -2 -131 -74q-10 -13 -20 -28q40 -9 78 -8zM262 1537q-24 9 -34 31q-11 22 -2 45l9 26q-22 6 -45 9q-26 3 -57 -17q-9 -7 -18 -15l-5 -5l-2 -1v-1q-16 -19 -41 -21q-24 -2 -43 14t-21 40q-2 25 14 44l18 18q19 17 39 30
q64 40 131 32q39 -5 80 -18q20 36 44 65q92 113 218 118q52 1 92 -20q49 -26 70 -77q20 -50 4 -105q-17 -54 -62 -91q-66 -54 -172 -55q-65 0 -132 18l-10 -28q-14 -39 -55 -39q-11 0 -20 3z" />
    <glyph glyph-name="allah" unicode="&#xfedf;&#xfee0;&#x651;&#x64e;&#xfeea;" horiz-adv-x="2052" arabic-form="isolated" 
d="M1272 1759q-24 2 -41 20q-16 18 -15 43q5 103 -16 202q-5 24 9 44q13 21 37 26t45 -8q20 -13 25 -38q25 -113 18 -233q-1 -23 -18 -40q-17 -16 -41 -16h-3zM1566 1603q8 -57 -10 -109q-17 -51 -56 -83q-48 -40 -112 -40q-32 0 -61 11q-30 12 -55 35q-19 -21 -41 -35
q-45 -28 -97 -28q-39 0 -73 17q-79 40 -92 136q-9 69 27 143q11 22 34 30t45 -2q22 -11 30 -34q9 -23 -2 -45q-9 -18 -13 -35q-6 -23 -3 -42q4 -33 28 -45q24 -13 52 6q30 18 43 60q12 37 10 95q-1 25 16 43t41 18q25 1 43 -15q18 -17 19 -42q2 -54 -6 -97l2 -9
q5 -31 35 -43q29 -11 54 9q33 27 24 84q-6 45 -50 115q-13 21 -8 45q6 24 27 37t45 7q23 -5 36 -26q58 -91 68 -161zM1932 1104q73 -390 79 -557q9 -278 -103 -413q-44 -53 -105 -85q-81 -41 -184 -41q-144 0 -262 96q-93 -89 -231 -102q-20 -2 -41 -2q-139 0 -247 78
q-107 78 -156 204q-19 49 -31 111q-5 25 -10 55l-4 26l-3 26l-3 17q-2 16 -6 52l-3 28l-3 29q-5 31 -10 52q-4 15 -9 26q-2 4 -4 7q-1 3 -2 5l-10 -2q-7 -2 -16 -5q-23 -9 -51 -27q-30 -19 -64 -46q-25 -20 -58 -49q-40 -36 -62 -78q-28 -52 -9 -85q12 -20 60 -26t112 5
q61 10 111 -26t60 -96q10 -61 -26 -111t-96 -60q-67 -11 -127 -11q-142 0 -240 62q-70 45 -111 116q-84 146 -21 314q44 122 152 217q49 44 87 73q54 41 103 69q181 102 325 39q113 -50 164 -179q19 -48 30 -110q4 -24 8 -52l3 -25l2 -22q3 -31 5 -44l2 -17q15 -105 29 -145
q17 -49 56 -77q33 -24 81 -21q47 3 67 30q27 36 32 97q-3 22 -3 44q-1 16 2 30q-1 22 -4 59l-3 35l-2 36q-8 139 -22 311q-4 54 -8 105q-2 16 -3 30q0 4 -1 8v3q-6 61 33 109q39 47 100 53q62 6 109 -34q47 -39 53 -100v-4q1 -4 1 -9q2 -15 3 -32q5 -52 9 -107
q14 -174 22 -318q1 -20 4 -63l3 -34l2 -35q3 -40 2 -73q11 -64 53 -102q36 -32 77 -32q29 0 46 7q5 3 10 7l5 5q6 8 12 21q8 18 13 43q15 69 7 183q-5 94 -27 230q-9 54 -22 124l-23 125l-14 77l-14 78q-11 60 24 110q35 51 96 62q60 10 110 -25q51 -35 62 -95z" />
    <glyph glyph-name="riyal" unicode="&#x631;&#xfef3;&#xfe8e;&#x644;" horiz-adv-x="3392" arabic-form="isolated" 
d="M273 -532q-229 181 -233 502q-2 129 35 273q27 109 75 219q24 57 81 79q57 23 113 -1q57 -24 80 -81q22 -57 -2 -114q-29 -68 -49 -136q-28 -93 -35 -176q-18 -224 119 -332q96 -76 262 -70q168 6 274 88q102 79 121 264q8 72 3 171q-1 39 -5 89l-7 87q-8 89 -10 131
q-13 219 -45 652q-10 136 -20 278q-4 44 -7 84q-1 13 -2 24v9q-5 61 35 108q40 46 101 51t108 -35t51 -101v-3q1 -3 1 -7q1 -10 2 -23q3 -40 6 -85q11 -142 21 -279q32 -435 45 -655q2 -38 9 -123l5 -52l4 -53q4 -60 6 -109q4 -126 -10 -224q-38 -285 -230 -434
q-182 -141 -446 -149l-30 -1q-256 0 -426 134zM2018 0q-61 0 -105 43q-43 44 -43 105q0 62 43 105q44 43 105 43q165 0 240 14q106 20 141 78q9 14 11 50q3 48 -10 113q-25 132 -96 278q-26 55 -6 113t75 85q56 27 114 6q58 -20 84 -75q13 -26 25 -54q16 -37 31 -74
q37 -100 57 -191q58 -259 -32 -406q-94 -153 -293 -204q-76 -19 -174 -25q-39 -3 -86 -4h-81zM2448 -658q-29 54 -11 113q18 58 72 87q256 136 372 346q141 254 141 709q0 62 43 105q43 44 105 44q61 0 105 -44q43 -43 43 -105q0 -522 -170 -840q-159 -295 -500 -477
q-32 -17 -69 -17q-89 0 -131 79zM1887 4q-69 8 -125 30q-73 30 -125 85q-69 72 -95 183q-21 88 -20 498v94v96q-1 107 -3 189q-5 209 -23 326q-9 61 27 111q37 49 97 58q61 9 110 -27q50 -37 59 -97q20 -132 26 -353q2 -87 3 -200v-328q0 -74 1 -126q3 -137 11 -173
q11 -46 38 -59q30 -15 128 -15q61 0 104.5 -43t43.5 -105q0 -61 -43.5 -104.5t-104.5 -43.5q-82 1 -109 4zM1743 -478q-34 21 -50 58q-22 50 -3 101q20 51 70 73q104 48 273 80q122 23 299 -6q54 -9 86 -54q32 -44 23 -98t-54 -86q-44 -32 -98 -23q-132 22 -209 6
q-121 -20 -212 -61q-26 -11 -54 -11q-39 0 -71 21z" />
    <glyph glyph-name="yeye" unicode="&#xfef4;&#xfef4;" horiz-adv-x="1728" 
d="M1733 296q62 0 105 -43t43 -105q0 -61 -43 -105q-43 -43 -105 -43q-156 0 -264 94q-20 15 -39 34q-109 -128 -547 -128q-61 0 -105 43q-43 44 -43 105q0 62 43 105q44 43 105 43q279 7 338.5 68.5t46.5 171.5q-4 32 -7 70l-3 34l-3 33q-3 43 -5 61q-6 62 34 109
q39 47 100 53t108 -34q48 -39 53 -100q2 -21 6 -66q18 -230 55 -315q38 -85 127 -85zM851 296q62 0 105 -43t43 -105q0 -61 -43 -105q-43 -43 -105 -43q-156 0 -264 94q-20 15 -39 34q-109 -128 -547 -128q-61 0 -105 43q-43 44 -43 105q0 62 43 105q44 43 105 43
q279 7 338.5 68.5t46.5 171.5q-4 32 -7 70l-3 34l-3 33q-3 43 -5 61q-6 62 34 109q39 47 100 53t108 -34q48 -39 53 -100q2 -21 6 -66q18 -230 55 -315q38 -85 127 -85zM1010 -489q-34 21 -50 58q-22 50 -3 101q20 51 70 73q104 48 273 80q122 23 299 -6q54 -9 86 -54
q32 -44 23 -98t-54 -86q-44 -32 -98 -23q-132 22 -209 6q-121 -20 -212 -61q-26 -11 -54 -11q-39 0 -71 21zM67 -555q-34 21 -50 58q-22 50 -3 101q20 51 70 73q104 48 273 80q122 23 299 -6q54 -9 86 -54q32 -44 23 -98t-54 -86q-44 -32 -98 -23q-132 22 -209 6
q-121 -20 -212 -61q-26 -11 -54 -11q-39 0 -71 21z" />
    <glyph glyph-name="yeye1" unicode="&#xfef3;&#xfef4;" horiz-adv-x="1732" 
d="M895 0q-61 0 -105 43q-43 44 -43 105q0 62 43 105q44 43 105 43q165 0 240 14q106 20 141 78q9 14 11 50q3 48 -10 113q-25 132 -96 278q-26 55 -6 113t75 85q56 27 114 6q58 -20 84 -75q13 -26 25 -54q16 -37 31 -74q37 -100 57 -191q58 -259 -32 -406
q-94 -153 -293 -204q-76 -19 -174 -25q-39 -3 -86 -4h-81zM865 296q62 0 105 -43t43 -105q0 -61 -43 -105q-43 -43 -105 -43q-156 0 -264 94q-20 15 -39 34q-109 -128 -547 -128q-61 0 -105 43q-43 44 -43 105q0 62 43 105q44 43 105 43q279 7 338.5 68.5t46.5 171.5
q-4 32 -7 70l-3 34l-3 33q-3 43 -5 61q-6 62 34 109q39 47 100 53t108 -34q48 -39 53 -100q2 -21 6 -66q18 -230 55 -315q38 -85 127 -85zM925 -516q-34 21 -50 58q-22 50 -3 101q20 51 70 73q104 48 273 80q122 23 299 -6q54 -9 86 -54q32 -44 23 -98t-54 -86
q-44 -32 -98 -23q-132 22 -209 6q-121 -20 -212 -61q-26 -11 -54 -11q-39 0 -71 21zM46 -570q-34 21 -50 58q-22 50 -3 101q20 51 70 73q104 48 273 80q122 23 299 -6q54 -9 86 -54q32 -44 23 -98t-54 -86q-44 -32 -98 -23q-132 22 -209 6q-121 -20 -212 -61
q-26 -11 -54 -11q-39 0 -71 21z" />
    <glyph glyph-name="uni0621" unicode="&#x621;" horiz-adv-x="1019" arabic-form="isolated" 
d="M96 -124q-21 35 -11 74q11 40 46 61q110 65 225 122q-124 92 -142 241q-13 113 44 210q56 95 158 142q105 50 223 21q121 -29 190 -123q24 -33 18 -73q-6 -41 -39 -65t-74 -18q-40 6 -65 39q-26 36 -77 48q-50 12 -93 -8q-46 -21 -70 -62t-19 -88q7 -58 55 -98
q17 -15 40 -26q16 -8 33 -14q34 -11 60 -9q24 2 85 21q54 18 106 32q39 11 74 -9q36 -20 47 -59t-8 -75q-20 -35 -59 -47q-20 -5 -41 -12l-19 -6l-18 -6l-19 -6q-144 -49 -307 -130q-61 -30 -121 -63q-45 -25 -87 -49q-23 -14 -50 -14q-56 0 -85 49z" />
    <glyph glyph-name="uni0627" unicode="&#x627;" horiz-adv-x="536" arabic-form="isolated" 
d="M264 -52q-61 7 -100 54q-38 48 -32 109q37 336 21 713q-9 230 -55 707q-6 62 33 109t100 53t109 -33q47 -39 53 -100q92 -951 34 -1481q-6 -56 -49 -94q-42 -38 -98 -38z" />
    <glyph glyph-name="uni0627.fina" unicode="&#x627;" horiz-adv-x="624" arabic-form="final" 
d="M516 4q-69 8 -125 30q-73 30 -125 85q-69 72 -95 183q-21 88 -20 498v94v96q-1 107 -3 189q-5 209 -23 326q-9 61 27 111q37 49 97 58q61 9 110 -27q50 -37 59 -97q20 -132 26 -353q2 -87 3 -200v-328q0 -74 1 -126q3 -137 11 -173q11 -46 38 -59q30 -15 128 -15
q61 0 104.5 -43t43.5 -105q0 -61 -43.5 -104.5t-104.5 -43.5q-82 1 -109 4z" />
    <glyph glyph-name="uni062D" unicode="&#x62d;" horiz-adv-x="1647" arabic-form="isolated" 
d="M298 -659q-121 91 -185 221q-65 130 -65 282q0 381 400 630q116 72 310 146q154 58 363 102q-172 69 -318 122q-153 56 -230 56h-5l-7 -1q-11 0 -23 -2q-33 -4 -61 -15q-87 -31 -110 -110q-16 -59 -70 -88q-54 -30 -113 -13q-59 16 -89 70t-13 113q50 173 207 267
q128 75 284 75q149 0 369 -101q154 -71 424 -235q56 -34 80 -48q37 -22 57 -60q19 -39 15 -82t-31 -77t-67 -48q-58 -21 -182 -61l-40 -14l-41 -13l-83 -28q-93 -32 -166 -61q-185 -72 -303 -145q-156 -97 -218 -209q-43 -77 -43 -170q0 -178 152 -279q123 -83 276 -83
q248 0 561 183q53 31 112 15t90 -69t16 -112q-16 -60 -69 -90q-175 -102 -317 -153q-197 -70 -393 -70q-269 0 -474 155z" />
    <glyph glyph-name="uni062D.init" unicode="&#x62d;" horiz-adv-x="1640" arabic-form="initial" 
d="M-94 43q-43 44 -43 105q0 62 43 105q44 43 105 43q302 0 625 73q379 86 609 239q-60 8 -175 30q-39 8 -104 20l-52 10l-52 11q-254 48 -290 42q-76 -12 -91 -27q-22 -22 -48 -125q-15 -59 -68 -91q-52 -31 -112 -17q-59 15 -91 68q-31 53 -17 112q33 132 100 219
q87 113 265 151q189 41 969 -191q28 -9 39 -12q78 -23 100 -102t-32 -139q-267 -296 -757 -446q-396 -121 -818 -121q-61 0 -105 43z" />
    <glyph glyph-name="uni062D.medi" unicode="&#x62d;" horiz-adv-x="1701" arabic-form="medial" 
d="M1706 298q61 0 105 -43q43 -44 43 -105q0 -62 -43 -105q-44 -44 -105 -44q-420 0 -602 242q-515 -243 -1107 -243q-61 0 -105 43q-43 44 -43 105q0 62 43 105q44 43 105 43q285 0 619 83q370 90 605 239q-28 1 -126 19q-34 6 -95 17l-52 10l-53 10q-279 53 -337 47
q-65 -6 -92 -38q-18 -22 -35 -86q-16 -60 -68 -91q-53 -32 -112 -17q-60 15 -91 68q-32 52 -17 112q29 113 88 191q87 113 265 151q189 41 969 -191q27 -8 39 -12q80 -24 101 -105q21 -80 -37 -140q-88 -90 -201 -169q58 -53 158 -77q79 -19 181 -19z" />
    <glyph glyph-name="uni062D.fina" unicode="&#x62d;" horiz-adv-x="1600" arabic-form="final" 
d="M1599 296q62 0 105 -43q44 -44 44 -105t-44 -105q-43 -43 -105 -43q-283 0 -443 132q-124 102 -164 271q-213 -81 -343 -161q-156 -97 -218 -209q-43 -77 -43 -170q0 -178 152 -279q123 -83 276 -83q248 0 561 183q53 31 112 15t90 -69t16 -112q-16 -60 -69 -90
q-175 -102 -317 -153q-197 -70 -393 -70q-269 0 -474 155q-121 91 -185 221q-65 130 -65 282q0 381 400 630q116 72 310 146q154 58 313 102q-122 69 -268 122q-153 56 -230 56h-5l-7 -1q-11 0 -23 -2q-33 -4 -61 -15q-87 -31 -110 -110q-16 -59 -70 -88q-54 -30 -113 -13
q-59 16 -89 70t-13 113q50 173 207 267q128 75 284 75q149 0 369 -101q154 -71 424 -235q56 -34 80 -48q37 -22 57 -60q19 -39 15 -82t-31 -77t-67 -48q-58 -21 -182 -61l-7 -3q14 -101 82 -149q78 -55 242 -55z" />
    <glyph glyph-name="uni062F" unicode="&#x62f;" horiz-adv-x="1203" arabic-form="isolated" 
d="M179 54q-56 26 -77 84q-22 57 4 113t84 77q57 21 113 -5q78 -36 192 -36q113 -1 204 35q41 16 71 38q40 28 57 63q-1 10 -6 26q-6 20 -17 45q-30 66 -88 144q-135 181 -322 313q-50 36 -60 96q-11 61 25 111q35 50 96 61q60 10 110 -26q247 -174 413 -412
q200 -285 125 -465q-76 -184 -296 -270q-142 -56 -309 -56q-180 0 -319 64z" />
    <glyph glyph-name="uni0631" unicode="&#x631;" horiz-adv-x="1002" arabic-form="isolated" 
d="M29 -658q-29 54 -11 113q18 58 72 87q256 136 372 346q141 254 141 709q0 62 43 105q43 44 105 44q61 0 105 -44q43 -43 43 -105q0 -522 -170 -840q-159 -295 -500 -477q-32 -17 -69 -17q-89 0 -131 79z" />
    <glyph glyph-name="uni0631.fina" unicode="&#x631;" horiz-adv-x="1035" arabic-form="final" 
d="M34 -669q-34 51 -22 112q12 60 63 94q8 5 25 16l16 10l16 11q20 13 36 24q44 31 81 63q100 84 170 187q193 288 158 727q-5 61 35 108q39 46 100 52q61 5 108 -35q47 -39 52 -100q11 -117 38 -192q11 -29 23 -51q10 -17 20 -29q29 -32 83 -32q61 0 105 -43
q43 -43 43 -105q0 -61 -43 -105q-44 -43 -105 -43q-116 0 -206 51q-55 -205 -170 -374q-91 -134 -218 -242q-47 -39 -100 -77q-20 -14 -43 -30l-20 -12l-18 -12l-21 -14q-38 -25 -82 -25q-80 0 -124 66z" />
    <glyph glyph-name="uni0633" unicode="&#x633;" horiz-adv-x="2692" arabic-form="isolated" 
d="M484 -612q-154 61 -260 171q-192 200 -181 495q9 250 213 570q33 52 93 65t112 -20t65 -93t-20 -112q-161 -252 -167 -421t99 -278q135 -141 372 -141q110 0 210 44q118 51 181 151q137 214 -4 607l-11 28l-11 27q-26 65 -38 92l-4 8q-26 56 -4 114q21 57 76 83
q56 26 114 5q57 -21 83 -77l5 -11q36 -79 64 -155q58 -140 105 -193q47 -54 114 -54q82 0 110 82q22 65 22 241v30q1 61 44 104q44 43 105 43q62 -1 105 -44t43 -105v-30q1 -318 124 -318q134 0 115 162q-7 62 -36 151q-12 35 -28 78l-14 38l-14 36q-21 57 4 113t82 78
t113 -3t78 -82q11 -29 21 -59q13 -39 24 -78q29 -100 40 -191q29 -242 -69 -384q-45 -65 -113 -104q-91 -52 -214 -52q-158 0 -261 102q-88 -82 -221 -102q-99 -14 -188 12q-13 -199 -111 -352q-108 -168 -299 -256q-162 -75 -342 -75q-173 0 -326 60z" />
    <glyph glyph-name="uni0633.init" unicode="&#x633;" horiz-adv-x="1658" arabic-form="initial" 
d="M347 86l-15 19q-143 -105 -330 -105q-61 0 -105 43q-43 43 -43 105q0 61 43 105q44 43 105 43q146 0 230 131q30 49 50 112q15 47 23 96v1q10 60 60 96t110 26q55 -8 90 -50t35 -96q0 -15 -2 -24q-4 -17 -11 -48l-12 -51q-14 -61 -18 -99q-9 -107 61 -119
q131 -20 175 140q16 56 21 134q2 27 2 60v37l1 10q0 61 42 104t103 43q61 -1 102 -44t41 -105v-5q-1 -125 8 -228q5 -53 31 -95q28 -44 62 -44q136 0 97 213q-11 64 -36 143q-18 56 -46 128q-22 58 3 114t82 78q58 22 114 -3t78 -83q86 -224 105 -377q27 -216 -62 -346
q-45 -66 -116 -105q-93 -51 -222 -51q-152 0 -256 105q-10 10 -20 22q-131 -141 -309 -141t-271 111z" />
    <glyph glyph-name="uni0633.medi" unicode="&#x633;" horiz-adv-x="1889" arabic-form="medial" 
d="M312 111q-143 -111 -312 -111q-61 0 -105 44q-43 43 -43 104q0 62 43 105q44 44 105 43q140 1 226 138q31 50 55 119q9 26 18 56q4 12 7 25l4 12l3 11q15 58 67 89q53 31 111 16q58 -14 84 -66q25 -50 9 -112q-3 -14 -11 -41l-6 -22l-7 -23q-15 -56 -18 -92
q-10 -104 72 -114q79 -10 128 44q73 83 117 330q10 60 60 95t110 25t94 -60q34 -49 24 -110q-5 -32 -8 -51q-4 -30 -7 -54q-6 -61 -1 -103q14 -112 106 -112q94 0 113 87q13 56 -2 254q-5 59 33 105t97 53t106 -29q48 -35 58 -94q38 -234 77 -299q26 -41 67 -59
q39 -16 103 -18q64 2 107 -42q44 -43 44 -104q0 -62 -44 -105q-43 -44 -107 -45q-216 1 -351 140q-9 -12 -20 -23q-108 -117 -281 -117q-174 0 -280 125l-6 7q-130 -133 -337 -133q-205 0 -302 112z" />
    <glyph glyph-name="uni0633.fina" unicode="&#x633;" horiz-adv-x="2889" arabic-form="final" 
d="M500 -610q-154 61 -260 171q-193 200 -181 495q9 248 205 555q33 52 93 65t111 -20q52 -33 65 -93q14 -60 -19 -112q-153 -238 -159 -406q-6 -169 99 -278q135 -141 372 -141q36 0 73 5q50 7 95 23q124 41 192 140q146 212 12 643q-20 52 -47 135q-19 57 8 111
q26 54 83 74q57 21 112 -5q55 -25 76 -81q25 -66 46 -130q45 -117 90 -174q49 -62 114 -71q39 -6 65 2q9 2 16 7l5 3l4 3q10 9 20 25q14 21 25 52q29 84 32 227q2 61 46 104q45 42 106 41q61 -2 103 -45t42 -104v-3q-4 -152 16 -225q26 -92 94 -92q87 0 104 78
q12 57 -10 220l-6 41q-8 60 29 109q36 48 96 57q61 9 110 -27t59 -96l6 -41q35 -216 125 -294q32 -27 70 -37q13 -3 28 -4l12 -1h10q62 0 105 -43q44 -44 44 -105q0 -62 -44 -105q-43 -43 -105 -43q-199 0 -336 133l-4 -6q-48 -56 -114 -89q-88 -44 -200 -44
q-146 0 -244 101l-8 8l-20 -18q-44 -38 -99 -60q-70 -28 -152 -28q-35 0 -72 5q-42 6 -82 20q-12 -231 -126 -396q-105 -153 -282 -230q-150 -66 -322 -66q-173 0 -326 60z" />
    <glyph glyph-name="uni0635" unicode="&#x635;" horiz-adv-x="2916" arabic-form="isolated" 
d="M2168 269q63 5 129 24q79 23 137 58q69 42 97 95q19 37 19 83q0 89 -91 124q-29 12 -64 16q-12 2 -23 3h-11q-300 0 -530 -379q136 -41 337 -24zM406 -564q-153 82 -240 236q-106 186 -87 426q17 231 145 445q31 52 91 67q59 15 112 -16q53 -32 68 -91q15 -60 -17 -112
q-88 -149 -103 -305q-15 -155 49 -268q95 -168 336 -168q18 0 37 1q26 2 52 5q67 7 128 25q170 49 248 167q151 227 -51 702q-23 54 -2 109q20 56 74 82q53 26 109 8q57 -18 85 -70q82 -147 145 -221q95 155 208 264q253 246 568 246h2q179 0 313 -98q171 -125 171 -341
q0 -146 -80 -264q-65 -98 -180 -168q-101 -62 -230 -95q-48 -12 -96 -20q-36 -6 -68 -8q-368 -32 -608 103q-2 -226 -112 -393q-118 -178 -342 -264q-96 -37 -205 -53q-82 -13 -166 -13q-200 0 -354 82z" />
    <glyph glyph-name="uni0635.init" unicode="&#x635;" horiz-adv-x="1960" arabic-form="initial" 
d="M1019 264q32 -3 67 -3q14 0 29 -1h34q65 0 137 15q85 18 155 53q152 75 176 209q3 15 -4 38q-8 27 -28 51q-60 68 -187 62q-172 -8 -344 -167q-108 -99 -187 -235q67 -17 152 -22zM540 -160q-59 16 -89 70t-13 113q21 72 45 139l-19 19l-7 9q-74 -88 -181 -136
q-120 -54 -276 -54q-61 0 -105 44q-43 43 -43 104q0 62 43 105q44 44 105 43q108 1 175 39q23 13 41 31q7 6 13 13l5 6l3 5q60 80 70 236q1 30 3 61q4 60 48 100q45 40 105 38t102 -46q41 -43 41 -104l-2 -58q0 -86 24 -148q95 153 222 270q252 233 532 245q269 12 423 -163
q63 -73 90 -162t11 -175q-51 -280 -337 -422q-198 -98 -423 -98h-44q-21 0 -41 1q-50 1 -95 5q-121 10 -222 42q-11 -34 -21 -70q-13 -49 -54 -79q-39 -29 -88 -29q-21 0 -41 6z" />
    <glyph glyph-name="uni0635.medi" unicode="&#x635;" horiz-adv-x="1962" arabic-form="medial" 
d="M898 315q2 -2 4 -3q8 -5 18 -9q30 -11 79 -17q36 -5 83 -6q34 0 78 1q59 11 120 29q46 13 86 30q52 21 92 45q104 65 116 149q9 62 -30 104q-49 52 -147 44q-125 -9 -262 -94q-126 -78 -197 -175q-25 -36 -36 -65q-4 -11 -6 -20q-1 -7 -1 -11q1 -1 3 -2zM925 -32
q-236 14 -393 134q-56 43 -100 100q-154 -200 -432 -202q-61 0 -104.5 43.5t-43.5 105.5q0 61 43.5 104.5t104.5 42.5q69 3 98.5 13t68.5 43q107 90 125 348q4 60 49 100t106 38q60 -3 101 -47t40 -105q-3 -146 41 -242q12 34 31 68q91 172 296 308q214 142 426 158
q241 18 387 -138q136 -147 106 -350q-16 -106 -78 -195q86 1 167 1q61 0 104.5 -43.5t43.5 -105.5q0 -61 -43.5 -104.5t-106.5 -42.5q-308 -1 -721 -13q-7 0 -27 -1h-14q-112 -20 -215 -20q-31 0 -60 2z" />
    <glyph glyph-name="uni0635.fina" unicode="&#x635;" horiz-adv-x="2939" arabic-form="final" 
d="M2054 289q345 -11 460 99q20 19 31 43q17 35 17 82q0 55 -34 100q-35 46 -91 66q-76 27 -166 3q-35 -9 -71 -26q-28 -13 -55 -30q-174 -107 -279 -304l-3 -7l46 -10l2 -1q19 -4 41 -7q48 -6 102 -8zM397 -558q-151 82 -239 237q-109 192 -94 439q14 247 147 469
q31 53 91 68t112 -17q53 -31 68 -91q15 -59 -17 -112q-91 -152 -104 -320q-14 -168 55 -289q96 -171 327 -171q129 0 243 46q137 55 207 160q159 234 -14 695q-10 24 -19 49q-20 57 5 112t82 77q57 21 112 -3q56 -24 78 -81l18 -45q56 -134 146 -218l7 14q142 268 385 417
q136 85 278 105q141 21 269 -25q146 -51 235 -175q88 -123 87 -272q0 -117 -49 -214l33 -1h93q62 0 105 -43q43 -44 43 -105t-43 -105q-43 -43 -105 -43h-94q-301 1 -460 -8q-142 -7 -235 -7q-136 2 -245 20q-192 26 -341 107q-6 -241 -125 -417t-332 -265q-96 -40 -202 -57
q-81 -14 -162 -14q-195 0 -346 83z" />
    <glyph glyph-name="uni0637" unicode="&#x637;" horiz-adv-x="1924" arabic-form="isolated" 
d="M836 299q255 -15 476 69q254 96 254 267q0 7 -1 15q-1 11 -3 21q-5 27 -17 48q-34 59 -114 59q-151 0 -341 -180q-72 -67 -146 -157q-55 -66 -108 -142zM1849 724q25 -127 -17 -248q-42 -120 -145 -218q-89 -84 -212 -143q-48 -23 -99 -41q-39 -14 -79 -25
q-280 -76 -640 -30q-22 -39 -44 -79q-43 -76 -130 -76q-38 0 -72 19q-52 29 -70 85q-17 57 9 110q-105 26 -208 61q-59 19 -86 74t-8 113q20 59 75 86q54 27 113 8q136 -46 273 -75l30 46q99 574 14 1129q-9 61 28 110q36 50 97 59q60 9 110 -27q49 -37 59 -97
q56 -370 37 -751q51 49 103 91q121 98 284 140q180 45 323 -6q209 -76 255 -315z" />
    <glyph glyph-name="uni0637.init" unicode="&#x637;" horiz-adv-x="1601" arabic-form="initial" 
d="M845 337q260 55 353 157q33 35 44 76q5 14 6 30l1 13v10q0 138 -139 138q-107 0 -232 -94q-95 -71 -193 -190q-64 -79 -127 -174q173 9 287 34zM1421 937q124 -122 124 -314q0 -265 -242 -425q-149 -98 -396 -151q-187 -40 -522 -46q-20 -39 -38 -77q-18 -40 -56 -63
q-36 -23 -78 -23q-33 0 -63 14q-43 20 -66 61t-19 87h-64q-61 0 -105 43q-43 43 -43 105q0 61 43 105q44 43 105 43h205q34 59 69 115l2 13q79 428 -21 1086q-10 60 27 110q36 49 97 59q60 9 110 -27q49 -37 59 -98q68 -445 64 -722q247 225 497 225q189 0 311 -120z" />
    <glyph glyph-name="uni0637.medi" unicode="&#x637;" horiz-adv-x="1583" arabic-form="medial" 
d="M1216 609q9 62 -31 104q-48 52 -147 45q-105 -8 -236 -94t-216 -203q-38 -53 -54 -97q-7 -17 -9 -30q-2 -11 -2 -17q2 -2 4 -3q4 -2 8 -5q11 -5 27 -10q185 11 383 50q92 19 173 91q86 78 100 169zM1578 296q61 0 104 -43q44 -44 44 -105q0 -62 -44 -105
q-43 -43 -104 -43q-306 0 -719 -12q-7 -1 -27 -1l-23 -1l-25 -1q-30 -1 -55 -1q-110 0 -194 17q-124 -6 -354 -3h-44l-45 1q-51 1 -93 1q-61 0 -105 43q-43 43 -43 105q0 61 43 105q44 43 105 43h95l46 -1l45 -1h40q-9 114 62 247l9 15q41 390 -44 949q-9 60 27 110
q36 49 97 58q61 10 110 -27q50 -36 59 -97q59 -388 63 -658q89 63 180 103q117 51 228 59q240 19 386 -138q137 -146 107 -349q-22 -146 -123 -271q110 1 192 1z" />
    <glyph glyph-name="uni0637.fina" unicode="&#x637;" horiz-adv-x="1924" arabic-form="final" 
d="M1519 610q9 62 -30 104q-49 52 -147 45q-106 -8 -237 -94t-215 -203q-38 -53 -55 -97q-6 -17 -9 -30q-2 -11 -1 -17l3 -3q2 -1 5 -3q8 -4 18 -8q182 4 395 46q93 19 173 91q86 78 100 169zM1927 296q61 0 104 -43q44 -44 44 -105q0 -62 -44 -105q-43 -43 -104 -43
q-358 0 -770 -12q-8 -1 -28 -1l-23 -1l-25 -1q-29 -1 -55 -1q-126 0 -218 22q-377 -2 -691 142q-56 26 -77 84q-22 57 4 113t83 77q58 22 113 -4q134 -61 282 -90q2 100 63 213l8 15q43 402 -44 968q-9 61 27 110q37 50 97 59q61 9 111 -27q49 -36 58 -97q60 -390 63 -679
q90 64 181 104q116 51 227 59q241 19 387 -138q136 -146 106 -349q-21 -146 -123 -271q132 1 244 1z" />
    <glyph glyph-name="uni0639" unicode="&#x639;" horiz-adv-x="1532" arabic-form="isolated" 
d="M224 -566q-189 193 -164 463q23 241 163 421q118 152 314 255q-84 76 -122 179q-38 105 -22 218q22 164 139 278q116 114 283 136q319 42 529 -201q40 -46 35 -107q-4 -62 -50 -102q-47 -40 -108 -35q-61 4 -102 51q-105 122 -265 100q-69 -9 -114 -52t-54 -108
q-10 -73 40 -127q17 -19 41 -34q9 -6 19 -11q7 -4 14 -7q85 -37 237 -18q100 18 212 30q61 6 109 -32t54 -99q7 -61 -31 -109t-99 -55l-53 -7l-53 -8l-47 -7l-48 -6q-240 -44 -404 -129q-295 -152 -322 -441q-12 -134 81 -229q66 -68 170 -100q104 -33 226 -24q89 7 176 36
q115 38 219 112l4 3q50 36 110 26q61 -10 97 -60q35 -50 25 -111q-10 -60 -60 -96l-3 -2q-141 -102 -301 -155q-122 -40 -246 -48q-35 -3 -71 -3q-348 0 -558 215z" />
    <glyph glyph-name="uni0639.init" unicode="&#x639;" horiz-adv-x="1199" arabic-form="initial" 
d="M-104 43q-43 44 -43 105q0 62 43 105q44 43 105 43q100 0 162 1q-74 121 -70 261q4 158 105 284q100 126 259 173q164 49 322 -2q109 -34 225 -122q49 -38 58 -98q8 -61 -29 -110t-98 -57q-61 -9 -110 28q-82 63 -147 80q-66 18 -137 -3q-60 -18 -102 -64
q-48 -51 -50 -117q-1 -64 38 -115q40 -52 108 -76q85 -29 206 -15q48 5 109 19l55 12l55 14q59 14 112 -17q52 -31 67 -90q16 -59 -15 -111q-30 -53 -89 -69q-240 -67 -493 -87q-178 -15 -541 -15q-61 0 -105 43z" />
    <glyph glyph-name="uni0639.medi" unicode="&#x639;" horiz-adv-x="1232" arabic-form="medial" 
d="M494 558q75 -71 130 -98q73 42 145 121q70 76 93 134q-105 36 -256 25q-134 -10 -232 -49q57 -72 120 -133zM651 121l-41 -19q-232 -102 -609 -102q-61 0 -105 43q-43 44 -43 105q0 62 43 105q44 43 105 43q230 0 360 33q-76 73 -150 167q-56 69 -118 160q-36 53 -22 116
q13 63 69 95q341 203 689 160q131 -16 214 -83q32 -26 56 -59q18 -26 31 -54q36 -83 19 -180q-16 -97 -84 -190q-50 -70 -119 -135q115 -30 286 -30q62 0 105 -43t43 -105q0 -61 -43 -105q-43 -43 -105 -43q-340 0 -581 121z" />
    <glyph glyph-name="uni0639.fina" unicode="&#x639;" horiz-adv-x="1422" arabic-form="final" 
d="M649 670l23 -19l22 -20q26 -23 42 -38q37 13 83 33q54 24 102 50q126 69 156 127q-89 48 -266 21q-159 -23 -243 -77q26 -29 81 -77zM371 -683q-202 118 -284 335q-88 233 13 452q98 212 356 360q-110 110 -213 238q-42 51 -31 117t68 101q187 118 421 164q122 24 216 28
q137 5 239 -31q159 -56 193 -207q17 -76 -8 -153t-87 -138q-102 -100 -255 -185q76 -53 144 -75q84 -26 274 -26q61 0 105 -43q43 -44 43 -105q0 -62 -43 -105q-44 -44 -105 -44q-279 0 -432 66q-92 40 -238 148l-31 23l-23 17q-254 -124 -324 -275q-52 -112 -1 -233
q48 -112 153 -173q132 -78 304 -63q173 14 347 118q52 31 112 16q59 -15 91 -68q31 -53 16 -112q-15 -60 -68 -91q-272 -162 -550 -162q-222 0 -402 106z" />
    <glyph glyph-name="uni0643.init" unicode="&#x643;" horiz-adv-x="1338" arabic-form="initial" 
d="M1296 1988q39 -47 34 -108t-52 -101q-247 -209 -548 -355q-143 -69 -322 -136q94 -50 199 -135q127 -102 221 -217q112 -137 155 -268q58 -176 -11 -325q-109 -231 -388 -304q-98 -26 -225 -34q-50 -3 -109 -4l-52 -1h-198q-61 0 -105 43q-43 44 -43 105q0 62 43 105
q44 43 105 43q389 0 498 27q154 37 205 146q27 57 -20 151q-17 35 -43 73q-19 28 -41 55q-72 88 -172 169q-87 72 -161 110q-50 27 -70 81q-19 54 3 107q-17 -4 -34 -4q-47 0 -85 26q-39 28 -55 73q-20 58 7 114q26 55 84 75q314 109 497 198q260 127 474 308q47 40 108 35
t101 -52z" />
    <glyph glyph-name="uni0643.medi" unicode="&#x643;" horiz-adv-x="1126" arabic-form="medial" 
d="M1126 296q61 0 104 -43q44 -43 44 -105q0 -61 -44 -105q-43 -43 -104 -43q-264 -6 -485 231q-83 -122 -255 -179q-154 -52 -386 -52q-61 0 -105 43q-43 44 -43 105t43 105q44 43 105 43q193 0 302 40q40 15 66 34q18 14 28 29q25 37 12 108q-4 27 -15 59q-8 24 -19 49
l-4 12q-62 114 -184 362l-53 109q-31 62 -3 126l-21 -8q-24 -8 -48 -8q-47 0 -86 27t-55 73q-20 58 7 113t85 75q600 208 1018 562q47 40 108 35t101 -52q39 -47 34 -108t-52 -101q-380 -322 -894 -533q48 -22 72 -70l54 -110q220 -449 339 -607q100 -133 196 -185
q66 -37 138 -31z" />
    <glyph glyph-name="uni0643" unicode="&#x643;" horiz-adv-x="2024" arabic-form="isolated" 
d="M487 58q-262 69 -373 228q-69 99 -75 223q-6 115 43 247q21 58 77 84q55 25 113 4t83 -77q26 -56 5 -113q-32 -85 -24 -143q2 -20 10 -36q2 -6 6 -11l3 -5l2 -3q49 -70 206 -111q176 -47 464 -47q406 0 534 129q38 39 58 92q30 79 29 199q-4 404 -77 784q-12 60 23 111
q34 51 95 63q60 11 111 -23q51 -35 62 -95q78 -407 82 -837q3 -325 -173 -502q-117 -119 -316 -172q-173 -45 -428 -45q-326 0 -540 56zM747 556q-14 25 -6 52q7 28 32 42l128 73l-3 2q-52 32 -80 90q-29 58 -23 121q6 57 40 108q33 51 86 81q101 57 218 24q27 -8 41 -33
t6 -53q-8 -27 -33 -41t-52 -6q-62 17 -112 -11q-51 -29 -56 -83q-5 -53 37 -79q34 -21 88 -9q38 7 115 45q25 12 52 4q26 -9 39 -34t6 -51q-8 -27 -32 -41l-396 -227q-16 -9 -35 -9q-40 0 -60 35z" />
    <glyph glyph-name="uni0643.fina" unicode="&#x643;" horiz-adv-x="2076" arabic-form="final" 
d="M2071 296q61 0 105 -43q43 -43 43 -105q0 -61 -43 -105q-44 -43 -105 -43q-194 0 -310 117q-28 28 -51 63l-30 -24q-211 -154 -651 -154q-326 0 -540 56q-262 69 -373 228q-69 99 -75 223q-6 115 43 247q21 58 77 84q55 25 113 4t83 -77q26 -56 5 -113q-32 -85 -24 -143
q2 -20 10 -36q2 -6 6 -11l3 -5l2 -3q49 -70 206 -111q176 -47 464 -47q343 0 475 98q52 38 79 95q38 82 38 218q0 12 2 24q-4 246 5 737l1 48q1 62 45 104q44 43 105 42q62 -1 104 -46q43 -44 42 -105l-1 -48q-10 -543 -2 -813v-128q1 -43 5 -76q11 -89 44 -122l4 -3l5 -5
q7 -5 17 -10q29 -12 74 -12zM747 556q-14 25 -6 52q7 28 32 42l128 73l-3 2q-52 32 -80 90q-29 58 -23 121q6 57 40 108q33 51 86 81q101 57 218 24q27 -8 41 -33t6 -53q-8 -27 -33 -41t-52 -6q-62 17 -112 -11q-51 -29 -56 -83q-5 -53 37 -79q34 -21 88 -9q38 7 115 45
q25 12 52 4q26 -9 39 -34t6 -51q-8 -27 -32 -41l-396 -227q-16 -9 -35 -9q-40 0 -60 35z" />
    <glyph glyph-name="uni0644" unicode="&#x644;" horiz-adv-x="1483" arabic-form="isolated" 
d="M273 -532q-229 181 -233 502q-2 129 35 273q27 109 75 219q24 57 81 79q57 23 113 -1q57 -24 80 -81q22 -57 -2 -114q-29 -68 -49 -136q-28 -93 -35 -176q-18 -224 119 -332q96 -76 262 -70q168 6 274 88q102 79 121 264q8 72 3 171q-1 39 -5 89l-7 87q-8 89 -10 131
q-13 219 -45 652q-10 136 -20 278q-4 44 -7 84q-1 13 -2 24v9q-5 61 35 108q40 46 101 51t108 -35t51 -101v-3q1 -3 1 -7q1 -10 2 -23q3 -40 6 -85q11 -142 21 -279q32 -435 45 -655q2 -38 9 -123l5 -52l4 -53q4 -60 6 -109q4 -126 -10 -224q-38 -285 -230 -434
q-182 -141 -446 -149l-30 -1q-256 0 -426 134z" />
    <glyph glyph-name="uni0644.init" unicode="&#x644;" horiz-adv-x="569" arabic-form="initial" 
d="M-104 43q-43 44 -43 105q0 62 43 105q44 43 105 43q180 0 215 76q18 40 27 150q11 133 3 323q-15 356 -73 659q-12 60 23 111q34 51 94 62q61 12 111 -23q51 -34 63 -94q62 -325 78 -702q19 -445 -56 -610q-20 -41 -49 -78q-37 -46 -89 -81q-133 -89 -347 -89
q-61 0 -105 43z" />
    <glyph glyph-name="uni0644.medi" unicode="&#x644;" horiz-adv-x="674" arabic-form="medial" 
d="M675 296q61 0 105 -43q43 -43 43 -105q0 -61 -43 -105q-44 -43 -105 -43q-180 0 -295 107q-75 -70 -188 -93q-44 -8 -98 -11q-22 -1 -48 -2h-48q-61 0 -105 43q-43 44 -43 105q0 62 43 105q44 43 105 43q156 0 184 30q8 8 14 20q9 15 16 37q19 59 22 155v56q1 35 0 49
q-7 277 3 826l1 48q1 62 45 104q44 43 106 42q61 -1 104 -46q42 -44 41 -105l-1 -48q-10 -543 -2 -813q2 -61 0 -114q1 -73 10 -120q12 -65 39 -92l4 -3l5 -5q7 -5 17 -10q29 -12 69 -12z" />
    <glyph glyph-name="uni0644.fina" unicode="&#x644;" horiz-adv-x="1573" arabic-form="final" 
d="M1572 298q62 0 105 -43q43 -44 43 -105t-43 -105q-43 -43 -105 -43q-86 0 -156 19q-3 -48 -9 -91q-38 -285 -230 -434q-182 -141 -446 -149l-30 -1q-256 0 -426 134q-229 181 -233 502q-2 129 35 273q27 109 75 219q24 57 81 79q57 23 113 -1q57 -24 80 -81
q22 -57 -2 -114q-29 -68 -49 -136q-28 -93 -35 -176q-18 -224 119 -332q96 -76 262 -70q168 6 274 88q102 79 121 264q8 72 3 171q-1 39 -5 89l-7 87q-8 89 -10 131q-13 219 -45 652q-10 136 -20 278q-4 44 -7 84q-1 13 -2 24v9q-5 61 35 108q40 46 101 51t108 -35t51 -101
v-3l1 -3v-4q1 -11 2 -23q3 -40 6 -85q11 -142 21 -278q32 -434 44 -655q10 -123 60 -164q35 -30 120 -30z" />
    <glyph glyph-name="uni0645" unicode="&#x645;" horiz-adv-x="1315" arabic-form="isolated" 
d="M859 293q26 -2 47 -1q16 1 28 4q35 8 48 56q13 46 0 109q-17 81 -59 127q-38 43 -82 43q-31 0 -71 -80q-23 -45 -42 -108q-15 -47 -28 -107q89 -35 159 -43zM180 -798q-42 36 -50 91q-16 106 -30 218q-19 153 -30 297q-29 392 2 653q11 87 92 120q82 32 149 -23
q44 -36 116 -82q32 121 76 209q69 136 169 196q77 47 167 47h1q215 -1 330 -229q73 -146 76 -318q2 -151 -65 -249q-26 -38 -61 -66q-28 -22 -59 -37q-73 -36 -169 -36q-156 0 -368 95q-85 38 -173 88q-2 -218 27 -497q10 -101 24 -204q5 -40 10 -78q5 -31 9 -59
q9 -61 -27 -110q-36 -50 -97 -59q-11 -2 -23 -2q-54 0 -96 35z" />
    <glyph glyph-name="uni0645.init" unicode="&#x645;" horiz-adv-x="1165" arabic-form="initial" 
d="M535 405q108 -131 196 -131q52 0 96 56q41 53 41 109q0 77 -38 139q-48 78 -130 61q-34 -7 -63 -46q-31 -41 -82 -147zM714 -22q-100 5 -199 60q-76 42 -147 111q-148 -149 -367 -149q-61 0 -105 44q-43 43 -43 105q0 61 43 104q44 44 105 44q99 0 162 66q50 53 125 211
l28 58q16 33 30 58q35 64 72 108q114 138 282 138q224 0 349 -197q85 -135 88 -295q3 -219 -117 -342q-123 -125 -284 -125z" />
    <glyph glyph-name="uni0645.medi" unicode="&#x645;" horiz-adv-x="1214" arabic-form="medial" 
d="M711 281q136 0 136 161q0 60 -40 120q-48 75 -125 75q-31 0 -61 -42q-27 -38 -77 -148l-11 -24l-12 -25q100 -117 190 -117zM1215 297q59 1 104 -41q44 -43 45 -104t-41 -106q-43 -44 -110 -45q-138 0 -239 78q-114 -95 -257 -95l-23 1q-178 10 -338 158
q-145 -144 -357 -144q-61 0 -105 43q-43 43 -43 105q0 61 43 105q44 43 105 43q94 0 155 66q48 52 120 209l27 59q16 32 30 58q34 64 69 108q114 139 282 139q226 0 345 -201q45 -75 65 -168q8 -34 11 -70q3 -26 4 -50q4 -86 39 -124l3 -2l4 -4q6 -5 13 -8q19 -10 49 -10z
" />
    <glyph glyph-name="uni0645.fina" unicode="&#x645;" horiz-adv-x="1288" arabic-form="final" 
d="M935 368q10 50 2 111q-9 69 -42 119q-30 46 -59 46q-79 0 -177 -128q-34 -45 -60 -92q-24 -42 -23 -51q83 -44 212 -56q45 -5 84 -4q34 1 39 4q14 9 24 51zM140 -796q-42 35 -51 89q-16 93 -29 194q-18 140 -29 278q-31 378 -8 690q7 88 87 124q81 37 151 -17
q29 -22 64 -46q37 103 116 200q97 117 213 177q139 72 263 36q128 -36 210 -169q63 -104 81 -239q17 -120 -10 -225h28h63q56 1 99 -43q44 -43 44 -105q0 -61 -44 -104q-43 -44 -100 -44h-60q-65 -1 -177 3q-42 1 -102 3l-106 4q-144 5 -299 59q-116 40 -234 107
q0 -242 28 -514q11 -98 24 -194q5 -38 11 -73q4 -28 8 -53q10 -61 -25 -111q-36 -50 -97 -60q-12 -2 -24 -2q-54 0 -95 35z" />
    <glyph glyph-name="uni0647" unicode="&#x647;" horiz-adv-x="1010" arabic-form="isolated" 
d="M207 67q-137 119 -137 309q0 105 42 199q16 35 39 72q9 14 20 30l10 14l9 13q14 20 20 29q34 51 94 63t111 -22q52 -34 64 -94t-22 -111l-13 -19l-13 -18q-65 -91 -65 -156q0 -73 61 -102q21 -11 47 -15q10 -1 19 -2h7l6 -1q17 0 42 5q33 7 60 18q75 33 75 96
q0 107 -126 269q-58 74 -127 137q-60 55 -108 83q-53 30 -70 89q-16 59 15 113q30 53 89 69q60 17 113 -14q167 -95 323 -296q79 -102 126 -202q61 -132 61 -248q0 -213 -184 -331q-130 -84 -289 -84q-176 0 -299 107z" />
    <glyph glyph-name="uni0647.init" unicode="&#x647;" horiz-adv-x="1580" arabic-form="initial" 
d="M473 438q36 -51 90 -85q66 24 114 67q60 52 75 120q20 87 4 153q-22 91 -111 116q-64 18 -131 -59q-24 -28 -44 -63q-17 -30 -22 -50q-34 -117 25 -199zM992 365q-24 -57 -62 -106q1 0 18 -1q8 -1 15 -2q9 -1 18 -1q51 -3 94 4q134 24 169 143q20 69 -32 150
q-56 86 -169 140q17 -169 -51 -327zM636 2q-57 16 -108 38q-115 -25 -266 -34q-103 -6 -263 -6q-61 0 -105 43q-43 44 -43 105t43 105q44 43 105 43h46q27 0 50 1q59 0 109 3q-88 149 -64 334q27 207 176 340q16 14 34 27q-37 27 -52 70q-16 45 -3 90q16 59 70 89t113 13
q56 -16 116 -35q83 -28 163 -59q216 -84 375 -184q183 -115 280 -245q129 -174 103 -364q-20 -145 -121 -247q-101 -103 -265 -143q-96 -24 -207 -24q-145 0 -286 40z" />
    <glyph glyph-name="uni0647.medi" unicode="&#x647;" horiz-adv-x="1056" arabic-form="medial" 
d="M538 695q-70 -40 -119 -155q-43 -103 -53 -225q185 36 222 167q17 62 -1 142q-7 30 -17 52q-5 9 -9 16q-4 6 -7 10q-7 -3 -16 -7zM668 -611q-215 57 -385 282q-63 84 -112 182q-41 81 -59 146h-117q-61 0 -105 44q-43 43 -43 105q0 61 43 104q44 44 105 44h52l21 -1
q7 201 85 374q88 200 241 285q90 49 178 45q89 -4 162 -61q104 -82 142 -247q35 -153 -3 -288q-32 -116 -110 -202q-102 -113 -275 -162q-13 -3 -44 -9l-24 -5q-14 -2 -20 -3q16 -64 69 -157q58 -101 110 -145q-42 260 141 427q146 132 338 148q62 5 108 -34q47 -40 52 -101
q6 -61 -34 -108q-40 -52 -131 -52q-137 -15 -200.5 -128t-1.5 -275q21 -40 16 -86q-6 -46 -36 -80q-44 -51 -111 -51q-17 0 -52 9z" />
    <glyph glyph-name="uni0647.fina" unicode="&#x647;" horiz-adv-x="1226" arabic-form="final" 
d="M813 264q-39 84 -62 200q-9 46 -17 103l-7 50l-6 50l-2 14l-2 15l-4 31q-5 37 -9 62q-112 -71 -199 -184q-56 -73 -79 -135q-10 -24 -13 -44q-2 -17 0 -27l1 -2l1 -3q3 -3 11 -8q7 -4 16 -7q13 -5 28 -9q40 -9 98 -10q61 0 104 -44t42 -106q-1 -61 -45 -104t-105 -42
q-176 2 -286 65q-126 73 -155 209q-43 202 147 448q164 212 369 305q66 30 128 26q48 -4 89 -27q59 -33 95 -103q13 -24 22 -52q3 -10 7 -22l4 -16q14 -58 31 -195q29 -239 72 -322q43 -84 135 -84q63 0 107 -43q43 -43 43 -105q0 -61 -43 -105q-44 -43 -107 -43
q-284 0 -409 264z" />
    <glyph glyph-name="uni0648" unicode="&#x648;" horiz-adv-x="1167" arabic-form="isolated" 
d="M790 236v13q0 124 -64 254q-73 150 -171 150q-43 0 -77 -35q-63 -64 -61 -184q2 -61 45 -98q67 -57 186 -40q11 2 22 2q76 0 120 -62zM156 -649q-41 33 -52 84q-14 60 19 112t93 65q164 37 304 142q150 112 220 265q-23 -12 -49 -16q-120 -17 -230 11q-110 27 -190 96
q-146 123 -150 318q-5 244 145 398q122 124 289 124q127 0 236 -72q108 -73 183 -208q113 -203 113 -421q0 -175 -70 -337q-64 -149 -182 -274q-228 -242 -554 -315q-16 -4 -33 -4q-51 0 -92 32z" />
    <glyph glyph-name="uni0648.fina" unicode="&#x648;" horiz-adv-x="1097" arabic-form="final" 
d="M465 618q-63 -64 -60 -184q1 -62 47 -90q30 -20 79 -31q64 -15 154 -15h89q-15 126 -74 232q-70 123 -158 123q-42 0 -77 -35zM1185 252q42 -43 41 -103q0 -62 -43 -105t-85 -43h-69q-14 -45 -33 -89q-64 -149 -181 -274q-228 -242 -555 -315q-16 -4 -32 -4q-51 0 -92 32
q-41 33 -53 84q-13 60 20 112t93 65q158 35 296 136q146 107 219 253h-34q-334 0 -479 166q-54 60 -78 140q-18 58 -20 121q-5 244 146 398q121 124 288 124q128 0 236 -72q108 -73 184 -208q96 -175 110 -374h34q50 -6 87 -44z" />
    <glyph glyph-name="uni0649" unicode="&#x649;" horiz-adv-x="1860" arabic-form="isolated" 
d="M416 -585q-355 180 -371 584q-7 163 46 348q40 140 111 284q28 55 86 74q58 20 113 -8q55 -27 75 -85q19 -59 -8 -114q-136 -272 -127 -487q9 -230 209 -331q183 -92 425 -39t364 212l4 5q-15 3 -35 5l-17 3l-15 2l-31 4l-32 4q-36 5 -65 11q-73 15 -126 38
q-192 85 -187 283q4 147 74 289q69 141 193 252q123 111 271 168q149 56 288 45q61 -5 101 -52t35 -108t-52 -101q-46 -40 -108 -35q-78 6 -169 -30q-90 -37 -168 -107q-163 -147 -168 -328q6 -3 16 -7q14 -6 32 -10q26 -7 64 -13l35 -5l35 -4l42 -6l43 -6q47 -8 81 -18
q134 -39 177 -142q34 -81 0 -175q-23 -64 -82 -142q-124 -162 -336 -255q-204 -91 -429 -91q-219 0 -394 88z" />
    <glyph glyph-name="uni0649.fina" unicode="&#x649;" horiz-adv-x="1715" arabic-form="final" 
d="M758 -661q-35 2 -69 6q-91 11 -174 35q-205 60 -329 188q-166 174 -155 437q4 105 40 256q14 59 35 134l18 67l19 64q18 60 25 86q17 60 71 90q53 29 112 13q59 -17 89 -71q30 -53 13 -112q-8 -28 -25 -89l-8 -28l-9 -28l-16 -59q-19 -67 -32 -119q-33 -136 -36 -216
q-6 -137 73 -219q71 -74 206 -111q103 -29 203 -29q222 0 395 84q55 27 89 57q14 11 23 22q7 9 11 16q-7 7 -16 15q-13 11 -32 23q-37 26 -135 79l-47 25l-46 26q-51 30 -87 56q-41 30 -64 56q-45 49 -47 108q-1 21 3 42q2 8 4 15q2 6 4 11q6 13 14 26q11 17 26 30
q41 37 103 44q30 2 74 -2q43 -4 163 -23l25 -4l27 -4q30 -4 55 -8q64 -10 118 -16q142 -17 247 -16q61 -1 104 -44q44 -44 44 -105t-44 -105q-43 -43 -104 -42q-56 -1 -173 26q-101 23 -188 52q110 -44 187 -115q84 -78 84 -152q0 -201 -261 -342q-245 -131 -556 -131
q-25 0 -51 1z" />
    <glyph glyph-name="uni066E.init" unicode="&#x66e;" horiz-adv-x="744" 
d="M2 0q-61 0 -105 43q-43 44 -43 105q0 62 43 105q44 43 105 43q165 0 240 14q106 20 141 78q9 14 11 50q3 48 -10 113q-25 132 -96 278q-26 55 -6 113t75 85q56 27 114 6q58 -20 84 -75q13 -26 25 -54q16 -37 31 -74q37 -100 57 -191q58 -259 -32 -406q-94 -153 -293 -204
q-76 -19 -174 -25q-39 -3 -86 -4h-81z" />
    <glyph glyph-name="uni066E.medi" unicode="&#x66e;" horiz-adv-x="748" 
d="M745 296q62 0 105 -43t43 -105q0 -61 -43 -105q-43 -43 -105 -43q-150 0 -258 84q-20 15 -39 34q-135 -118 -447 -118q-61 0 -105 43q-43 44 -43 105q0 62 43 105q44 43 105 43q91 0 148 9q83 12 110 43q41 45 27 188q-4 32 -7 70l-3 34l-3 33q-3 43 -5 61q-6 62 34 109
q39 47 100 53t108 -34q48 -39 53 -100q2 -21 6 -66q18 -230 55 -315q38 -85 121 -85z" />
    <glyph glyph-name="uni066E.fina" unicode="&#x66e;" horiz-adv-x="2313" 
d="M432 45q-230 95 -318 276q-88 182 -11 413q26 81 70 158q38 64 77 109q40 47 101 51t108 -36q46 -40 51 -101q4 -62 -36 -108q-55 -63 -89 -161q-40 -121 -4 -196q42 -87 186 -140q130 -48 282 -48q392 0 613 114q220 113 330 371q21 50 71 75q49 24 102 10
q53 -13 85 -58q31 -45 26 -100l-1 -9l-2 -20l-2 -21l-3 -42q-4 -49 -2 -87q4 -97 42 -139q30 -33 94 -48q49 -12 115 -12q62 -1 104 -43q43 -43 43 -105q0 -61 -43 -104q-44 -44 -105 -44q-286 0 -428 157q-43 48 -71 108q-91 -86 -205 -146q-287 -153 -763 -153
q-226 0 -417 79z" />
    <glyph glyph-name="uni066F.init" unicode="&#x66f;" horiz-adv-x="960" 
d="M460 927h-3q-32 1 -67 -52t-47 -122q-7 -39 1 -57q3 -6 9 -10l4 -3l4 -3q36 -30 120 -49q92 -22 157 -7q0 94 -38 170q-27 55 -78 105q-29 29 -58 29zM0 0q-61 0 -105 43q-43 44 -43 105q0 62 43 105q44 43 105 43l23 1h84q72 2 133 7q170 13 262 51q-83 1 -168 27
q-86 28 -141 73q-130 105 -130 281q0 41 7 84q25 142 106 248q80 106 191 141q92 30 187 3q94 -28 173 -107q148 -147 183 -392q35 -253 -76 -423q-123 -188 -409 -254q-104 -24 -233 -31q-48 -3 -104 -4q-21 -1 -46 -1h-42z" />
    <glyph glyph-name="uni066F.medi" unicode="&#x66f;" horiz-adv-x="1068" 
d="M453 687q-52 -61 -52 -128q0 -64 43 -120q39 -48 85 -64q123 76 123 192q0 66 -48 123q-43 50 -75 50q-31 0 -76 -53zM960 0q-63 1 -113 4q-129 7 -230 28q-44 9 -86 22q-40 -13 -83 -22q-98 -21 -224 -28q-50 -2 -112 -3l-54 -1h-58q-59 0 -103 44q-43 43 -43 104
q0 62 43 105q44 44 103 43h95q53 2 94 3q-73 114 -69 258q3 128 65 243q61 111 156 174t203 63q101 0 189 -58t143 -160q67 -124 65 -267t-72 -252q84 -6 199 -4q61 0 105 -43q43 -43 43 -105q0 -61 -43 -105q-44 -43 -105 -43h-108z" />
    <glyph glyph-name="uni066F.fina" unicode="&#x66f;" horiz-adv-x="1570" 
d="M949 615q-63 -64 -60 -182q2 -71 55 -98q76 -39 257 -39h50q-20 114 -68 209q-12 25 -26 46q-17 27 -35 48q-47 52 -95 52q-43 0 -78 -36zM213 -433q-187 187 -187 458q0 311 183 537q39 48 100 55q61 6 108 -32q48 -39 55 -100q6 -61 -32 -109q-117 -145 -118 -352
q0 -147 101 -248q125 -126 348 -126q216 0 343 129q85 86 122 220h-35q-252 0 -392 72q-210 107 -216 354q-6 243 144 397q122 126 290 126q129 0 238 -80t183 -230q80 -159 103 -342h20q46 0 104 -44q44 -43 44 -105q0 -61 -44 -104q-58 -44 -104 -43h-31
q-49 -261 -215 -429q-214 -217 -554 -217q-345 0 -558 213z" />
    <glyph glyph-name="uni06D2" unicode="&#x6d2;" horiz-adv-x="1784" arabic-form="isolated" 
d="M1160 -473q-566 0 -756 25q-233 31 -308 138q-67 94 -25 213q30 82 93 151q83 90 219 147q221 95 555 95h62q50 1 67 1q61 0 105 -44q43 -43 43 -105q0 -61 -43 -104q-44 -44 -105 -44h-129q-274 0 -439 -71q-74 -32 -114 -74q66 -13 177 -20q171 -12 598 -12h476
q61 0 104 -43q44 -43 44 -105q0 -61 -44 -105q-43 -43 -104 -43h-476z" />
    <glyph glyph-name="uni06D2.fina" unicode="&#x6d2;" horiz-adv-x="1319" arabic-form="final" 
d="M408 -448q-233 31 -308 138q-66 94 -24 213q29 82 93 151q83 90 218 147q221 95 556 94h183q83 0 123 1h70q61 1 105 -43q43 -43 43 -105q0 -61 -43 -104q-44 -44 -105 -44h-376q-274 0 -439 -71q-74 -32 -115 -74q66 -13 177 -20q172 -12 599 -12q61 0 104 -43
q44 -43 44 -105q0 -61 -44 -105q-43 -43 -104 -43q-567 0 -757 25z" />
    <glyph glyph-name="uni06A9" unicode="&#x6a9;" horiz-adv-x="2390" arabic-form="isolated" 
d="M2327 1985q39 -47 34 -108t-52 -101q-247 -209 -548 -355q-144 -70 -324 -137q13 -7 25 -16q234 -183 365 -399q171 -279 98 -511q-78 -244 -424 -320q-107 -24 -244 -32q-94 -6 -238 -6q-326 0 -540 56q-262 69 -373 229q-69 98 -75 222q-6 115 43 248q21 57 77 83
q55 26 113 4q58 -21 83 -77q26 -55 5 -113q-32 -85 -24 -142q2 -20 10 -36q2 -6 6 -12l3 -4l2 -4q49 -70 206 -111q176 -47 464 -47q129 0 211 5q120 7 208 27q75 16 124 41q66 33 80 79q33 103 -68 267q-103 169 -295 320q-41 32 -52 82q-12 50 9 96q-20 -6 -40 -6
q-47 0 -85 27q-39 28 -55 73q-20 58 7 113q27 56 85 76q313 109 496 198q260 127 474 308q47 40 108 35t101 -52z" />
    <glyph glyph-name="uni06A9.fina" unicode="&#x6a9;" horiz-adv-x="2310" arabic-form="final" 
d="M2310 296q61 0 105 -43q43 -43 43 -105q0 -61 -43 -105q-44 -43 -105 -43q-179 0 -343 115q-88 62 -172 158q-105 -138 -326 -207q-192 -59 -440 -59q-326 0 -540 56q-262 69 -373 228q-69 99 -75 223q-6 115 43 247q21 58 77 84q55 25 113 4t83 -77q26 -56 5 -113
q-32 -85 -24 -143q2 -20 10 -36q2 -6 6 -11l3 -5l2 -3q49 -70 206 -111q176 -47 464 -47q194 0 341 43q148 44 194 114l2 3l3 4q2 5 5 10q6 14 8 30q5 45 -20 108q-49 86 -104 197q-22 43 -48 97l-23 49l-23 47q-40 84 -58 122q-23 46 -12 95h-1q-23 -8 -48 -8q-47 0 -85 27
q-39 27 -55 73q-20 58 7 113q26 55 84 75q600 208 1018 562q47 40 108 35t101 -52t35 -108t-52 -101q-375 -317 -879 -527q29 -21 45 -54q20 -40 60 -124l18 -37l18 -38l36 -75q42 -86 78 -153q90 -171 173 -283q184 -251 355 -251z" />
    <glyph glyph-name="uni06AF" unicode="&#x6af;" horiz-adv-x="2390" arabic-form="isolated" 
d="M2327 1985q39 -47 34 -108t-52 -101q-247 -209 -548 -355q-144 -70 -324 -137q13 -7 25 -16q234 -183 365 -399q171 -279 98 -511q-78 -244 -424 -320q-107 -24 -244 -32q-94 -6 -238 -6q-326 0 -540 56q-262 69 -373 229q-69 98 -75 222q-6 115 43 248q21 57 77 83
q55 26 113 4q58 -21 83 -77q26 -55 5 -113q-32 -85 -24 -142q2 -20 10 -36q2 -6 6 -12l3 -4l2 -4q49 -70 206 -111q176 -47 464 -47q129 0 211 5q120 7 208 27q75 16 124 41q66 33 80 79q33 103 -68 267q-103 169 -295 320q-41 32 -52 82q-12 50 9 96q-20 -6 -40 -6
q-47 0 -85 27q-39 28 -55 73q-20 58 7 113q27 56 85 76q313 109 496 198q260 127 474 308q47 40 108 35t101 -52zM1159 1684q-11 31 2 60q14 30 44 42q247 94 572 291q28 17 60 9t49 -36t9 -60t-36 -48q-337 -205 -598 -304q-13 -5 -28 -5q-54 0 -74 51z" />
    <glyph glyph-name="uni06AF.init" unicode="&#x6af;" horiz-adv-x="1338" arabic-form="initial" 
d="M1296 1988q39 -47 34 -108t-52 -101q-247 -209 -548 -355q-143 -69 -322 -136q94 -50 199 -135q127 -102 221 -217q112 -137 155 -268q58 -176 -11 -325q-109 -231 -388 -304q-98 -26 -225 -34q-50 -3 -109 -4l-52 -1h-198q-61 0 -105 43q-43 44 -43 105q0 62 43 105
q44 43 105 43q389 0 498 27q154 37 205 146q27 57 -20 151q-17 35 -43 73q-19 28 -41 55q-72 88 -172 169q-87 72 -161 110q-50 27 -70 81q-19 54 3 107q-17 -4 -34 -4q-47 0 -85 26q-39 28 -55 73q-20 58 7 114q26 55 84 75q314 109 497 198q260 127 474 308q47 40 108 35
t101 -52zM162 1708q-11 31 2 60q14 30 44 42q247 94 572 291q28 17 60 9t49 -36t9 -60t-36 -48q-337 -205 -598 -304q-13 -5 -28 -5q-54 0 -74 51z" />
    <glyph glyph-name="uni06AF.medi" unicode="&#x6af;" horiz-adv-x="1126" arabic-form="medial" 
d="M1126 296q61 0 104 -43q44 -43 44 -105q0 -61 -44 -105q-43 -43 -104 -43q-264 -6 -485 231q-83 -122 -255 -179q-154 -52 -386 -52q-61 0 -105 43q-43 44 -43 105t43 105q44 43 105 43q193 0 302 40q40 15 66 34q18 14 28 29q25 37 12 108q-4 27 -15 59q-8 24 -19 49
l-4 12q-62 114 -184 362l-53 109q-31 62 -3 126l-21 -8q-24 -8 -48 -8q-47 0 -86 27t-55 73q-20 58 7 113t85 75q600 208 1018 562q47 40 108 35t101 -52q39 -47 34 -108t-52 -101q-380 -322 -894 -533q48 -22 72 -70l54 -110q220 -449 339 -607q100 -133 196 -185
q66 -37 138 -31zM99 1764q-11 31 2 60q14 30 44 42q247 94 572 291q28 17 60 9t49 -36t9 -60t-36 -48q-337 -205 -598 -304q-13 -5 -28 -5q-54 0 -74 51z" />
    <glyph glyph-name="uni06AF.fina" unicode="&#x6af;" horiz-adv-x="2310" arabic-form="final" 
d="M2310 296q61 0 105 -43q43 -43 43 -105q0 -61 -43 -105q-44 -43 -105 -43q-179 0 -343 115q-88 62 -172 158q-105 -138 -326 -207q-192 -59 -440 -59q-326 0 -540 56q-262 69 -373 228q-69 99 -75 223q-6 115 43 247q21 58 77 84q55 25 113 4t83 -77q26 -56 5 -113
q-32 -85 -24 -143q2 -20 10 -36q2 -6 6 -11l3 -5l2 -3q49 -70 206 -111q176 -47 464 -47q194 0 341 43q148 44 194 114l2 3l3 4q2 5 5 10q6 14 8 30q5 45 -20 108q-49 86 -104 197q-22 43 -48 97l-23 49l-23 47q-40 84 -58 122q-23 46 -12 95h-1q-23 -8 -48 -8q-47 0 -85 27
q-39 27 -55 73q-20 58 7 113q26 55 84 75q600 208 1018 562q47 40 108 35t101 -52t35 -108t-52 -101q-375 -317 -879 -527q29 -21 45 -54q20 -40 60 -124l18 -37l18 -38l36 -75q42 -86 78 -153q90 -171 173 -283q184 -251 355 -251zM1250 1758q-11 31 2 60q14 30 44 42
q247 94 572 291q28 17 60 9t49 -36t9 -60t-36 -48q-337 -205 -598 -304q-13 -5 -28 -5q-54 0 -74 51z" />
    <glyph glyph-name="uni06BA" unicode="&#x6ba;" horiz-adv-x="1630" arabic-form="isolated" 
d="M232 -469q-184 184 -184 449q0 143 54 296t145 265q38 48 99 54q61 7 109 -31q48 -39 55 -100q6 -61 -32 -109q-58 -72 -96 -178q-37 -106 -38 -198q0 -142 97 -239q127 -127 356 -127q289 0 399 159q82 120 75 328q-6 204 -95 440q-22 58 4 114q25 55 83 77
q57 22 113 -4q56 -25 78 -83q105 -282 114 -534q10 -306 -129 -506q-97 -141 -258 -213q-163 -74 -384 -74q-352 0 -565 214z" />
    <glyph glyph-name="uni06BA.fina" unicode="&#x6ba;" horiz-adv-x="1779" arabic-form="final" 
d="M1780 297q61 0 104 -43q44 -43 44 -105q0 -61 -44 -105q-43 -43 -104 -43q-126 0 -218 38q-7 -253 -125 -428q-98 -143 -261 -218q-165 -76 -389 -76q-352 0 -565 214q-184 184 -184 449q0 143 54 296t145 265q38 48 99 54q61 7 109 -31q48 -39 55 -100q6 -61 -32 -109
q-58 -72 -96 -178q-37 -106 -38 -198q0 -142 97 -239q127 -127 356 -127q293 0 404 165q81 119 75 323q-7 204 -99 436q-22 55 1 110q22 56 76 80q55 25 113 3t83 -77q108 -240 191 -311q52 -45 149 -45z" />
    <glyph glyph-name="uni062F.fina" unicode="&#x62f;" horiz-adv-x="1223" arabic-form="final" 
d="M1223 296q62 0 105 -43q44 -44 44 -105t-44 -105q-43 -43 -105 -43q-164 0 -293 129q-13 12 -27 28q-21 -21 -44 -40q-128 -101 -306 -119q-33 -3 -68 -3q-148 0 -298 58q-57 23 -82 79t-2 113q22 57 78 82t113 3q122 -48 231 -36q91 9 150 55q33 27 51 62q22 46 15 103
q-38 180 -80 384q-14 64 -26 122q-4 19 -7 35l-1 5l-1 4v2l-1 1q-12 60 21 112q34 51 94 64q60 12 112 -22q51 -33 64 -93v-1v-3q1 -4 2 -9q4 -16 7 -35q13 -59 26 -124q43 -205 82 -387q30 -144 94 -217q48 -56 96 -56z" />
    <glyph glyph-name="uni06C1.fina" unicode="&#x6c1;" horiz-adv-x="1347" arabic-form="final" 
d="M211 7q-41 31 -53 81q-45 177 1 360q47 185 167 304q85 85 193 117q117 36 242 3q134 -35 232 -149q38 -44 75 -105q14 -25 31 -55l15 -26l13 -27q67 -125 105 -165q46 -49 114 -49q61 0 105 -43q43 -44 43 -105t-43 -105q-44 -43 -105 -43q-192 0 -324 136
q-46 47 -88 113q-16 27 -35 61l-33 61q-56 106 -87 145q-43 56 -93 69q-85 22 -151 -43q-64 -63 -89 -172q-26 -109 -1 -210q15 -59 -16 -112q-32 -53 -91 -67q-18 -5 -36 -5q-51 0 -91 31z" />
    <glyph glyph-name="uni0686" unicode="&#x686;" horiz-adv-x="1647" arabic-form="isolated" 
d="M298 -659q-121 91 -185 221q-65 130 -65 282q0 381 400 630q116 72 310 146q154 58 363 102q-172 69 -318 122q-153 56 -230 56h-5l-7 -1q-11 0 -23 -2q-33 -4 -61 -15q-87 -31 -110 -110q-16 -59 -70 -88q-54 -30 -113 -13q-59 16 -89 70t-13 113q50 173 207 267
q128 75 284 75q149 0 369 -101q154 -71 424 -235q56 -34 80 -48q37 -22 57 -60q19 -39 15 -82t-31 -77t-67 -48q-58 -21 -182 -61l-40 -14l-41 -13l-83 -28q-93 -32 -166 -61q-185 -72 -303 -145q-156 -97 -218 -209q-43 -77 -43 -170q0 -178 152 -279q123 -83 276 -83
q248 0 561 183q53 31 112 15t90 -69t16 -112q-16 -60 -69 -90q-175 -102 -317 -153q-197 -70 -393 -70q-269 0 -474 155zM1150 177q29 -18 43 -50q19 -44 3 -88q-18 -44 -61 -64q-91 -41 -238 -69q-105 -20 -260 5q-47 8 -75 47q-28 38 -20 85t47 75q38 28 85 20
q115 -19 182 -5q106 17 185 52q22 11 47 11q34 0 62 -19zM1002 -172q37 -37 43 -84q5 -47 -22 -86q-7 -9 -15 -18q-73 -66 -159 -25q-38 17 -57 55q-20 38 -12 81q12 74 76 100q26 15 57 15q51 0 89 -38z" />
    <glyph glyph-name="uni0686.fina" unicode="&#x686;" horiz-adv-x="1600" arabic-form="final" 
d="M1599 296q62 0 105 -43q44 -44 44 -105t-44 -105q-43 -43 -105 -43q-283 0 -443 132q-124 102 -164 271q-213 -81 -343 -161q-156 -97 -218 -209q-43 -77 -43 -170q0 -178 152 -279q123 -83 276 -83q248 0 561 183q53 31 112 15t90 -69t16 -112q-16 -60 -69 -90
q-175 -102 -317 -153q-197 -70 -393 -70q-269 0 -474 155q-121 91 -185 221q-65 130 -65 282q0 381 400 630q116 72 310 146q154 58 313 102q-122 69 -268 122q-153 56 -230 56h-5l-7 -1q-11 0 -23 -2q-33 -4 -61 -15q-87 -31 -110 -110q-16 -59 -70 -88q-54 -30 -113 -13
q-59 16 -89 70t-13 113q50 173 207 267q128 75 284 75q149 0 369 -101q154 -71 424 -235q56 -34 80 -48q37 -22 57 -60q19 -39 15 -82t-31 -77t-67 -48q-58 -21 -182 -61l-7 -3q14 -101 82 -149q78 -55 242 -55zM1096 116q29 -18 43 -50q19 -44 3 -88q-18 -44 -61 -64
q-91 -41 -238 -69q-105 -20 -260 5q-47 8 -75 47q-28 38 -20 85t47 75q38 28 85 20q115 -19 182 -5q106 17 185 52q22 11 47 11q34 0 62 -19zM948 -233q37 -37 43 -84q5 -47 -22 -86q-7 -9 -15 -18q-73 -66 -159 -25q-38 17 -57 55q-20 38 -12 81q12 74 76 100q26 15 57 15
q51 0 89 -38z" />
    <glyph glyph-name="uni0623" unicode="&#x623;" horiz-adv-x="530" arabic-form="isolated" 
d="M269 -52q-61 7 -100 54q-38 48 -32 109q37 256 21 583q-9 230 -45 647q-6 62 33 109t100 53t109 -33q47 -39 53 -100q82 -841 24 -1291q-6 -56 -49 -94q-42 -38 -98 -38zM-1 1540q-14 25 -6 52q7 28 32 42l128 73l-3 2q-52 32 -80 90q-29 58 -23 121q6 57 40 108
q33 51 86 81q101 57 218 24q27 -8 41 -33t6 -53q-8 -27 -33 -41t-52 -6q-62 17 -112 -11q-51 -29 -56 -83q-5 -53 37 -79q34 -21 88 -9q38 7 115 45q25 12 52 4q26 -9 39 -34t6 -51q-8 -27 -32 -41l-396 -227q-16 -9 -35 -9q-40 0 -60 35z" />
    <glyph glyph-name="uni0623.fina" unicode="&#x623;" horiz-adv-x="624" arabic-form="final" 
d="M516 4q-69 8 -125 30q-73 30 -125 85q-69 72 -95 183q-21 88 -20 378v94v76q-1 107 -3 189q-5 179 -23 296q-9 61 27 111q37 49 97 58q61 9 110 -27q50 -37 59 -97q20 -132 26 -323q2 -87 3 -200v-208q0 -74 1 -126q3 -117 11 -153q11 -46 38 -59q30 -15 128 -15
q61 0 104.5 -43t43.5 -105q0 -61 -43.5 -104.5t-104.5 -43.5q-82 1 -109 4zM49 1546q-14 25 -6 52q7 28 32 42l128 73l-3 2q-52 32 -80 90q-29 58 -23 121q6 57 40 108q33 51 86 81q101 57 218 24q27 -8 41 -33t6 -53q-8 -27 -33 -41t-52 -6q-62 17 -112 -11
q-51 -29 -56 -83q-5 -53 37 -79q34 -21 88 -9q38 7 115 45q25 12 52 4q26 -9 39 -34t6 -51q-8 -27 -32 -41l-396 -227q-16 -9 -35 -9q-40 0 -60 35z" />
    <glyph glyph-name="uni0625" unicode="&#x625;" horiz-adv-x="509" arabic-form="isolated" 
d="M264 -52q-61 7 -100 54q-38 48 -32 109q37 256 21 583q-9 230 -45 647q-6 62 33 109t100 53t109 -33q47 -39 53 -100q82 -841 24 -1291q-6 -56 -49 -94q-42 -38 -98 -38zM-4 -728q-14 25 -6 52q7 28 32 42l128 73l-3 2q-52 32 -80 90q-29 58 -23 121q6 57 40 108
q33 51 86 81q101 57 218 24q27 -8 41 -33t6 -53q-8 -27 -33 -41t-52 -6q-62 17 -112 -11q-51 -29 -56 -83q-5 -53 37 -79q34 -21 88 -9q38 7 115 45q25 12 52 4q26 -9 39 -34t6 -51q-8 -27 -32 -41l-396 -227q-16 -9 -35 -9q-40 0 -60 35z" />
    <glyph glyph-name="uni0625.fina" unicode="&#x625;" horiz-adv-x="624" arabic-form="final" 
d="M516 4q-69 8 -125 30q-73 30 -125 85q-69 72 -95 183q-21 88 -20 378v94v76q-1 107 -3 189q-5 179 -23 296q-9 61 27 111q37 49 97 58q61 9 110 -27q50 -37 59 -97q20 -132 26 -323q2 -87 3 -200v-208q0 -74 1 -126q3 -117 11 -153q11 -46 38 -59q30 -15 128 -15
q61 0 104.5 -43t43.5 -105q0 -61 -43.5 -104.5t-104.5 -43.5q-82 1 -109 4zM76 -708q-14 25 -6 52q7 28 32 42l128 73l-3 2q-52 32 -80 90q-29 58 -23 121q6 57 40 108q33 51 86 81q101 57 218 24q27 -8 41 -33t6 -53q-8 -27 -33 -41t-52 -6q-62 17 -112 -11
q-51 -29 -56 -83q-5 -53 37 -79q34 -21 88 -9q38 7 115 45q25 12 52 4q26 -9 39 -34t6 -51q-8 -27 -32 -41l-396 -227q-16 -9 -35 -9q-40 0 -60 35z" />
    <glyph glyph-name="uni0622" unicode="&#x622;" horiz-adv-x="891" arabic-form="isolated" 
d="M446 -52q-61 7 -100 54q-38 48 -32 109q37 256 21 583q-9 230 -45 647q-6 62 33 109t100 53t109 -33q47 -39 53 -100q82 -841 24 -1291q-6 -56 -49 -94q-42 -38 -98 -38zM49 1562q-43 25 -56 72q-14 47 11 90q99 176 279 216q123 28 299 -11q90 -19 166 6q90 31 130 118
q21 45 67 62t90 -4q45 -20 62 -66t-3 -91q-76 -165 -242 -233q-149 -61 -320 -23q-152 33 -228 2q-54 -22 -94 -93q-34 -60 -103 -60q-31 0 -58 15z" />
    <glyph glyph-name="uni0622.fina" unicode="&#x622;" horiz-adv-x="729" arabic-form="final" 
d="M608 4q-69 8 -125 30q-73 30 -125 85q-69 72 -95 183q-21 88 -20 378v94v76q-1 107 -3 189q-5 179 -23 296q-9 61 27 111q37 49 97 58q61 9 110 -27q50 -37 59 -97q20 -132 26 -323q2 -87 3 -200v-208q0 -74 1 -126q3 -117 11 -153q11 -46 38 -59q30 -15 128 -15
q61 0 104.5 -43t43.5 -105q0 -61 -43.5 -104.5t-104.5 -43.5q-82 1 -109 4zM49 1562q-43 25 -56 72q-14 47 11 90q99 176 279 216q123 28 299 -11q90 -19 166 6q90 31 130 118q21 45 67 62t90 -4q45 -20 62 -66t-3 -91q-76 -165 -242 -233q-149 -61 -320 -23q-152 33 -228 2
q-54 -22 -94 -93q-34 -60 -103 -60q-31 0 -58 15z" />
    <glyph glyph-name="uni0671" unicode="&#x671;" horiz-adv-x="728" arabic-form="isolated" 
d="M367 -52q-61 7 -100 54q-38 48 -32 109q37 256 21 583q-9 230 -45 647q-6 62 33 109t100 53t109 -33q47 -39 53 -100q82 -841 24 -1291q-6 -56 -49 -94q-42 -38 -98 -38zM477 1716q27 0 50 5q29 7 48 23q35 28 23 60q-5 11 -15 17q-12 6 -33 5q-72 -2 -131 -74
q-10 -13 -20 -28q40 -9 78 -8zM261 1551q-24 9 -34 31q-11 22 -2 45l9 26q-22 6 -45 9q-26 3 -57 -17q-9 -7 -18 -15l-5 -5l-2 -1v-1q-16 -19 -41 -21q-24 -2 -43 14t-21 40q-2 25 14 44l18 18q19 17 39 30q64 40 131 32q39 -5 80 -18q20 36 44 65q92 113 218 118
q52 1 92 -20q49 -26 70 -77q20 -50 4 -105q-17 -54 -62 -91q-66 -54 -172 -55q-65 0 -132 18l-10 -28q-14 -39 -55 -39q-11 0 -20 3z" />
    <glyph glyph-name="uni0671.fina" unicode="&#x671;" horiz-adv-x="682" arabic-form="final" 
d="M574 4q-69 8 -125 30q-73 30 -125 85q-69 72 -95 183q-21 88 -20 378v94v76q-1 107 -3 189q-5 179 -23 296q-9 61 27 111q37 49 97 58q61 9 110 -27q50 -37 59 -97q20 -132 26 -323q2 -87 3 -200v-208q0 -74 1 -126q3 -117 11 -153q11 -46 38 -59q30 -15 128 -15
q61 0 104.5 -43t43.5 -105q0 -61 -43.5 -104.5t-104.5 -43.5q-82 1 -109 4zM477 1731q27 0 50 5q29 7 48 23q35 28 23 60q-5 11 -15 17q-12 6 -33 5q-72 -2 -131 -74q-10 -13 -20 -28q40 -9 78 -8zM261 1566q-24 9 -34 31q-11 22 -2 45l9 26q-22 6 -45 9q-26 3 -57 -17
q-9 -7 -18 -15l-5 -5l-2 -1v-1q-16 -19 -41 -21q-24 -2 -43 14t-21 40q-2 25 14 44l18 18q19 17 39 30q64 40 131 32q39 -5 80 -18q20 36 44 65q92 113 218 118q52 1 92 -20q49 -26 70 -77q20 -50 4 -105q-17 -54 -62 -91q-66 -54 -172 -55q-65 0 -132 18l-10 -28
q-14 -39 -55 -39q-11 0 -20 3z" />
    <glyph glyph-name="uni0628" unicode="&#x628;" horiz-adv-x="2013" arabic-form="isolated" 
d="M496 30q-237 59 -354 206q-132 166 -108 359q21 168 160 326q40 46 102 49q61 4 107 -37q46 -40 50 -102q3 -61 -37 -107q-79 -88 -88 -165q-9 -70 46 -138q107 -135 524 -135q339 0 548 63q175 52 213 128q28 54 -14 151q-17 37 -43 79q-20 33 -45 67q-37 49 -28 110
t59 97q49 37 110 28q61 -10 97 -59q124 -168 159 -315q37 -160 -30 -292q-106 -209 -454 -295q-133 -32 -302 -47q-129 -11 -270 -11q-239 0 -402 40zM1157 -332q0 -65 -50 -117t-110 -52q-63 0 -134 51q-50 53 -50 118q0 57 54 112q54 56 115 56q63 0 118 -51
q57 -54 57 -117z" />
    <glyph glyph-name="uni0628.init" unicode="&#x628;" horiz-adv-x="744" arabic-form="initial" 
d="M2 0q-61 0 -105 43q-43 44 -43 105q0 62 43 105q44 43 105 43q165 0 240 14q106 20 141 78q9 14 11 50q3 48 -10 113q-25 132 -96 278q-26 55 -6 113t75 85q56 27 114 6q58 -20 84 -75q13 -26 25 -54q16 -37 31 -74q37 -100 57 -191q58 -259 -32 -406q-94 -153 -293 -204
q-76 -19 -174 -25q-39 -3 -86 -4h-81zM470 -332q0 -65 -50 -117t-110 -52q-63 0 -134 51q-50 53 -50 118q0 57 54 112q54 56 115 56q63 0 118 -51q57 -54 57 -117z" />
    <glyph glyph-name="uni0628.medi" unicode="&#x628;" horiz-adv-x="748" arabic-form="medial" 
d="M745 296q62 0 105 -43t43 -105q0 -61 -43 -105q-43 -43 -105 -43q-150 0 -258 84q-20 15 -39 34q-135 -118 -447 -118q-61 0 -105 43q-43 44 -43 105q0 62 43 105q44 43 105 43q91 0 148 9q83 12 110 43q41 45 27 188q-4 32 -7 70l-3 34l-3 33q-3 43 -5 61q-6 62 34 109
q39 47 100 53t108 -34q48 -39 53 -100q2 -21 6 -66q18 -230 55 -315q38 -85 121 -85zM503 -332q0 -65 -50 -117t-110 -52q-63 0 -134 51q-50 53 -50 118q0 57 54 112q54 56 115 56q63 0 118 -51q57 -54 57 -117z" />
    <glyph glyph-name="uni0628.fina" unicode="&#x628;" horiz-adv-x="2313" arabic-form="final" 
d="M432 45q-230 95 -318 276q-88 182 -11 413q26 81 70 158q38 64 77 109q40 47 101 51t108 -36q46 -40 51 -101q4 -62 -36 -108q-55 -63 -89 -161q-40 -121 -4 -196q42 -87 186 -140q130 -48 282 -48q392 0 613 114q220 113 330 371q21 50 71 75q49 24 102 10
q53 -13 85 -58q31 -45 26 -100l-1 -9l-2 -20l-2 -21l-3 -42q-4 -49 -2 -87q4 -97 42 -139q30 -33 94 -48q49 -12 115 -12q62 -1 104 -43q43 -43 43 -105q0 -61 -43 -104q-44 -44 -105 -44q-286 0 -428 157q-43 48 -71 108q-91 -86 -205 -146q-287 -153 -763 -153
q-226 0 -417 79zM1225 -332q0 -65 -50 -117t-110 -52q-63 0 -134 51q-50 53 -50 118q0 57 54 112q54 56 115 56q63 0 118 -51q57 -54 57 -117z" />
    <glyph glyph-name="uni067E" unicode="&#x67e;" horiz-adv-x="2013" arabic-form="isolated" 
d="M496 30q-237 59 -354 206q-132 166 -108 359q21 168 160 326q40 46 102 49q61 4 107 -37q46 -40 50 -102q3 -61 -37 -107q-79 -88 -88 -165q-9 -70 46 -138q107 -135 524 -135q339 0 548 63q175 52 213 128q28 54 -14 151q-17 37 -43 79q-20 33 -45 67q-37 49 -28 110
t59 97q49 37 110 28q61 -10 97 -59q124 -168 159 -315q37 -160 -30 -292q-106 -209 -454 -295q-133 -32 -302 -47q-129 -11 -270 -11q-239 0 -402 40zM1330 -170q34 -21 50 -58q22 -50 3 -101q-20 -51 -70 -74q-104 -47 -273 -79q-121 -23 -299 6q-54 9 -86 54
q-32 44 -23 98t54 86q44 32 98 23q132 -22 209 -6q121 20 212 60q26 12 54 12q39 0 71 -21zM1161 -583q42 -42 49 -97q6 -54 -25 -98q-8 -11 -18 -21q-83 -76 -182 -29q-44 20 -66 63q-23 44 -14 93q14 85 88 116q30 17 65 17q59 0 103 -44z" />
    <glyph glyph-name="uni067E.fina" unicode="&#x67e;" horiz-adv-x="2313" arabic-form="final" 
d="M432 45q-230 95 -318 276q-88 182 -11 413q26 81 70 158q38 64 77 109q40 47 101 51t108 -36q46 -40 51 -101q4 -62 -36 -108q-55 -63 -89 -161q-40 -121 -4 -196q42 -87 186 -140q130 -48 282 -48q392 0 613 114q220 113 330 371q21 50 71 75q49 24 102 10
q53 -13 85 -58q31 -45 26 -100l-1 -9l-2 -20l-2 -21l-3 -42q-4 -49 -2 -87q4 -97 42 -139q30 -33 94 -48q49 -12 115 -12q62 -1 104 -43q43 -43 43 -105q0 -61 -43 -104q-44 -44 -105 -44q-286 0 -428 157q-43 48 -71 108q-91 -86 -205 -146q-287 -153 -763 -153
q-226 0 -417 79zM1339 -170q34 -21 50 -58q22 -50 3 -101q-20 -51 -70 -74q-104 -47 -273 -79q-121 -23 -299 6q-54 9 -86 54q-32 44 -23 98t54 86q44 32 98 23q132 -22 209 -6q121 20 212 60q26 12 54 12q39 0 71 -21zM1170 -583q42 -42 49 -97q6 -54 -25 -98
q-8 -11 -18 -21q-83 -76 -182 -29q-44 20 -66 63q-23 44 -14 93q14 85 88 116q30 17 65 17q59 0 103 -44z" />
    <glyph glyph-name="uni067E.init" unicode="&#x67e;" horiz-adv-x="801" arabic-form="initial" 
d="M2 0q-61 0 -105 43q-43 44 -43 105q0 62 43 105q44 43 105 43q235 0 310 14q106 20 141 78q9 14 11 50q3 48 -10 113q-25 132 -96 278q-26 55 -6 113t75 85q56 27 114 6q58 -20 84 -75q13 -26 25 -54q16 -37 31 -74q37 -100 57 -191q58 -259 -32 -406q-94 -153 -293 -204
q-76 -19 -174 -25q-39 -3 -106 -4h-131zM717 -170q34 -21 50 -58q22 -50 3 -101q-20 -51 -70 -74q-104 -47 -273 -79q-121 -23 -299 6q-54 9 -86 54q-32 44 -23 98t54 86q44 32 98 23q132 -22 209 -6q121 20 212 60q26 12 54 12q39 0 71 -21zM548 -583q42 -42 49 -97
q6 -54 -25 -98q-8 -11 -18 -21q-83 -76 -182 -29q-44 20 -66 63q-23 44 -14 93q14 85 88 116q30 17 65 17q59 0 103 -44z" />
    <glyph glyph-name="uni067E.medi" unicode="&#x67e;" horiz-adv-x="852" arabic-form="medial" 
d="M851 296q62 0 105 -43t43 -105q0 -61 -43 -105q-43 -43 -105 -43q-156 0 -264 94q-20 15 -39 34q-109 -128 -547 -128q-61 0 -105 43q-43 44 -43 105q0 62 43 105q44 43 105 43q279 7 338.5 68.5t46.5 171.5q-4 32 -7 70l-3 34l-3 33q-3 43 -5 61q-6 62 34 109
q39 47 100 53t108 -34q48 -39 53 -100q2 -21 6 -66q18 -230 55 -315q38 -85 127 -85zM717 -170q34 -21 50 -58q22 -50 3 -101q-20 -51 -70 -74q-104 -47 -273 -79q-121 -23 -299 6q-54 9 -86 54q-32 44 -23 98t54 86q44 32 98 23q132 -22 209 -6q121 20 212 60q26 12 54 12
q39 0 71 -21zM548 -583q42 -42 49 -97q6 -54 -25 -98q-8 -11 -18 -21q-83 -76 -182 -29q-44 20 -66 63q-23 44 -14 93q14 85 88 116q30 17 65 17q59 0 103 -44z" />
    <glyph glyph-name="uni062A" unicode="&#x62a;" horiz-adv-x="2013" arabic-form="isolated" 
d="M496 30q-237 59 -354 206q-132 166 -108 359q21 168 160 326q40 46 102 49q61 4 107 -37q46 -40 50 -102q3 -61 -37 -107q-79 -88 -88 -165q-9 -70 46 -138q107 -135 524 -135q339 0 548 63q175 52 213 128q28 54 -14 151q-17 37 -43 79q-20 33 -45 67q-37 49 -28 110
t59 97q49 37 110 28q61 -10 97 -59q124 -168 159 -315q37 -160 -30 -292q-106 -209 -454 -295q-133 -32 -302 -47q-129 -11 -270 -11q-239 0 -402 40zM679 837q-34 21 -50 58q-22 50 -3 101q20 51 70 73q104 48 273 80q122 23 299 -6q54 -9 86 -54q32 -44 23 -98t-54 -86
q-44 -32 -98 -23q-132 22 -209 6q-121 -20 -212 -61q-26 -11 -54 -11q-39 0 -71 21z" />
    <glyph glyph-name="uni062A.init" unicode="&#x62a;" horiz-adv-x="801" arabic-form="initial" 
d="M2 0q-61 0 -105 43q-43 44 -43 105q0 62 43 105q44 43 105 43q235 0 310 14q106 20 141 78q9 14 11 50q3 48 -10 113q-25 132 -96 278q-26 55 -6 113t75 85q56 27 114 6q58 -20 84 -75q13 -26 25 -54q16 -37 31 -74q37 -100 57 -191q58 -259 -32 -406q-94 -153 -293 -204
q-76 -19 -174 -25q-39 -3 -106 -4h-131zM84 1119q-34 21 -50 58q-22 50 -3 101q20 51 70 73q104 48 273 80q122 23 299 -6q54 -9 86 -54q32 -44 23 -98t-54 -86q-44 -32 -98 -23q-132 22 -209 6q-121 -20 -212 -61q-26 -11 -54 -11q-39 0 -71 21z" />
    <glyph glyph-name="uni062A.medi" unicode="&#x62a;" horiz-adv-x="852" arabic-form="medial" 
d="M851 296q62 0 105 -43t43 -105q0 -61 -43 -105q-43 -43 -105 -43q-156 0 -264 94q-20 15 -39 34q-109 -128 -547 -128q-61 0 -105 43q-43 44 -43 105q0 62 43 105q44 43 105 43q279 7 338.5 68.5t46.5 171.5q-4 32 -7 70l-3 34l-3 33q-3 43 -5 61q-6 62 34 109
q39 47 100 53t108 -34q48 -39 53 -100q2 -21 6 -66q18 -230 55 -315q38 -85 127 -85zM84 963q-34 21 -50 58q-22 50 -3 101q20 51 70 73q104 48 273 80q122 23 299 -6q54 -9 86 -54q32 -44 23 -98t-54 -86q-44 -32 -98 -23q-132 22 -209 6q-121 -20 -212 -61
q-26 -11 -54 -11q-39 0 -71 21z" />
    <glyph glyph-name="uni062A.fina" unicode="&#x62a;" horiz-adv-x="2313" arabic-form="final" 
d="M432 45q-230 95 -318 276q-88 182 -11 413q26 81 70 158q38 64 77 109q40 47 101 51t108 -36q46 -40 51 -101q4 -62 -36 -108q-55 -63 -89 -161q-40 -121 -4 -196q42 -87 186 -140q130 -48 282 -48q392 0 613 114q220 113 330 371q21 50 71 75q49 24 102 10
q53 -13 85 -58q31 -45 26 -100l-1 -9l-2 -20l-2 -21l-3 -42q-4 -49 -2 -87q4 -97 42 -139q30 -33 94 -48q49 -12 115 -12q62 -1 104 -43q43 -43 43 -105q0 -61 -43 -104q-44 -44 -105 -44q-286 0 -428 157q-43 48 -71 108q-91 -86 -205 -146q-287 -153 -763 -153
q-226 0 -417 79zM779 837q-34 21 -50 58q-22 50 -3 101q20 51 70 73q104 48 273 80q122 23 299 -6q54 -9 86 -54q32 -44 23 -98t-54 -86q-44 -32 -98 -23q-132 22 -209 6q-121 -20 -212 -61q-26 -11 -54 -11q-39 0 -71 21z" />
    <glyph glyph-name="uni062B" unicode="&#x62b;" horiz-adv-x="2013" arabic-form="isolated" 
d="M496 30q-237 59 -354 206q-132 166 -108 359q21 168 160 326q40 46 102 49q61 4 107 -37q46 -40 50 -102q3 -61 -37 -107q-79 -88 -88 -165q-9 -70 46 -138q107 -135 524 -135q339 0 548 63q175 52 213 128q28 54 -14 151q-17 37 -43 79q-20 33 -45 67q-37 49 -28 110
t59 97q49 37 110 28q61 -10 97 -59q124 -168 159 -315q37 -160 -30 -292q-106 -209 -454 -295q-133 -32 -302 -47q-129 -11 -270 -11q-239 0 -402 40zM660 792q-34 21 -50 58q-22 50 -3 101q20 51 70 73q104 48 273 80q122 23 299 -6q54 -9 86 -54q32 -44 23 -98t-54 -86
q-44 -32 -98 -23q-132 22 -209 6q-121 -20 -212 -61q-26 -11 -54 -11q-39 0 -71 21zM829 1205q-42 42 -48 97q-7 54 24 98q8 11 18 21q83 76 182 29q44 -20 67 -63q22 -44 13 -93q-14 -85 -87 -116q-31 -17 -66 -17q-59 0 -103 44z" />
    <glyph glyph-name="uni062B.init" unicode="&#x62b;" horiz-adv-x="801" arabic-form="initial" 
d="M2 0q-61 0 -105 43q-43 44 -43 105q0 62 43 105q44 43 105 43q235 0 310 14q106 20 141 78q9 14 11 50q3 48 -10 113q-25 132 -96 278q-26 55 -6 113t75 85q56 27 114 6q58 -20 84 -75q13 -26 25 -54q16 -37 31 -74q37 -100 57 -191q58 -259 -32 -406q-94 -153 -293 -204
q-76 -19 -174 -25q-39 -3 -106 -4h-131zM66 1092q-34 21 -50 58q-22 50 -3 101q20 51 70 73q104 48 273 80q122 23 299 -6q54 -9 86 -54q32 -44 23 -98t-54 -86q-44 -32 -98 -23q-132 22 -209 6q-121 -20 -212 -61q-26 -11 -54 -11q-39 0 -71 21zM235 1505q-42 42 -48 97
q-7 54 24 98q8 11 18 21q83 76 182 29q44 -20 67 -63q22 -44 13 -93q-14 -85 -87 -116q-31 -17 -66 -17q-59 0 -103 44z" />
    <glyph glyph-name="uni062B.medi" unicode="&#x62b;" horiz-adv-x="852" arabic-form="medial" 
d="M851 296q62 0 105 -43t43 -105q0 -61 -43 -105q-43 -43 -105 -43q-156 0 -264 94q-20 15 -39 34q-109 -128 -547 -128q-61 0 -105 43q-43 44 -43 105q0 62 43 105q44 43 105 43q279 7 338.5 68.5t46.5 171.5q-4 32 -7 70l-3 34l-3 33q-3 43 -5 61q-6 62 34 109
q39 47 100 53t108 -34q48 -39 53 -100q2 -21 6 -66q18 -230 55 -315q38 -85 127 -85zM90 964q-34 21 -50 58q-22 50 -3 101q20 51 70 73q104 48 273 80q122 23 299 -6q54 -9 86 -54q32 -44 23 -98t-54 -86q-44 -32 -98 -23q-132 22 -209 6q-121 -20 -212 -61
q-26 -11 -54 -11q-39 0 -71 21zM259 1377q-42 42 -48 97q-7 54 24 98q8 11 18 21q83 76 182 29q44 -20 67 -63q22 -44 13 -93q-14 -85 -87 -116q-31 -17 -66 -17q-59 0 -103 44z" />
    <glyph glyph-name="uni062B.fina" unicode="&#x62b;" horiz-adv-x="2313" arabic-form="final" 
d="M432 45q-230 95 -318 276q-88 182 -11 413q26 81 70 158q38 64 77 109q40 47 101 51t108 -36q46 -40 51 -101q4 -62 -36 -108q-55 -63 -89 -161q-40 -121 -4 -196q42 -87 186 -140q130 -48 282 -48q392 0 613 114q220 113 330 371q21 50 71 75q49 24 102 10
q53 -13 85 -58q31 -45 26 -100l-1 -9l-2 -20l-2 -21l-3 -42q-4 -49 -2 -87q4 -97 42 -139q30 -33 94 -48q49 -12 115 -12q62 -1 104 -43q43 -43 43 -105q0 -61 -43 -104q-44 -44 -105 -44q-286 0 -428 157q-43 48 -71 108q-91 -86 -205 -146q-287 -153 -763 -153
q-226 0 -417 79zM758 792q-34 21 -50 58q-22 50 -3 101q20 51 70 73q104 48 273 80q122 23 299 -6q54 -9 86 -54q32 -44 23 -98t-54 -86q-44 -32 -98 -23q-132 22 -209 6q-121 -20 -212 -61q-26 -11 -54 -11q-39 0 -71 21zM927 1205q-42 42 -48 97q-7 54 24 98q8 11 18 21
q83 76 182 29q44 -20 67 -63q22 -44 13 -93q-14 -85 -87 -116q-31 -17 -66 -17q-59 0 -103 44z" />
    <glyph glyph-name="uni0629" unicode="&#x629;" horiz-adv-x="1010" arabic-form="isolated" 
d="M187 67q-137 119 -137 309q0 105 42 199q16 35 39 72q9 14 20 30l10 14l9 13q14 20 20 29q34 51 94 63t111 -22q52 -34 64 -94t-22 -111l-13 -19l-13 -18q-65 -91 -65 -156q0 -73 61 -102q21 -11 47 -15q10 -1 19 -2h7l6 -1q17 0 42 5q33 7 60 18q75 33 75 96
q0 107 -126 269q-58 74 -127 137q-60 55 -108 83q-53 30 -70 89q-16 59 15 113q30 53 89 69q60 17 113 -14q167 -95 323 -296q79 -102 126 -202q61 -132 61 -248q0 -213 -184 -331q-130 -84 -289 -84q-176 0 -299 107zM138 1198q-34 21 -50 58q-22 50 -3 101q20 51 70 73
q104 48 273 80q122 23 299 -6q54 -9 86 -54q32 -44 23 -98t-54 -86q-44 -32 -98 -23q-132 22 -209 6q-121 -20 -212 -61q-26 -11 -54 -11q-39 0 -71 21z" />
    <glyph glyph-name="uni0629.fina" unicode="&#x629;" horiz-adv-x="1226" arabic-form="final" 
d="M741 264q-39 84 -62 200q-9 46 -17 103l-7 50l-6 50l-2 14l-2 15l-4 31q-5 37 -9 62q-112 -71 -199 -184q-56 -73 -79 -135q-10 -24 -13 -44q-2 -17 0 -27l1 -2l1 -3q3 -3 11 -8q7 -4 16 -7q13 -5 28 -9q40 -9 98 -10q61 0 104 -44t42 -106q-1 -61 -45 -104t-105 -42
q-176 2 -286 65q-126 73 -155 209q-43 202 147 448q164 212 369 305q66 30 128 26q48 -4 89 -27q59 -33 95 -103q13 -24 22 -52q3 -10 7 -22l4 -16q14 -58 31 -195q29 -239 72 -322q43 -84 135 -84q63 0 107 -43q43 -43 43 -105q0 -61 -43 -105q-44 -43 -107 -43
q-284 0 -409 264zM267 1198q-34 21 -50 58q-22 50 -3 101q20 51 70 73q104 48 273 80q122 23 299 -6q54 -9 86 -54q32 -44 23 -98t-54 -86q-44 -32 -98 -23q-132 22 -209 6q-121 -20 -212 -61q-26 -11 -54 -11q-39 0 -71 21z" />
    <glyph glyph-name="uni0686.init" unicode="&#x686;" horiz-adv-x="1640" arabic-form="initial" 
d="M-94 43q-43 44 -43 105q0 62 43 105q44 43 105 43q302 0 625 73q379 86 609 239q-60 8 -175 30q-39 8 -104 20l-52 10l-52 11q-254 48 -290 42q-76 -12 -91 -27q-22 -22 -48 -125q-15 -59 -68 -91q-52 -31 -112 -17q-59 15 -91 68q-31 53 -17 112q33 132 100 219
q87 113 265 151q189 41 969 -191q28 -9 39 -12q78 -23 100 -102t-32 -139q-267 -296 -757 -446q-396 -121 -818 -121q-61 0 -105 43zM1141 -170q34 -21 50 -58q22 -50 3 -101q-20 -51 -70 -74q-104 -47 -273 -79q-121 -23 -299 6q-54 9 -86 54q-32 44 -23 98t54 86
q44 32 98 23q132 -22 209 -6q121 20 212 60q26 12 54 12q39 0 71 -21zM972 -583q42 -42 49 -97q6 -54 -25 -98q-8 -11 -18 -21q-83 -76 -182 -29q-44 20 -66 63q-23 44 -14 93q14 85 88 116q30 17 65 17q59 0 103 -44z" />
    <glyph glyph-name="uni0686.medi" unicode="&#x686;" horiz-adv-x="1701" arabic-form="medial" 
d="M1706 298q61 0 105 -43q43 -44 43 -105q0 -62 -43 -105q-44 -44 -105 -44q-420 0 -602 242q-515 -243 -1107 -243q-61 0 -105 43q-43 44 -43 105q0 62 43 105q44 43 105 43q285 0 619 83q370 90 605 239q-28 1 -126 19q-34 6 -95 17l-52 10l-53 10q-279 53 -337 47
q-65 -6 -92 -38q-18 -22 -35 -86q-16 -60 -68 -91q-53 -32 -112 -17q-60 15 -91 68q-32 52 -17 112q29 113 88 191q87 113 265 151q189 41 969 -191q27 -8 39 -12q80 -24 101 -105q21 -80 -37 -140q-88 -90 -201 -169q58 -53 158 -77q79 -19 181 -19zM1073 -168
q34 -21 50 -58q22 -50 3 -101q-20 -51 -70 -74q-104 -47 -273 -79q-121 -23 -299 6q-54 9 -86 54q-32 44 -23 98t54 86q44 32 98 23q132 -22 209 -6q121 20 212 60q26 12 54 12q39 0 71 -21zM904 -581q42 -42 49 -97q6 -54 -25 -98q-8 -11 -18 -21q-83 -76 -182 -29
q-44 20 -66 63q-23 44 -14 93q14 85 88 116q30 17 65 17q59 0 103 -44z" />
    <glyph glyph-name="uni062C" unicode="&#x62c;" horiz-adv-x="1647" arabic-form="isolated" 
d="M298 -659q-121 91 -185 221q-65 130 -65 282q0 381 400 630q116 72 310 146q154 58 363 102q-172 69 -318 122q-153 56 -230 56h-5l-7 -1q-11 0 -23 -2q-33 -4 -61 -15q-87 -31 -110 -110q-16 -59 -70 -88q-54 -30 -113 -13q-59 16 -89 70t-13 113q50 173 207 267
q128 75 284 75q149 0 369 -101q154 -71 424 -235q56 -34 80 -48q37 -22 57 -60q19 -39 15 -82t-31 -77t-67 -48q-58 -21 -182 -61l-40 -14l-41 -13l-83 -28q-93 -32 -166 -61q-185 -72 -303 -145q-156 -97 -218 -209q-43 -77 -43 -170q0 -178 152 -279q123 -83 276 -83
q248 0 561 183q53 31 112 15t90 -69t16 -112q-16 -60 -69 -90q-175 -102 -317 -153q-197 -70 -393 -70q-269 0 -474 155zM1101 -68q0 -69 -54 -126q-54 -55 -119 -55q-67 0 -144 54q-54 58 -54 127q0 62 58 122q59 60 125 60q67 0 127 -56q61 -57 61 -126z" />
    <glyph glyph-name="uni062C.init" unicode="&#x62c;" horiz-adv-x="1640" arabic-form="initial" 
d="M-94 43q-43 44 -43 105q0 62 43 105q44 43 105 43q302 0 625 73q379 86 609 239q-60 8 -175 30q-39 8 -104 20l-52 10l-52 11q-254 48 -290 42q-76 -12 -91 -27q-22 -22 -48 -125q-15 -59 -68 -91q-52 -31 -112 -17q-59 15 -91 68q-31 53 -17 112q33 132 100 219
q87 113 265 151q189 41 969 -191q28 -9 39 -12q78 -23 100 -102t-32 -139q-267 -296 -757 -446q-396 -121 -818 -121q-61 0 -105 43zM972 -330q0 -65 -50 -117t-110 -52q-63 0 -134 51q-50 53 -50 118q0 57 54 112q54 56 115 56q63 0 118 -51q57 -54 57 -117z" />
    <glyph glyph-name="uni062C.medi" unicode="&#x62c;" horiz-adv-x="1701" arabic-form="medial" 
d="M1706 298q61 0 105 -43q43 -44 43 -105q0 -62 -43 -105q-44 -44 -105 -44q-420 0 -602 242q-515 -243 -1107 -243q-61 0 -105 43q-43 44 -43 105q0 62 43 105q44 43 105 43q285 0 619 83q370 90 605 239q-28 1 -126 19q-34 6 -95 17l-52 10l-53 10q-279 53 -337 47
q-65 -6 -92 -38q-18 -22 -35 -86q-16 -60 -68 -91q-53 -32 -112 -17q-60 15 -91 68q-32 52 -17 112q29 113 88 191q87 113 265 151q189 41 969 -191q27 -8 39 -12q80 -24 101 -105q21 -80 -37 -140q-88 -90 -201 -169q58 -53 158 -77q79 -19 181 -19zM972 -332
q0 -65 -50 -117t-110 -52q-63 0 -134 51q-50 53 -50 118q0 57 54 112q54 56 115 56q63 0 118 -51q57 -54 57 -117z" />
    <glyph glyph-name="uni062C.fina" unicode="&#x62c;" horiz-adv-x="1600" arabic-form="final" 
d="M1599 296q62 0 105 -43q44 -44 44 -105t-44 -105q-43 -43 -105 -43q-283 0 -443 132q-124 102 -164 271q-213 -81 -343 -161q-156 -97 -218 -209q-43 -77 -43 -170q0 -178 152 -279q123 -83 276 -83q248 0 561 183q53 31 112 15t90 -69t16 -112q-16 -60 -69 -90
q-175 -102 -317 -153q-197 -70 -393 -70q-269 0 -474 155q-121 91 -185 221q-65 130 -65 282q0 381 400 630q116 72 310 146q154 58 313 102q-122 69 -268 122q-153 56 -230 56h-5l-7 -1q-11 0 -23 -2q-33 -4 -61 -15q-87 -31 -110 -110q-16 -59 -70 -88q-54 -30 -113 -13
q-59 16 -89 70t-13 113q50 173 207 267q128 75 284 75q149 0 369 -101q154 -71 424 -235q56 -34 80 -48q37 -22 57 -60q19 -39 15 -82t-31 -77t-67 -48q-58 -21 -182 -61l-7 -3q14 -101 82 -149q78 -55 242 -55zM1076 -103q0 -69 -54 -126q-54 -55 -119 -55q-67 0 -144 54
q-54 58 -54 127q0 62 58 122q59 60 125 60q67 0 127 -56q61 -57 61 -126z" />
    <glyph glyph-name="uni062E" unicode="&#x62e;" horiz-adv-x="1647" arabic-form="isolated" 
d="M298 -659q-121 91 -185 221q-65 130 -65 282q0 381 400 630q116 72 310 146q154 58 363 102q-172 69 -318 122q-153 56 -230 56h-5l-7 -1q-11 0 -23 -2q-33 -4 -61 -15q-87 -31 -110 -110q-16 -59 -70 -88q-54 -30 -113 -13q-59 16 -89 70t-13 113q50 173 207 267
q128 75 284 75q149 0 369 -101q154 -71 424 -235q56 -34 80 -48q37 -22 57 -60q19 -39 15 -82t-31 -77t-67 -48q-58 -21 -182 -61l-40 -14l-41 -13l-83 -28q-93 -32 -166 -61q-185 -72 -303 -145q-156 -97 -218 -209q-43 -77 -43 -170q0 -178 152 -279q123 -83 276 -83
q248 0 561 183q53 31 112 15t90 -69t16 -112q-16 -60 -69 -90q-175 -102 -317 -153q-197 -70 -393 -70q-269 0 -474 155zM757 1517q0 -69 -54 -126q-54 -55 -119 -55q-67 0 -144 54q-54 58 -54 127q0 62 58 122q59 60 125 60q67 0 127 -56q61 -57 61 -126z" />
    <glyph glyph-name="uni062E.init" unicode="&#x62e;" horiz-adv-x="1640" arabic-form="initial" 
d="M-94 43q-43 44 -43 105q0 62 43 105q44 43 105 43q302 0 625 73q379 86 609 239q-60 8 -175 30q-39 8 -104 20l-52 10l-52 11q-254 48 -290 42q-76 -12 -91 -27q-22 -22 -48 -125q-15 -59 -68 -91q-52 -31 -112 -17q-59 15 -91 68q-31 53 -17 112q33 132 100 219
q87 113 265 151q189 41 969 -191q28 -9 39 -12q78 -23 100 -102t-32 -139q-267 -296 -757 -446q-396 -121 -818 -121q-61 0 -105 43zM763 1356q0 -69 -54 -126q-54 -55 -119 -55q-67 0 -144 54q-54 58 -54 127q0 62 58 122q59 60 125 60q67 0 127 -56q61 -57 61 -126z" />
    <glyph glyph-name="uni062E.medi" unicode="&#x62e;" horiz-adv-x="1701" arabic-form="medial" 
d="M1706 298q61 0 105 -43q43 -44 43 -105q0 -62 -43 -105q-44 -44 -105 -44q-420 0 -602 242q-515 -243 -1107 -243q-61 0 -105 43q-43 44 -43 105q0 62 43 105q44 43 105 43q285 0 619 83q370 90 605 239q-28 1 -126 19q-34 6 -95 17l-52 10l-53 10q-279 53 -337 47
q-65 -6 -92 -38q-18 -22 -35 -86q-16 -60 -68 -91q-53 -32 -112 -17q-60 15 -91 68q-32 52 -17 112q29 113 88 191q87 113 265 151q189 41 969 -191q27 -8 39 -12q80 -24 101 -105q21 -80 -37 -140q-88 -90 -201 -169q58 -53 158 -77q79 -19 181 -19zM739 1352
q0 -69 -54 -126q-54 -55 -119 -55q-67 0 -144 54q-54 58 -54 127q0 62 58 122q59 60 125 60q67 0 127 -56q61 -57 61 -126z" />
    <glyph glyph-name="uni062E.fina" unicode="&#x62e;" horiz-adv-x="1600" arabic-form="final" 
d="M1599 296q62 0 105 -43q44 -44 44 -105t-44 -105q-43 -43 -105 -43q-283 0 -443 132q-124 102 -164 271q-213 -81 -343 -161q-156 -97 -218 -209q-43 -77 -43 -170q0 -178 152 -279q123 -83 276 -83q248 0 561 183q53 31 112 15t90 -69t16 -112q-16 -60 -69 -90
q-175 -102 -317 -153q-197 -70 -393 -70q-269 0 -474 155q-121 91 -185 221q-65 130 -65 282q0 381 400 630q116 72 310 146q154 58 313 102q-122 69 -268 122q-153 56 -230 56h-5l-7 -1q-11 0 -23 -2q-33 -4 -61 -15q-87 -31 -110 -110q-16 -59 -70 -88q-54 -30 -113 -13
q-59 16 -89 70t-13 113q50 173 207 267q128 75 284 75q149 0 369 -101q154 -71 424 -235q56 -34 80 -48q37 -22 57 -60q19 -39 15 -82t-31 -77t-67 -48q-58 -21 -182 -61l-7 -3q14 -101 82 -149q78 -55 242 -55zM817 1537q0 -69 -54 -126q-54 -55 -119 -55q-67 0 -144 54
q-54 58 -54 127q0 62 58 122q59 60 125 60q67 0 127 -56q61 -57 61 -126z" />
    <glyph glyph-name="uni0630" unicode="&#x630;" horiz-adv-x="1203" arabic-form="isolated" 
d="M187 54q-56 26 -77 84q-22 57 4 113t84 77q57 21 113 -5q78 -36 192 -36q113 -1 204 35q41 16 71 38q40 28 57 63q-1 10 -6 26q-6 20 -17 45q-30 66 -88 144q-135 181 -322 313q-50 36 -60 96q-11 61 25 111q35 50 96 61q60 10 110 -26q247 -174 413 -412
q200 -285 125 -465q-76 -184 -296 -270q-142 -56 -309 -56q-180 0 -319 64zM688 1537q0 -69 -54 -126q-54 -55 -119 -55q-67 0 -144 54q-54 58 -54 127q0 62 58 122q59 60 125 60q67 0 127 -56q61 -57 61 -126z" />
    <glyph glyph-name="uni0630.fina" unicode="&#x630;" horiz-adv-x="1223" arabic-form="final" 
d="M1221 296q62 0 105 -43q44 -44 44 -105t-44 -105q-43 -43 -105 -43q-164 0 -293 129q-13 12 -27 28q-21 -21 -44 -40q-128 -101 -306 -119q-33 -3 -68 -3q-148 0 -298 58q-57 23 -82 79t-2 113q22 57 78 82t113 3q122 -48 231 -36q91 9 150 55q33 27 51 62q22 46 15 103
q-38 180 -80 384q-14 64 -26 122q-4 19 -7 35l-1 5l-1 4v2l-1 1q-12 60 21 112q34 51 94 64q60 12 112 -22q51 -33 64 -93v-1v-3q1 -4 2 -9q4 -16 7 -35q13 -59 26 -124q43 -205 82 -387q30 -144 94 -217q48 -56 96 -56zM913 1565q0 -69 -54 -126q-54 -55 -119 -55
q-67 0 -144 54q-54 58 -54 127q0 62 58 122q59 60 125 60q67 0 127 -56q61 -57 61 -126z" />
    <glyph glyph-name="uni0632" unicode="&#x632;" horiz-adv-x="1002" arabic-form="isolated" 
d="M34 -658q-29 54 -11 113q18 58 72 87q256 136 372 346q141 254 141 709q0 62 43 105q43 44 105 44q61 0 105 -44q43 -43 43 -105q0 -522 -170 -840q-159 -295 -500 -477q-32 -17 -69 -17q-89 0 -131 79zM934 1142q0 -69 -54 -126q-54 -55 -119 -55q-67 0 -144 54
q-54 58 -54 127q0 62 58 122q59 60 125 60q67 0 127 -56q61 -57 61 -126z" />
    <glyph glyph-name="uni0632.fina" unicode="&#x632;" horiz-adv-x="1035" arabic-form="final" 
d="M32 -668q-34 51 -22 112q12 60 63 94q8 5 25 16l16 10l16 11q20 13 36 24q44 31 81 63q100 84 170 187q193 288 158 727q-5 61 35 108q39 46 100 52q61 5 108 -35q47 -39 52 -100q11 -117 38 -192q11 -29 23 -51q10 -17 20 -29q29 -32 83 -32q61 0 105 -43
q43 -43 43 -105q0 -61 -43 -105q-44 -43 -105 -43q-116 0 -206 51q-55 -205 -170 -374q-91 -134 -218 -242q-47 -39 -100 -77q-20 -14 -43 -30l-20 -12l-18 -12l-21 -14q-38 -25 -82 -25q-80 0 -124 66zM896 1142q0 -69 -54 -126q-54 -55 -119 -55q-67 0 -144 54
q-54 58 -54 127q0 62 58 122q59 60 125 60q67 0 127 -56q61 -57 61 -126z" />
    <glyph glyph-name="uni0698" unicode="&#x698;" horiz-adv-x="1147" arabic-form="isolated" 
d="M119 -658q-29 54 -11 113q18 58 72 87q256 136 372 346q141 254 141 709q0 62 43 105q43 44 105 44q61 0 105 -44q43 -43 43 -105q0 -522 -170 -840q-159 -295 -500 -477q-32 -17 -69 -17q-89 0 -131 79zM435 852q-34 21 -50 58q-22 50 -3 101q20 51 70 73q104 48 273 80
q122 23 299 -6q54 -9 86 -54q32 -44 23 -98t-54 -86q-44 -32 -98 -23q-132 22 -209 6q-121 -20 -212 -61q-26 -11 -54 -11q-39 0 -71 21zM604 1265q-42 42 -48 97q-7 54 24 98q8 11 18 21q83 76 182 29q44 -20 67 -63q22 -44 13 -93q-14 -85 -87 -116q-31 -17 -66 -17
q-59 0 -103 44z" />
    <glyph glyph-name="uni0698.fina" unicode="&#x698;" horiz-adv-x="1132" arabic-form="final" 
d="M124 -669q-34 51 -22 112q12 60 63 94q8 5 25 16l16 10l16 11q20 13 36 24q44 31 81 63q100 84 170 187q193 288 158 727q-5 61 35 108q39 46 100 52q61 5 108 -35q47 -39 52 -100q11 -117 38 -192q11 -29 23 -51q10 -17 20 -29q29 -32 83 -32q61 0 105 -43
q43 -43 43 -105q0 -61 -43 -105q-44 -43 -105 -43q-116 0 -206 51q-55 -205 -170 -374q-91 -134 -218 -242q-47 -39 -100 -77q-20 -14 -43 -30l-20 -12l-18 -12l-21 -14q-38 -25 -82 -25q-80 0 -124 66zM448 860q-34 21 -50 58q-22 50 -3 101q20 51 70 73q104 48 273 80
q122 23 299 -6q54 -9 86 -54q32 -44 23 -98t-54 -86q-44 -32 -98 -23q-132 22 -209 6q-121 -20 -212 -61q-26 -11 -54 -11q-39 0 -71 21zM617 1273q-42 42 -48 97q-7 54 24 98q8 11 18 21q83 76 182 29q44 -20 67 -63q22 -44 13 -93q-14 -85 -87 -116q-31 -17 -66 -17
q-59 0 -103 44z" />
    <glyph glyph-name="uni0634" unicode="&#x634;" horiz-adv-x="2692" arabic-form="isolated" 
d="M484 -612q-154 61 -260 171q-192 200 -181 495q9 250 213 570q33 52 93 65t112 -20t65 -93t-20 -112q-161 -252 -167 -421t99 -278q135 -141 372 -141q110 0 210 44q118 51 181 151q137 214 -4 607l-11 28l-11 27q-26 65 -38 92l-4 8q-26 56 -4 114q21 57 76 83
q56 26 114 5q57 -21 83 -77l5 -11q36 -79 64 -155q58 -140 105 -193q47 -54 114 -54q82 0 110 82q22 65 22 241v30q1 61 44 104q44 43 105 43q62 -1 105 -44t43 -105v-30q1 -318 124 -318q134 0 115 162q-7 62 -36 151q-12 35 -28 78l-14 38l-14 36q-21 57 4 113t82 78
t113 -3t78 -82q11 -29 21 -59q13 -39 24 -78q29 -100 40 -191q29 -242 -69 -384q-45 -65 -113 -104q-91 -52 -214 -52q-158 0 -261 102q-88 -82 -221 -102q-99 -14 -188 12q-13 -199 -111 -352q-108 -168 -299 -256q-162 -75 -342 -75q-173 0 -326 60zM1578 1000
q-34 21 -50 58q-22 50 -3 101q20 51 70 73q104 48 273 80q122 23 299 -6q54 -9 86 -54q32 -44 23 -98t-54 -86q-44 -32 -98 -23q-132 22 -209 6q-121 -20 -212 -61q-26 -11 -54 -11q-39 0 -71 21zM1747 1413q-42 42 -48 97q-7 54 24 98q8 11 18 21q83 76 182 29
q44 -20 67 -63q22 -44 13 -93q-14 -85 -87 -116q-31 -17 -66 -17q-59 0 -103 44z" />
    <glyph glyph-name="uni0634.init" unicode="&#x634;" horiz-adv-x="1658" arabic-form="initial" 
d="M347 86l-15 19q-143 -105 -330 -105q-61 0 -105 43q-43 43 -43 105q0 61 43 105q44 43 105 43q146 0 230 131q30 49 50 112q15 47 23 96v1q10 60 60 96t110 26q55 -8 90 -50t35 -96q0 -15 -2 -24q-4 -17 -11 -48l-12 -51q-14 -61 -18 -99q-9 -107 61 -119
q131 -20 175 140q16 56 21 134q2 27 2 60v37l1 10q0 61 42 104t103 43q61 -1 102 -44t41 -105v-5q-1 -125 8 -228q5 -53 31 -95q28 -44 62 -44q136 0 97 213q-11 64 -36 143q-18 56 -46 128q-22 58 3 114t82 78q58 22 114 -3t78 -83q86 -224 105 -377q27 -216 -62 -346
q-45 -66 -116 -105q-93 -51 -222 -51q-152 0 -256 105q-10 10 -20 22q-131 -141 -309 -141t-271 111zM566 1000q-34 21 -50 58q-22 50 -3 101q20 51 70 73q104 48 273 80q122 23 299 -6q54 -9 86 -54q32 -44 23 -98t-54 -86q-44 -32 -98 -23q-132 22 -209 6
q-121 -20 -212 -61q-26 -11 -54 -11q-39 0 -71 21zM735 1413q-42 42 -48 97q-7 54 24 98q8 11 18 21q83 76 182 29q44 -20 67 -63q22 -44 13 -93q-14 -85 -87 -116q-31 -17 -66 -17q-59 0 -103 44z" />
    <glyph glyph-name="uni0634.medi" unicode="&#x634;" horiz-adv-x="1889" arabic-form="medial" 
d="M312 111q-143 -111 -312 -111q-61 0 -105 44q-43 43 -43 104q0 62 43 105q44 44 105 43q140 1 226 138q31 50 55 119q9 26 18 56q4 12 7 25l4 12l3 11q15 58 67 89q53 31 111 16q58 -14 84 -66q25 -50 9 -112q-3 -14 -11 -41l-6 -22l-7 -23q-15 -56 -18 -92
q-10 -104 72 -114q79 -10 128 44q73 83 117 330q10 60 60 95t110 25t94 -60q34 -49 24 -110q-5 -32 -8 -51q-4 -30 -7 -54q-6 -61 -1 -103q14 -112 106 -112q94 0 113 87q13 56 -2 254q-5 59 33 105t97 53t106 -29q48 -35 58 -94q38 -234 77 -299q26 -41 67 -59
q39 -16 103 -18q64 2 107 -42q44 -43 44 -104q0 -62 -44 -105q-43 -44 -107 -45q-216 1 -351 140q-9 -12 -20 -23q-108 -117 -281 -117q-174 0 -280 125l-6 7q-130 -133 -337 -133q-205 0 -302 112zM646 947q-34 21 -50 58q-22 50 -3 101q20 51 70 73q104 48 273 80
q122 23 299 -6q54 -9 86 -54q32 -44 23 -98t-54 -86q-44 -32 -98 -23q-132 22 -209 6q-121 -20 -212 -61q-26 -11 -54 -11q-39 0 -71 21zM815 1360q-42 42 -48 97q-7 54 24 98q8 11 18 21q83 76 182 29q44 -20 67 -63q22 -44 13 -93q-14 -85 -87 -116q-31 -17 -66 -17
q-59 0 -103 44z" />
    <glyph glyph-name="uni0634.fina" unicode="&#x634;" horiz-adv-x="2889" arabic-form="final" 
d="M500 -610q-154 61 -260 171q-193 200 -181 495q9 248 205 555q33 52 93 65t111 -20q52 -33 65 -93q14 -60 -19 -112q-153 -238 -159 -406q-6 -169 99 -278q135 -141 372 -141q36 0 73 5q50 7 95 23q124 41 192 140q146 212 12 643q-20 52 -47 135q-19 57 8 111
q26 54 83 74q57 21 112 -5q55 -25 76 -81q25 -66 46 -130q45 -117 90 -174q49 -62 114 -71q39 -6 65 2q9 2 16 7l5 3l4 3q10 9 20 25q14 21 25 52q29 84 32 227q2 61 46 104q45 42 106 41q61 -2 103 -45t42 -104v-3q-4 -152 16 -225q26 -92 94 -92q87 0 104 78
q12 57 -10 220l-6 41q-8 60 29 109q36 48 96 57q61 9 110 -27t59 -96l6 -41q35 -216 125 -294q32 -27 70 -37q13 -3 28 -4l12 -1h10q62 0 105 -43q44 -44 44 -105q0 -62 -44 -105q-43 -43 -105 -43q-199 0 -336 133l-4 -6q-48 -56 -114 -89q-88 -44 -200 -44
q-146 0 -244 101l-8 8l-20 -18q-44 -38 -99 -60q-70 -28 -152 -28q-35 0 -72 5q-42 6 -82 20q-12 -231 -126 -396q-105 -153 -282 -230q-150 -66 -322 -66q-173 0 -326 60zM1640 907q-34 21 -50 58q-22 50 -3 101q20 51 70 73q104 48 273 80q122 23 299 -6q54 -9 86 -54
q32 -44 23 -98t-54 -86q-44 -32 -98 -23q-132 22 -209 6q-121 -20 -212 -61q-26 -11 -54 -11q-39 0 -71 21zM1809 1320q-42 42 -48 97q-7 54 24 98q8 11 18 21q83 76 182 29q44 -20 67 -63q22 -44 13 -93q-14 -85 -87 -116q-31 -17 -66 -17q-59 0 -103 44z" />
    <glyph glyph-name="uni0636" unicode="&#x636;" horiz-adv-x="2916" arabic-form="isolated" 
d="M2168 269q63 5 129 24q79 23 137 58q69 42 97 95q19 37 19 83q0 89 -91 124q-29 12 -64 16q-12 2 -23 3h-11q-300 0 -530 -379q136 -41 337 -24zM406 -564q-153 82 -240 236q-106 186 -87 426q17 231 145 445q31 52 91 67q59 15 112 -16q53 -32 68 -91q15 -60 -17 -112
q-88 -149 -103 -305q-15 -155 49 -268q95 -168 336 -168q18 0 37 1q26 2 52 5q67 7 128 25q170 49 248 167q151 227 -51 702q-23 54 -2 109q20 56 74 82q53 26 109 8q57 -18 85 -70q82 -147 145 -221q95 155 208 264q253 246 568 246h2q179 0 313 -98q171 -125 171 -341
q0 -146 -80 -264q-65 -98 -180 -168q-101 -62 -230 -95q-48 -12 -96 -20q-36 -6 -68 -8q-368 -32 -608 103q-2 -226 -112 -393q-118 -178 -342 -264q-96 -37 -205 -53q-82 -13 -166 -13q-200 0 -354 82zM2533 1268q0 -69 -54 -126q-54 -55 -119 -55q-67 0 -144 54
q-54 58 -54 127q0 62 58 122q59 60 125 60q67 0 127 -56q61 -57 61 -126z" />
    <glyph glyph-name="uni0636.init" unicode="&#x636;" horiz-adv-x="1960" arabic-form="initial" 
d="M1019 264q32 -3 67 -3q14 0 29 -1h34q65 0 137 15q85 18 155 53q152 75 176 209q3 15 -4 38q-8 27 -28 51q-60 68 -187 62q-172 -8 -344 -167q-108 -99 -187 -235q67 -17 152 -22zM540 -160q-59 16 -89 70t-13 113q21 72 45 139l-19 19l-7 9q-74 -88 -181 -136
q-120 -54 -276 -54q-61 0 -105 44q-43 43 -43 104q0 62 43 105q44 44 105 43q108 1 175 39q23 13 41 31q7 6 13 13l5 6l3 5q60 80 70 236q1 30 3 61q4 60 48 100q45 40 105 38t102 -46q41 -43 41 -104l-2 -58q0 -86 24 -148q95 153 222 270q252 233 532 245q269 12 423 -163
q63 -73 90 -162t11 -175q-51 -280 -337 -422q-198 -98 -423 -98h-44q-21 0 -41 1q-50 1 -95 5q-121 10 -222 42q-11 -34 -21 -70q-13 -49 -54 -79q-39 -29 -88 -29q-21 0 -41 6zM1597 1268q0 -69 -54 -126q-54 -55 -119 -55q-67 0 -144 54q-54 58 -54 127q0 62 58 122
q59 60 125 60q67 0 127 -56q61 -57 61 -126z" />
    <glyph glyph-name="uni0636.medi" unicode="&#x636;" horiz-adv-x="1962" arabic-form="medial" 
d="M898 315q2 -2 4 -3q8 -5 18 -9q30 -11 79 -17q36 -5 83 -6q34 0 78 1q59 11 120 29q46 13 86 30q52 21 92 45q104 65 116 149q9 62 -30 104q-49 52 -147 44q-125 -9 -262 -94q-126 -78 -197 -175q-25 -36 -36 -65q-4 -11 -6 -20q-1 -7 -1 -11q1 -1 3 -2zM925 -32
q-236 14 -393 134q-56 43 -100 100q-154 -200 -432 -202q-61 0 -104.5 43.5t-43.5 105.5q0 61 43.5 104.5t104.5 42.5q69 3 98.5 13t68.5 43q107 90 125 348q4 60 49 100t106 38q60 -3 101 -47t40 -105q-3 -146 41 -242q12 34 31 68q91 172 296 308q214 142 426 158
q241 18 387 -138q136 -147 106 -350q-16 -106 -78 -195q86 1 167 1q61 0 104.5 -43.5t43.5 -105.5q0 -61 -43.5 -104.5t-106.5 -42.5q-308 -1 -721 -13q-7 0 -27 -1h-14q-112 -20 -215 -20q-31 0 -60 2zM1583 1268q0 -69 -54 -126q-54 -55 -119 -55q-67 0 -144 54
q-54 58 -54 127q0 62 58 122q59 60 125 60q67 0 127 -56q61 -57 61 -126z" />
    <glyph glyph-name="uni0636.fina" unicode="&#x636;" horiz-adv-x="2939" arabic-form="final" 
d="M2054 289q345 -11 460 99q20 19 31 43q17 35 17 82q0 55 -34 100q-35 46 -91 66q-76 27 -166 3q-35 -9 -71 -26q-28 -13 -55 -30q-174 -107 -279 -304l-3 -7l46 -10l2 -1q19 -4 41 -7q48 -6 102 -8zM397 -558q-151 82 -239 237q-109 192 -94 439q14 247 147 469
q31 53 91 68t112 -17q53 -31 68 -91q15 -59 -17 -112q-91 -152 -104 -320q-14 -168 55 -289q96 -171 327 -171q129 0 243 46q137 55 207 160q159 234 -14 695q-10 24 -19 49q-20 57 5 112t82 77q57 21 112 -3q56 -24 78 -81l18 -45q56 -134 146 -218l7 14q142 268 385 417
q136 85 278 105q141 21 269 -25q146 -51 235 -175q88 -123 87 -272q0 -117 -49 -214l33 -1h93q62 0 105 -43q43 -44 43 -105t-43 -105q-43 -43 -105 -43h-94q-301 1 -460 -8q-142 -7 -235 -7q-136 2 -245 20q-192 26 -341 107q-6 -241 -125 -417t-332 -265q-96 -40 -202 -57
q-81 -14 -162 -14q-195 0 -346 83zM2538 1268q0 -69 -54 -126q-54 -55 -119 -55q-67 0 -144 54q-54 58 -54 127q0 62 58 122q59 60 125 60q67 0 127 -56q61 -57 61 -126z" />
    <glyph glyph-name="uni0638" unicode="&#x638;" horiz-adv-x="1924" arabic-form="isolated" 
d="M836 299q255 -15 476 69q254 96 254 267q0 7 -1 15q-1 11 -3 21q-5 27 -17 48q-34 59 -114 59q-151 0 -341 -180q-72 -67 -146 -157q-55 -66 -108 -142zM1849 724q25 -127 -17 -248q-42 -120 -145 -218q-89 -84 -212 -143q-48 -23 -99 -41q-39 -14 -79 -25
q-280 -76 -640 -30q-22 -39 -44 -79q-43 -76 -130 -76q-38 0 -72 19q-52 29 -70 85q-17 57 9 110q-105 26 -208 61q-59 19 -86 74t-8 113q20 59 75 86q54 27 113 8q136 -46 273 -75l30 46q99 574 14 1129q-9 61 28 110q36 50 97 59q60 9 110 -27q49 -37 59 -97
q56 -370 37 -751q51 49 103 91q121 98 284 140q180 45 323 -6q209 -76 255 -315zM1504 1416q0 -69 -54 -126q-54 -55 -119 -55q-67 0 -144 54q-54 58 -54 127q0 62 58 122q59 60 125 60q67 0 127 -56q61 -57 61 -126z" />
    <glyph glyph-name="uni0638.init" unicode="&#x638;" horiz-adv-x="1601" arabic-form="initial" 
d="M845 337q260 55 353 157q33 35 44 76q5 14 6 30l1 13v10q0 138 -139 138q-107 0 -232 -94q-95 -71 -193 -190q-64 -79 -127 -174q173 9 287 34zM1421 937q124 -122 124 -314q0 -265 -242 -425q-149 -98 -396 -151q-187 -40 -522 -46q-20 -39 -38 -77q-18 -40 -56 -63
q-36 -23 -78 -23q-33 0 -63 14q-43 20 -66 61t-19 87h-64q-61 0 -105 43q-43 43 -43 105q0 61 43 105q44 43 105 43h205q34 59 69 115l2 13q79 428 -21 1086q-10 60 27 110q36 49 97 59q60 9 110 -27q49 -37 59 -98q68 -445 64 -722q247 225 497 225q189 0 311 -120z
M1272 1416q0 -69 -54 -126q-54 -55 -119 -55q-67 0 -144 54q-54 58 -54 127q0 62 58 122q59 60 125 60q67 0 127 -56q61 -57 61 -126z" />
    <glyph glyph-name="uni0638.medi" unicode="&#x638;" horiz-adv-x="1583" arabic-form="medial" 
d="M1216 609q9 62 -31 104q-48 52 -147 45q-105 -8 -236 -94t-216 -203q-38 -53 -54 -97q-7 -17 -9 -30q-2 -11 -2 -17q2 -2 4 -3q4 -2 8 -5q11 -5 27 -10q185 11 383 50q92 19 173 91q86 78 100 169zM1578 296q61 0 104 -43q44 -44 44 -105q0 -62 -44 -105
q-43 -43 -104 -43q-306 0 -719 -12q-7 -1 -27 -1l-23 -1l-25 -1q-30 -1 -55 -1q-110 0 -194 17q-124 -6 -354 -3h-44l-45 1q-51 1 -93 1q-61 0 -105 43q-43 43 -43 105q0 61 43 105q44 43 105 43h95l46 -1l45 -1h40q-9 114 62 247l9 15q41 390 -44 949q-9 60 27 110
q36 49 97 58q61 10 110 -27q50 -36 59 -97q59 -388 63 -658q89 63 180 103q117 51 228 59q240 19 386 -138q137 -146 107 -349q-22 -146 -123 -271q110 1 192 1zM1272 1416q0 -69 -54 -126q-54 -55 -119 -55q-67 0 -144 54q-54 58 -54 127q0 62 58 122q59 60 125 60
q67 0 127 -56q61 -57 61 -126z" />
    <glyph glyph-name="uni0638.fina" unicode="&#x638;" horiz-adv-x="1924" arabic-form="final" 
d="M1519 610q9 62 -30 104q-49 52 -147 45q-106 -8 -237 -94t-215 -203q-38 -53 -55 -97q-6 -17 -9 -30q-2 -11 -1 -17l3 -3q2 -1 5 -3q8 -4 18 -8q182 4 395 46q93 19 173 91q86 78 100 169zM1927 296q61 0 104 -43q44 -44 44 -105q0 -62 -44 -105q-43 -43 -104 -43
q-358 0 -770 -12q-8 -1 -28 -1l-23 -1l-25 -1q-29 -1 -55 -1q-126 0 -218 22q-377 -2 -691 142q-56 26 -77 84q-22 57 4 113t83 77q58 22 113 -4q134 -61 282 -90q2 100 63 213l8 15q43 402 -44 968q-9 61 27 110q37 50 97 59q61 9 111 -27q49 -36 58 -97q60 -390 63 -679
q90 64 181 104q116 51 227 59q241 19 387 -138q136 -146 106 -349q-21 -146 -123 -271q132 1 244 1zM1505 1416q0 -69 -54 -126q-54 -55 -119 -55q-67 0 -144 54q-54 58 -54 127q0 62 58 122q59 60 125 60q67 0 127 -56q61 -57 61 -126z" />
    <glyph glyph-name="uni063A" unicode="&#x63a;" horiz-adv-x="1532" arabic-form="isolated" 
d="M224 -566q-189 193 -164 463q23 241 163 421q118 152 314 255q-84 76 -122 179q-38 105 -22 218q22 164 139 278q116 114 283 136q319 42 529 -201q40 -46 35 -107q-4 -62 -50 -102q-47 -40 -108 -35q-61 4 -102 51q-105 122 -265 100q-69 -9 -114 -52t-54 -108
q-10 -73 40 -127q17 -19 41 -34q9 -6 19 -11q7 -4 14 -7q85 -37 237 -18q100 18 212 30q61 6 109 -32t54 -99q7 -61 -31 -109t-99 -55l-53 -7l-53 -8l-47 -7l-48 -6q-240 -44 -404 -129q-295 -152 -322 -441q-12 -134 81 -229q66 -68 170 -100q104 -33 226 -24q89 7 176 36
q115 38 219 112l4 3q50 36 110 26q61 -10 97 -60q35 -50 25 -111q-10 -60 -60 -96l-3 -2q-141 -102 -301 -155q-122 -40 -246 -48q-35 -3 -71 -3q-348 0 -558 215zM1096 1723q0 -69 -54 -126q-54 -55 -119 -55q-67 0 -144 54q-54 58 -54 127q0 62 58 122q59 60 125 60
q67 0 127 -56q61 -57 61 -126z" />
    <glyph glyph-name="uni063A.init" unicode="&#x63a;" horiz-adv-x="1199" arabic-form="initial" 
d="M-104 43q-43 44 -43 105q0 62 43 105q44 43 105 43q100 0 162 1q-74 121 -70 261q4 158 105 284q100 126 259 173q164 49 322 -2q109 -34 225 -122q49 -38 58 -98q8 -61 -29 -110t-98 -57q-61 -9 -110 28q-82 63 -147 80q-66 18 -137 -3q-60 -18 -102 -64
q-48 -51 -50 -117q-1 -64 38 -115q40 -52 108 -76q85 -29 206 -15q48 5 109 19l55 12l55 14q59 14 112 -17q52 -31 67 -90q16 -59 -15 -111q-30 -53 -89 -69q-240 -67 -493 -87q-178 -15 -541 -15q-61 0 -105 43zM776 1323q0 -69 -54 -126q-54 -55 -119 -55q-67 0 -144 54
q-54 58 -54 127q0 62 58 122q59 60 125 60q67 0 127 -56q61 -57 61 -126z" />
    <glyph glyph-name="uni063A.medi" unicode="&#x63a;" horiz-adv-x="1232" arabic-form="medial" 
d="M494 558q75 -71 130 -98q73 42 145 121q70 76 93 134q-105 36 -256 25q-134 -10 -232 -49q57 -72 120 -133zM651 121l-41 -19q-232 -102 -609 -102q-61 0 -105 43q-43 44 -43 105q0 62 43 105q44 43 105 43q230 0 360 33q-76 73 -150 167q-56 69 -118 160q-36 53 -22 116
q13 63 69 95q341 203 689 160q131 -16 214 -83q32 -26 56 -59q18 -26 31 -54q36 -83 19 -180q-16 -97 -84 -190q-50 -70 -119 -135q115 -30 286 -30q62 0 105 -43t43 -105q0 -61 -43 -105q-43 -43 -105 -43q-340 0 -581 121zM793 1322q0 -69 -54 -126q-54 -55 -119 -55
q-67 0 -144 54q-54 58 -54 127q0 62 58 122q59 60 125 60q67 0 127 -56q61 -57 61 -126z" />
    <glyph glyph-name="uni063A.fina" unicode="&#x63a;" horiz-adv-x="1422" arabic-form="final" 
d="M649 670l23 -19l22 -20q26 -23 42 -38q37 13 83 33q54 24 102 50q126 69 156 127q-89 48 -266 21q-159 -23 -243 -77q26 -29 81 -77zM371 -683q-202 118 -284 335q-88 233 13 452q98 212 356 360q-110 110 -213 238q-42 51 -31 117t68 101q187 118 421 164q122 24 216 28
q137 5 239 -31q159 -56 193 -207q17 -76 -8 -153t-87 -138q-102 -100 -255 -185q76 -53 144 -75q84 -26 274 -26q61 0 105 -43q43 -44 43 -105q0 -62 -43 -105q-44 -44 -105 -44q-279 0 -432 66q-92 40 -238 148l-31 23l-23 17q-254 -124 -324 -275q-52 -112 -1 -233
q48 -112 153 -173q132 -78 304 -63q173 14 347 118q52 31 112 16q59 -15 91 -68q31 -53 16 -112q-15 -60 -68 -91q-272 -162 -550 -162q-222 0 -402 106zM1015 1413q0 -69 -54 -126q-54 -55 -119 -55q-67 0 -144 54q-54 58 -54 127q0 62 58 122q59 60 125 60q67 0 127 -56
q61 -57 61 -126z" />
    <glyph glyph-name="uni06A9.init" unicode="&#x6a9;" horiz-adv-x="1338" arabic-form="initial" 
d="M1296 1988q39 -47 34 -108t-52 -101q-247 -209 -548 -355q-143 -69 -322 -136q94 -50 199 -135q127 -102 221 -217q112 -137 155 -268q58 -176 -11 -325q-109 -231 -388 -304q-98 -26 -225 -34q-50 -3 -109 -4l-52 -1h-198q-61 0 -105 43q-43 44 -43 105q0 62 43 105
q44 43 105 43q389 0 498 27q154 37 205 146q27 57 -20 151q-17 35 -43 73q-19 28 -41 55q-72 88 -172 169q-87 72 -161 110q-50 27 -70 81q-19 54 3 107q-17 -4 -34 -4q-47 0 -85 26q-39 28 -55 73q-20 58 7 114q26 55 84 75q314 109 497 198q260 127 474 308q47 40 108 35
t101 -52z" />
    <glyph glyph-name="uni06A9.medi" unicode="&#x6a9;" horiz-adv-x="1126" arabic-form="medial" 
d="M1126 296q61 0 104 -43q44 -43 44 -105q0 -61 -44 -105q-43 -43 -104 -43q-264 -6 -485 231q-83 -122 -255 -179q-154 -52 -386 -52q-61 0 -105 43q-43 44 -43 105t43 105q44 43 105 43q193 0 302 40q40 15 66 34q18 14 28 29q25 37 12 108q-4 27 -15 59q-8 24 -19 49
l-4 12q-62 114 -184 362l-53 109q-31 62 -3 126l-21 -8q-24 -8 -48 -8q-47 0 -86 27t-55 73q-20 58 7 113t85 75q600 208 1018 562q47 40 108 35t101 -52q39 -47 34 -108t-52 -101q-380 -322 -894 -533q48 -22 72 -70l54 -110q220 -449 339 -607q100 -133 196 -185
q66 -37 138 -31z" />
    <glyph glyph-name="uni0641" unicode="&#x641;" horiz-adv-x="2016" arabic-form="isolated" 
d="M1406 681q37 -30 121 -49q92 -22 156 -7q0 94 -38 170q-27 55 -78 105q-28 29 -58 29l-3 -1h-4q-32 1 -67 -52t-47 -122q-7 -39 2 -57q3 -6 8 -10zM1957 706q36 -253 -75 -423q-127 -194 -450 -258q-108 -21 -243 -28q-50 -3 -106 -3q-21 -1 -44 -1h-39q-655 0 -851 246
q-132 166 -108 359q21 168 160 326q40 46 102 49q61 4 107 -37q46 -40 50 -102q3 -61 -37 -107q-79 -88 -88 -165q-9 -70 46 -138q43 -54 191 -90q177 -45 428 -45h16l18 1h40q50 1 93 3q118 6 208 23q67 14 120 33q-154 16 -255 99q-162 132 -122 365q25 142 105 248
q81 106 191 141q93 30 187 3q95 -28 174 -107q148 -147 182 -392zM1670 1491q0 -69 -54 -126q-54 -55 -119 -55q-67 0 -144 54q-54 58 -54 127q0 62 58 122q59 60 125 60q67 0 127 -56q61 -57 61 -126z" />
    <glyph glyph-name="uni0641.init" unicode="&#x641;" horiz-adv-x="960" arabic-form="initial" 
d="M460 927h-3q-32 1 -67 -52t-47 -122q-7 -39 1 -57q3 -6 9 -10l4 -3l4 -3q36 -30 120 -49q92 -22 157 -7q0 94 -38 170q-27 55 -78 105q-29 29 -58 29zM0 0q-61 0 -105 43q-43 44 -43 105q0 62 43 105q44 43 105 43l23 1h84q72 2 133 7q170 13 262 51q-83 1 -168 27
q-86 28 -141 73q-130 105 -130 281q0 41 7 84q25 142 106 248q80 106 191 141q92 30 187 3q94 -28 173 -107q148 -147 183 -392q35 -253 -76 -423q-123 -188 -409 -254q-104 -24 -233 -31q-48 -3 -104 -4q-21 -1 -46 -1h-42zM604 1491q0 -69 -54 -126q-54 -55 -119 -55
q-67 0 -144 54q-54 58 -54 127q0 62 58 122q59 60 125 60q67 0 127 -56q61 -57 61 -126z" />
    <glyph glyph-name="uni0641.medi" unicode="&#x641;" horiz-adv-x="1068" arabic-form="medial" 
d="M453 687q-52 -61 -52 -128q0 -64 43 -120q39 -48 85 -64q123 76 123 192q0 66 -48 123q-43 50 -75 50q-31 0 -76 -53zM960 0q-63 1 -113 4q-129 7 -230 28q-44 9 -86 22q-40 -13 -83 -22q-98 -21 -224 -28q-50 -2 -112 -3l-54 -1h-58q-59 0 -103 44q-43 43 -43 104
q0 62 43 105q44 44 103 43h95q53 2 94 3q-73 114 -69 258q3 128 65 243q61 111 156 174t203 63q101 0 189 -58t143 -160q67 -124 65 -267t-72 -252q84 -6 199 -4q61 0 105 -43q43 -43 43 -105q0 -61 -43 -105q-44 -43 -105 -43h-108zM677 1341q0 -69 -54 -126
q-54 -55 -119 -55q-67 0 -144 54q-54 58 -54 127q0 62 58 122q59 60 125 60q67 0 127 -56q61 -57 61 -126z" />
    <glyph glyph-name="uni0641.fina" unicode="&#x641;" horiz-adv-x="2197" arabic-form="final" 
d="M1665 378q58 35 90 76q42 53 42 116q0 65 -45 122q-40 51 -71 51q-32 0 -80 -54q-56 -61 -56 -127q0 -65 40 -120q35 -49 80 -64zM2196 296q61 0 104 -43q44 -44 44 -105t-44 -105q-43 -43 -103 -43q-148 0 -258 10q-153 14 -270 49q-34 -12 -70 -22q-133 -37 -308 -49
q-66 -5 -142 -7q-29 0 -62 -1h-64q-33 0 -70 1q-50 2 -101 6q-139 11 -259 38q-306 67 -429 221q-132 166 -108 359q21 168 160 325q40 46 102 50q61 4 107 -37q46 -40 50 -102q3 -61 -37 -107q-79 -89 -88 -166q-9 -69 46 -137q52 -66 229 -110t391 -44h73q40 0 75 1
q93 3 169 11q-70 110 -70 250q0 182 113 329q129 168 315 168q154 0 264 -122q67 -75 100 -180q32 -105 20 -211q-13 -123 -75 -221q83 -6 196 -6zM1811 1361q0 -69 -54 -126q-54 -55 -119 -55q-67 0 -144 54q-54 58 -54 127q0 62 58 122q59 60 125 60q67 0 127 -56
q61 -57 61 -126z" />
    <glyph glyph-name="uni0642.init" unicode="&#x642;" horiz-adv-x="960" arabic-form="initial" 
d="M460 927h-3q-32 1 -67 -52t-47 -122q-7 -39 1 -57q3 -6 9 -10l4 -3l4 -3q36 -30 120 -49q92 -22 157 -7q0 94 -38 170q-27 55 -78 105q-29 29 -58 29zM0 0q-61 0 -105 43q-43 44 -43 105q0 62 43 105q44 43 105 43l23 1h84q72 2 133 7q170 13 262 51q-83 1 -168 27
q-86 28 -141 73q-130 105 -130 281q0 41 7 84q25 142 106 248q80 106 191 141q92 30 187 3q94 -28 173 -107q148 -147 183 -392q35 -253 -76 -423q-123 -188 -409 -254q-104 -24 -233 -31q-48 -3 -104 -4q-21 -1 -46 -1h-42zM90 1307q-34 21 -50 58q-22 50 -3 101
q20 51 70 73q104 48 273 80q122 23 299 -6q54 -9 86 -54q32 -44 23 -98t-54 -86q-44 -32 -98 -23q-132 22 -209 6q-121 -20 -212 -61q-26 -11 -54 -11q-39 0 -71 21z" />
    <glyph glyph-name="uni0642.medi" unicode="&#x642;" horiz-adv-x="1068" arabic-form="medial" 
d="M453 687q-52 -61 -52 -128q0 -64 43 -120q39 -48 85 -64q123 76 123 192q0 66 -48 123q-43 50 -75 50q-31 0 -76 -53zM960 0q-63 1 -113 4q-129 7 -230 28q-44 9 -86 22q-40 -13 -83 -22q-98 -21 -224 -28q-50 -2 -112 -3l-54 -1h-58q-59 0 -103 44q-43 43 -43 104
q0 62 43 105q44 44 103 43h95q53 2 94 3q-73 114 -69 258q3 128 65 243q61 111 156 174t203 63q101 0 189 -58t143 -160q67 -124 65 -267t-72 -252q84 -6 199 -4q61 0 105 -43q43 -43 43 -105q0 -61 -43 -105q-44 -43 -105 -43h-108zM162 1139q-34 21 -50 58q-22 50 -3 101
q20 51 70 73q104 48 273 80q122 23 299 -6q54 -9 86 -54q32 -44 23 -98t-54 -86q-44 -32 -98 -23q-132 22 -209 6q-121 -20 -212 -61q-26 -11 -54 -11q-39 0 -71 21z" />
    <glyph glyph-name="uni0642" unicode="&#x642;" horiz-adv-x="1636" arabic-form="isolated" 
d="M1273 286q-20 120 -70 219q-12 25 -25 46q-18 27 -36 48q-47 52 -95 52q-43 0 -77 -35q-63 -65 -61 -184q2 -54 45 -91q85 -71 245 -47q11 2 22 2q27 0 52 -10zM233 -433q-187 187 -187 458q0 311 183 537q39 48 100 55q61 6 108 -32q48 -39 55 -100q6 -61 -32 -109
q-117 -145 -117 -352q-1 -147 100 -248q126 -126 348 -126q216 0 343 129q86 88 124 225l-15 -3q-139 -21 -265 8q-126 30 -215 105q-146 123 -150 312q-5 244 145 397q122 125 289 125q129 0 238 -80t183 -230q109 -217 109 -438q3 -185 -58 -349q-60 -165 -174 -280
q-213 -217 -554 -217q-345 0 -558 213zM682 1067q-34 21 -50 58q-22 50 -3 101q20 51 70 73q104 48 273 80q122 23 299 -6q54 -9 86 -54q32 -44 23 -98t-54 -86q-44 -32 -98 -23q-132 22 -209 6q-121 -20 -212 -61q-26 -11 -54 -11q-39 0 -71 21z" />
    <glyph glyph-name="uni0642.fina" unicode="&#x642;" horiz-adv-x="1570" arabic-form="final" 
d="M949 615q-63 -64 -60 -182q2 -71 55 -98q76 -39 257 -39h50q-20 114 -68 209q-12 25 -26 46q-17 27 -35 48q-47 52 -95 52q-43 0 -78 -36zM213 -433q-187 187 -187 458q0 311 183 537q39 48 100 55q61 6 108 -32q48 -39 55 -100q6 -61 -32 -109q-117 -145 -118 -352
q0 -147 101 -248q125 -126 348 -126q216 0 343 129q85 86 122 220h-35q-252 0 -392 72q-210 107 -216 354q-6 243 144 397q122 126 290 126q129 0 238 -80t183 -230q80 -159 103 -342h20q46 0 104 -44q44 -43 44 -105q0 -61 -44 -104q-58 -44 -104 -43h-31
q-49 -261 -215 -429q-214 -217 -554 -217q-345 0 -558 213zM707 1067q-34 21 -50 58q-22 50 -3 101q20 51 70 73q104 48 273 80q122 23 299 -6q54 -9 86 -54q32 -44 23 -98t-54 -86q-44 -32 -98 -23q-132 22 -209 6q-121 -20 -212 -61q-26 -11 -54 -11q-39 0 -71 21z" />
    <glyph glyph-name="uni0646.init" unicode="&#x646;" horiz-adv-x="744" arabic-form="initial" 
d="M2 0q-61 0 -105 43q-43 44 -43 105q0 62 43 105q44 43 105 43q165 0 240 14q106 20 141 78q9 14 11 50q3 48 -10 113q-25 132 -96 278q-26 55 -6 113t75 85q56 27 114 6q58 -20 84 -75q13 -26 25 -54q16 -37 31 -74q37 -100 57 -191q58 -259 -32 -406q-94 -153 -293 -204
q-76 -19 -174 -25q-39 -3 -86 -4h-81zM483 1322q0 -69 -54 -126q-54 -55 -119 -55q-67 0 -144 54q-54 58 -54 127q0 62 58 122q59 60 125 60q67 0 127 -56q61 -57 61 -126z" />
    <glyph glyph-name="uni0646.medi" unicode="&#x646;" horiz-adv-x="748" arabic-form="medial" 
d="M745 296q62 0 105 -43t43 -105q0 -61 -43 -105q-43 -43 -105 -43q-150 0 -258 84q-20 15 -39 34q-135 -118 -447 -118q-61 0 -105 43q-43 44 -43 105q0 62 43 105q44 43 105 43q91 0 148 9q83 12 110 43q41 45 27 188q-4 32 -7 70l-3 34l-3 33q-3 43 -5 61q-6 62 34 109
q39 47 100 53t108 -34q48 -39 53 -100q2 -21 6 -66q18 -230 55 -315q38 -85 121 -85zM482 1209q0 -69 -54 -126q-54 -55 -119 -55q-67 0 -144 54q-54 58 -54 127q0 62 58 122q59 60 125 60q67 0 127 -56q61 -57 61 -126z" />
    <glyph glyph-name="uni0646" unicode="&#x646;" horiz-adv-x="1630" arabic-form="isolated" 
d="M232 -469q-184 184 -184 449q0 143 54 296t145 265q38 48 99 54q61 7 109 -31q48 -39 55 -100q6 -61 -32 -109q-58 -72 -96 -178q-37 -106 -38 -198q0 -142 97 -239q127 -127 356 -127q289 0 399 159q82 120 75 328q-6 204 -95 440q-22 58 4 114q25 55 83 77
q57 22 113 -4q56 -25 78 -83q105 -282 114 -534q10 -306 -129 -506q-97 -141 -258 -213q-163 -74 -384 -74q-352 0 -565 214zM1004 658q0 -69 -54 -126q-54 -55 -119 -55q-67 0 -144 54q-54 58 -54 127q0 62 58 122q59 60 125 60q67 0 127 -56q61 -57 61 -126z" />
    <glyph glyph-name="uni0646.fina" unicode="&#x646;" horiz-adv-x="1779" arabic-form="final" 
d="M1780 297q61 0 104 -43q44 -43 44 -105q0 -61 -44 -105q-43 -43 -104 -43q-126 0 -218 38q-7 -253 -125 -428q-98 -143 -261 -218q-165 -76 -389 -76q-352 0 -565 214q-184 184 -184 449q0 143 54 296t145 265q38 48 99 54q61 7 109 -31q48 -39 55 -100q6 -61 -32 -109
q-58 -72 -96 -178q-37 -106 -38 -198q0 -142 97 -239q127 -127 356 -127q293 0 404 165q81 119 75 323q-7 204 -99 436q-22 55 1 110q22 56 76 80q55 25 113 3t83 -77q108 -240 191 -311q52 -45 149 -45zM982 658q0 -69 -54 -126q-54 -55 -119 -55q-67 0 -144 54
q-54 58 -54 127q0 62 58 122q59 60 125 60q67 0 127 -56q61 -57 61 -126z" />
    <glyph glyph-name="uni06C0" unicode="&#x6c0;" horiz-adv-x="993" arabic-form="isolated" 
d="M187 67q-137 119 -137 309q0 105 42 199q16 35 39 72q9 14 20 30l10 14l9 13q14 20 20 29q34 51 94 63t111 -22q52 -34 64 -94t-22 -111l-13 -19l-13 -18q-65 -91 -65 -156q0 -73 61 -102q21 -11 47 -15q10 -1 19 -2h7l6 -1q17 0 42 5q33 7 60 18q75 33 75 96
q0 107 -126 269q-58 74 -127 137q-60 55 -108 83q-53 30 -70 89q-16 59 15 113q30 53 89 69q60 17 113 -14q167 -95 323 -296q79 -102 126 -202q61 -132 61 -248q0 -213 -184 -331q-130 -84 -289 -84q-176 0 -299 107zM212 1234q-23 0 -40 16t-19 39q-2 25 15 43
q16 19 40 20q49 4 108 27q67 27 91 59q7 8 8 16v8l-1 1q-4 7 -32 13q-10 2 -24 4l-11 2l-10 2l-24 3l-25 5q-27 6 -46 15q-71 33 -69 107q3 103 89 181q54 48 127 74q74 26 141 21q25 -2 41 -21q16 -18 14 -43q-2 -24 -21 -40t-43 -14q-98 8 -179 -65q-20 -18 -33 -38
q-16 -26 -17 -55q8 -3 29 -8l18 -3l16 -2l12 -2l13 -2l26 -5q31 -7 53 -18q59 -28 72 -87q13 -64 -29 -121q-43 -56 -136 -94q-79 -33 -150 -38h-4z" />
    <glyph glyph-name="uni06C0.fina" unicode="&#x6c0;" horiz-adv-x="1226" arabic-form="final" 
d="M741 264q-39 84 -62 200q-9 46 -17 103l-7 50l-6 50l-2 14l-2 15l-4 31q-5 37 -9 62q-112 -71 -199 -184q-56 -73 -79 -135q-10 -24 -13 -44q-2 -17 0 -27l1 -2l1 -3q3 -3 11 -8q7 -4 16 -7q13 -5 28 -9q40 -9 98 -10q61 0 104 -44t42 -106q-1 -61 -45 -104t-105 -42
q-176 2 -286 65q-126 73 -155 209q-43 202 147 448q164 212 369 305q66 30 128 26q48 -4 89 -27q59 -33 95 -103q13 -24 22 -52q3 -10 7 -22l4 -16q14 -58 31 -195q29 -239 72 -322q43 -84 135 -84q63 0 107 -43q43 -43 43 -105q0 -61 -43 -105q-44 -43 -107 -43
q-284 0 -409 264zM485 1218q-23 0 -40 16t-19 39q-2 25 15 43q16 19 40 20q49 4 108 27q67 27 91 59q7 8 8 16v8l-1 1q-4 7 -32 13q-10 2 -24 4l-11 2l-10 2l-24 3l-25 5q-27 6 -46 15q-71 33 -69 107q3 103 89 181q54 48 127 74q74 26 141 21q25 -2 41 -21q16 -18 14 -43
q-2 -24 -21 -40t-43 -14q-98 8 -179 -65q-20 -18 -33 -38q-16 -26 -17 -55q8 -3 29 -8l18 -3l16 -2l12 -2l13 -2l26 -5q31 -7 53 -18q59 -28 72 -87q13 -64 -29 -121q-43 -56 -136 -94q-79 -33 -150 -38h-4z" />
    <glyph glyph-name="uni0624" unicode="&#x624;" horiz-adv-x="1111" arabic-form="isolated" 
d="M770 236v13q0 124 -64 254q-73 150 -171 150q-43 0 -77 -35q-63 -64 -61 -184q2 -61 45 -98q67 -57 186 -40q11 2 22 2q76 0 120 -62zM136 -649q-41 33 -52 84q-14 60 19 112t93 65q164 37 304 142q150 112 220 265q-23 -12 -49 -16q-120 -17 -230 11q-110 27 -190 96
q-146 123 -150 318q-5 244 145 398q122 124 289 124q127 0 236 -72q108 -73 183 -208q113 -203 113 -421q0 -175 -70 -337q-64 -149 -182 -274q-228 -242 -554 -315q-16 -4 -33 -4q-51 0 -92 32zM215 1007q-14 25 -6 52q7 28 32 42l128 73l-3 2q-52 32 -80 90
q-29 58 -23 121q6 57 40 108q33 51 86 81q101 57 218 24q27 -8 41 -33t6 -53q-8 -27 -33 -41t-52 -6q-62 17 -112 -11q-51 -29 -56 -83q-5 -53 37 -79q34 -21 88 -9q38 7 115 45q25 12 52 4q26 -9 39 -34t6 -51q-8 -27 -32 -41l-396 -227q-16 -9 -35 -9q-40 0 -60 35z" />
    <glyph glyph-name="uni0624.fina" unicode="&#x624;" horiz-adv-x="1097" arabic-form="final" 
d="M470 618q-63 -64 -60 -184q1 -62 47 -90q30 -20 79 -31q64 -15 154 -15h89q-15 126 -74 232q-70 123 -158 123q-42 0 -77 -35zM1190 252q42 -43 41 -103q0 -62 -43 -105t-85 -43h-69q-14 -45 -33 -89q-64 -149 -181 -274q-228 -242 -555 -315q-16 -4 -32 -4q-51 0 -92 32
q-41 33 -53 84q-13 60 20 112t93 65q158 35 296 136q146 107 219 253h-34q-334 0 -479 166q-54 60 -78 140q-18 58 -20 121q-5 244 146 398q121 124 288 124q128 0 236 -72q108 -73 184 -208q96 -175 110 -374h34q50 -6 87 -44zM180 999q-14 25 -6 52q7 28 32 42l128 73
l-3 2q-52 32 -80 90q-29 58 -23 121q6 57 40 108q33 51 86 81q101 57 218 24q27 -8 41 -33t6 -53q-8 -27 -33 -41t-52 -6q-62 17 -112 -11q-51 -29 -56 -83q-5 -53 37 -79q34 -21 88 -9q38 7 115 45q25 12 52 4q26 -9 39 -34t6 -51q-8 -27 -32 -41l-396 -227q-16 -9 -35 -9
q-40 0 -60 35z" />
    <glyph glyph-name="uni0649.init" unicode="&#x649;" horiz-adv-x="723" arabic-form="initial" 
d="M2 0q-61 0 -105 43q-43 44 -43 105q0 62 43 105q44 43 105 43q165 0 240 14q106 20 141 78q9 14 11 50q3 48 -10 113q-25 132 -96 278q-26 55 -6 113t75 85q56 27 114 6q58 -20 84 -75q13 -26 25 -54q16 -37 31 -74q37 -100 57 -191q58 -259 -32 -406q-94 -153 -293 -204
q-76 -19 -174 -25q-39 -3 -86 -4h-81z" />
    <glyph glyph-name="uni0649.medi" unicode="&#x649;" horiz-adv-x="748" arabic-form="medial" 
d="M745 296q62 0 105 -43t43 -105q0 -61 -43 -105q-43 -43 -105 -43q-150 0 -258 84q-20 15 -39 34q-135 -118 -447 -118q-61 0 -105 43q-43 44 -43 105q0 62 43 105q44 43 105 43q91 0 148 9q83 12 110 43q41 45 27 188q-4 32 -7 70l-3 34l-3 33q-3 43 -5 61q-6 62 34 109
q39 47 100 53t108 -34q48 -39 53 -100q2 -21 6 -66q18 -230 55 -315q38 -85 121 -85z" />
    <glyph glyph-name="uni064A.init" unicode="&#x64a;" horiz-adv-x="838" arabic-form="initial" 
d="M2 0q-61 0 -105 43q-43 44 -43 105q0 62 43 105q44 43 105 43q235 0 310 14q106 20 141 78q9 14 11 50q3 48 -10 113q-25 132 -96 278q-26 55 -6 113t75 85q56 27 114 6q58 -20 84 -75q13 -26 25 -54q16 -37 31 -74q37 -100 57 -191q58 -259 -32 -406q-94 -153 -293 -204
q-76 -19 -174 -25q-39 -3 -106 -4h-131zM58 -478q-34 21 -50 58q-22 50 -3 101q20 51 70 73q104 48 273 80q122 23 299 -6q54 -9 86 -54q32 -44 23 -98t-54 -86q-44 -32 -98 -23q-132 22 -209 6q-121 -20 -212 -61q-26 -11 -54 -11q-39 0 -71 21z" />
    <glyph glyph-name="uni064A.medi" unicode="&#x64a;" horiz-adv-x="852" arabic-form="medial" 
d="M851 296q62 0 105 -43t43 -105q0 -61 -43 -105q-43 -43 -105 -43q-156 0 -264 94q-20 15 -39 34q-109 -128 -547 -128q-61 0 -105 43q-43 44 -43 105q0 62 43 105q44 43 105 43q279 7 338.5 68.5t46.5 171.5q-4 32 -7 70l-3 34l-3 33q-3 43 -5 61q-6 62 34 109
q39 47 100 53t108 -34q48 -39 53 -100q2 -21 6 -66q18 -230 55 -315q38 -85 127 -85zM62 -478q-34 21 -50 58q-22 50 -3 101q20 51 70 73q104 48 273 80q122 23 299 -6q54 -9 86 -54q32 -44 23 -98t-54 -86q-44 -32 -98 -23q-132 22 -209 6q-121 -20 -212 -61
q-26 -11 -54 -11q-39 0 -71 21z" />
    <glyph glyph-name="uni064A" unicode="&#x64a;" horiz-adv-x="1860" arabic-form="isolated" 
d="M416 -585q-355 180 -371 584q-7 163 46 348q40 140 111 284q28 55 86 74q58 20 113 -8q55 -27 75 -85q19 -59 -8 -114q-136 -272 -127 -487q9 -230 209 -331q183 -92 425 -39t364 212l4 5q-15 3 -35 5l-17 3l-15 2l-31 4l-32 4q-36 5 -65 11q-73 15 -126 38
q-192 85 -187 283q4 147 74 289q69 141 193 252q123 111 271 168q149 56 288 45q61 -5 101 -52t35 -108t-52 -101q-46 -40 -108 -35q-78 6 -169 -30q-90 -37 -168 -107q-163 -147 -168 -328q6 -3 16 -7q14 -6 32 -10q26 -7 64 -13l35 -5l35 -4l42 -6l43 -6q47 -8 81 -18
q134 -39 177 -142q34 -81 0 -175q-23 -64 -82 -142q-124 -162 -336 -255q-204 -91 -429 -91q-219 0 -394 88zM473 -1134q-34 21 -50 58q-22 50 -3 101q20 51 70 73q104 48 273 80q122 23 299 -6q54 -9 86 -54q32 -44 23 -98t-54 -86q-44 -32 -98 -23q-132 22 -209 6
q-121 -20 -212 -61q-26 -11 -54 -11q-39 0 -71 21z" />
    <glyph glyph-name="uni064A.fina" unicode="&#x64a;" horiz-adv-x="1715" arabic-form="final" 
d="M758 -661q-35 2 -69 6q-91 11 -174 35q-205 60 -329 188q-166 174 -155 437q4 105 40 256q14 59 35 134l18 67l19 64q18 60 25 86q17 60 71 90q53 29 112 13q59 -17 89 -71q30 -53 13 -112q-8 -28 -25 -89l-8 -28l-9 -28l-16 -59q-19 -67 -32 -119q-33 -136 -36 -216
q-6 -137 73 -219q71 -74 206 -111q103 -29 203 -29q222 0 395 84q55 27 89 57q14 11 23 22q7 9 11 16q-7 7 -16 15q-13 11 -32 23q-37 26 -135 79l-47 25l-46 26q-51 30 -87 56q-41 30 -64 56q-45 49 -47 108q-1 21 3 42q2 8 4 15q2 6 4 11q6 13 14 26q11 17 26 30
q41 37 103 44q30 2 74 -2q43 -4 163 -23l25 -4l27 -4q30 -4 55 -8q64 -10 118 -16q142 -17 247 -16q61 -1 104 -44q44 -44 44 -105t-44 -105q-43 -43 -104 -42q-56 -1 -173 26q-101 23 -188 52q110 -44 187 -115q84 -78 84 -152q0 -201 -261 -342q-245 -131 -556 -131
q-25 0 -51 1zM458 -1109q-34 21 -50 58q-22 50 -3 101q20 51 70 73q104 48 273 80q122 23 299 -6q54 -9 86 -54q32 -44 23 -98t-54 -86q-44 -32 -98 -23q-132 22 -209 6q-121 -20 -212 -61q-26 -11 -54 -11q-39 0 -71 21z" />
    <glyph glyph-name="uni06CC" unicode="&#x6cc;" horiz-adv-x="1860" arabic-form="isolated" 
d="M416 -585q-355 180 -371 584q-7 163 46 348q40 140 111 284q28 55 86 74q58 20 113 -8q55 -27 75 -85q19 -59 -8 -114q-136 -272 -127 -487q9 -230 209 -331q183 -92 425 -39t364 212l4 5q-15 3 -35 5l-17 3l-15 2l-31 4l-32 4q-36 5 -65 11q-73 15 -126 38
q-192 85 -187 283q4 147 74 289q69 141 193 252q123 111 271 168q149 56 288 45q61 -5 101 -52t35 -108t-52 -101q-46 -40 -108 -35q-78 6 -169 -30q-90 -37 -168 -107q-163 -147 -168 -328q6 -3 16 -7q14 -6 32 -10q26 -7 64 -13l35 -5l35 -4l42 -6l43 -6q47 -8 81 -18
q134 -39 177 -142q34 -81 0 -175q-23 -64 -82 -142q-124 -162 -336 -255q-204 -91 -429 -91q-219 0 -394 88z" />
    <glyph glyph-name="uni06CC.init" unicode="&#x6cc;" horiz-adv-x="801" arabic-form="initial" 
d="M2 0q-61 0 -105 43q-43 44 -43 105q0 62 43 105q44 43 105 43q235 0 310 14q106 20 141 78q9 14 11 50q3 48 -10 113q-25 132 -96 278q-26 55 -6 113t75 85q56 27 114 6q58 -20 84 -75q13 -26 25 -54q16 -37 31 -74q37 -100 57 -191q58 -259 -32 -406q-94 -153 -293 -204
q-76 -19 -174 -25q-39 -3 -106 -4h-131zM60 -478q-34 21 -50 58q-22 50 -3 101q20 51 70 73q104 48 273 80q122 23 299 -6q54 -9 86 -54q32 -44 23 -98t-54 -86q-44 -32 -98 -23q-132 22 -209 6q-121 -20 -212 -61q-26 -11 -54 -11q-39 0 -71 21z" />
    <glyph glyph-name="uni06CC.medi" unicode="&#x6cc;" horiz-adv-x="852" arabic-form="medial" 
d="M851 296q62 0 105 -43t43 -105q0 -61 -43 -105q-43 -43 -105 -43q-156 0 -264 94q-20 15 -39 34q-109 -128 -547 -128q-61 0 -105 43q-43 44 -43 105q0 62 43 105q44 43 105 43q279 7 338.5 68.5t46.5 171.5q-4 32 -7 70l-3 34l-3 33q-3 43 -5 61q-6 62 34 109
q39 47 100 53t108 -34q48 -39 53 -100q2 -21 6 -66q18 -230 55 -315q38 -85 127 -85zM60 -478q-34 21 -50 58q-22 50 -3 101q20 51 70 73q104 48 273 80q122 23 299 -6q54 -9 86 -54q32 -44 23 -98t-54 -86q-44 -32 -98 -23q-132 22 -209 6q-121 -20 -212 -61
q-26 -11 -54 -11q-39 0 -71 21z" />
    <glyph glyph-name="uni06CC.fina" unicode="&#x6cc;" horiz-adv-x="1715" arabic-form="final" 
d="M758 -661q-35 2 -69 6q-91 11 -174 35q-205 60 -329 188q-166 174 -155 437q4 105 40 256q14 59 35 134l18 67l19 64q18 60 25 86q17 60 71 90q53 29 112 13q59 -17 89 -71q30 -53 13 -112q-8 -28 -25 -89l-8 -28l-9 -28l-16 -59q-19 -67 -32 -119q-33 -136 -36 -216
q-6 -137 73 -219q71 -74 206 -111q103 -29 203 -29q222 0 395 84q55 27 89 57q14 11 23 22q7 9 11 16q-7 7 -16 15q-13 11 -32 23q-37 26 -135 79l-47 25l-46 26q-51 30 -87 56q-41 30 -64 56q-45 49 -47 108q-1 21 3 42q2 8 4 15q2 6 4 11q6 13 14 26q11 17 26 30
q41 37 103 44q30 2 74 -2q43 -4 163 -23l25 -4l27 -4q30 -4 55 -8q64 -10 118 -16q142 -17 247 -16q61 -1 104 -44q44 -44 44 -105t-44 -105q-43 -43 -104 -42q-56 -1 -173 26q-101 23 -188 52q110 -44 187 -115q84 -78 84 -152q0 -201 -261 -342q-245 -131 -556 -131
q-25 0 -51 1z" />
    <glyph glyph-name="uni06D3" unicode="&#x6d3;" horiz-adv-x="1784" arabic-form="isolated" 
d="M1160 -473q-566 0 -756 25q-233 31 -308 138q-67 94 -25 213q30 82 93 151q83 90 219 147q221 95 555 95h62q50 1 67 1q61 0 105 -44q43 -43 43 -105q0 -61 -43 -104q-44 -44 -105 -44h-129q-274 0 -439 -71q-74 -32 -114 -74q66 -13 177 -20q171 -12 598 -12h476
q61 0 104 -43q44 -43 44 -105q0 -61 -44 -105q-43 -43 -104 -43h-476zM87 295q-14 25 -6 52q7 28 32 42l128 73l-3 2q-52 32 -80 90q-29 58 -23 121q6 57 40 108q33 51 86 81q101 57 218 24q27 -8 41 -33t6 -53q-8 -27 -33 -41t-52 -6q-62 17 -112 -11q-51 -29 -56 -83
q-5 -53 37 -79q34 -21 88 -9q38 7 115 45q25 12 52 4q26 -9 39 -34t6 -51q-8 -27 -32 -41l-396 -227q-16 -9 -35 -9q-40 0 -60 35z" />
    <glyph glyph-name="uni06D3.fina" unicode="&#x6d3;" horiz-adv-x="1319" arabic-form="final" 
d="M408 -448q-233 31 -308 138q-66 94 -24 213q29 82 93 151q83 90 218 147q221 95 556 94h183q83 0 123 1h70q61 1 105 -43q43 -43 43 -105q0 -61 -43 -104q-44 -44 -105 -44h-376q-274 0 -439 -71q-74 -32 -115 -74q66 -13 177 -20q172 -12 599 -12q61 0 104 -43
q44 -43 44 -105q0 -61 -44 -105q-43 -43 -104 -43q-567 0 -757 25zM154 301q-14 25 -6 52q7 28 32 42l128 73l-3 2q-52 32 -80 90q-29 58 -23 121q6 57 40 108q33 51 86 81q101 57 218 24q27 -8 41 -33t6 -53q-8 -27 -33 -41t-52 -6q-62 17 -112 -11q-51 -29 -56 -83
q-5 -53 37 -79q34 -21 88 -9q38 7 115 45q25 12 52 4q26 -9 39 -34t6 -51q-8 -27 -32 -41l-396 -227q-16 -9 -35 -9q-40 0 -60 35z" />
    <glyph glyph-name="uni0626" unicode="&#x626;" horiz-adv-x="1804" arabic-form="isolated" 
d="M416 -585q-355 180 -371 584q-7 163 46 348q40 140 111 284q28 55 86 74q58 20 113 -8q55 -27 75 -85q19 -59 -8 -114q-136 -272 -127 -487q9 -230 209 -331q183 -92 425 -39t364 212l4 5q-15 3 -35 5l-17 3l-15 2l-31 4l-32 4q-36 5 -65 11q-73 15 -126 38
q-192 85 -187 283q4 147 74 289q69 141 193 252q123 111 271 168q149 56 288 45q61 -5 101 -52t35 -108t-52 -101q-46 -40 -108 -35q-78 6 -169 -30q-90 -37 -168 -107q-163 -147 -168 -328q6 -3 16 -7q14 -6 32 -10q26 -7 64 -13l35 -5l35 -4l42 -6l43 -6q47 -8 81 -18
q134 -39 177 -142q34 -81 0 -175q-23 -64 -82 -142q-124 -162 -336 -255q-204 -91 -429 -91q-219 0 -394 88zM341 805q-14 25 -6 52q7 28 32 42l128 73l-3 2q-52 32 -80 90q-29 58 -23 121q6 57 40 108q33 51 86 81q101 57 218 24q27 -8 41 -33t6 -53q-8 -27 -33 -41t-52 -6
q-62 17 -112 -11q-51 -29 -56 -83q-5 -53 37 -79q34 -21 88 -9q38 7 115 45q25 12 52 4q26 -9 39 -34t6 -51q-8 -27 -32 -41l-396 -227q-16 -9 -35 -9q-40 0 -60 35z" />
    <glyph glyph-name="uni0626.init" unicode="&#x626;" horiz-adv-x="838" arabic-form="initial" 
d="M2 0q-61 0 -105 43q-43 44 -43 105q0 62 43 105q44 43 105 43q235 0 310 14q106 20 141 78q9 14 11 50q3 48 -10 113q-25 132 -96 278q-26 55 -6 113t75 85q56 27 114 6q58 -20 84 -75q13 -26 25 -54q16 -37 31 -74q37 -100 57 -191q58 -259 -32 -406q-94 -153 -293 -204
q-76 -19 -174 -25q-39 -3 -106 -4h-131zM135 1059q-14 25 -6 52q7 28 32 42l128 73l-3 2q-52 32 -80 90q-29 58 -23 121q6 57 40 108q33 51 86 81q101 57 218 24q27 -8 41 -33t6 -53q-8 -27 -33 -41t-52 -6q-62 17 -112 -11q-51 -29 -56 -83q-5 -53 37 -79q34 -21 88 -9
q38 7 115 45q25 12 52 4q26 -9 39 -34t6 -51q-8 -27 -32 -41l-396 -227q-16 -9 -35 -9q-40 0 -60 35z" />
    <glyph glyph-name="uni0626.medi" unicode="&#x626;" horiz-adv-x="852" arabic-form="medial" 
d="M851 296q62 0 105 -43t43 -105q0 -61 -43 -105q-43 -43 -105 -43q-156 0 -264 94q-20 15 -39 34q-109 -128 -547 -128q-61 0 -105 43q-43 44 -43 105q0 62 43 105q44 43 105 43q279 7 338.5 68.5t46.5 171.5q-4 32 -7 70l-3 34l-3 33q-3 43 -5 61q-6 62 34 109
q39 47 100 53t108 -34q48 -39 53 -100q2 -21 6 -66q18 -230 55 -315q38 -85 127 -85zM113 870q-14 25 -6 52q7 28 32 42l128 73l-3 2q-52 32 -80 90q-29 58 -23 121q6 57 40 108q33 51 86 81q101 57 218 24q27 -8 41 -33t6 -53q-8 -27 -33 -41t-52 -6q-62 17 -112 -11
q-51 -29 -56 -83q-5 -53 37 -79q34 -21 88 -9q38 7 115 45q25 12 52 4q26 -9 39 -34t6 -51q-8 -27 -32 -41l-396 -227q-16 -9 -35 -9q-40 0 -60 35z" />
    <glyph glyph-name="uni0626.fina" unicode="&#x626;" horiz-adv-x="1715" arabic-form="final" 
d="M758 -661q-35 2 -69 6q-91 11 -174 35q-205 60 -329 188q-166 174 -155 437q4 105 40 256q14 59 35 134l18 67l19 64q18 60 25 86q17 60 71 90q53 29 112 13q59 -17 89 -71q30 -53 13 -112q-8 -28 -25 -89l-8 -28l-9 -28l-16 -59q-19 -67 -32 -119q-33 -136 -36 -216
q-6 -137 73 -219q71 -74 206 -111q103 -29 203 -29q222 0 395 84q55 27 89 57q14 11 23 22q7 9 11 16q-7 7 -16 15q-13 11 -32 23q-37 26 -135 79l-47 25l-46 26q-51 30 -87 56q-41 30 -64 56q-45 49 -47 108q-1 21 3 42q2 8 4 15q2 6 4 11q6 13 14 26q11 17 26 30
q41 37 103 44q30 2 74 -2q43 -4 163 -23l25 -4l27 -4q30 -4 55 -8q64 -10 118 -16q142 -17 247 -16q61 -1 104 -44q44 -44 44 -105t-44 -105q-43 -43 -104 -42q-56 -1 -173 26q-101 23 -188 52q110 -44 187 -115q84 -78 84 -152q0 -201 -261 -342q-245 -131 -556 -131
q-25 0 -51 1zM364 778q-14 25 -6 52q7 28 32 42l128 73l-3 2q-52 32 -80 90q-29 58 -23 121q6 57 40 108q33 51 86 81q101 57 218 24q27 -8 41 -33t6 -53q-8 -27 -33 -41t-52 -6q-62 17 -112 -11q-51 -29 -56 -83q-5 -53 37 -79q34 -21 88 -9q38 7 115 45q25 12 52 4
q26 -9 39 -34t6 -51q-8 -27 -32 -41l-396 -227q-16 -9 -35 -9q-40 0 -60 35z" />
    <glyph glyph-name="uni06C2.fina" unicode="&#x6c2;" horiz-adv-x="1347" 
d="M211 7q-41 31 -53 81q-45 177 1 360q47 185 167 304q85 85 193 117q117 36 242 3q134 -35 232 -149q38 -44 75 -105q14 -25 31 -55l15 -26l13 -27q67 -125 105 -165q46 -49 114 -49q61 0 105 -43q43 -44 43 -105t-43 -105q-44 -43 -105 -43q-192 0 -324 136
q-46 47 -88 113q-16 27 -35 61l-33 61q-56 106 -87 145q-43 56 -93 69q-85 22 -151 -43q-64 -63 -89 -172q-26 -109 -1 -210q15 -59 -16 -112q-32 -53 -91 -67q-18 -5 -36 -5q-51 0 -91 31zM92 910q-14 25 -6 52q7 28 32 42l128 73l-3 2q-52 32 -80 90q-29 58 -23 121
q6 57 40 108q33 51 86 81q101 57 218 24q27 -8 41 -33t6 -53q-8 -27 -33 -41t-52 -6q-62 17 -112 -11q-51 -29 -56 -83q-5 -53 37 -79q34 -21 88 -9q38 7 115 45q25 12 52 4q26 -9 39 -34t6 -51q-8 -27 -32 -41l-396 -227q-16 -9 -35 -9q-40 0 -60 35z" />
    <glyph glyph-name="uni06C1" unicode="&#x6c1;" horiz-adv-x="1002" arabic-form="isolated" 
d="M187 67q-137 119 -137 309q0 105 42 199q16 35 39 72q9 14 20 30l10 14l9 13q14 20 20 29q34 51 94 63t111 -22q52 -34 64 -94t-22 -111l-13 -19l-13 -18q-65 -91 -65 -156q0 -73 61 -102q21 -11 47 -15q10 -1 19 -2h7l6 -1q17 0 42 5q33 7 60 18q75 33 75 96
q0 107 -126 269q-58 74 -127 137q-60 55 -108 83q-53 30 -70 89q-16 59 15 113q30 53 89 69q60 17 113 -14q167 -95 323 -296q79 -102 126 -202q61 -132 61 -248q0 -213 -184 -331q-130 -84 -289 -84q-176 0 -299 107z" />
    <glyph glyph-name="uni06C3.fina" unicode="&#x6c3;" horiz-adv-x="1347" 
d="M211 7q-41 31 -53 81q-45 177 1 360q47 185 167 304q85 85 193 117q117 36 242 3q134 -35 232 -149q38 -44 75 -105q14 -25 31 -55l15 -26l13 -27q67 -125 105 -165q46 -49 114 -49q61 0 105 -43q43 -44 43 -105t-43 -105q-44 -43 -105 -43q-192 0 -324 136
q-46 47 -88 113q-16 27 -35 61l-33 61q-56 106 -87 145q-43 56 -93 69q-85 22 -151 -43q-64 -63 -89 -172q-26 -109 -1 -210q15 -59 -16 -112q-32 -53 -91 -67q-18 -5 -36 -5q-51 0 -91 31zM253 989q-34 21 -50 58q-22 50 -3 101q20 51 70 73q104 48 273 80q122 23 299 -6
q54 -9 86 -54q32 -44 23 -98t-54 -86q-44 -32 -98 -23q-132 22 -209 6q-121 -20 -212 -61q-26 -11 -54 -11q-39 0 -71 21z" />
    <glyph glyph-name="uni06BE.init" unicode="&#x6be;" horiz-adv-x="1580" arabic-form="initial" 
d="M473 438q36 -51 90 -85q66 24 114 67q60 52 75 120q20 87 4 153q-22 91 -111 116q-64 18 -131 -59q-24 -28 -44 -63q-17 -30 -22 -50q-34 -117 25 -199zM992 365q-24 -57 -62 -106q1 0 18 -1q8 -1 15 -2q9 -1 18 -1q51 -3 94 4q134 24 169 143q20 69 -32 150
q-56 86 -169 140q17 -169 -51 -327zM636 2q-57 16 -108 38q-115 -25 -266 -34q-103 -6 -263 -6q-61 0 -105 43q-43 44 -43 105t43 105q44 43 105 43h46q27 0 50 1q59 0 109 3q-88 149 -64 334q27 207 176 340q16 14 34 27q-37 27 -52 70q-16 45 -3 90q16 59 70 89t113 13
q56 -16 116 -35q83 -28 163 -59q216 -84 375 -184q183 -115 280 -245q129 -174 103 -364q-20 -145 -121 -247q-101 -103 -265 -143q-96 -24 -207 -24q-145 0 -286 40z" />
    <glyph glyph-name="uni06BE.medi" unicode="&#x6be;" horiz-adv-x="1056" arabic-form="medial" 
d="M538 695q-70 -40 -119 -155q-43 -103 -53 -225q185 36 222 167q17 62 -1 142q-7 30 -17 52q-5 9 -9 16q-4 6 -7 10q-7 -3 -16 -7zM668 -611q-215 57 -385 282q-63 84 -112 182q-41 81 -59 146h-117q-61 0 -105 44q-43 43 -43 105q0 61 43 104q44 44 105 44h52l21 -1
q7 201 85 374q88 200 241 285q90 49 178 45q89 -4 162 -61q104 -82 142 -247q35 -153 -3 -288q-32 -116 -110 -202q-102 -113 -275 -162q-13 -3 -44 -9l-24 -5q-14 -2 -20 -3q16 -64 69 -157q58 -101 110 -145q-42 260 141 427q146 132 338 148q62 5 108 -34q47 -40 52 -101
q6 -61 -34 -108q-40 -52 -131 -52q-137 -15 -200.5 -128t-1.5 -275q21 -40 16 -86q-6 -46 -36 -80q-44 -51 -111 -51q-17 0 -52 9z" />
    <glyph glyph-name="fathatan_01" unicode="&#xfe70;" arabic-form="isolated" 
d="M-269 1639q-9 24 2 46q10 22 34 30l432 154q23 8 45 -2q23 -11 31 -34t-2 -45q-11 -23 -34 -31l-433 -154q-9 -3 -20 -3q-41 0 -55 39zM-269 1896q-9 23 2 45q10 22 34 30l432 154q23 8 45 -2q23 -11 31 -34t-2 -45q-11 -23 -34 -31l-433 -153q-9 -4 -20 -4q-41 0 -55 40
z" />
    <glyph glyph-name="dammatan_01" unicode="&#xfe72;" arabic-form="isolated" 
d="M102 1962q-36 -29 -28 -70q12 -64 109 -99q45 79 32 136q-7 30 -38 44q-13 6 -28 6q-25 0 -47 -17zM-172 1498q-23 26 -12 59l12 32q35 92 18 120q-8 12 -16 17q-2 2 -5 3h-4q-12 2 -31 -9q-21 -11 -41 -33q-17 -18 -41 -19q-25 -1 -43 16t-19 41q-1 25 16 43
q81 88 170 79q30 -2 56 -17q34 -20 59 -58q37 -61 18 -145q76 30 133 73q-68 33 -104 84q-28 39 -37 86q-9 52 10 101q19 50 62 84q42 33 95 40q52 7 101 -14q85 -37 105 -124q21 -86 -28 -192q24 -4 38 -23q14 -20 11 -44t-23 -39q-20 -14 -44 -11q-29 4 -55 10
q-73 -77 -189 -128q-42 -19 -88 -33q-34 -10 -67 -18q-7 -1 -13 -1q-27 0 -44 20z" />
    <glyph glyph-name="kasratan_01" unicode="&#xfe74;" arabic-form="isolated" 
d="M-274 -772q-9 24 2 46q10 22 34 30l432 154q23 8 45 -2q23 -11 31 -34t-2 -45q-11 -23 -34 -31l-433 -154q-9 -3 -20 -3q-41 0 -55 39zM-274 -515q-9 23 2 45q10 22 34 30l432 154q23 8 45 -2q23 -11 31 -34t-2 -45q-11 -23 -34 -31l-433 -153q-9 -4 -20 -4q-41 0 -55 40
z" />
    <glyph glyph-name="fatha_01" unicode="&#xfe76;" arabic-form="isolated" 
d="M-269 1635q-9 23 2 45q10 22 34 30l432 154q23 8 45 -2q23 -11 31 -34t-2 -45q-11 -23 -34 -31l-433 -153q-9 -4 -20 -4q-41 0 -55 40z" />
    <glyph glyph-name="damma_01" unicode="&#xfe78;" arabic-form="isolated" 
d="M34 2007l-9 -4l-8 -4q-25 -14 -41 -38q-16 -23 -14 -43q2 -23 28 -45q20 -16 52 -31q20 -9 44 -18q34 72 26 129q-6 34 -29 51q-11 7 -25 7q-11 0 -24 -4zM-274 1559q-6 23 6 44q13 22 37 28q161 41 236 98q-151 65 -161 179q-5 55 27 108q31 54 88 86q106 61 193 -2
q64 -46 77 -129t-27 -178l2 -1q24 -5 37 -26q13 -20 8 -44q-6 -24 -26 -37q-21 -14 -45 -8l-20 4q-13 3 -23 6q-100 -110 -337 -171q-7 -2 -15 -2q-45 0 -57 45z" />
    <glyph glyph-name="kasra_01" unicode="&#xfe7a;" arabic-form="isolated" 
d="M-269 -521q-9 23 2 45q10 22 34 30l432 154q23 8 45 -2q23 -11 31 -34t-2 -45q-11 -23 -34 -31l-433 -153q-9 -4 -20 -4q-41 0 -55 40z" />
    <glyph glyph-name="shadda_01" unicode="&#xfe7c;" arabic-form="isolated" 
d="M301 1908q8 -57 -9 -108q-18 -52 -57 -84q-47 -40 -111 -40q-32 0 -61 11q-31 12 -56 35q-18 -20 -40 -34q-45 -29 -97 -29q-40 0 -73 17q-80 40 -92 136q-9 69 27 143q10 22 33 31q24 8 46 -3t30 -34t-3 -45q-8 -18 -12 -35q-6 -22 -4 -41q5 -34 28 -46q24 -12 53 6
t43 60q12 37 10 95q-1 25 16 43q16 18 41 19q24 1 42 -16t19 -41q2 -55 -6 -98l2 -9q5 -31 35 -43q30 -11 55 9q32 27 24 84q-7 45 -51 115q-13 21 -7 45q5 24 26 37t45 8q24 -6 37 -27q57 -91 67 -161z" />
    <glyph glyph-name="sukun_01" unicode="&#xfe7e;" arabic-form="isolated" 
d="M14 1791q31 -1 51 18q16 16 25 44q7 23 7 46q0 43 -38 77l-12 10q-8 5 -16 9q-22 10 -45 7q-21 -2 -38 -13q-13 -9 -23 -22q-27 -39 -16 -88q10 -41 38 -65q28 -23 66 -23h1zM13 1672q-80 0 -140 50q-60 49 -79 130q-24 101 35 184q53 75 145 84q92 10 164 -55
q77 -70 77 -166q0 -108 -67 -174q-53 -53 -133 -53h-2z" />
    <glyph glyph-name="uni0651064C" unicode="&#xfc5e;" arabic-form="isolated" 
d="M301 1908q8 -57 -9 -108q-18 -52 -57 -84q-47 -40 -111 -40q-32 0 -61 11q-31 12 -56 35q-18 -20 -40 -34q-45 -29 -97 -29q-40 0 -73 17q-80 40 -92 136q-9 69 27 143q10 22 33 31q24 8 46 -3t30 -34t-3 -45q-8 -18 -12 -35q-6 -22 -4 -41q5 -34 28 -46q24 -12 53 6
t43 60q12 37 10 95q-1 25 16 43q16 18 41 19q24 1 42 -16t19 -41q2 -55 -6 -98l2 -9q5 -31 35 -43q30 -11 55 9q32 27 24 84q-7 45 -51 115q-13 21 -7 45q5 24 26 37t45 8q24 -6 37 -27q57 -91 67 -161zM102 2565q-36 -29 -28 -70q12 -64 109 -99q45 79 32 136q-7 30 -38 44
q-13 6 -28 6q-25 0 -47 -17zM-172 2101q-23 26 -12 59l12 32q35 92 18 120q-8 12 -16 17q-2 2 -5 3h-4q-12 2 -31 -9q-21 -11 -41 -33q-17 -18 -41 -19q-25 -1 -43 16t-19 41q-1 25 16 43q81 88 170 79q30 -2 56 -17q34 -20 59 -58q37 -61 18 -145q76 30 133 73
q-68 33 -104 84q-28 39 -37 86q-9 52 10 101q19 50 62 84q42 33 95 40q52 7 101 -14q85 -37 105 -124q21 -86 -28 -192q24 -4 38 -23q14 -20 11 -44t-23 -39q-20 -14 -44 -11q-29 4 -55 10q-73 -77 -189 -128q-42 -19 -88 -33q-34 -10 -67 -18q-7 -1 -13 -1q-27 0 -44 20z
" />
    <glyph glyph-name="uni0651064D" unicode="&#xfc5f;" arabic-form="isolated" 
d="M301 1948q8 -57 -9 -108q-18 -52 -57 -84q-47 -40 -111 -40q-32 0 -61 11q-31 12 -56 35q-18 -20 -40 -34q-45 -29 -97 -29q-40 0 -73 17q-80 40 -92 136q-9 69 27 143q10 22 33 31q24 8 46 -3t30 -34t-3 -45q-8 -18 -12 -35q-6 -22 -4 -41q5 -34 28 -46q24 -12 53 6
t43 60q12 37 10 95q-1 25 16 43q16 18 41 19q24 1 42 -16t19 -41q2 -55 -6 -98l2 -9q5 -31 35 -43q30 -11 55 9q32 27 24 84q-7 45 -51 115q-13 21 -7 45q5 24 26 37t45 8q24 -6 37 -27q57 -91 67 -161zM-265 1165q-9 24 2 46q10 22 34 30l432 154q23 8 45 -2q23 -11 31 -34
t-2 -45q-11 -23 -34 -31l-433 -154q-9 -3 -20 -3q-41 0 -55 39zM-265 1422q-9 23 2 45q10 22 34 30l432 154q23 8 45 -2q23 -11 31 -34t-2 -45q-11 -23 -34 -31l-433 -153q-9 -4 -20 -4q-41 0 -55 40z" />
    <glyph glyph-name="uni0651064E" unicode="&#xfc60;" arabic-form="isolated" 
d="M301 1908q8 -57 -9 -108q-18 -52 -57 -84q-47 -40 -111 -40q-32 0 -61 11q-31 12 -56 35q-18 -20 -40 -34q-45 -29 -97 -29q-40 0 -73 17q-80 40 -92 136q-9 69 27 143q10 22 33 31q24 8 46 -3t30 -34t-3 -45q-8 -18 -12 -35q-6 -22 -4 -41q5 -34 28 -46q24 -12 53 6
t43 60q12 37 10 95q-1 25 16 43q16 18 41 19q24 1 42 -16t19 -41q2 -55 -6 -98l2 -9q5 -31 35 -43q30 -11 55 9q32 27 24 84q-7 45 -51 115q-13 21 -7 45q5 24 26 37t45 8q24 -6 37 -27q57 -91 67 -161zM-265 2147q-9 23 2 45q10 22 34 30l432 154q23 8 45 -2q23 -11 31 -34
t-2 -45q-11 -23 -34 -31l-433 -153q-9 -4 -20 -4q-41 0 -55 40z" />
    <glyph glyph-name="uni0651064F" unicode="&#xfc61;" arabic-form="isolated" 
d="M301 1908q8 -57 -9 -108q-18 -52 -57 -84q-47 -40 -111 -40q-32 0 -61 11q-31 12 -56 35q-18 -20 -40 -34q-45 -29 -97 -29q-40 0 -73 17q-80 40 -92 136q-9 69 27 143q10 22 33 31q24 8 46 -3t30 -34t-3 -45q-8 -18 -12 -35q-6 -22 -4 -41q5 -34 28 -46q24 -12 53 6
t43 60q12 37 10 95q-1 25 16 43q16 18 41 19q24 1 42 -16t19 -41q2 -55 -6 -98l2 -9q5 -31 35 -43q30 -11 55 9q32 27 24 84q-7 45 -51 115q-13 21 -7 45q5 24 26 37t45 8q24 -6 37 -27q57 -91 67 -161zM34 2554l-9 -4l-8 -4q-25 -14 -41 -38q-16 -23 -14 -43q2 -23 28 -45
q20 -16 52 -31q20 -9 44 -18q34 72 26 129q-6 34 -29 51q-11 7 -25 7q-11 0 -24 -4zM-274 2106q-6 23 6 44q13 22 37 28q161 41 236 98q-151 65 -161 179q-5 55 27 108q31 54 88 86q106 61 193 -2q64 -46 77 -129t-27 -178l2 -1q24 -5 37 -26q13 -20 8 -44q-6 -24 -26 -37
q-21 -14 -45 -8l-20 4q-13 3 -23 6q-100 -110 -337 -171q-7 -2 -15 -2q-45 0 -57 45z" />
    <glyph glyph-name="uni06510650" unicode="&#xfc62;" arabic-form="isolated" 
d="M301 1908q8 -57 -9 -108q-18 -52 -57 -84q-47 -40 -111 -40q-32 0 -61 11q-31 12 -56 35q-18 -20 -40 -34q-45 -29 -97 -29q-40 0 -73 17q-80 40 -92 136q-9 69 27 143q10 22 33 31q24 8 46 -3t30 -34t-3 -45q-8 -18 -12 -35q-6 -22 -4 -41q5 -34 28 -46q24 -12 53 6
t43 60q12 37 10 95q-1 25 16 43q16 18 41 19q24 1 42 -16t19 -41q2 -55 -6 -98l2 -9q5 -31 35 -43q30 -11 55 9q32 27 24 84q-7 45 -51 115q-13 21 -7 45q5 24 26 37t45 8q24 -6 37 -27q57 -91 67 -161zM-270 1382q-9 23 2 45q10 22 34 30l432 154q23 8 45 -2q23 -11 31 -34
t-2 -45q-11 -23 -34 -31l-433 -153q-9 -4 -20 -4q-41 0 -55 40z" />
    <glyph glyph-name="uniFC63" unicode="&#xfc63;" arabic-form="isolated" 
d="M301 1908q8 -57 -9 -108q-18 -52 -57 -84q-47 -40 -111 -40q-32 0 -61 11q-31 12 -56 35q-18 -20 -40 -34q-45 -29 -97 -29q-40 0 -73 17q-80 40 -92 136q-9 69 27 143q10 22 33 31q24 8 46 -3t30 -34t-3 -45q-8 -18 -12 -35q-6 -22 -4 -41q5 -34 28 -46q24 -12 53 6
t43 60q12 37 10 95q-1 25 16 43q16 18 41 19q24 1 42 -16t19 -41q2 -55 -6 -98l2 -9q5 -31 35 -43q30 -11 55 9q32 27 24 84q-7 45 -51 115q-13 21 -7 45q5 24 26 37t45 8q24 -6 37 -27q57 -91 67 -161zM-23 2128q-24 6 -38 26q-13 21 -7 45q41 189 5 379q-5 24 9 45
q13 20 38 25q24 4 44 -9q20 -14 25 -38q42 -214 -6 -428q-10 -46 -58 -46q-6 0 -12 1z" />
    <glyph glyph-name=".notdef" horiz-adv-x="1229" 
d="M102 -362v1806h1024v-1806h-1024zM217 -248h795v1577h-795v-1577z" />
    <glyph glyph-name="NULL" unicode="&#xfeff;" 
 />
    <glyph glyph-name="NULL" 
 />
    <glyph glyph-name="nonmarkingreturn" horiz-adv-x="602" 
 />
    <glyph glyph-name="space" unicode=" " horiz-adv-x="696" 
 />
    <glyph glyph-name="space" unicode="&#xa0;" horiz-adv-x="696" 
 />
    <glyph glyph-name="uni0640" unicode="&#x640;" horiz-adv-x="907" 
d="M927 294v-294h-947v294h947z" />
    <glyph glyph-name="uni066E" unicode="&#x66e;" horiz-adv-x="2013" 
d="M496 30q-237 59 -354 206q-132 166 -108 359q21 168 160 326q40 46 102 49q61 4 107 -37q46 -40 50 -102q3 -61 -37 -107q-79 -88 -88 -165q-9 -70 46 -138q107 -135 524 -135q339 0 548 63q175 52 213 128q28 54 -14 151q-17 37 -43 79q-20 33 -45 67q-37 49 -28 110
t59 97q49 37 110 28q61 -10 97 -59q124 -168 159 -315q37 -160 -30 -292q-106 -209 -454 -295q-133 -32 -302 -47q-129 -11 -270 -11q-239 0 -402 40z" />
    <glyph glyph-name="feh_dotless.isol" horiz-adv-x="2016" 
d="M1406 681q37 -30 121 -49q92 -22 156 -7q0 94 -38 170q-27 55 -78 105q-28 29 -58 29l-3 -1h-4q-32 1 -67 -52t-47 -122q-7 -39 2 -57q3 -6 8 -10zM1957 706q36 -253 -75 -423q-127 -194 -450 -258q-108 -21 -243 -28q-50 -3 -106 -3q-21 -1 -44 -1h-39q-655 0 -851 246
q-132 166 -108 359q21 168 160 326q40 46 102 49q61 4 107 -37q46 -40 50 -102q3 -61 -37 -107q-79 -88 -88 -165q-9 -70 46 -138q43 -54 191 -90q177 -45 428 -45h16l18 1h40q50 1 93 3q118 6 208 23q67 14 120 33q-154 16 -255 99q-162 132 -122 365q25 142 105 248
q81 106 191 141q93 30 187 3q95 -28 174 -107q148 -147 182 -392z" />
    <glyph glyph-name="uni06A1.fina" horiz-adv-x="2197" 
d="M1665 378q58 35 90 76q42 53 42 116q0 65 -45 122q-40 51 -71 51q-32 0 -80 -54q-56 -61 -56 -127q0 -65 40 -120q35 -49 80 -64zM2196 296q61 0 104 -43q44 -44 44 -105t-44 -105q-43 -43 -103 -43q-148 0 -258 10q-153 14 -270 49q-34 -12 -70 -22q-133 -37 -308 -49
q-66 -5 -142 -7q-29 0 -62 -1h-64q-33 0 -70 1q-50 2 -101 6q-139 11 -259 38q-306 67 -429 221q-132 166 -108 359q21 168 160 325q40 46 102 50q61 4 107 -37q46 -40 50 -102q3 -61 -37 -107q-79 -89 -88 -166q-9 -69 46 -137q52 -66 229 -110t391 -44h73q40 0 75 1
q93 3 169 11q-70 110 -70 250q0 182 113 329q129 168 315 168q154 0 264 -122q67 -75 100 -180q32 -105 20 -211q-13 -123 -75 -221q83 -6 196 -6z" />
    <glyph glyph-name="uni066F" unicode="&#x66f;" horiz-adv-x="1636" 
d="M1273 286q-20 120 -70 219q-12 25 -25 46q-18 27 -36 48q-47 52 -95 52q-43 0 -77 -35q-63 -65 -61 -184q2 -54 45 -91q85 -71 245 -47q11 2 22 2q27 0 52 -10zM233 -433q-187 187 -187 458q0 311 183 537q39 48 100 55q61 6 108 -32q48 -39 55 -100q6 -61 -32 -109
q-117 -145 -117 -352q-1 -147 100 -248q126 -126 348 -126q216 0 343 129q86 88 124 225l-15 -3q-139 -21 -265 8q-126 30 -215 105q-146 123 -150 312q-5 244 145 397q122 125 289 125q129 0 238 -80t183 -230q109 -217 109 -438q3 -185 -58 -349q-60 -165 -174 -280
q-213 -217 -554 -217q-345 0 -558 213z" />
    <glyph glyph-name="onedot.above" 
d="M184 1361q0 -69 -54 -126q-54 -55 -119 -55q-67 0 -144 54q-54 58 -54 127q0 62 58 122q59 60 125 60q67 0 127 -56q61 -57 61 -126z" />
    <glyph glyph-name="twodots.above" 
d="M-332 1198q-34 21 -50 58q-22 50 -3 101q20 51 70 73q104 48 273 80q122 23 299 -6q54 -9 86 -54q32 -44 23 -98t-54 -86q-44 -32 -98 -23q-132 22 -209 6q-121 -20 -212 -61q-26 -11 -54 -11q-39 0 -71 21z" />
    <glyph glyph-name="threedots.above" 
d="M-352 1158q-34 21 -50 58q-22 50 -3 101q20 51 70 73q104 48 273 80q122 23 299 -6q54 -9 86 -54q32 -44 23 -98t-54 -86q-44 -32 -98 -23q-132 22 -209 6q-121 -20 -212 -61q-26 -11 -54 -11q-39 0 -71 21zM-183 1571q-42 42 -48 97q-7 54 24 98q8 11 18 21
q83 76 182 29q44 -20 67 -63q22 -44 13 -93q-14 -85 -87 -116q-31 -17 -66 -17q-59 0 -103 44z" />
    <glyph glyph-name="threedots.below" 
d="M334 -170q34 -21 50 -58q22 -50 3 -101q-20 -51 -70 -74q-104 -47 -273 -79q-121 -23 -299 6q-54 9 -86 54q-32 44 -23 98t54 86q44 32 98 23q132 -22 209 -6q121 20 212 60q26 12 54 12q39 0 71 -21zM165 -583q42 -42 49 -97q6 -54 -25 -98q-8 -11 -18 -21
q-83 -76 -182 -29q-44 20 -66 63q-23 44 -14 93q14 85 88 116q30 17 65 17q59 0 103 -44z" />
    <glyph glyph-name="uni0660" unicode="&#x660;" horiz-adv-x="990" 
d="M440 690q-40 -29 -53 -68q-12 -38 5 -85q18 -46 54 -73q31 -23 75 -20t83 30q37 26 52 64q14 37 3 77q-12 40 -52 71q-40 32 -83 34q-43 -1 -84 -30zM305 273q-98 73 -138 192q-41 119 -5 230q36 113 139 187q102 74 223 75h6q119 -4 221 -82q101 -78 135 -193
q34 -113 -6 -223q-40 -109 -140 -179q-104 -74 -227 -74q-117 0 -208 67z" />
    <glyph glyph-name="uni0661" unicode="&#x661;" horiz-adv-x="662" 
d="M442 -124q-61 1 -103 46t-41 106q8 307 -38 647q-56 400 -161 583q-30 53 -14 112t69 90t112 15q60 -16 90 -70q136 -235 199 -698q48 -360 40 -687q-2 -60 -45 -102t-104 -42h-4z" />
    <glyph glyph-name="uni0662" unicode="&#x662;" horiz-adv-x="1137" 
d="M404 -120q-62 3 -103 48t-38 107q30 678 -210 1238q-25 56 -2 113q22 57 78 82q57 24 114 2t81 -78l17 -40l17 -39q72 -176 127 -226q15 -13 31 -24q22 -15 44 -24q60 -23 111 3q56 29 80 113q13 46 14 107q0 44 -6 102q-6 61 33 109q38 47 100 54q61 6 108 -33
q48 -39 54 -100q9 -83 7 -149q-3 -92 -24 -170q-59 -210 -232 -297q-137 -70 -290 -34l5 -27q55 -337 39 -696q-3 -59 -46 -100t-102 -41h-7z" />
    <glyph glyph-name="uni0663" unicode="&#x663;" horiz-adv-x="1491" 
d="M428 -120q-62 0 -105 44q-43 43 -43 105l1 162q-1 90 -3 163q-5 182 -23 323q-24 174 -127 430l-25 59l-24 59l-18 45l-2 6q-23 57 1 114q24 56 80 79q57 23 114 0q56 -24 80 -81l2 -6q9 -22 19 -48l18 -44l10 -25l10 -23q54 -126 96 -174q46 -52 105 -45q21 2 34 18
q28 36 40 119q10 67 7 139q-2 17 -3 32l-1 13q-2 60 37 105q40 45 99 49q60 5 106 -33q47 -38 54 -97v-7q1 -4 1 -9q1 -14 2 -29q4 -38 11 -75q10 -52 24 -95q7 -21 14 -39q10 -23 21 -41q27 -45 56 -49q6 3 12 11q7 10 11 24q12 37 3 96q-15 91 -43 178q-19 58 9 113t86 74
t113 -9t74 -86q36 -110 54 -225q19 -124 -11 -225q-23 -76 -73 -134q-95 -113 -227 -114q-63 0 -121 21q-77 28 -137 92q-88 -97 -219 -112q-40 -5 -80 -2l1 -10q21 -155 26 -347q3 -77 3 -172v-170q-1 -61 -44 -104t-105 -43v0z" />
    <glyph glyph-name="uni0664" unicode="&#x664;" horiz-adv-x="1104" 
d="M403 -61q-176 75 -229 261q-49 168 47 336q33 59 82 112q-137 54 -202 158q-26 40 -40 87q-11 37 -14 76q-16 220 177 383q140 118 344 170q59 15 112 -16q53 -32 68 -91t-16 -112t-91 -68q-114 -29 -199 -89q-105 -73 -99 -155l1 -7l2 -8q4 -11 13 -21q28 -28 99 -46
q44 -11 101 -16q74 -7 163 -2q56 2 101 -34q44 -36 52 -92q9 -56 -22 -104q-32 -47 -87 -62q-84 -22 -167 -82q-82 -60 -120 -127q-22 -39 -24 -72q-1 -12 1 -23l1 -8l2 -5q14 -50 61 -70q62 -27 168 -14q95 12 155 44q54 28 113 10t87 -73q29 -54 10 -113q-18 -58 -72 -87
q-64 -33 -153 -56q-104 -25 -203 -25q-125 0 -222 41z" />
    <glyph glyph-name="uni0665" unicode="&#x665;" horiz-adv-x="1240" 
d="M580 970q-100 -132 -147 -222q-68 -132 -68 -246q0 -148 85 -225q72 -64 172 -64q118 0 191 80q61 68 61 150q0 208 -182 473q-40 58 -85 113q-7 -32 -27 -59zM252 57q-77 69 -123 164q-61 124 -61 281q0 169 84 346q62 130 192 301q36 48 96 57q-45 41 -85 70
q-49 36 -59 96q-9 61 27 111q36 49 97 59q60 9 110 -27q221 -160 406 -431q99 -143 158 -286q77 -187 77 -355q0 -203 -147 -359q-160 -168 -402 -168q-214 0 -370 141z" />
    <glyph glyph-name="uni0666" unicode="&#x666;" horiz-adv-x="1235" 
d="M923 -82q-38 25 -56 66q-183 427 -153 1176q-94 -16 -189 -16q-241 1 -415 108q-52 32 -66 92t18 112t92 66t112 -18q110 -67 280 -63q142 4 281 54q77 28 141 -23q65 -50 56 -132q-32 -307 -3 -656q31 -378 119 -582q24 -57 1 -114q-22 -57 -79 -81q-28 -12 -58 -12
q-44 0 -81 23z" />
    <glyph glyph-name="uni0667" unicode="&#x667;" horiz-adv-x="1331" 
d="M666 -119q-57 0 -100 38q-42 38 -48 95q-66 647 -450 1334q-30 54 -13 113t70 89q54 30 113 13t89 -70q216 -386 344 -789q53 156 129 344q29 73 66 161q14 34 32 77l16 37l15 36q36 84 52 122q23 57 80 80t114 0q56 -24 80 -81q23 -56 -1 -113q-16 -38 -52 -124l-13 -32
l-14 -33q-16 -37 -29 -68q-34 -80 -61 -147q-70 -173 -119 -316q-133 -380 -152 -629q-5 -58 -47 -97t-99 -40h-2z" />
    <glyph glyph-name="uni0668" unicode="&#x668;" horiz-adv-x="1387" 
d="M164 -111q-55 28 -74 86t9 113q151 299 269 636q143 404 179 710q7 56 49 93t99 37h1q57 0 98 -38q42 -39 48 -95q35 -343 183 -733q113 -297 283 -601q30 -53 13 -113q-17 -59 -70 -89q-54 -30 -113 -13t-89 70q-227 407 -358 801q-19 -59 -40 -120q-126 -359 -288 -679
q-41 -81 -132 -81q-35 0 -67 16z" />
    <glyph glyph-name="uni0669" unicode="&#x669;" horiz-adv-x="1098" 
d="M434 1311q-43 -31 -68 -95q-24 -65 -15 -121q6 -35 20 -56q10 -15 26 -25q35 -21 96 -22q55 0 104 15l7 3q0 127 -16 191q-19 83 -71 111q-24 13 -44 13q-19 0 -39 -14zM758 -36q-41 32 -53 83q-78 330 -96 659q-212 -39 -366 55q-64 39 -108 99q-58 78 -77 186
q-23 140 34 283q58 143 169 223q90 64 194 69q104 6 204 -48q162 -88 214 -291q20 -76 26 -174q2 -39 2 -85v-77q-1 -59 -1 -84q8 -383 94 -747q14 -60 -19 -112q-32 -52 -92 -66q-17 -4 -34 -4q-51 0 -91 31z" />
    <glyph glyph-name="uni06F4" unicode="&#x6f4;" horiz-adv-x="1258" 
d="M402 -129q-62 1 -104 46q-42 44 -41 106q13 594 -163 1176q-20 55 -37 116q-15 58 14 111q29 52 87 70q57 17 110 -10q54 -28 73 -85q19 -56 36 -112q4 -11 10 -29l10 -31q13 -40 22 -56q24 163 130 259q120 109 278 109q87 0 164 -32q101 -42 174 -135l2 -1
q38 -48 31 -109q-6 -61 -54 -100q-48 -38 -109 -31t-100 54l-3 4q-18 24 -38 36q-29 17 -67 17q-44 0 -83 -32q-37 -29 -39 -59q-4 -48 15 -83q7 -13 18 -24l18 -17q70 -59 197 -49q34 5 71 13q59 11 109 -21q51 -33 64 -92q14 -58 -17 -110q-31 -51 -90 -66
q-53 -14 -108 -19q-277 -37 -478 48q57 -361 49 -717q-1 -61 -44 -103q-44 -42 -104 -42h-3z" />
    <glyph glyph-name="uni06F5" unicode="&#x6f5;" horiz-adv-x="1379" 
d="M999 281q36 56 36 134q0 212 -161 452q-83 123 -201 240q-7 -35 -29 -64q-288 -365 -288 -608q0 -110 43 -158q17 -19 40 -27q18 -7 38 -7q19 0 33 8q19 11 33 37q-8 60 -1 121q8 61 56 99t109 31q61 -8 99 -56t31 -109q-9 -73 25 -111q22 -25 65 -25q45 0 72 43z
M1120 1032q211 -314 211 -617q0 -163 -81 -292q-114 -182 -323 -182q-134 0 -234 76q-94 -70 -216 -70q-164 0 -280 112q-58 57 -92 136q-46 105 -46 240q0 346 352 792q27 34 67 48q-28 22 -56 42q-50 35 -60 96q-11 60 25 110q35 50 96 61q60 10 110 -26
q331 -234 527 -526z" />
    <glyph glyph-name="uni06F6" unicode="&#x6f6;" horiz-adv-x="1176" 
d="M160 -121q-59 19 -87 73q-28 55 -10 113q88 278 295 538q39 49 80 93q-63 20 -115 54q-86 55 -132 139q-47 84 -47 182q0 189 132 330q145 154 367 154q75 0 143 -19q26 -7 53 -17l22 -9l10 -5l10 -4q13 -5 18 -7q57 -23 82 -80q24 -56 1 -113t-80 -81q-56 -24 -113 -2
l-26 11q-68 30 -120 30q-96 0 -154 -65q-48 -54 -48 -123q0 -44 43 -72q53 -35 144 -34q107 1 238 51q31 14 62 26q57 22 112 -2t78 -79q23 -56 1 -112t-77 -80q-30 -14 -60 -26q-227 -106 -417 -359q-155 -207 -219 -409q-15 -46 -55 -75q-39 -28 -86 -28q-23 0 -45 7z" />
    <glyph glyph-name="uni066A" unicode="&#x66a;" horiz-adv-x="1217" 
d="M1093 196q0 -77 -54 -132q-55 -55 -132 -55t-132 55q-54 55 -54 132t54 131q55 55 132 55t132 -55q54 -54 54 -131zM471 1287q0 -78 -54 -132q-55 -55 -132 -55t-131 55q-55 54 -55 132q0 77 55 131q54 55 131 55t132 -55q54 -54 54 -131zM260 -117q-57 22 -82 78t-3 113
l557 1462q22 57 78 82q56 26 113 4q58 -22 83 -78t3 -114l-557 -1462q-17 -43 -56 -69q-37 -26 -83 -26q-27 0 -53 10z" />
    <glyph glyph-name="uni061F" unicode="&#x61f;" horiz-adv-x="1051" 
d="M462 426q-44 43 -44 104q0 163 -16 210q-19 52 -99 103q-121 77 -184 158q-89 115 -89 260q0 161 103 296q140 183 388 183q182 0 323 -118q168 -139 168 -363q0 -62 -43 -105q-43 -44 -105 -44q-61 0 -105 44q-43 43 -43 105q0 92 -74 144q-28 20 -64 31q-30 9 -57 9
q-118 0 -168 -90q-16 -28 -23 -63q-2 -10 -3 -20v-8l-1 -1q0 -42 26 -76q30 -41 110 -92q170 -108 221 -261q32 -93 32 -302q0 -61 -43 -104q-44 -44 -105 -44q-62 0 -105 44zM746 118q0 -70 -50 -119q-49 -49 -118 -49q-70 0 -119 49t-49 119q0 69 49 119q49 49 119 49
q69 0 118 -49q50 -50 50 -119z" />
    <glyph glyph-name="uni060C" unicode="&#x60c;" horiz-adv-x="630" 
d="M220 48q-94 79 -98 196q-4 116 84 251q30 47 71 94q15 18 31 34q12 13 24 25q26 25 63 25q37 -1 63 -28q25 -26 25 -63q-1 -37 -27 -62q-103 -100 -142 -200q76 29 148 -18q78 -49 73 -140q-6 -110 -99 -150q-34 -15 -74 -15q-81 0 -142 51z" />
    <glyph glyph-name="uni061B" unicode="&#x61b;" horiz-adv-x="512" 
d="M149 464q-87 72 -91 181q-4 111 81 241q30 46 69 91q15 17 31 33q12 13 23 24q20 19 49 19t49 -21t19 -49q0 -29 -21 -49q-141 -136 -160 -256q11 10 25 18q72 37 145 -10q68 -44 63 -122q-5 -98 -87 -134q-30 -13 -66 -13q-74 0 -129 47zM146 470q-93 79 -97 196
q-4 116 83 251q31 48 72 94q15 18 31 35l24 24q26 25 63 25q37 -1 62 -28q26 -26 25 -63q0 -37 -27 -62q-102 -100 -141 -200q76 29 148 -17q78 -50 73 -141q-7 -110 -100 -150q-33 -15 -74 -15q-81 0 -142 51zM425 139q0 -70 -49 -119t-119 -49t-119 49t-49 119
q0 69 49 119q49 49 119 49t119 -49q49 -50 49 -119z" />
    <glyph glyph-name="uni066B" unicode="&#x66b;" horiz-adv-x="689" 
d="M72 -269q-33 15 -46 50q-13 34 2 68l457 998q15 33 50 46q34 13 68 -3q33 -15 46 -49q13 -35 -2 -68l-457 -998q-24 -52 -81 -52q-19 0 -37 8z" />
    <glyph glyph-name="uni066C" unicode="&#x66c;" horiz-adv-x="511" 
d="M94 -339q-24 28 -21 65t31 61q108 92 153 190q-78 -24 -147 27q-74 54 -64 144q13 110 108 144q52 19 112 5q59 -14 102 -54q88 -84 85 -201t-98 -246q-34 -46 -77 -90l-33 -32q-13 -12 -26 -23q-25 -21 -57 -21q-41 0 -68 31z" />
    <glyph glyph-name="uni066D" unicode="&#x66d;" horiz-adv-x="1203" 
d="M1166 1187q10 -61 -26 -110q-36 -50 -97 -60l-220 -32l140 -198q32 -52 17 -112q-14 -60 -67 -91q-35 -22 -77 -22q-83 0 -126 71l-112 214l-109 -213q-44 -72 -128 -72q-41 0 -76 21q-52 32 -67 91q-15 60 16 112l140 201l-216 30q-61 9 -97 59q-36 49 -27 110t59 97
q49 36 110 27l270 -58l-20 255q0 61 44 105q43 43 105 43q61 0 105 -43q43 -44 43 -105l-20 -256l266 59q61 10 111 -26q49 -36 59 -97z" />
    <glyph glyph-name="uni064B" unicode="&#x64b;" 
d="M-269 1639q-9 24 2 46q10 22 34 30l432 154q23 8 45 -2q23 -11 31 -34t-2 -45q-11 -23 -34 -31l-433 -154q-9 -3 -20 -3q-41 0 -55 39zM-269 1896q-9 23 2 45q10 22 34 30l432 154q23 8 45 -2q23 -11 31 -34t-2 -45q-11 -23 -34 -31l-433 -153q-9 -4 -20 -4q-41 0 -55 40
z" />
    <glyph glyph-name="uni064D" unicode="&#x64d;" 
d="M-274 -772q-9 24 2 46q10 22 34 30l432 154q23 8 45 -2q23 -11 31 -34t-2 -45q-11 -23 -34 -31l-433 -154q-9 -3 -20 -3q-41 0 -55 39zM-274 -515q-9 23 2 45q10 22 34 30l432 154q23 8 45 -2q23 -11 31 -34t-2 -45q-11 -23 -34 -31l-433 -153q-9 -4 -20 -4q-41 0 -55 40
z" />
    <glyph glyph-name="uni064E" unicode="&#x64e;" 
d="M-269 1635q-9 23 2 45q10 22 34 30l432 154q23 8 45 -2q23 -11 31 -34t-2 -45q-11 -23 -34 -31l-433 -153q-9 -4 -20 -4q-41 0 -55 40z" />
    <glyph glyph-name="uni064F" unicode="&#x64f;" 
d="M34 2007l-9 -4l-8 -4q-25 -14 -41 -38q-16 -23 -14 -43q2 -23 28 -45q20 -16 52 -31q20 -9 44 -18q34 72 26 129q-6 34 -29 51q-11 7 -25 7q-11 0 -24 -4zM-274 1559q-6 23 6 44q13 22 37 28q161 41 236 98q-151 65 -161 179q-5 55 27 108q31 54 88 86q106 61 193 -2
q64 -46 77 -129t-27 -178l2 -1q24 -5 37 -26q13 -20 8 -44q-6 -24 -26 -37q-21 -14 -45 -8l-20 4q-13 3 -23 6q-100 -110 -337 -171q-7 -2 -15 -2q-45 0 -57 45z" />
    <glyph glyph-name="uni064C" unicode="&#x64c;" 
d="M102 1962q-36 -29 -28 -70q12 -64 109 -99q45 79 32 136q-7 30 -38 44q-13 6 -28 6q-25 0 -47 -17zM-172 1498q-23 26 -12 59l12 32q35 92 18 120q-8 12 -16 17q-2 2 -5 3h-4q-12 2 -31 -9q-21 -11 -41 -33q-17 -18 -41 -19q-25 -1 -43 16t-19 41q-1 25 16 43
q81 88 170 79q30 -2 56 -17q34 -20 59 -58q37 -61 18 -145q76 30 133 73q-68 33 -104 84q-28 39 -37 86q-9 52 10 101q19 50 62 84q42 33 95 40q52 7 101 -14q85 -37 105 -124q21 -86 -28 -192q24 -4 38 -23q14 -20 11 -44t-23 -39q-20 -14 -44 -11q-29 4 -55 10
q-73 -77 -189 -128q-42 -19 -88 -33q-34 -10 -67 -18q-7 -1 -13 -1q-27 0 -44 20z" />
    <glyph glyph-name="uni0650" unicode="&#x650;" 
d="M-269 -521q-9 23 2 45q10 22 34 30l432 154q23 8 45 -2q23 -11 31 -34t-2 -45q-11 -23 -34 -31l-433 -153q-9 -4 -20 -4q-41 0 -55 40z" />
    <glyph glyph-name="uni0651" unicode="&#x651;" 
d="M301 1908q8 -57 -9 -108q-18 -52 -57 -84q-47 -40 -111 -40q-32 0 -61 11q-31 12 -56 35q-18 -20 -40 -34q-45 -29 -97 -29q-40 0 -73 17q-80 40 -92 136q-9 69 27 143q10 22 33 31q24 8 46 -3t30 -34t-3 -45q-8 -18 -12 -35q-6 -22 -4 -41q5 -34 28 -46q24 -12 53 6
t43 60q12 37 10 95q-1 25 16 43q16 18 41 19q24 1 42 -16t19 -41q2 -55 -6 -98l2 -9q5 -31 35 -43q30 -11 55 9q32 27 24 84q-7 45 -51 115q-13 21 -7 45q5 24 26 37t45 8q24 -6 37 -27q57 -91 67 -161z" />
    <glyph glyph-name="uni0652" unicode="&#x652;" 
d="M14 1791q31 -1 51 18q16 16 25 44q7 23 7 46q0 43 -38 77l-12 10q-8 5 -16 9q-22 10 -45 7q-21 -2 -38 -13q-13 -9 -23 -22q-27 -39 -16 -88q10 -41 38 -65q28 -23 66 -23h1zM13 1672q-80 0 -140 50q-60 49 -79 130q-24 101 35 184q53 75 145 84q92 10 164 -55
q77 -70 77 -166q0 -108 -67 -174q-53 -53 -133 -53h-2z" />
    <glyph glyph-name="uni0653" unicode="&#x653;" 
d="M-364 1562q-43 25 -56 72q-14 47 11 90q99 176 279 216q123 28 299 -11q90 -19 166 6q90 31 130 118q21 45 67 62t90 -4q45 -20 62 -66t-3 -91q-76 -165 -242 -233q-149 -61 -320 -23q-152 33 -228 2q-54 -22 -94 -93q-34 -60 -103 -60q-31 0 -58 15z" />
    <glyph glyph-name="uni0654" unicode="&#x654;" 
d="M-280 1479q-14 25 -6 52q7 28 32 42l128 73l-3 2q-52 32 -80 90q-29 58 -23 121q6 57 40 108q33 51 86 81q101 57 218 24q27 -8 41 -33t6 -53q-8 -27 -33 -41t-52 -6q-62 17 -112 -11q-51 -29 -56 -83q-5 -53 37 -79q34 -21 88 -9q38 7 115 45q25 12 52 4q26 -9 39 -34
t6 -51q-8 -27 -32 -41l-396 -227q-16 -9 -35 -9q-40 0 -60 35z" />
    <glyph glyph-name="uni0655" unicode="&#x655;" 
d="M-272 -708q-14 25 -6 52q7 28 32 42l128 73l-3 2q-52 32 -80 90q-29 58 -23 121q6 57 40 108q33 51 86 81q101 57 218 24q27 -8 41 -33t6 -53q-8 -27 -33 -41t-52 -6q-62 17 -112 -11q-51 -29 -56 -83q-5 -53 37 -79q34 -21 88 -9q38 7 115 45q25 12 52 4q26 -9 39 -34
t6 -51q-8 -27 -32 -41l-396 -227q-16 -9 -35 -9q-40 0 -60 35z" />
    <glyph glyph-name="uni0670" unicode="&#x670;" 
d="M-23 1606q-24 6 -38 26q-13 21 -7 45q41 189 5 379q-5 24 9 45q13 20 38 25q24 4 44 -9q20 -14 25 -38q42 -214 -6 -428q-10 -46 -58 -46q-6 0 -12 1z" />
    <glyph glyph-name="uni0656" unicode="&#x656;" 
d="M-19 -887q-24 6 -38 26q-13 21 -7 45q41 189 5 379q-5 24 9 45q13 20 38 25q24 4 44 -9q20 -14 25 -38q42 -214 -6 -428q-10 -46 -58 -46q-6 0 -12 1z" />
    <glyph glyph-name="uni0615" unicode="&#x615;" 
d="M46 1315q24 6 48 17q28 14 49 30q55 42 45 93q-4 19 -12 29q-7 7 -17 11q-26 10 -68 -2q-39 -12 -66 -34q-71 -58 -142 -159q91 -5 163 15zM304 1478q21 -108 -67 -191q-36 -35 -87 -59q-19 -10 -40 -17q-17 -6 -33 -11q-116 -31 -266 -12l-19 -34q-17 -30 -52 -30
q-15 0 -28 7q-22 12 -29 36q-6 23 5 45q-45 11 -88 26q-24 7 -35 29t-3 46q8 23 30 34t45 3q58 -19 115 -31l13 20q42 239 7 469q-4 24 10 44q15 20 39 24q25 3 44 -11q20 -15 24 -39q24 -155 15 -316q23 23 46 41q50 41 117 58q74 19 133 -3q85 -31 104 -128z" />
    <glyph glyph-name="wasla" 
d="M36 1690q27 0 50 5q29 7 48 23q35 28 23 60q-5 11 -15 17q-12 6 -33 5q-72 -2 -131 -74q-10 -13 -20 -28q40 -9 78 -8zM-180 1525q-24 9 -34 31q-11 22 -2 45l9 26q-22 6 -45 9q-26 3 -57 -17q-9 -7 -18 -15l-5 -5l-2 -1v-1q-16 -19 -41 -21q-24 -2 -43 14t-21 40
q-2 25 14 44l18 18q19 17 39 30q64 40 131 32q39 -5 80 -18q20 36 44 65q92 113 218 118q52 1 92 -20q49 -26 70 -77q20 -50 4 -105q-17 -54 -62 -91q-66 -54 -172 -55q-65 0 -132 18l-10 -28q-14 -39 -55 -39q-11 0 -20 3z" />
    <glyph glyph-name="beh_dotless_alt.init" horiz-adv-x="801" 
d="M2 0q-61 0 -105 43q-43 44 -43 105q0 62 43 105q44 43 105 43q235 0 310 14q106 20 141 78q9 14 11 50q3 48 -10 113q-25 132 -96 278q-26 55 -6 113t75 85q56 27 114 6q58 -20 84 -75q13 -26 25 -54q16 -37 31 -74q37 -100 57 -191q58 -259 -32 -406q-94 -153 -293 -204
q-76 -19 -174 -25q-39 -3 -106 -4h-131z" />
    <glyph glyph-name="beh_dotless_alt.medi" horiz-adv-x="852" 
d="M851 296q62 0 105 -43t43 -105q0 -61 -43 -105q-43 -43 -105 -43q-156 0 -264 94q-20 15 -39 34q-109 -128 -547 -128q-61 0 -105 43q-43 44 -43 105q0 62 43 105q44 43 105 43q279 7 338.5 68.5t46.5 171.5q-4 32 -7 70l-3 34l-3 33q-3 43 -5 61q-6 62 34 109
q39 47 100 53t108 -34q48 -39 53 -100q2 -21 6 -66q18 -230 55 -315q38 -85 127 -85z" />
    <glyph glyph-name="onedot.below" 
d="M167 -332q0 -65 -50 -117t-110 -52q-63 0 -134 51q-50 53 -50 118q0 57 54 112q54 56 115 56q63 0 118 -51q57 -54 57 -117z" />
    <glyph glyph-name="twodots.below" 
d="M-340 -478q-34 21 -50 58q-22 50 -3 101q20 51 70 73q104 48 273 80q122 23 299 -6q54 -9 86 -54q32 -44 23 -98t-54 -86q-44 -32 -98 -23q-132 22 -209 6q-121 -20 -212 -61q-26 -11 -54 -11q-39 0 -71 21z" />
    <glyph glyph-name="alef_alt.isol" horiz-adv-x="509" 
d="M264 -52q-61 7 -100 54q-38 48 -32 109q37 256 21 583q-9 230 -45 647q-6 62 33 109t100 53t109 -33q47 -39 53 -100q82 -841 24 -1291q-6 -56 -49 -94q-42 -38 -98 -38z" />
    <glyph glyph-name="alef_alt.fina" horiz-adv-x="624" 
d="M516 4q-69 8 -125 30q-73 30 -125 85q-69 72 -95 183q-21 88 -20 378v94v76q-1 107 -3 189q-5 179 -23 296q-9 61 27 111q37 49 97 58q61 9 110 -27q50 -37 59 -97q20 -132 26 -323q2 -87 3 -200v-208q0 -74 1 -126q3 -117 11 -153q11 -46 38 -59q30 -15 128 -15
q61 0 104.5 -43t43.5 -105q0 -61 -43.5 -104.5t-104.5 -43.5q-82 1 -109 4z" />
    <glyph glyph-name="uni06D5" unicode="&#x6d5;" horiz-adv-x="1010" 
d="M187 67q-137 119 -137 309q0 105 42 199q16 35 39 72q9 14 20 30l10 14l9 13q14 20 20 29q34 51 94 63t111 -22q52 -34 64 -94t-22 -111l-13 -19l-13 -18q-65 -91 -65 -156q0 -73 61 -102q21 -11 47 -15q10 -1 19 -2h7l6 -1q17 0 42 5q33 7 60 18q75 33 75 96
q0 107 -126 269q-58 74 -127 137q-60 55 -108 83q-53 30 -70 89q-16 59 15 113q30 53 89 69q60 17 113 -14q167 -95 323 -296q79 -102 126 -202q61 -132 61 -248q0 -213 -184 -331q-130 -84 -289 -84q-176 0 -299 107z" />
    <glyph glyph-name="heh_ae.fina" horiz-adv-x="1226" 
d="M741 264q-39 84 -62 200q-9 46 -17 103l-7 50l-6 50l-2 14l-2 15l-4 31q-5 37 -9 62q-112 -71 -199 -184q-56 -73 -79 -135q-10 -24 -13 -44q-2 -17 0 -27l1 -2l1 -3q3 -3 11 -8q7 -4 16 -7q13 -5 28 -9q40 -9 98 -10q61 0 104 -44t42 -106q-1 -61 -45 -104t-105 -42
q-176 2 -286 65q-126 73 -155 209q-43 202 147 448q164 212 369 305q66 30 128 26q48 -4 89 -27q59 -33 95 -103q13 -24 22 -52q3 -10 7 -22l4 -16q14 -58 31 -195q29 -239 72 -322q43 -84 135 -84q63 0 107 -43q43 -43 43 -105q0 -61 -43 -105q-44 -43 -107 -43
q-284 0 -409 264z" />
    <glyph glyph-name="uni06C2" unicode="&#x6c2;" horiz-adv-x="993" 
d="M187 67q-137 119 -137 309q0 105 42 199q16 35 39 72q9 14 20 30l10 14l9 13q14 20 20 29q34 51 94 63t111 -22q52 -34 64 -94t-22 -111l-13 -19l-13 -18q-65 -91 -65 -156q0 -73 61 -102q21 -11 47 -15q10 -1 19 -2h7l6 -1q17 0 42 5q33 7 60 18q75 33 75 96
q0 107 -126 269q-58 74 -127 137q-60 55 -108 83q-53 30 -70 89q-16 59 15 113q30 53 89 69q60 17 113 -14q167 -95 323 -296q79 -102 126 -202q61 -132 61 -248q0 -213 -184 -331q-130 -84 -289 -84q-176 0 -299 107zM133 1147q-14 25 -6 52q7 28 32 42l128 73l-3 2
q-52 32 -80 90q-29 58 -23 121q6 57 40 108q33 51 86 81q101 57 218 24q27 -8 41 -33t6 -53q-8 -27 -33 -41t-52 -6q-62 17 -112 -11q-51 -29 -56 -83q-5 -53 37 -79q34 -21 88 -9q38 7 115 45q25 12 52 4q26 -9 39 -34t6 -51q-8 -27 -32 -41l-396 -227q-16 -9 -35 -9
q-40 0 -60 35z" />
    <glyph glyph-name="uni06C3" unicode="&#x6c3;" horiz-adv-x="1002" 
d="M187 67q-137 119 -137 309q0 105 42 199q16 35 39 72q9 14 20 30l10 14l9 13q14 20 20 29q34 51 94 63t111 -22q52 -34 64 -94t-22 -111l-13 -19l-13 -18q-65 -91 -65 -156q0 -73 61 -102q21 -11 47 -15q10 -1 19 -2h7l6 -1q17 0 42 5q33 7 60 18q75 33 75 96
q0 107 -126 269q-58 74 -127 137q-60 55 -108 83q-53 30 -70 89q-16 59 15 113q30 53 89 69q60 17 113 -14q167 -95 323 -296q79 -102 126 -202q61 -132 61 -248q0 -213 -184 -331q-130 -84 -289 -84q-176 0 -299 107zM112 1234q-34 21 -50 58q-22 50 -3 101q20 51 70 73
q104 48 273 80q122 23 299 -6q54 -9 86 -54q32 -44 23 -98t-54 -86q-44 -32 -98 -23q-132 22 -209 6q-121 -20 -212 -61q-26 -11 -54 -11q-39 0 -71 21z" />
    <glyph glyph-name="uni06F0" unicode="&#x6f0;" horiz-adv-x="990" 
d="M440 690q-40 -29 -53 -68q-12 -38 5 -85q18 -46 54 -73q31 -23 75 -20t83 30q37 26 52 64q14 37 3 77q-12 40 -52 71q-40 32 -83 34q-43 -1 -84 -30zM305 273q-98 73 -138 192q-41 119 -5 230q36 113 139 187q102 74 223 75h6q119 -4 221 -82q101 -78 135 -193
q34 -113 -6 -223q-40 -109 -140 -179q-104 -74 -227 -74q-117 0 -208 67z" />
    <glyph glyph-name="uni06F1" unicode="&#x6f1;" horiz-adv-x="662" 
d="M442 -124q-61 1 -103 46t-41 106q8 307 -38 647q-56 400 -161 583q-30 53 -14 112t69 90t112 15q60 -16 90 -70q136 -235 199 -698q48 -360 40 -687q-2 -60 -45 -102t-104 -42h-4z" />
    <glyph glyph-name="uni06F2" unicode="&#x6f2;" horiz-adv-x="1137" 
d="M404 -120q-62 3 -103 48t-38 107q30 678 -210 1238q-25 56 -2 113q22 57 78 82q57 24 114 2t81 -78l17 -40l17 -39q72 -176 127 -226q15 -13 31 -24q22 -15 44 -24q60 -23 111 3q56 29 80 113q13 46 14 107q0 44 -6 102q-6 61 33 109q38 47 100 54q61 6 108 -33
q48 -39 54 -100q9 -83 7 -149q-3 -92 -24 -170q-59 -210 -232 -297q-137 -70 -290 -34l5 -27q55 -337 39 -696q-3 -59 -46 -100t-102 -41h-7z" />
    <glyph glyph-name="uni06F3" unicode="&#x6f3;" horiz-adv-x="1491" 
d="M428 -120q-62 0 -105 44q-43 43 -43 105l1 162q-1 90 -3 163q-5 182 -23 323q-24 174 -127 430l-25 59l-24 59l-18 45l-2 6q-23 57 1 114q24 56 80 79q57 23 114 0q56 -24 80 -81l2 -6q9 -22 19 -48l18 -44l10 -25l10 -23q54 -126 96 -174q46 -52 105 -45q21 2 34 18
q28 36 40 119q10 67 7 139q-2 17 -3 32l-1 13q-2 60 37 105q40 45 99 49q60 5 106 -33q47 -38 54 -97v-7q1 -4 1 -9q1 -14 2 -29q4 -38 11 -75q10 -52 24 -95q7 -21 14 -39q10 -23 21 -41q27 -45 56 -49q6 3 12 11q7 10 11 24q12 37 3 96q-15 91 -43 178q-19 58 9 113t86 74
t113 -9t74 -86q36 -110 54 -225q19 -124 -11 -225q-23 -76 -73 -134q-95 -113 -227 -114q-63 0 -121 21q-77 28 -137 92q-88 -97 -219 -112q-40 -5 -80 -2l1 -10q21 -155 26 -347q3 -77 3 -172v-170q-1 -61 -44 -104t-105 -43v0z" />
    <glyph glyph-name="uni06F9" unicode="&#x6f9;" horiz-adv-x="1098" 
d="M434 1311q-43 -31 -68 -95q-24 -65 -15 -121q6 -35 20 -56q10 -15 26 -25q35 -21 96 -22q55 0 104 15l7 3q0 127 -16 191q-19 83 -71 111q-24 13 -44 13q-19 0 -39 -14zM758 -36q-41 32 -53 83q-78 330 -96 659q-212 -39 -366 55q-64 39 -108 99q-58 78 -77 186
q-23 140 34 283q58 143 169 223q90 64 194 69q104 6 204 -48q162 -88 214 -291q20 -76 26 -174q2 -39 2 -85v-77q-1 -59 -1 -84q8 -383 94 -747q14 -60 -19 -112q-32 -52 -92 -66q-17 -4 -34 -4q-51 0 -91 31z" />
    <glyph glyph-name="uni06F7" unicode="&#x6f7;" horiz-adv-x="1331" 
d="M666 -119q-57 0 -100 38q-42 38 -48 95q-66 647 -450 1334q-30 54 -13 113t70 89q54 30 113 13t89 -70q216 -386 344 -789q53 156 129 344q29 73 66 161q14 34 32 77l16 37l15 36q36 84 52 122q23 57 80 80t114 0q56 -24 80 -81q23 -56 -1 -113q-16 -38 -52 -124l-13 -32
l-14 -33q-16 -37 -29 -68q-34 -80 -61 -147q-70 -173 -119 -316q-133 -380 -152 -629q-5 -58 -47 -97t-99 -40h-2z" />
    <glyph glyph-name="uni06F8" unicode="&#x6f8;" horiz-adv-x="1387" 
d="M164 -111q-55 28 -74 86t9 113q151 299 269 636q143 404 179 710q7 56 49 93t99 37h1q57 0 98 -38q42 -39 48 -95q35 -343 183 -733q113 -297 283 -601q30 -53 13 -113q-17 -59 -70 -89q-54 -30 -113 -13t-89 70q-227 407 -358 801q-19 -59 -40 -120q-126 -359 -288 -679
q-41 -81 -132 -81q-35 0 -67 16z" />
    <glyph glyph-name="uni0651064B" 
d="M301 1908q8 -57 -9 -108q-18 -52 -57 -84q-47 -40 -111 -40q-32 0 -61 11q-31 12 -56 35q-18 -20 -40 -34q-45 -29 -97 -29q-40 0 -73 17q-80 40 -92 136q-9 69 27 143q10 22 33 31q24 8 46 -3t30 -34t-3 -45q-8 -18 -12 -35q-6 -22 -4 -41q5 -34 28 -46q24 -12 53 6
t43 60q12 37 10 95q-1 25 16 43q16 18 41 19q24 1 42 -16t19 -41q2 -55 -6 -98l2 -9q5 -31 35 -43q30 -11 55 9q32 27 24 84q-7 45 -51 115q-13 21 -7 45q5 24 26 37t45 8q24 -6 37 -27q57 -91 67 -161zM-272 2120q-9 24 2 46q10 22 34 30l432 154q23 8 45 -2q23 -11 31 -34
t-2 -45q-11 -23 -34 -31l-433 -154q-9 -3 -20 -3q-41 0 -55 39zM-272 2377q-9 23 2 45q10 22 34 30l432 154q23 8 45 -2q23 -11 31 -34t-2 -45q-11 -23 -34 -31l-433 -153q-9 -4 -20 -4q-41 0 -55 40z" />
    <glyph glyph-name="uni0654064B" 
d="M-269 2110q-9 24 2 46q10 22 34 30l432 154q23 8 45 -2q23 -11 31 -34t-2 -45q-11 -23 -34 -31l-433 -154q-9 -3 -20 -3q-41 0 -55 39zM-269 2367q-9 23 2 45q10 22 34 30l432 154q23 8 45 -2q23 -11 31 -34t-2 -45q-11 -23 -34 -31l-433 -153q-9 -4 -20 -4q-41 0 -55 40
zM-280 1479q-14 25 -6 52q7 28 32 42l128 73l-3 2q-52 32 -80 90q-29 58 -23 121q6 57 40 108q33 51 86 81q101 57 218 24q27 -8 41 -33t6 -53q-8 -27 -33 -41t-52 -6q-62 17 -112 -11q-51 -29 -56 -83q-5 -53 37 -79q34 -21 88 -9q38 7 115 45q25 12 52 4q26 -9 39 -34
t6 -51q-8 -27 -32 -41l-396 -227q-16 -9 -35 -9q-40 0 -60 35z" />
    <glyph glyph-name="uni0654064E" 
d="M-269 2110q-9 23 2 45q10 22 34 30l432 154q23 8 45 -2q23 -11 31 -34t-2 -45q-11 -23 -34 -31l-433 -153q-9 -4 -20 -4q-41 0 -55 40zM-280 1479q-14 25 -6 52q7 28 32 42l128 73l-3 2q-52 32 -80 90q-29 58 -23 121q6 57 40 108q33 51 86 81q101 57 218 24
q27 -8 41 -33t6 -53q-8 -27 -33 -41t-52 -6q-62 17 -112 -11q-51 -29 -56 -83q-5 -53 37 -79q34 -21 88 -9q38 7 115 45q25 12 52 4q26 -9 39 -34t6 -51q-8 -27 -32 -41l-396 -227q-16 -9 -35 -9q-40 0 -60 35z" />
    <glyph glyph-name="uni0654064C" 
d="M62 2576q-36 -29 -28 -70q12 -64 109 -99q45 79 32 136q-7 30 -38 44q-13 6 -28 6q-25 0 -47 -17zM-212 2112q-23 26 -12 59l12 32q35 92 18 120q-8 12 -16 17q-2 2 -5 3h-4q-12 2 -31 -9q-21 -11 -41 -33q-17 -18 -41 -19q-25 -1 -43 16t-19 41q-1 25 16 43
q81 88 170 79q30 -2 56 -17q34 -20 59 -58q37 -61 18 -145q76 30 133 73q-68 33 -104 84q-28 39 -37 86q-9 52 10 101q19 50 62 84q42 33 95 40q52 7 101 -14q85 -37 105 -124q21 -86 -28 -192q24 -4 38 -23q14 -20 11 -44t-23 -39q-20 -14 -44 -11q-29 4 -55 10
q-73 -77 -189 -128q-42 -19 -88 -33q-34 -10 -67 -18q-7 -1 -13 -1q-27 0 -44 20zM-280 1479q-14 25 -6 52q7 28 32 42l128 73l-3 2q-52 32 -80 90q-29 58 -23 121q6 57 40 108q33 51 86 81q101 57 218 24q27 -8 41 -33t6 -53q-8 -27 -33 -41t-52 -6q-62 17 -112 -11
q-51 -29 -56 -83q-5 -53 37 -79q34 -21 88 -9q38 7 115 45q25 12 52 4q26 -9 39 -34t6 -51q-8 -27 -32 -41l-396 -227q-16 -9 -35 -9q-40 0 -60 35z" />
    <glyph glyph-name="uni0654064F" 
d="M51 2587l-9 -4l-8 -4q-25 -14 -41 -38q-16 -23 -14 -43q2 -23 28 -45q20 -16 52 -31q20 -9 44 -18q34 72 26 129q-6 34 -29 51q-11 7 -25 7q-11 0 -24 -4zM-257 2139q-6 23 6 44q13 22 37 28q161 41 236 98q-151 65 -161 179q-5 55 27 108q31 54 88 86q106 61 193 -2
q64 -46 77 -129t-27 -178l2 -1q24 -5 37 -26q13 -20 8 -44q-6 -24 -26 -37q-21 -14 -45 -8l-20 4q-13 3 -23 6q-100 -110 -337 -171q-7 -2 -15 -2q-45 0 -57 45zM-280 1479q-14 25 -6 52q7 28 32 42l128 73l-3 2q-52 32 -80 90q-29 58 -23 121q6 57 40 108q33 51 86 81
q101 57 218 24q27 -8 41 -33t6 -53q-8 -27 -33 -41t-52 -6q-62 17 -112 -11q-51 -29 -56 -83q-5 -53 37 -79q34 -21 88 -9q38 7 115 45q25 12 52 4q26 -9 39 -34t6 -51q-8 -27 -32 -41l-396 -227q-16 -9 -35 -9q-40 0 -60 35z" />
    <glyph glyph-name="uni06540652" 
d="M14 2250q31 -1 51 18q16 16 25 44q7 23 7 46q0 43 -38 77l-12 10q-8 5 -16 9q-22 10 -45 7q-21 -2 -38 -13q-13 -9 -23 -22q-27 -39 -16 -88q10 -41 38 -65q28 -23 66 -23h1zM13 2131q-80 0 -140 50q-60 49 -79 130q-24 101 35 184q53 75 145 84q92 10 164 -55
q77 -70 77 -166q0 -108 -67 -174q-53 -53 -133 -53h-2zM-280 1479q-14 25 -6 52q7 28 32 42l128 73l-3 2q-52 32 -80 90q-29 58 -23 121q6 57 40 108q33 51 86 81q101 57 218 24q27 -8 41 -33t6 -53q-8 -27 -33 -41t-52 -6q-62 17 -112 -11q-51 -29 -56 -83q-5 -53 37 -79
q34 -21 88 -9q38 7 115 45q25 12 52 4q26 -9 39 -34t6 -51q-8 -27 -32 -41l-396 -227q-16 -9 -35 -9q-40 0 -60 35z" />
    <glyph glyph-name="uni0655064D" 
d="M-268 -1167q-9 24 2 46q10 22 34 30l432 154q23 8 45 -2q23 -11 31 -34t-2 -45q-11 -23 -34 -31l-433 -154q-9 -3 -20 -3q-41 0 -55 39zM-268 -910q-9 23 2 45q10 22 34 30l432 154q23 8 45 -2q23 -11 31 -34t-2 -45q-11 -23 -34 -31l-433 -153q-9 -4 -20 -4
q-41 0 -55 40zM-272 -708q-14 25 -6 52q7 28 32 42l128 73l-3 2q-52 32 -80 90q-29 58 -23 121q6 57 40 108q33 51 86 81q101 57 218 24q27 -8 41 -33t6 -53q-8 -27 -33 -41t-52 -6q-62 17 -112 -11q-51 -29 -56 -83q-5 -53 37 -79q34 -21 88 -9q38 7 115 45q25 12 52 4
q26 -9 39 -34t6 -51q-8 -27 -32 -41l-396 -227q-16 -9 -35 -9q-40 0 -60 35z" />
    <glyph glyph-name="uni06550650" 
d="M-269 -917q-9 23 2 45q10 22 34 30l432 154q23 8 45 -2q23 -11 31 -34t-2 -45q-11 -23 -34 -31l-433 -153q-9 -4 -20 -4q-41 0 -55 40zM-272 -708q-14 25 -6 52q7 28 32 42l128 73l-3 2q-52 32 -80 90q-29 58 -23 121q6 57 40 108q33 51 86 81q101 57 218 24
q27 -8 41 -33t6 -53q-8 -27 -33 -41t-52 -6q-62 17 -112 -11q-51 -29 -56 -83q-5 -53 37 -79q34 -21 88 -9q38 7 115 45q25 12 52 4q26 -9 39 -34t6 -51q-8 -27 -32 -41l-396 -227q-16 -9 -35 -9q-40 0 -60 35z" />
    <glyph glyph-name="uniFD3E" unicode="&#xfd3e;" horiz-adv-x="930" 
d="M679 -674q-60 0 -104 42q-286 281 -414 584q-121 286 -121 646q0 366 134 664q135 298 416 557q45 41 107 39q61 -3 103 -48q41 -45 39 -106q-3 -62 -48 -103q-236 -217 -345 -458q-110 -241 -110 -545q0 -310 105 -547q104 -238 342 -471q44 -43 44 -104q1 -62 -42 -105
q-44 -45 -106 -45z" />
    <glyph glyph-name="uniFD3F" unicode="&#xfd3f;" horiz-adv-x="874" 
d="M94 -629q-43 43 -43 105q1 61 45 104q238 233 342 471q104 237 104 547q0 304 -109 545t-345 458q-45 41 -48 103q-2 61 39 106q42 45 103 48q61 2 107 -39q281 -259 415 -557q135 -298 135 -664q0 -360 -121 -646q-128 -303 -415 -584q-43 -42 -103 -42q-63 0 -106 45z
" />
    <glyph glyph-name="diagonal" horiz-adv-x="1024" 
d="M109 1468q-11 31 2 60q14 30 44 42q247 94 572 291q28 17 60 9t49 -36t9 -60t-36 -48q-337 -205 -598 -304q-13 -5 -28 -5q-54 0 -74 51z" />
    <glyph glyph-name="ZWSP" unicode="&#x200b;" 
 />
    <glyph glyph-name="uni200C" unicode="&#x200c;" 
d="M36 1667v-1484h-72v1484h72z" />
    <glyph glyph-name="uni200D" unicode="&#x200d;" 
d="M36 183h-72v1185l-134 -136l-49 49l171 169l-171 168l49 49l170 -171l170 171l49 -49l-171 -168l171 -169l-49 -49l-134 136v-1185z" />
    <glyph glyph-name="uni200E" unicode="&#x200e;" 
d="M430 1452l-217 -214l-49 49l137 130h-266v-1234h-71v1305h337l-137 130l49 49z" />
    <glyph glyph-name="uni200F" unicode="&#x200f;" 
d="M35 183h-71v1234h-266l137 -130l-49 -49l-217 214l217 215l49 -49l-137 -130h337v-1305z" />
    <glyph glyph-name="saryaa" 
d="M-173 1443q-23 0 -40 16t-19 39q-2 25 15 43q16 19 40 20q49 4 108 27q67 27 91 59q7 8 8 16v8l-1 1q-4 7 -32 13q-10 2 -24 4l-11 2l-10 2l-24 3l-25 5q-27 6 -46 15q-71 33 -69 107q3 103 89 181q54 48 127 74q74 26 141 21q25 -2 41 -21q16 -18 14 -43q-2 -24 -21 -40
t-43 -14q-98 8 -179 -65q-20 -18 -33 -38q-16 -26 -17 -55q8 -3 29 -8l18 -3l16 -2l12 -2l13 -2l26 -5q31 -7 53 -18q59 -28 72 -87q13 -64 -29 -121q-43 -56 -136 -94q-79 -33 -150 -38h-4z" />
    <glyph glyph-name="threedotcheh" 
d="M244 458q29 -18 43 -50q19 -44 3 -88q-18 -44 -61 -64q-91 -41 -238 -69q-105 -20 -260 5q-47 8 -75 47q-28 38 -20 85t47 75q38 28 85 20q115 -19 182 -5q106 17 185 52q22 11 47 11q34 0 62 -19zM96 109q37 -37 43 -84q5 -47 -22 -86q-7 -9 -15 -18q-73 -66 -159 -25
q-38 17 -57 55q-20 38 -12 81q12 74 76 100q26 15 57 15q51 0 89 -38z" />
    <glyph glyph-name="exclam" unicode="!" horiz-adv-x="579" 
d="M192 433q-44 44 -44 105v1050q0 61 44 105q43 43 105 43q61 0 105 -43q43 -44 43 -105v-1050q0 -61 -43 -105q-44 -43 -105 -43q-62 0 -105 43zM465 136q0 -70 -49 -120q-49 -49 -119 -49t-120 49q-49 50 -49 120t49 119q50 49 120 49t119 -49t49 -119z" />
    <glyph glyph-name="parenleft" unicode="(" horiz-adv-x="818" 
d="M594 -538q-61 0 -105 43l-1 1q-22 21 -44 46q-29 32 -58 68q-73 92 -134 198q-204 357 -204 765q0 387 192 729q56 101 125 190q27 34 55 65q21 24 42 45l1 1q43 44 105 44q61 1 105 -42q43 -44 44 -105q0 -61 -43 -105l-2 -2l-13 -13q-8 -9 -17 -19q-22 -25 -44 -54
q-62 -79 -110 -170q-144 -266 -144 -564q0 -316 154 -597q52 -96 118 -179q24 -30 48 -56l18 -20q7 -7 14 -13l2 -2q43 -43 44 -105q0 -61 -43 -105t-105 -44z" />
    <glyph glyph-name="parenright" unicode=")" horiz-adv-x="794" 
d="M91 -494q-43 44 -43 105q0 62 44 105l2 2q7 6 14 13l18 20q24 26 48 56q66 83 118 179q153 281 153 597q0 298 -143 564q-49 91 -110 170q-22 29 -45 54q-8 10 -17 19q-6 7 -12 13l-2 2q-43 44 -43 105t44 105q44 43 105 42q62 0 105 -44l1 -1q21 -21 42 -45
q28 -31 54 -65q70 -89 126 -190q192 -342 192 -729q0 -408 -205 -765q-60 -106 -133 -198q-29 -36 -58 -68q-23 -25 -44 -46l-2 -1q-43 -43 -104 -43q-62 0 -105 44z" />
    <glyph glyph-name="period" unicode="." horiz-adv-x="691" 
d="M153 51q0 83 56 135t141 52q86 0 142 -52t56 -135q0 -82 -55.5 -133.5t-142.5 -51.5q-86 0 -141.5 51.5t-55.5 133.5z" />
    <glyph glyph-name="colon" unicode=":" horiz-adv-x="656" 
d="M151 51q0 83 56.5 135t141.5 52q86 0 142 -52t56 -135q0 -82 -55.5 -133.5t-142.5 -51.5q-86 0 -142 51.5t-56 133.5zM151 892q0 84 56.5 136t141.5 52q86 0 142 -52t56 -136q0 -82 -55.5 -133.5t-142.5 -51.5q-86 0 -142 51.5t-56 133.5z" />
    <glyph glyph-name="quotedbl" unicode="&#x22;" horiz-adv-x="738" 
d="M299 1570l-45 -462h-182v617h227v-155zM664 1570l-44 -462h-182v617h226v-155z" />
    <glyph glyph-name="numbersign" unicode="#" horiz-adv-x="1370" 
d="M749 460h-217l-81 -460h-205l81 460h-255v194h288l57 319h-261v195h295l82 467h205l-82 -467h218l82 467h205l-82 -467h246v-195h-281l-56 -319h252v-194h-285l-81 -460h-206zM566 654h217l56 319h-218z" />
    <glyph glyph-name="dollar" unicode="$" horiz-adv-x="1320" 
d="M887 430q0 92 -51 146.5t-173.5 100.5t-211 91.5t-152 104.5t-99 139t-35.5 190q0 189 121.5 310.5t322.5 141.5v241h179v-244q199 -28 311.5 -165.5t112.5 -356.5h-325q0 134 -55.5 201t-148.5 67q-92 0 -142.5 -52t-50.5 -144q0 -86 49 -137.5t183.5 -105.5t221 -101.5
t146 -108t91 -137t31.5 -179.5q0 -191 -119 -310t-328 -140v-223h-179v222q-230 25 -356.5 163.5t-126.5 368.5h325q0 -133 63.5 -204.5t182.5 -71.5q99 0 156 52t57 141z" />
    <glyph glyph-name="percent" unicode="%" horiz-adv-x="1698" 
d="M107 1321q0 150 97.5 244t255.5 94q161 0 258.5 -93t97.5 -251v-81q0 -151 -97.5 -243.5t-255.5 -92.5q-160 0 -258 93t-98 250v80zM322 1234q0 -67 39 -108t102 -41t100 41.5t37 111.5v83q0 67 -37 108.5t-103 41.5q-61 0 -99.5 -41t-38.5 -114v-82zM888 401
q0 152 99 244.5t256 92.5q160 0 258 -91.5t98 -252.5v-81q0 -150 -96.5 -242.5t-257.5 -92.5t-259 93t-98 247v83zM1104 313q0 -61 40.5 -105t100.5 -44q137 0 137 152v85q0 67 -38 108t-101 41t-101 -41t-38 -111v-85zM527 122l-159 86l799 1278l158 -86z" />
    <glyph glyph-name="ampersand" unicode="&#x26;" horiz-adv-x="1509" 
d="M80 440q0 114 63.5 210.5t232.5 214.5q-73 97 -114.5 183t-41.5 179q0 191 121 311t325 120q183 0 300.5 -109t117.5 -272q0 -196 -198 -345l-126 -91l282 -328q66 131 66 288h277q0 -319 -147 -517l244 -284h-368l-84 97q-181 -119 -416 -119q-242 0 -388 127t-146 335z
M630 238q117 0 221 65l-322 373l-24 -17q-100 -85 -100 -201q0 -98 62.5 -159t162.5 -61zM511 1232q0 -84 99 -212l86 57q67 43 92 83.5t25 96.5t-41.5 97.5t-106.5 41.5q-70 0 -112 -45t-42 -119z" />
    <glyph glyph-name="quotesingle" unicode="'" horiz-adv-x="372" 
d="M309 1560l-33 -454h-205v619h238v-165z" />
    <glyph glyph-name="asterisk" unicode="*" horiz-adv-x="1042" 
d="M383 1080l-353 100l67 204l349 -141l-23 392h221l-23 -400l340 138l67 -205l-360 -100l236 -299l-179 -127l-204 328l-202 -316l-179 121z" />
    <glyph glyph-name="plus" unicode="+" horiz-adv-x="1256" 
d="M779 915h406v-293h-406v-458h-308v458h-407v293h407v439h308v-439z" />
    <glyph glyph-name="comma" unicode="," horiz-adv-x="562" 
d="M209 -410l-170 89l41 73q75 137 77 273v251h274l-1 -224q-1 -125 -63 -252t-158 -210z" />
    <glyph glyph-name="hyphen" unicode="-" horiz-adv-x="892" 
d="M756 569h-632v262h632v-262z" />
    <glyph glyph-name="slash" unicode="/" horiz-adv-x="859" 
d="M227 -140h-242l602 1775h242z" />
    <glyph glyph-name="zero" unicode="0" horiz-adv-x="1320" 
d="M1212 676q0 -339 -140.5 -518.5t-411.5 -179.5q-267 0 -408.5 176t-144.5 505v301q0 343 142 520.5t409 177.5t408.5 -176t145.5 -505v-301zM887 1006q0 204 -55.5 296.5t-173.5 92.5q-114 0 -168.5 -88t-58.5 -276v-398q0 -200 54.5 -297t174.5 -97q119 0 172 93.5
t55 285.5v388z" />
    <glyph glyph-name="one" unicode="1" horiz-adv-x="1320" 
d="M900 0h-325v1251l-387 -120v264l677 242h35v-1637z" />
    <glyph glyph-name="two" unicode="2" horiz-adv-x="1320" 
d="M1232 0h-1121v222l529 564q109 119 161.5 208t52.5 168q0 109 -55.5 171.5t-157.5 62.5q-110 0 -173.5 -76t-63.5 -199h-325q0 149 71 272.5t201.5 194t295.5 70.5q253 0 392.5 -121.5t139.5 -342.5q0 -121 -63 -247t-215 -293l-372 -392h703v-262z" />
    <glyph glyph-name="three" unicode="3" horiz-adv-x="1320" 
d="M441 961h173q124 0 183.5 62t59.5 164q0 99 -59 154t-162 55q-94 0 -156.5 -51t-62.5 -133h-325q0 128 69 229.5t193 159t274 57.5q259 0 406 -124.5t147 -341.5q0 -113 -68.5 -207t-179.5 -145q138 -49 206 -148t68 -234q0 -218 -159 -349t-420 -131q-245 0 -400.5 129
t-155.5 341h324q0 -92 69.5 -150.5t170.5 -58.5q115 0 181 61.5t66 162.5q0 245 -270 245h-172v253z" />
    <glyph glyph-name="four" unicode="4" horiz-adv-x="1320" 
d="M1071 615h186v-261h-186v-354h-324v354h-671l-14 204l681 1077h328v-1020zM385 615h362v578l-22 -37z" />
    <glyph glyph-name="five" unicode="5" horiz-adv-x="1320" 
d="M159 804l95 831h916v-270h-650l-40 -352q115 62 245 62q234 0 366.5 -145t132.5 -406q0 -158 -67 -283t-191.5 -194t-293.5 -69q-149 0 -275.5 60t-200.5 169t-78 248h321q10 -102 71.5 -159t159.5 -57q111 0 170.5 79.5t59.5 223.5q0 140 -68.5 214t-194.5 74
q-116 0 -188 -61l-31 -29z" />
    <glyph glyph-name="six" unicode="6" horiz-adv-x="1320" 
d="M992 1652v-267h-32q-220 -4 -354 -115t-161 -309q130 133 329 133q213 0 339 -153t126 -402q0 -159 -69 -288.5t-195.5 -201t-286.5 -71.5q-258 0 -417 179.5t-159 479.5v117q0 266 100.5 469.5t289 315.5t436.5 113h54zM675 833q-79 0 -143 -41t-94 -108v-99
q0 -163 64 -254.5t180 -91.5q104 0 168.5 82.5t64.5 214.5q0 133 -65 215t-175 82z" />
    <glyph glyph-name="seven" unicode="7" horiz-adv-x="1320" 
d="M1223 1453l-632 -1453h-343l634 1372h-813v263h1154v-182z" />
    <glyph glyph-name="eight" unicode="8" horiz-adv-x="1320" 
d="M1177 1201q0 -120 -59.5 -212t-164.5 -147q120 -57 189.5 -157.5t69.5 -236.5q0 -218 -148.5 -344t-403.5 -126t-404 126.5t-149 343.5q0 136 69.5 237t187.5 157q-105 55 -163.5 147t-58.5 212q0 208 139 332.5t378 124.5q238 0 378 -123t140 -334zM886 472
q0 106 -61.5 170t-166.5 64q-103 0 -165 -63.5t-62 -170.5q0 -105 61 -169t168 -64q106 0 166 62t60 171zM852 1185q0 95 -50.5 153t-142.5 58q-91 0 -141.5 -56t-50.5 -155q0 -98 50.5 -157.5t142.5 -59.5t142 59.5t50 157.5z" />
    <glyph glyph-name="nine" unicode="9" horiz-adv-x="1320" 
d="M870 654q-127 -125 -296 -125q-217 0 -347 149t-130 401q0 161 70 295t196 209t283 75q161 0 287 -81t195.5 -232.5t70.5 -347.5v-120q0 -409 -203 -642.5t-576 -249.5l-80 -1v271l72 1q424 19 458 398zM654 777q78 0 135 40.5t86 97.5v134q0 165 -63 256t-168 91
q-98 0 -161 -89.5t-63 -223.5t61 -220t173 -86z" />
    <glyph glyph-name="semicolon" unicode=";" horiz-adv-x="603" 
d="M121 1079q0 78 52.5 126t130.5 48q80 0 132.5 -48t52.5 -126q0 -76 -52 -124t-133 -48q-79 0 -131 48t-52 124zM234 -410l-170 89l40 73q76 137 78 273v251h274l-1 -224q-1 -125 -63 -252t-158 -210z" />
    <glyph glyph-name="less" unicode="&#x3c;" horiz-adv-x="1170" 
d="M387 694l641 -226v-314l-967 410v265l967 410v-315z" />
    <glyph glyph-name="equal" unicode="=" horiz-adv-x="1316" 
d="M1157 838h-1004v265h1004v-265zM1157 352h-1004v265h1004v-265z" />
    <glyph glyph-name="greater" unicode="&#x3e;" horiz-adv-x="1188" 
d="M787 697l-652 228v313l978 -410v-264l-978 -411v313z" />
    <glyph glyph-name="question" unicode="?" horiz-adv-x="1144" 
d="M390 502q0 157 38 250.5t139.5 183.5t135.5 147t34 120q0 190 -175 190q-84 0 -134 -51.5t-52 -140.5h-325q2 214 138.5 335.5t372.5 121.5q238 0 369 -115.5t131 -325.5q0 -95 -42.5 -180t-149.5 -188l-91 -86q-85 -82 -97 -192l-5 -69h-287zM357 157q0 75 51 124
t131 49t131 -49t51 -124q0 -74 -50 -122t-132 -48t-132 48t-50 122z" />
    <glyph glyph-name="at" unicode="@" horiz-adv-x="2059" 
d="M1964 602q-12 -288 -142 -457t-349 -169q-96 0 -166.5 42t-105.5 119q-113 -157 -294 -157q-164 0 -253.5 138t-67.5 365q20 185 94 329.5t186 222t242 77.5q161 0 274 -74l71 -49l-57 -649q-11 -88 19.5 -135.5t98.5 -47.5q103 0 172.5 121t76.5 316
q19 392 -157.5 602.5t-524.5 210.5q-216 0 -385.5 -110t-267.5 -312.5t-110 -464.5q-18 -398 159.5 -615t530.5 -217q94 0 196 20.5t176 55.5l43 -173q-69 -45 -185 -72.5t-234 -27.5q-296 0 -505 119.5t-312 353t-89 556.5q13 310 141 556t349 380t498 134
q282 0 485 -120.5t304.5 -345t88.5 -522.5zM836 483q-13 -148 25.5 -225t123.5 -77q55 0 104.5 48t81.5 139l48 532q-44 14 -90 14q-129 0 -200.5 -110t-92.5 -321z" />
    <glyph glyph-name="A" unicode="A" horiz-adv-x="1548" 
d="M1069 337h-591l-112 -337h-358l609 1635h312l612 -1635h-358zM569 610h409l-205 612z" />
    <glyph glyph-name="B" unicode="B" horiz-adv-x="1468" 
d="M146 0v1635h573q297 0 451 -114t154 -334q0 -120 -61.5 -211.5t-172.5 -134.5q126 -31 198.5 -126.5t72.5 -233.5q0 -236 -150.5 -357.5t-428.5 -123.5h-636zM483 712v-441h289q119 0 185.5 56.5t66.5 156.5q0 225 -232 228h-309zM483 950h249q255 5 255 203
q0 112 -64.5 160.5t-203.5 48.5h-236v-412z" />
    <glyph glyph-name="C" unicode="C" horiz-adv-x="1505" 
d="M1430 545q-19 -264 -195 -415.5t-463 -151.5q-315 0 -495 211.5t-180 580.5v100q0 236 83 416t237.5 276t358.5 96q283 0 456 -152t200 -426h-337q-12 159 -88 230t-231 71q-168 0 -252 -120.5t-86 -374.5v-123q0 -265 80.5 -387.5t253.5 -122.5q156 0 232.5 71t88.5 221
h337z" />
    <glyph glyph-name="D" unicode="D" horiz-adv-x="1495" 
d="M146 0v1635h503q216 0 386 -97t265.5 -276t95.5 -407v-76q0 -228 -94 -405t-264.5 -275t-385.5 -99h-506zM483 1362v-1091h163q197 0 301.5 129t107.5 369v87q0 249 -103.5 377.5t-302.5 128.5h-166z" />
    <glyph glyph-name="E" unicode="E" horiz-adv-x="1294" 
d="M1130 709h-647v-438h759v-271h-1096v1635h1094v-273h-757v-389h647v-264z" />
    <glyph glyph-name="F" unicode="F" horiz-adv-x="1260" 
d="M1130 668h-647v-668h-337v1635h1065v-273h-728v-422h647v-272z" />
    <glyph glyph-name="G" unicode="G" horiz-adv-x="1567" 
d="M1440 207q-91 -109 -257.5 -169t-368.5 -60q-212 0 -372 92.5t-247 268.5t-89 415v111q0 245 82.5 424t238 274t364.5 95q290 0 454 -139t195 -404h-328q-23 141 -100 206t-211 65q-172 0 -262 -129t-91 -384v-105q0 -257 98 -388.5t286 -131.5q190 0 271 81v282h-307
v248h644v-652z" />
    <glyph glyph-name="H" unicode="H" horiz-adv-x="1625" 
d="M1477 0h-337v701h-657v-701h-337v1635h337v-662h657v662h337v-1635z" />
    <glyph glyph-name="I" unicode="I" horiz-adv-x="670" 
d="M504 0h-337v1635h337v-1635z" />
    <glyph glyph-name="J" unicode="J" horiz-adv-x="1285" 
d="M805 1635h337v-1132q0 -156 -69 -275.5t-195 -184.5t-284 -65q-259 0 -404 131.5t-145 373.5h339q0 -120 50.5 -177.5t159.5 -57.5q97 0 154 66.5t57 188.5v1132z" />
    <glyph glyph-name="K" unicode="K" horiz-adv-x="1460" 
d="M658 656l-175 -189v-467h-337v1635h337v-741l148 203l417 538h414l-580 -726l597 -909h-401z" />
    <glyph glyph-name="L" unicode="L" horiz-adv-x="1245" 
d="M483 271h715v-271h-1052v1635h337v-1364z" />
    <glyph glyph-name="M" unicode="M" horiz-adv-x="2015" 
d="M586 1635l420 -1186l418 1186h443v-1635h-339v447l34 772l-441 -1219h-232l-440 1217l34 -770v-447h-337v1635h440z" />
    <glyph glyph-name="N" unicode="N" horiz-adv-x="1624" 
d="M1476 0h-337l-656 1076v-1076h-337v1635h337l657 -1078v1078h336v-1635z" />
    <glyph glyph-name="O" unicode="O" horiz-adv-x="1588" 
d="M1489 781q0 -242 -85.5 -424t-244 -280.5t-364.5 -98.5q-203 0 -362.5 97.5t-247 279t-88.5 417.5v80q0 242 87 425.5t245.5 282t363 98.5t363.5 -98.5t246 -282t87 -423.5v-73zM1148 855q0 257 -92 390.5t-263 133.5q-170 0 -262 -132t-93 -387v-79q0 -251 92 -389
t265 -138q170 0 261 133t92 388v80z" />
    <glyph glyph-name="P" unicode="P" horiz-adv-x="1484" 
d="M483 576v-576h-337v1635h638q184 0 324 -67.5t215 -191.5t75 -282q0 -240 -164.5 -379t-455.5 -139h-295zM483 849h301q134 0 204 63t70 180q0 120 -71 194t-195 76h-309v-513z" />
    <glyph glyph-name="Q" unicode="Q" horiz-adv-x="1588" 
d="M1487 781q0 -230 -74 -399t-206 -271l272 -213l-214 -190l-349 280q-59 -10 -123 -10q-203 0 -362.5 97.5t-247.5 279t-89 417.5v80q0 242 87 425.5t246 282t363.5 98.5t363.5 -98.5t246 -282t87 -423.5v-73zM1146 855q0 257 -92.5 390.5t-262.5 133.5t-262 -132
t-93 -387v-79q0 -251 92 -389t265 -138q169 0 260 133t93 388v80z" />
    <glyph glyph-name="R" unicode="R" horiz-adv-x="1468" 
d="M751 599h-268v-599h-337v1635h608q289 0 446.5 -129t157.5 -365q0 -167 -72.5 -279t-219.5 -178l354 -668v-16h-362zM483 871h272q127 0 196.5 65t69.5 178q0 116 -66 182t-201 66h-271v-491z" />
    <glyph glyph-name="S" unicode="S" horiz-adv-x="1414" 
d="M994 429q0 95 -67.5 146.5t-242.5 108t-277 111.5q-279 151 -279 406q0 132 74.5 236t214.5 162.5t314 58.5q175 0 312 -63.5t213 -179.5t76 -263h-337q0 113 -70.5 175t-199.5 62q-123 0 -191.5 -52t-68.5 -138q0 -79 80.5 -133t236.5 -101q287 -87 418.5 -215
t131.5 -319q0 -212 -160.5 -332.5t-432.5 -120.5q-189 0 -344 69t-236.5 189t-81.5 278h339q0 -270 323 -270q120 0 187.5 48.5t67.5 136.5z" />
    <glyph glyph-name="T" unicode="T" horiz-adv-x="1423" 
d="M1377 1362h-501v-1362h-337v1362h-494v273h1332v-273z" />
    <glyph glyph-name="U" unicode="U" horiz-adv-x="1514" 
d="M1384 1635v-1077q0 -268 -168 -424t-459 -156q-286 0 -454.5 151.5t-172.5 416.5v1089h337v-1079q0 -161 77 -234.5t213 -73.5q284 0 289 299v1088h338z" />
    <glyph glyph-name="V" unicode="V" horiz-adv-x="1504" 
d="M750 405l371 1230h375l-569 -1635h-352l-567 1635h374z" />
    <glyph glyph-name="W" unicode="W" horiz-adv-x="2011" 
d="M1420 472l220 1163h335l-362 -1635h-339l-267 1094l-266 -1094h-339l-363 1635h336l221 -1161l270 1161h285z" />
    <glyph glyph-name="X" unicode="X" horiz-adv-x="1461" 
d="M731 1071l307 564h387l-476 -811l489 -824h-392l-315 573l-314 -573h-392l488 824l-476 811h388z" />
    <glyph glyph-name="Y" unicode="Y" horiz-adv-x="1422" 
d="M710 898l340 737h368l-536 -1042v-593h-343v593l-537 1042h370z" />
    <glyph glyph-name="Z" unicode="Z" horiz-adv-x="1394" 
d="M503 271h824v-271h-1245v198l809 1164h-808v273h1226v-193z" />
    <glyph glyph-name="bracketleft" unicode="[" horiz-adv-x="639" 
d="M620 1652h-160v-1782h160v-251h-485v2283h485v-250z" />
    <glyph glyph-name="backslash" unicode="\" horiz-adv-x="970" 
d="M0 1635h331l683 -1775h-332z" />
    <glyph glyph-name="bracketright" unicode="]" horiz-adv-x="639" 
d="M15 1902h485v-2283h-485v251h160v1782h-160v250z" />
    <glyph glyph-name="asciicircum" unicode="^" horiz-adv-x="1005" 
d="M503 1332l-195 -513h-259l336 816h236l336 -816h-257z" />
    <glyph glyph-name="underscore" unicode="_" horiz-adv-x="1026" 
d="M1024 -254h-1023v254h1023v-254z" />
    <glyph glyph-name="grave" unicode="`" horiz-adv-x="760" 
d="M635 1377h-267l-310 348h354z" />
    <glyph glyph-name="a" unicode="a" horiz-adv-x="1233" 
d="M829 0q-23 44 -33 109q-118 -131 -306 -131q-179 0 -296.5 103t-117.5 260q0 194 143.5 297t413.5 104h150v70q0 84 -43.5 134.5t-136.5 50.5q-82 0 -128.5 -39t-46.5 -108h-325q0 106 65.5 195.5t184.5 141t267 51.5q225 0 356.5 -113t131.5 -318v-526q2 -173 49 -262
v-19h-328zM560 226q72 0 133 32t90 86v209h-122q-243 0 -259 -169l-1 -19q0 -61 42.5 -100t116.5 -39z" />
    <glyph glyph-name="b" unicode="b" horiz-adv-x="1295" 
d="M1220 596q0 -292 -125 -455t-348 -163q-198 0 -316 151l-14 -129h-292v1725h324v-619q113 132 296 132q222 0 348.5 -163.5t126.5 -460.5v-18zM895 620q0 184 -58.5 269t-173.5 85q-155 0 -214 -127v-480q60 -128 216 -128q157 0 206 155q24 74 24 226z" />
    <glyph glyph-name="c" unicode="c" horiz-adv-x="1199" 
d="M630 239q90 0 146 49.5t58 131.5h305q-1 -124 -67.5 -226.5t-181.5 -159t-254 -56.5q-261 0 -411.5 165.5t-150.5 457.5v21q0 281 149.5 448.5t409.5 167.5q228 0 366 -130t140 -345h-305q-2 94 -58 153t-148 59q-114 0 -171.5 -82.5t-57.5 -268.5v-33q0 -188 57 -270
t174 -82z" />
    <glyph glyph-name="d" unicode="d" horiz-adv-x="1296" 
d="M74 617q0 284 127.5 452.5t348.5 168.5q178 0 293 -133v620h326v-1725h-293l-16 129q-121 -151 -312 -151q-214 0 -344 169t-130 470zM399 593q0 -171 59.5 -262t172.5 -91q151 0 212 127v480q-60 127 -210 127q-234 0 -234 -381z" />
    <glyph glyph-name="e" unicode="e" horiz-adv-x="1243" 
d="M684 -22q-267 0 -435 163.5t-168 436.5v32q0 183 70.5 327t200.5 222.5t296 78.5q249 0 392.5 -157.5t143.5 -445.5v-133h-774q16 -119 95 -191t200 -72q188 0 293 136l160 -178q-73 -104 -197.5 -161.5t-276.5 -57.5zM647 975q-97 0 -157 -65t-77 -187h452v26
q-2 108 -58.5 167t-159.5 59z" />
    <glyph glyph-name="f" unicode="f" horiz-adv-x="824" 
d="M213 0v977h-180v238h180v103q0 205 117.5 318t328.5 113q68 0 165 -23l-3 -251q-40 10 -99 10q-183 0 -183 -172v-98h242v-238h-242v-977h-326z" />
    <glyph glyph-name="g" unicode="g" horiz-adv-x="1313" 
d="M77 617q0 279 133.5 450t358.5 171q200 0 311 -137l14 114h294v-1175q0 -159 -72.5 -277t-203.5 -179.5t-308 -61.5q-133 0 -260 53t-192 138l143 197q122 -136 295 -136q129 0 201 69t72 196v65q-113 -126 -296 -126q-219 0 -354.5 171t-135.5 454v14zM402 593
q0 -165 66.5 -259t181.5 -94q148 0 213 112v511q-66 111 -211 111q-116 0 -183 -95.5t-67 -285.5z" />
    <glyph glyph-name="h" unicode="h" horiz-adv-x="1287" 
d="M441 1083q130 155 325 155q395 0 401 -460v-778h-325v769q0 105 -45 155t-149 50q-143 0 -207 -110v-864h-324v1725h324v-642z" />
    <glyph glyph-name="i" unicode="i" horiz-adv-x="610" 
d="M467 0h-325v1215h325v-1215zM122 1530q0 73 49 120t133 47q83 0 132.5 -47t49.5 -120q0 -75 -50 -122t-132 -47t-132 47t-50 122z" />
    <glyph glyph-name="j" unicode="j" horiz-adv-x="597" 
d="M468 1215v-1281q0 -201 -106.5 -313t-307.5 -112q-84 0 -161 19v257q59 -10 103 -10q147 0 147 156v1284h325zM117 1530q0 73 49 120t133 47t133 -47t49 -120q0 -75 -50 -122t-132 -47t-132 47t-50 122z" />
    <glyph glyph-name="k" unicode="k" horiz-adv-x="1229" 
d="M566 487l-117 -116v-371h-324v1725h324v-956l63 81l311 365h390l-439 -506l477 -709h-373z" />
    <glyph glyph-name="l" unicode="l" horiz-adv-x="610" 
d="M467 0h-325v1725h325v-1725z" />
    <glyph glyph-name="m" unicode="m" horiz-adv-x="1991" 
d="M429 1215l10 -136q129 159 349 159q235 0 323 -186q128 186 365 186q197 0 294 -115.5t97 -346.5v-776h-326v775q0 103 -40.5 151t-142.5 48q-146 0 -202 -140l1 -834h-325v774q0 105 -41.5 152.5t-141.5 47.5q-138 0 -200 -115v-859h-324v1215h304z" />
    <glyph glyph-name="n" unicode="n" horiz-adv-x="1288" 
d="M423 1215l10 -140q131 163 350 163q193 0 287.5 -113.5t96.5 -339.5v-785h-325v777q0 103 -45 150t-149 47q-137 0 -206 -117v-857h-324v1215h305z" />
    <glyph glyph-name="o" unicode="o" horiz-adv-x="1300" 
d="M74 619q0 181 69.5 322.5t200.5 219t304 77.5q246 0 401.5 -150.5t173.5 -409.5l2 -83q0 -279 -156 -448t-419 -169t-419.5 168t-156.5 458v15zM399 595q0 -173 65 -264.5t186 -91.5q118 0 184.5 90.5t66.5 289.5q0 169 -66.5 262.5t-186.5 93.5q-119 0 -184 -92.5
t-65 -287.5z" />
    <glyph glyph-name="p" unicode="p" horiz-adv-x="1295" 
d="M1219 596q0 -280 -127.5 -449t-344.5 -169q-184 0 -298 128v-573h-324v1682h301l11 -119q118 142 308 142q224 0 349 -166.5t125 -458.5v-17zM894 620q0 170 -60 262t-175 92q-153 0 -210 -117v-498q60 -120 212 -120q233 0 233 381z" />
    <glyph glyph-name="q" unicode="q" horiz-adv-x="1299" 
d="M74 619q0 286 127.5 452.5t349.5 166.5q196 0 312 -150l21 127h285v-1682h-326v571q-112 -126 -294 -126q-217 0 -346 168t-129 473zM399 595q0 -174 61 -265t172 -91q150 0 211 119v502q-60 115 -208 115q-113 0 -174.5 -91t-61.5 -289z" />
    <glyph glyph-name="r" unicode="r" horiz-adv-x="839" 
d="M807 911q-66 9 -116 9q-185 0 -242 -125v-795h-324v1215h306l9 -145q98 168 271 168q54 0 101 -15z" />
    <glyph glyph-name="s" unicode="s" horiz-adv-x="1183" 
d="M783 336q0 59 -59 93.5t-189 61.5q-434 91 -434 368q0 162 134 270.5t351 108.5q232 0 370.5 -109t138.5 -283h-325q0 69 -44.5 114.5t-140.5 45.5q-82 0 -127 -37t-45 -94q0 -54 51 -87t172.5 -57.5t204.5 -54.5q257 -94 257 -327q0 -166 -142.5 -268.5t-368.5 -102.5
q-152 0 -270.5 54t-186 149t-67.5 205h308q4 -86 63.5 -132t159.5 -46q93 0 141 35.5t48 92.5z" />
    <glyph glyph-name="t" unicode="t" horiz-adv-x="777" 
d="M513 1514v-299h208v-238h-208v-606q0 -68 26 -97t99 -29q54 0 95 8v-246q-95 -29 -196 -29q-342 0 -348 344v655h-178v238h178v299h324z" />
    <glyph glyph-name="u" unicode="u" horiz-adv-x="1287" 
d="M852 124q-120 -146 -332 -146q-195 0 -298 112t-105 329v796h324v-785q0 -190 173 -190q165 0 227 115v860h326v-1215h-306z" />
    <glyph glyph-name="v" unicode="v" horiz-adv-x="1162" 
d="M579 396l226 819h339l-410 -1215h-309l-410 1215h339z" />
    <glyph glyph-name="w" unicode="w" horiz-adv-x="1690" 
d="M1181 441l160 774h313l-310 -1215h-271l-231 765l-230 -765h-271l-310 1215h314l158 -773l222 773h235z" />
    <glyph glyph-name="x" unicode="x" horiz-adv-x="1170" 
d="M587 852l205 363h347l-346 -595l360 -620h-348l-217 382l-215 -382h-349l360 620l-345 595h348z" />
    <glyph glyph-name="y" unicode="y" horiz-adv-x="1154" 
d="M578 459l225 756h348l-488 -1404l-27 -64q-109 -238 -360 -238q-70 0 -143 22v246l49 -2q92 0 137.5 28.5t71.5 93.5l38 100l-426 1218h350z" />
    <glyph glyph-name="z" unicode="z" horiz-adv-x="1170" 
d="M498 262h594v-262h-1009v198l572 754h-555v263h974v-192z" />
    <glyph glyph-name="braceleft" unicode="{" horiz-adv-x="759" 
d="M658 -404q-404 113 -404 522v223q0 237 -200 237v233q195 0 200 223v238q0 208 101 336t303 186l63 -181q-85 -32 -129 -110t-46 -216v-236q0 -254 -201 -356q201 -103 201 -358v-238q5 -263 175 -321z" />
    <glyph glyph-name="bar" unicode="|" horiz-adv-x="582" 
d="M391 -303h-197v1938h197v-1938z" />
    <glyph glyph-name="braceright" unicode="}" horiz-adv-x="759" 
d="M38 -222q171 60 175 325v238q0 254 206 353q-206 99 -206 358v235q-4 262 -175 326l63 181q201 -57 302 -184.5t102 -333.5v-242q5 -223 200 -223v-233q-200 0 -200 -234v-244q-9 -393 -404 -504z" />
    <glyph glyph-name="asciitilde" unicode="~" horiz-adv-x="1491" 
d="M1371 891q0 -209 -104.5 -339.5t-269.5 -130.5q-83 0 -154 32t-164.5 121.5t-172.5 89.5q-65 0 -105.5 -56.5t-40.5 -143.5l-241 2q0 209 101.5 336t270.5 127q87 0 159 -34t163.5 -121t166.5 -87q67 0 109 59.5t42 145.5z" />
    <glyph glyph-name="copyright" unicode="&#xa9;" horiz-adv-x="1804" 
d="M1254 669q0 -170 -98 -261t-277.5 -91t-286 119.5t-106.5 321.5v127q0 195 107.5 315t284.5 120q183 0 280.5 -93t97.5 -260h-176q0 108 -51.5 154.5t-150.5 46.5q-103 0 -160 -76t-58 -203v-138q0 -131 57.5 -207t160.5 -76q100 0 150.5 45.5t50.5 155.5h175zM1553 819
q0 186 -84 346t-238 256t-337 96q-179 0 -332 -92t-240.5 -253.5t-87.5 -352.5t87 -353t240 -255.5t333 -93.5t334 95.5t239.5 257t85.5 349.5zM97 819q0 227 105 421t290.5 306t401.5 112t401.5 -112t290.5 -306t105 -421q0 -229 -106.5 -424t-291.5 -306t-399 -111
q-217 0 -401.5 112t-290 306.5t-105.5 422.5z" />
    <glyph glyph-name="guillemotleft" unicode="&#xab;" horiz-adv-x="1149" 
d="M835 59q-241 231 -241 520q0 290 241 521q29 28 70 28q41 -1 69 -31q29 -29 28 -70t-31 -69q-179 -173 -179 -378q0 -206 179 -378q30 -28 31 -69t-28 -71t-71 -30q-40 0 -68 27zM418 59q-240 231 -240 520q0 290 240 521q30 28 71 28q41 -1 69 -31q28 -29 28 -70
q-1 -41 -31 -69q-179 -173 -179 -378q0 -206 179 -378q30 -28 31 -69q0 -41 -28 -71q-29 -30 -71 -30q-40 0 -69 27z" />
    <glyph glyph-name="registered" unicode="&#xae;" horiz-adv-x="1804" 
d="M97 819q0 227 105 421t290.5 306t401.5 112t401.5 -112t290.5 -306t105 -421q0 -229 -106.5 -424t-291.5 -306t-399 -111q-217 0 -401.5 112t-290 306.5t-105.5 422.5zM1553 819q0 186 -84 346t-238 256t-337 96q-179 0 -332 -92t-240.5 -253.5t-87.5 -352.5t87 -353
t240 -255.5t333 -93.5t334 95.5t239.5 257t85.5 349.5zM732 733v-378h-169v954h315q170 0 267.5 -76.5t97.5 -218.5q0 -126 -127 -195q69 -35 96.5 -97.5t27.5 -154.5t4 -130t15 -64v-18h-174q-15 38 -15 218q0 85 -37 122.5t-123 37.5h-178zM732 884h153q83 0 136.5 36
t53.5 94q0 79 -40 112t-144 34h-159v-276z" />
    <glyph glyph-name="guillemotright" unicode="&#xbb;" horiz-adv-x="1149" 
d="M237 32q-42 0 -72 30q-28 30 -27 71t30 69q180 172 180 378q0 205 -180 378q-29 28 -30 69t28 70q28 30 69 31q41 0 70 -28q241 -231 241 -521q-1 -289 -241 -520q-28 -27 -68 -27zM653 32q-42 0 -71 30t-28 71t31 69q179 172 179 378q0 205 -179 378q-30 28 -31 69
t28 70q28 30 69 31q41 0 71 -28q240 -231 240 -521q0 -289 -241 -520q-28 -27 -68 -27z" />
    <glyph glyph-name="multiply" unicode="&#xd7;" horiz-adv-x="1222" 
d="M73 419l345 351l-345 352l191 189l341 -350l343 350l191 -189l-345 -352l345 -351l-191 -189l-343 348l-341 -348z" />
    <glyph glyph-name="divide" unicode="&#xf7;" horiz-adv-x="1312" 
d="M1225 641h-1154v259h1154v-259zM466 1223q0 76 51 123.5t132 47.5q80 0 132 -47t52 -124q0 -75 -50.5 -121.5t-133.5 -46.5q-84 0 -133.5 47t-49.5 121zM466 311q0 76 51 123.5t132 47.5q80 0 132 -46.5t52 -124.5q0 -75 -50.5 -121.5t-133.5 -46.5q-84 0 -133.5 47
t-49.5 121z" />
    <glyph glyph-name="uni2000" unicode="&#x2000;" horiz-adv-x="1172" 
 />
    <glyph glyph-name="uni2001" unicode="&#x2001;" horiz-adv-x="2346" 
 />
    <glyph glyph-name="uni2002" unicode="&#x2002;" horiz-adv-x="1172" 
 />
    <glyph glyph-name="uni2003" unicode="&#x2003;" horiz-adv-x="2346" 
 />
    <glyph glyph-name="uni2004" unicode="&#x2004;" horiz-adv-x="783" 
 />
    <glyph glyph-name="uni2005" unicode="&#x2005;" horiz-adv-x="586" 
 />
    <glyph glyph-name="uni2006" unicode="&#x2006;" horiz-adv-x="391" 
 />
    <glyph glyph-name="uni2007" unicode="&#x2007;" horiz-adv-x="1293" 
 />
    <glyph glyph-name="uni2008" unicode="&#x2008;" horiz-adv-x="629" 
 />
    <glyph glyph-name="uni2009" unicode="&#x2009;" horiz-adv-x="469" 
 />
    <glyph glyph-name="uni200A" unicode="&#x200a;" horiz-adv-x="235" 
 />
    <glyph glyph-name="uni2010" unicode="&#x2010;" horiz-adv-x="893" 
d="M756 569h-632v262h632v-262z" />
    <glyph glyph-name="uni2011" unicode="&#x2011;" horiz-adv-x="893" 
d="M756 569h-632v262h632v-262z" />
    <glyph glyph-name="endash" unicode="&#x2013;" horiz-adv-x="1453" 
d="M1334 669h-1163v265h1163v-265z" />
    <glyph glyph-name="emdash" unicode="&#x2014;" horiz-adv-x="1755" 
d="M1672 669h-1550v265h1550v-265z" />
    <glyph glyph-name="quoteleft" unicode="&#x2018;" horiz-adv-x="538" 
d="M321 1763l153 -89q-97 -152 -100 -309v-188h-257v168q0 106 59 225.5t145 192.5z" />
    <glyph glyph-name="quoteright" unicode="&#x2019;" horiz-adv-x="528" 
d="M218 1133l-153 89q97 151 100 313v190h258v-174q0 -101 -56 -219t-149 -199z" />
    <glyph glyph-name="quotesinglbase" unicode="&#x201a;" horiz-adv-x="571" 
d="M227 -343l-153 89q88 142 91 308v203h267l-1 -186q-1 -100 -56.5 -216t-147.5 -198z" />
    <glyph glyph-name="quotereversed" unicode="&#x201b;" horiz-adv-x="481" 
d="M338 1725v-183q1 -80 22 -152.5t78 -167.5l-153 -89q-92 80 -148.5 198t-56.5 221v173h258z" />
    <glyph glyph-name="quotedblleft" unicode="&#x201c;" horiz-adv-x="933" 
d="M330 1763l153 -89q-97 -152 -100 -309v-188h-257v168q0 106 59 225.5t145 192.5zM715 1763l153 -89q-96 -152 -100 -309v-188h-257v168q0 106 59 225.5t145 192.5z" />
    <glyph glyph-name="quotedblright" unicode="&#x201d;" horiz-adv-x="940" 
d="M234 1133l-153 89q96 151 100 313v190h258v-174q0 -101 -56 -219t-149 -199zM623 1133l-152 89q96 151 100 313v190h258v-174q0 -101 -56 -219t-150 -199z" />
    </font>
</defs>
</svg>
