<?xml version="1.0" standalone="no"?>
<!DOCTYPE svg PUBLIC "-//W3C//DTD SVG 1.1//EN" "http://www.w3.org/Graphics/SVG/1.1/DTD/svg11.dtd" >
<svg xmlns="http://www.w3.org/2000/svg" xmlns:xlink="http://www.w3.org/1999/xlink" version="1.1">
<metadata>
Created by FontForge 20161003 at Tue Dec 27 19:26:21 2016
 By www-data
Copyright (c) 2016 by fontiran.com. All rights reserved.
</metadata>
<defs>
<font id="IRANYekanWebFaNum-Bold" horiz-adv-x="0" >
  <font-face 
    font-family="IRANYekanWeb(FaNum)"
    font-weight="700"
    font-stretch="normal"
    units-per-em="2200"
    panose-1="2 11 5 6 3 8 4 2 2 4"
    ascent="1760"
    descent="-440"
    x-height="1162"
    cap-height="1564"
    bbox="-501 -1140 3140 2705"
    underline-thickness="100"
    underline-position="-850"
    unicode-range="U+001D-FEFF"
  />
<missing-glyph horiz-adv-x="1229" 
d="M102 -362v1806h1024v-1806h-1024zM217 -248h795v1577h-795v-1577z" />
    <glyph glyph-name="uniFEFB" unicode="&#xfedf;&#xfe8e;" horiz-adv-x="1302" arabic-form="isolated" 
d="M120 -15v249h429q116 0 187 19.5t110 64.5t52 119t13 183v807h248v-807q0 -59 -4.5 -121t-17 -122.5t-36 -117t-60.5 -103.5q-73 -85 -194 -128t-298 -43h-429zM240 399l-65 989l247 29l66 -1018h-248z" />
    <glyph glyph-name="uniFEFC" unicode="&#xfee0;&#xfe8e;" horiz-adv-x="1340" arabic-form="final" 
d="M125 -14v249h429q116 0 187 19.5t110 64.5t52 119t13 183v806h248v-830v-205q0 -35 11 -64t30.5 -50t47 -32.5t60.5 -11.5h51v-249h-51q-99 0 -172 37.5t-129 106.5q-74 -69 -187 -106t-271 -37h-429zM240 399l-65 989l247 29l66 -1018h-248z" />
    <glyph glyph-name="uniFEF7" unicode="&#xfedf;&#xfe84;" horiz-adv-x="1258" arabic-form="isolated" 
d="M120 -15v249h429q116 0 187 19.5t110 64.5t52 119t13 183v807h248v-807q0 -59 -4.5 -121t-17 -122.5t-36 -117t-60.5 -103.5q-73 -85 -194 -128t-298 -43h-429zM240 399l-65 989l247 29l66 -1018h-248zM-40 1445v149l124 40q-30 31 -49.5 70t-19.5 83q0 34 12 67t33 61
t49.5 49t60.5 30q17 5 34.5 7.5t34.5 2.5q36 0 63.5 -8.5t51.5 -17.5l17 -8l-30 -124q-14 3 -31 8t-34 8t-33.5 3.5t-29.5 -3.5q-14 -5 -27.5 -14t-22.5 -20.5t-12.5 -26.5t2.5 -32q8 -26 37.5 -44t82.5 -18q10 0 21.5 1t30.5 5.5t48.5 13t75.5 23.5l8 -141z" />
    <glyph glyph-name="uniFEF8" unicode="&#xfee0;&#xfe84;" horiz-adv-x="1340" arabic-form="final" 
d="M125 -14v249h429q116 0 187 19.5t110 64.5t52 119t13 183v806h248v-830v-205q0 -35 11 -64t30.5 -50t47 -32.5t60.5 -11.5h51v-249h-51q-99 0 -172 37.5t-129 106.5q-74 -69 -187 -106t-271 -37h-429zM240 399l-65 989l247 29l66 -1018h-248zM13 1467v149l124 40
q-30 31 -49.5 70t-19.5 83q0 34 12 67t33 61t49.5 49t60.5 30q17 5 34.5 7.5t34.5 2.5q36 0 63.5 -8.5t51.5 -17.5l17 -8l-30 -124q-14 3 -31 8t-34 8t-33.5 3.5t-29.5 -3.5q-14 -5 -27.5 -14t-22.5 -20.5t-12.5 -26.5t2.5 -32q8 -26 37.5 -44t82.5 -18q10 0 21.5 1
t30.5 5.5t48.5 13t75.5 23.5l8 -141z" />
    <glyph glyph-name="uniFEF9" unicode="&#xfedf;&#xfe88;" horiz-adv-x="1275" arabic-form="isolated" 
d="M120 -15v249h429q116 0 187 19.5t110 64.5t52 119t13 183v807h248v-807q0 -59 -4.5 -121t-17 -122.5t-36 -117t-60.5 -103.5q-73 -85 -194 -128t-298 -43h-429zM240 399l-65 989l247 29l66 -1018h-248zM257 -686v149l124 40q-30 31 -49.5 70t-19.5 83q0 34 12 67t33 61
t49.5 49t60.5 30q17 5 34.5 7.5t34.5 2.5q36 0 63.5 -8.5t51.5 -17.5l17 -8l-30 -124q-14 3 -31 8t-34 8t-33.5 3.5t-29.5 -3.5q-14 -5 -27.5 -14t-22.5 -20.5t-12.5 -26.5t2.5 -32q8 -26 37.5 -44t82.5 -18q10 0 21.5 1t30.5 5.5t48.5 13t75.5 23.5l8 -141z" />
    <glyph glyph-name="uniFEFA" unicode="&#xfee0;&#xfe88;" horiz-adv-x="1340" arabic-form="final" 
d="M125 -14v249h429q116 0 187 19.5t110 64.5t52 119t13 183v806h248v-830v-205q0 -35 11 -64t30.5 -50t47 -32.5t60.5 -11.5h51v-249h-51q-99 0 -172 37.5t-129 106.5q-74 -69 -187 -106t-271 -37h-429zM240 399l-65 989l247 29l66 -1018h-248zM252 -685v149l124 40
q-30 31 -49.5 70t-19.5 83q0 34 12 67t33 61t49.5 49t60.5 30q17 5 34.5 7.5t34.5 2.5q36 0 63.5 -8.5t51.5 -17.5l17 -8l-30 -124q-14 3 -31 8t-34 8t-33.5 3.5t-29.5 -3.5q-14 -5 -27.5 -14t-22.5 -20.5t-12.5 -26.5t2.5 -32q8 -26 37.5 -44t82.5 -18q10 0 21.5 1
t30.5 5.5t48.5 13t75.5 23.5l8 -141z" />
    <glyph glyph-name="uniFEF5" unicode="&#xfedf;&#xfe82;" horiz-adv-x="1258" arabic-form="isolated" 
d="M120 -15v249h429q116 0 187 19.5t110 64.5t52 119t13 183v807h248v-807q0 -59 -4.5 -121t-17 -122.5t-36 -117t-60.5 -103.5q-73 -85 -194 -128t-298 -43h-429zM240 399l-65 989l247 29l66 -1018h-248zM768 1548h-490q-59 0 -99.5 -3.5t-69 -18t-47 -42t-33.5 -75.5
l-186 55q26 90 71 147t108 89q54 26 117 34.5t139 8.5h490v-195z" />
    <glyph glyph-name="uniFEF6" unicode="&#xfee0;&#xfe82;" horiz-adv-x="1340" arabic-form="final" 
d="M125 -14v249h429q116 0 187 19.5t110 64.5t52 119t13 183v806h248v-830v-205q0 -35 11 -64t30.5 -50t47 -32.5t60.5 -11.5h51v-249h-51q-99 0 -172 37.5t-129 106.5q-74 -69 -187 -106t-271 -37h-429zM240 399l-65 989l247 29l66 -1018h-248zM757 1553h-490
q-59 0 -99.5 -3.5t-69 -18t-47 -42t-33.5 -75.5l-186 55q26 90 71 147t108 89q54 26 117 34.5t139 8.5h490v-195z" />
    <glyph glyph-name="uni06440671.isol" unicode="&#xfedf;&#xfb51;" horiz-adv-x="1258" 
d="M120 -15v249h429q116 0 187 19.5t110 64.5t52 119t13 183v807h248v-807q0 -59 -4.5 -121t-17 -122.5t-36 -117t-60.5 -103.5q-73 -85 -194 -128t-298 -43h-429zM240 399l-65 989l247 29l66 -1018h-248zM-24 1520l24 109h132l44 68l83 122q35 52 86 82.5t111 30.5
q34 0 68 -13t61 -40t43.5 -68t16.5 -97q0 -54 -18 -91t-46 -60t-62.5 -33t-67.5 -10h-475zM456 1823q-27 0 -53.5 -18t-51 -46t-47.5 -62.5t-43 -67.5h190q36 0 60 20t24 65q0 53 -20.5 81t-58.5 28z" />
    <glyph glyph-name="uni06440671.fina" unicode="&#xfee0;&#xfb51;" horiz-adv-x="1346" 
d="M125 -14v249h429q116 0 187 19.5t110 64.5t52 119t13 183v806h248v-830v-205q0 -35 11 -64t30.5 -50t47 -32.5t60.5 -11.5h51v-249h-51q-99 0 -172 37.5t-129 106.5q-74 -69 -187 -106t-271 -37h-429zM240 399l-65 989l247 29l66 -1018h-248zM-47 1532l24 109h132l44 68
l83 122q35 52 86 82.5t111 30.5q34 0 68 -13t61 -40t43.5 -68t16.5 -97q0 -54 -18 -91t-46 -60t-62.5 -33t-67.5 -10h-475zM433 1835q-27 0 -53.5 -18t-51 -46t-47.5 -62.5t-43 -67.5h190q36 0 60 20t24 65q0 53 -20.5 81t-58.5 28z" />
    <glyph glyph-name="uniFDF2" unicode="&#xfedf;&#xfee0;&#xfeea;" horiz-adv-x="2277" arabic-form="isolated" 
d="M1100 -15q-111 0 -187.5 28t-127 80t-78 124.5t-39.5 161.5l-57 410l-87 -19q-96 -24 -125 -78q-30 -52 -35 -113.5t5 -124.5t29 -124.5t36 -113.5l58 -178l-238 -67l-52 168q-23 82 -45 167.5t-30.5 171.5t3 170.5t54.5 165.5q45 75 114.5 125t166.5 73h-1q20 5 58 13
t76 15.5t67.5 12.5t32.5 5l129 -84l83 -539q10 -64 30 -103.5t45.5 -61t55.5 -29t61 -7.5q69 0 109.5 16.5t61.5 41.5t27 55t6 57l-2 715l250 58v-773q0 -42 14.5 -73.5t40.5 -52.5t61 -32t76 -12h10q102 0 146 41t47 127l-50 837l248 121l50 -956q0 -36 -3.5 -75t-14.5 -79
t-32 -78.5t-56 -72.5q-31 -29 -61 -50.5t-68 -35.5t-87.5 -21t-118.5 -7h-10q-39 0 -83 7t-86.5 20.5t-81.5 33.5t-67 45q-29 -27 -60 -46.5t-69.5 -33t-86.5 -20t-110 -6.5h-2zM1311 1348q-91 0 -143 50.5t-52 141.5v93l111 19v-112q0 -43 19.5 -62.5t64.5 -19.5
q6 0 18 2.5t23.5 11t20 24.5t8.5 44v92l112 24v-116q0 -44 20 -63.5t65 -19.5q7 0 18 3t22 11.5t19 25t8 43.5q0 14 -3 32t-7.5 38t-10 39.5t-9.5 36.5l102 35q1 -5 7.5 -25t13.5 -46.5t12.5 -56t5.5 -53.5q0 -49 -16 -85.5t-42 -60.5t-58 -35.5t-64 -11.5q-91 0 -140 48
q-27 -26 -58.5 -36.5t-66.5 -10.5zM1379 2046l113 26v-286l-113 -27v287z" />
    <glyph glyph-name="uniFDFC" unicode="&#x631;&#xfef3;&#xfe8e;&#x644;" horiz-adv-x="3285" arabic-form="isolated" 
d="M744 -568q-71 0 -136 16t-122 47t-105 74.5t-84 99.5q-15 24 -30.5 56.5t-27.5 73.5t-20 91t-8 109q0 49 5 100.5t19 109.5t39 125.5t65 150.5l225 -107q-30 -62 -50.5 -113.5t-32.5 -97t-17.5 -86.5t-5.5 -83q0 -57 12.5 -106.5t37.5 -89.5l-1 1q38 -54 101.5 -88
t135.5 -34h46q105 0 171.5 22t104 62t51 97t13.5 127v1438h246v-1438q0 -555 -586 -557h-46zM3140 46q-6 -138 -51 -248.5t-124 -188t-191 -119.5t-253 -42h-124v249h124q96 0 166 20t115 64t67 114.5t22 171.5v609h249v-630zM2113 -572l-168 170l166 172l172 -172z
M1694 -573l-168 170l165 172l172 -172zM2058 -15q-110 0 -189 13.5t-133 40t-86.5 67.5t-49.5 96t-22.5 124.5t-5.5 153.5v947h249v-947q0 -80 5.5 -128t29 -74.5t71 -35t131.5 -8.5v-249zM2556 825q2 -7 8.5 -33t14.5 -63.5t16.5 -83.5t16 -92.5t12 -90.5t4.5 -77
q0 -103 -34 -178.5t-89 -124.5t-123.5 -73t-137.5 -24h-266v249h273q12 0 34.5 3.5t45 18.5t39.5 45.5t17 83.5q0 22 -3.5 53.5t-9.5 67.5t-13.5 73.5t-14.5 71t-14 61t-11 42.5z" />
    <glyph glyph-name="uni0621" unicode="&#x621;" horiz-adv-x="1004" arabic-form="isolated" 
d="M107 -64l6 235l168 46q-40 33 -70.5 73t-47.5 85q-15 48 -15 99q0 70 28.5 135.5t77.5 115.5t115.5 80.5t142.5 30.5q25 0 49.5 -2.5t53.5 -8t64 -14t80 -19.5l-47 -199q-73 14 -119.5 19.5t-82.5 5.5q-69 0 -111.5 -39.5t-56.5 -103.5q8 -40 29 -69t51 -47.5t66 -27.5
t73 -9q64 0 146.5 26t172.5 61l3 -236z" />
    <glyph glyph-name="uni0627" unicode="&#x627;" horiz-adv-x="592" arabic-form="isolated" 
d="M420 -15h-249v1442h249v-1442z" />
    <glyph glyph-name="uniFE8E" unicode="&#x627;" horiz-adv-x="644" arabic-form="final" 
d="M671 -15q-110 0 -189 13.5t-133 40t-86.5 67.5t-49.5 96t-22.5 124.5t-5.5 153.5v947h249v-947q0 -80 5.5 -128t29 -74.5t71 -35t131.5 -8.5v-249z" />
    <glyph glyph-name="uni062D" unicode="&#x62d;" horiz-adv-x="1485" arabic-form="isolated" 
d="M1377 558l-590 -243q-129 -49 -213.5 -84t-134 -69.5t-69 -73.5t-19.5 -95q0 -71 16 -121t46 -82.5t72.5 -51t95.5 -28t115 -11.5t131 -2h461v-249h-461q-159 0 -291 25.5t-227 87.5t-148 166t-53 261q0 82 21.5 147t61 117.5t94 94t120.5 75t141 61t156 53.5l401 132
q-116 40 -235.5 78.5t-234.5 75.5q-21 7 -40.5 12.5t-37.5 5.5q-23 0 -41.5 -4.5t-33.5 -16t-27.5 -32.5t-24.5 -54l-229 69q19 60 47.5 112.5t68.5 91.5t92.5 61.5t119.5 22.5q55 0 120 -20q80 -26 146.5 -51.5t132.5 -52.5q38 -15 79 -34t93 -41.5t117.5 -49.5t152.5 -58z
" />
    <glyph glyph-name="uniFEA3" unicode="&#x62d;" horiz-adv-x="1430" arabic-form="initial" 
d="M1356 383q-6 -4 -52 -35t-122 -75.5t-178 -94.5t-220 -93t-247 -71.5t-259 -28.5h-303v249h303q98 0 209 20t219 51.5t205.5 70.5t169.5 77q-46 14 -99.5 30.5t-109.5 33t-111 32t-103 27.5t-86 19t-60 7q-23 0 -40.5 -5.5t-31.5 -18t-26 -32.5t-25 -48l-229 69
q19 60 46.5 112.5t67 91.5t91.5 61.5t119 22.5q26 0 74 -11t109 -29t130.5 -41t139.5 -48t136 -49t119 -43.5t89 -32.5t46 -16z" />
    <glyph glyph-name="uniFEA4" unicode="&#x62d;" horiz-adv-x="1528" arabic-form="medial" 
d="M1341 383q-5 -3 -32 -21.5t-73 -47.5q10 -30 31 -46.5t43 -24t41.5 -8.5t27.5 -1h183v-249h-183q-119 1 -213.5 52.5t-147.5 154.5q-77 -38 -166 -75.5t-186 -66.5t-199 -47t-204 -18h-298v249h298q98 0 209 20t219 51.5t205.5 70.5t169.5 77q-45 14 -99 30.5t-110 33
t-111 32t-103 27.5t-86 19t-60 7q-23 0 -40.5 -5.5t-31.5 -18t-26 -32.5t-25 -48l-229 69q19 60 46.5 112.5t67 91.5t91.5 61.5t119 22.5q26 0 74 -11t109 -29t130.5 -41t139.5 -48t136 -49t119 -43.5t89 -32.5t46 -16z" />
    <glyph glyph-name="uniFEA2" unicode="&#x62d;" horiz-adv-x="1575" arabic-form="final" 
d="M1358 351l-108 -45q27 -35 56 -53.5t51 -18.5h245v-249h-245q-129 0 -216.5 60t-135.5 160l-237 -97q-129 -49 -213.5 -84t-134 -69.5t-69 -73.5t-19.5 -95q0 -71 16 -121t46 -82.5t72.5 -51t95.5 -28t115 -11.5t131 -2h461v-249h-461q-159 0 -291 25.5t-227 87.5
t-148 166t-53 261q0 82 21.5 147t61 117.5t94 94t120.5 75t141 61t156 53.5l401 132q-116 40 -235.5 78.5t-234.5 75.5q-21 7 -40.5 12.5t-37.5 5.5q-23 0 -41.5 -4.5t-33.5 -16t-27.5 -32.5t-24.5 -54l-229 69q19 60 47.5 112.5t68.5 91.5t92.5 61.5t119.5 22.5
q55 0 120 -20q80 -26 146.5 -51.5t132.5 -52.5q38 -15 79 -34t93 -41.5t117.5 -49.5t152.5 -58z" />
    <glyph glyph-name="uni062F" unicode="&#x62f;" horiz-adv-x="1042" arabic-form="isolated" 
d="M515 -16q-38 0 -75 4t-75 11t-78 17.5t-84 23.5l-119 36l72 240q87 -30 180.5 -53t176 -30t143 6.5t81.5 57.5q7 14 1.5 35t-21.5 44l-373 544l210 136l68 -105q0 -1 3.5 -6t14 -21t30 -45.5t51.5 -77.5t78.5 -118.5t111.5 -168.5q51 -77 62.5 -159t-20.5 -156
q-17 -40 -45.5 -73.5t-66.5 -59.5q-71 -49 -171 -67q-84 -15 -155 -15z" />
    <glyph glyph-name="uni0631" unicode="&#x631;" horiz-adv-x="735" arabic-form="isolated" 
d="M667 46q-6 -138 -51 -248.5t-124 -188t-191 -119.5t-253 -42h-124v249h124q96 0 166 20t115 64t67 114.5t22 171.5v609h249v-630z" />
    <glyph glyph-name="uniFEAE" unicode="&#x631;" horiz-adv-x="816" arabic-form="final" 
d="M852 -15h-38q-41 0 -77.5 5t-71.5 28q-12 -129 -59 -234t-125.5 -179.5t-187.5 -115.5t-245 -41h-125v249h125q96 0 166 20t115 64t67 114.5t22 171.5v609h249v-299q0 -46 19.5 -74t45 -43.5t49.5 -20.5t33 -5h38v-249z" />
    <glyph glyph-name="uni0633" unicode="&#x633;" horiz-adv-x="2736" arabic-form="isolated" 
d="M2258 -15q-94 0 -169 26t-129 74q-30 -29 -63.5 -48t-69 -30.5t-71 -16.5t-68.5 -5q-52 0 -98 8t-88 36v-42q0 -275 -148.5 -407t-440.5 -132h-195q-134 0 -246 44t-193 125.5t-126.5 197t-45.5 259.5q0 66 8.5 132t26.5 135t46.5 144.5t69.5 161.5l224 -109
q-35 -72 -61.5 -133.5t-44 -117t-26 -107t-8.5 -103.5q0 -80 27.5 -149.5t77 -121t119 -81t152.5 -28.5h195q106 0 172.5 19.5t103.5 56.5t50.5 91t13.5 123v689h249v-180q0 -86 16 -138t42 -79.5t59.5 -36.5t68.5 -9q21 0 47.5 7.5t50.5 25.5t40 48.5t16 75.5v286h248v-296
q2 -76 41.5 -111.5t124.5 -35.5h-1q14 1 37.5 6.5t45.5 22t38 47t16 81.5q0 33 -8 84t-19 104.5t-22 100t-18 69.5l235 71q2 -6 8.5 -31t15 -61.5t18 -81t17 -90t12.5 -89t5 -76.5q0 -102 -33.5 -177.5t-87 -126t-121 -75.5t-136.5 -26z" />
    <glyph glyph-name="uniFEB3" unicode="&#x633;" horiz-adv-x="1778" arabic-form="initial" 
d="M745 -13q-183 0 -290 95q-55 -51 -122 -74t-138 -23h-225v249h225q12 0 34.5 4t45 19.5t39.5 46t17 84.5v4v284h249v-284q0 -82 38.5 -119.5t126.5 -37.5q12 0 34.5 4.5t45 20.5t39.5 47.5t17 84.5v284h248v-284q0 -82 39.5 -120.5t128.5 -38.5q13 0 35.5 5.5t44.5 22
t38 47.5t16 84q0 22 -3.5 53t-9 65.5t-12.5 70t-14 67.5t-13.5 58t-10.5 41l235 77q2 -7 8 -32t14.5 -62t17.5 -82t16.5 -90.5t12.5 -89t5 -76.5q0 -102 -33.5 -178.5t-87.5 -127t-122 -75.5t-137 -26q-186 0 -294 98q-55 -51 -121.5 -73.5t-136.5 -22.5z" />
    <glyph glyph-name="uniFEB4" unicode="&#x633;" horiz-adv-x="1875" arabic-form="medial" 
d="M-32 234h129q59 0 95.5 10t57 29.5t27.5 47.5t7 64v291h249v-286q0 -81 39 -118t124 -38h-1q15 1 36.5 6t42 20.5t35 45t14.5 79.5v291h248v-286q0 -82 39 -119t127 -37q24 0 47.5 7.5t42.5 25t31 45.5t14 69v-1v296h249v-296q2 -77 47 -111.5t138 -34.5h98v-249h-98
q-103 0 -179 22.5t-131 73.5q-51 -47 -119.5 -71.5t-139.5 -24.5q-94 0 -164.5 23t-125.5 74q-52 -46 -116.5 -71t-130.5 -26q-94 -1 -165.5 24t-123.5 69q-117 -93 -314 -93h-129v249z" />
    <glyph glyph-name="uniFEB2" unicode="&#x633;" horiz-adv-x="2919" arabic-form="final" 
d="M2870 -15q-206 0 -315 100q-57 -46 -128.5 -73t-143.5 -27q-188 0 -296 100q-57 -46 -128.5 -73t-143.5 -27q-54 0 -98.5 8t-87.5 28v-34q0 -275 -148.5 -407.5t-440.5 -132.5h-221q-79 0 -153.5 19.5t-140 55t-121 85.5t-96.5 112q-48 78 -74 166t-26 194
q0 66 8.5 131.5t27.5 135t48 144.5t70 161l224 -109q-35 -73 -60 -134.5t-41 -116.5t-23 -106t-7 -103q0 -65 18.5 -124t45.5 -106q48 -71 126.5 -113.5t173.5 -42.5h221q106 0 172.5 19.5t103.5 57t50.5 91.5t13.5 123v689h249v-194q0 -86 16 -135.5t42 -74.5t59.5 -32
t68.5 -7q21 0 47.5 7.5t50.5 25.5t40 48.5t16 75.5v286h248v-296q2 -76 41.5 -111.5t126.5 -35.5q21 0 47.5 7.5t49.5 25.5t39 48t16 76v286h248v-296q2 -76 45.5 -111t139.5 -35h78v-249h-78v0z" />
    <glyph glyph-name="uni0635" unicode="&#x635;" horiz-adv-x="2793" arabic-form="isolated" 
d="M722 -552q-80 0 -155 19t-140.5 54t-121 86t-96.5 115q-48 79 -73.5 167.5t-25.5 194.5q0 66 8 129.5t26 131t46.5 141t69.5 158.5l225 -107q-35 -72 -59 -133t-39 -115t-22 -104t-7 -101q0 -71 15.5 -125.5t48.5 -105.5q46 -75 124.5 -115.5t175.5 -40.5h219
q106 0 172 20t103 58t50 93t13 124v357v327h248v-319q0 -17 5.5 -33t14.5 -29t20 -21.5t22 -11.5q74 121 150 230t160 190.5t180 129.5t210 48q78 0 154 -23t136 -76.5t96.5 -139.5t36.5 -212q0 -119 -39.5 -200.5t-101.5 -131t-139 -71t-152 -21.5h-573q-18 0 -41.5 1
t-47.5 4t-48 9.5t-43 17.5v-25q0 -278 -147 -411t-439 -133h-219zM2280 234q33 0 72.5 8.5t73.5 28.5t57 54t23 84q0 56 -18 94.5t-48.5 62.5t-69.5 34.5t-81 10.5q-59 0 -122 -31.5t-125 -83.5t-119.5 -120.5t-103.5 -141.5h461z" />
    <glyph glyph-name="uniFEBB" unicode="&#x635;" horiz-adv-x="1796" arabic-form="initial" 
d="M-39 -15v249h144q61 0 97 11t54.5 29t24.5 40.5t6 45.5v316h248v-316q0 -18 7 -35t18 -30.5t25 -22t29 -10.5l22 36q40 66 84.5 133t93.5 129.5t104 117t117 95t131 63.5t148 23q78 0 155 -21.5t137.5 -72.5t98 -135.5t37.5 -211.5q0 -120 -40.5 -202.5t-104 -133.5
t-142 -74t-153.5 -23h-572q-36 0 -80 1.5t-88 10t-83.5 26.5t-67.5 52q-109 -87 -299 -90h-151zM1314 611q-60 0 -121 -31t-120.5 -83t-114.5 -120t-101 -143h445q37 0 76 9.5t71 31t53 56.5t21 87q0 56 -17.5 93.5t-46.5 59.5t-66.5 31t-78.5 9z" />
    <glyph glyph-name="uniFEBC" unicode="&#x635;" horiz-adv-x="1874" arabic-form="medial" 
d="M636 298q40 66 84.5 133.5t93.5 129.5t104 117t117 95t131 63.5t148 23.5q78 0 154 -21.5t136 -72.5t97 -136t37 -212q0 -55 -9.5 -99.5t-25.5 -84.5h209v-249h-1182q-36 0 -80 6.5t-87 18.5t-82.5 29t-66.5 38q-56 -48 -130 -69t-172 -23h-156v249h149q61 0 97 11
t54.5 28.5t24.5 38t6 40.5v324h248v-316q0 -18 7 -35t18 -30.5t25 -22t29 -10.5zM1314 612q-60 0 -122 -31t-122 -83.5t-115.5 -120.5t-101.5 -143h449q38 0 77 12t70.5 35.5t51 58t19.5 78.5q0 56 -17 93.5t-45.5 60t-65.5 31.5t-78 9z" />
    <glyph glyph-name="uniFEBA" unicode="&#x635;" horiz-adv-x="2837" arabic-form="final" 
d="M722 -552q-80 0 -155 19t-140.5 54t-121 86t-96.5 115q-48 79 -73.5 167.5t-25.5 194.5q0 66 8 129.5t26 131t46.5 141t69.5 158.5l225 -107q-35 -72 -59 -133t-39 -115t-22 -104t-7 -101q0 -71 15.5 -125.5t48.5 -105.5q46 -75 124.5 -115.5t175.5 -40.5h219
q106 0 172 20t103 58t50 93t13 124v684h248v-319q0 -17 5.5 -33t14.5 -29t20 -21.5t22 -11.5q74 121 150 230t160 190.5t180 129.5t210 48q78 0 154 -23t136 -76.5t96.5 -139.5t36.5 -212q0 -51 -7.5 -94.5t-21.5 -80.5h186v-249h-1162q-18 0 -41.5 1t-47.5 4t-48 9.5
t-43 17.5v-25q0 -278 -147 -411t-439 -133h-219zM2280 234q33 0 72.5 8.5t73.5 28.5t57 54t23 84q0 56 -18 94.5t-48.5 62.5t-69.5 34.5t-81 10.5q-59 0 -122 -31.5t-125 -83.5t-119.5 -120.5t-103.5 -141.5h461z" />
    <glyph glyph-name="uni0637" unicode="&#x637;" horiz-adv-x="1525" arabic-form="isolated" 
d="M97 -15v249h199l84 129v1064h248v-759q40 41 84 75.5t92 60t100 40t108 14.5q79 0 155 -23t136 -76t96.5 -139t36.5 -212q0 -120 -40 -201.5t-102.5 -130.5t-140 -70t-152.5 -21h-904zM1012 610q-58 0 -120 -31t-123 -83t-117 -120t-102 -142h451q5 0 24 1t45 5.5t55 15
t53 30t40 49t16 73.5q0 56 -19 94.5t-50 62.5t-71 34.5t-82 10.5z" />
    <glyph glyph-name="uniFEC3" unicode="&#x637;" horiz-adv-x="1400" arabic-form="initial" 
d="M-35 -15v249h199l84 129v1064h248v-759q40 41 84 75.5t92 60t100 40t108 14.5q79 0 155 -23t136 -76t96.5 -139t36.5 -212q0 -120 -40 -201.5t-102.5 -130.5t-140 -70t-152.5 -21h-904zM880 610q-58 0 -120 -31t-123 -83t-117 -120t-102 -142h451q5 0 24 1t45 5.5t55 15
t53 30t40 49t16 73.5q0 56 -19 94.5t-50 62.5t-71 34.5t-82 10.5z" />
    <glyph glyph-name="uniFEC4" unicode="&#x637;" horiz-adv-x="1451" arabic-form="medial" 
d="M-38 -15v249h199l84 129v1064h248v-759q40 41 84 75.5t92 60t100 40t108 14.5q79 0 155 -23t136 -76t96.5 -139t36.5 -212q0 -51 -7.5 -94t-21.5 -80h216v-249h-607h-919zM877 610q-58 0 -120 -31t-123 -83t-117 -120t-102 -142h462q12 0 33.5 2t46 8.5t50 18t46 31
t33.5 47.5t13 67q0 56 -19 94.5t-50 62.5t-71 34.5t-82 10.5z" />
    <glyph glyph-name="uniFEC2" unicode="&#x637;" horiz-adv-x="1598" arabic-form="final" 
d="M127 -15v249h199l84 129v1064h248v-759q40 41 84 75.5t92 60t100 40t108 14.5q79 0 155 -23t136 -76t96.5 -139t36.5 -212q0 -51 -7.5 -94t-21.5 -80h191v-249h-582h-919zM1042 610q-58 0 -120 -31t-123 -83t-117 -120t-102 -142h462q12 0 33.5 2t46 8.5t50 18t46 31
t33.5 47.5t13 67q0 56 -19 94.5t-50 62.5t-71 34.5t-82 10.5z" />
    <glyph glyph-name="uni0639" unicode="&#x639;" horiz-adv-x="1387" arabic-form="isolated" 
d="M1233 -553h-480q-83 0 -165.5 15t-157.5 45.5t-139 78t-111.5 112t-74 146.5t-26.5 183q0 128 51 235.5t145 188.5q51 43 107.5 74t119.5 49q-31 38 -49.5 75.5t-28.5 72t-13 64t-3 52.5q0 88 35.5 165t95 134.5t138.5 90.5t166 33q56 0 103.5 -12t92 -33t88 -48.5
t90.5 -58.5l-111 -201q-63 36 -102.5 56.5t-66.5 31t-48 13.5t-46 3q-34 0 -69 -12t-63.5 -34.5t-46.5 -54.5t-18 -73q0 -25 19 -63.5t68 -80.5l-1 1q61 -48 162.5 -74t235.5 -26h112v-249h-590q-49 0 -108 -18.5t-110 -57.5t-85.5 -99t-34.5 -144q0 -80 27.5 -136
t70.5 -92.5t95 -57t100.5 -31t88 -12.5t57.5 -2h480v-249z" />
    <glyph glyph-name="uniFECB" unicode="&#x639;" horiz-adv-x="1182" arabic-form="initial" 
d="M872 -15h-901v249h284q-25 35 -39 69t-21 64.5t-8.5 58t-1.5 48.5q0 89 34 165t92.5 132t136 88t164.5 32q50 0 92 -8.5t85.5 -26t93 -45t112.5 -64.5l-125 -213q-26 17 -58 36t-66.5 35t-69 26.5t-64.5 10.5q-33 0 -67.5 -11t-62.5 -32t-46 -52.5t-18 -72.5
q0 -12 3.5 -28t12.5 -35.5t25.5 -40.5t42.5 -43h-1q60 -49 161.5 -71t237.5 -22h110v-249h-138z" />
    <glyph glyph-name="uniFECC" unicode="&#x639;" horiz-adv-x="1267" arabic-form="medial" 
d="M1288 -15h-378q-19 0 -42 4t-53.5 16t-69.5 35t-90 61q-60 -29 -136.5 -50.5t-163.5 -36t-182.5 -22t-193.5 -7.5v249q67 0 132 3t123.5 8.5t109 14t90.5 19.5q-85 75 -153.5 132.5t-107.5 97.5l-28 28v54q0 21 2 46.5t9.5 53t20.5 55t36 53.5q43 48 105.5 71.5
t153.5 23.5h350q45 0 88.5 -12t80.5 -34t66.5 -53.5t46.5 -70.5q11 -26 17.5 -58t6.5 -58q0 -24 -10 -50t-38 -64.5t-78.5 -95t-130.5 -142.5q9 -5 23 -8.5t28 -6t25.5 -4.5t14.5 -3h1h325v-249zM452 662q-30 0 -47.5 -5t-25.5 -9l286 -288q33 28 71.5 62.5t72 70t56 69
t24.5 59.5q1 15 -14 28t-38 13h-385z" />
    <glyph glyph-name="uniFECA" unicode="&#x639;" horiz-adv-x="1387" arabic-form="final" 
d="M1236 -759h-494q-143 0 -266 30t-213 95.5t-141.5 168t-51.5 246.5q0 103 47.5 194.5t144.5 179.5q59 53 123.5 98t134.5 87l-270 264q0 22 4.5 51.5t14 61t25 62t37.5 56.5q45 48 109 71.5t157 23.5h329q45 0 86.5 -12t77 -34t64 -53t46.5 -68q12 -27 18 -56t6 -57
q0 -56 -26 -104t-68 -89.5t-94.5 -78.5t-104.5 -72q48 -38 71.5 -53.5t30.5 -18.5h374v-249h-382q-32 0 -61 6.5t-63.5 25.5t-80 54t-111.5 91q-75 -45 -146 -90.5t-126.5 -92.5t-89 -96.5t-33.5 -101.5q0 -67 21 -114.5t55.5 -80t79 -51.5t92 -29t94.5 -13t86 -3h494v-249z
M576 700q-38 0 -57.5 -1t-23.5 -7q17 -19 41.5 -46.5t55 -60.5t66.5 -70.5t76 -76.5q76 54 140.5 98t115.5 94q11 11 14.5 25.5t0.5 22.5q-5 11 -18 16.5t-30 5.5h-381z" />
    <glyph glyph-name="uniFEDB" unicode="&#x643;" horiz-adv-x="1160" arabic-form="initial" 
d="M-17 -15v249h585q16 0 44 1.5t55 8t46.5 19t19.5 34.5q0 43 -32.5 104t-83.5 130t-114.5 139.5t-126 133t-117.5 110.5t-88 72l20 226l870 398l91 -218l-732 -323q38 -37 85.5 -84t97.5 -99.5t99.5 -109t93 -113t77.5 -110.5t53 -102q17 -42 24 -81t7 -71q0 -40 -7.5 -70
t-16.5 -51q-12 -27 -37 -61t-69.5 -63t-112 -49t-163.5 -20h-568z" />
    <glyph glyph-name="uniFEDC" unicode="&#x643;" horiz-adv-x="1231" arabic-form="medial" 
d="M1262 -15h-30q-88 0 -153 16.5t-117 46t-95.5 71t-88.5 92.5q-24 -63 -76.5 -107t-120 -71t-144.5 -38.5t-152 -9.5h-312v249h326q66 0 122 7.5t97 25t65 46.5t27 71q0 43 -36.5 109t-95 147t-132 171.5t-148.5 183.5l42 203l868 421l102 -228l-759 -351
q94 -126 187.5 -250.5t187.5 -250.5q55 -73 101 -129.5t92.5 -95.5t97.5 -59.5t115 -20.5h30v-249z" />
    <glyph glyph-name="uni0643" unicode="&#x643;" horiz-adv-x="2057" arabic-form="isolated" 
d="M831 622q106 21 168 41.5t90 35.5q-34 -1 -68 -2.5t-68 -2.5q-31 0 -61.5 7.5t-54.5 24t-38.5 42t-14.5 62.5q0 34 18.5 66t50.5 63.5t76.5 63t95.5 65.5l69 -120q-93 -55 -135 -90.5t-51 -51.5q15 0 31.5 0.5t37.5 0.5t48 0.5t64 0.5q27 -1 51.5 -10t42.5 -25t28.5 -39
t10.5 -53q0 -44 -24 -74t-70 -53.5t-114.5 -43t-156.5 -43.5zM1058 231q114 0 215 4.5t181 14.5t136 26t80 39q15 15 22.5 43.5t7.5 79.5v989h249v-989q0 -36 -4 -75t-15.5 -78t-32 -77.5t-54.5 -73.5q-45 -47 -121 -76.5t-176.5 -46t-222 -22.5t-257.5 -6h-11l-598 2
q-74 0 -140 25t-117 73q-20 19 -41.5 46t-38.5 64t-28 83.5t-11 104.5q0 50 10 108.5t22.5 110.5t23.5 90t14 47l119 -38l118 -37q-9 -27 -19 -64.5t-19 -77t-15 -76.5t-6 -64q0 -48 13.5 -77.5t33 -45t42.5 -20.5t41 -5z" />
    <glyph glyph-name="uniFEDA" unicode="&#x643;" horiz-adv-x="2145" arabic-form="final" 
d="M831 622q106 21 168 41.5t90 35.5q-34 -1 -68 -2.5t-68 -2.5q-31 0 -61.5 7.5t-54.5 24t-38.5 42t-14.5 62.5q0 34 18.5 66t50.5 63.5t76.5 63t95.5 65.5l69 -120q-93 -55 -135 -90.5t-51 -51.5q15 0 31.5 0.5t37.5 0.5t48 0.5t64 0.5q27 -1 51.5 -10t42.5 -25t28.5 -39
t10.5 -53q0 -44 -24 -74t-70 -53.5t-114.5 -43t-156.5 -43.5zM1058 231q114 0 215 4.5t181 14.5t136 26t80 39q15 15 22.5 43.5t7.5 79.5v989h249v-989v-20q-1 -38 9 -71t29.5 -58.5t47 -40t62.5 -14.5h72v-249h-72q-39 0 -79.5 7t-78.5 21.5t-70.5 37.5t-55.5 56
q-51 -39 -127 -63t-171.5 -37.5t-209 -18.5t-239.5 -5h-11l-598 2q-74 0 -140 25t-117 73q-20 19 -41.5 46t-38.5 64t-28 83.5t-11 104.5q0 50 10 108.5t22.5 110.5t23.5 90t14 47l119 -38l118 -37q-9 -27 -19 -64.5t-19 -77t-15 -76.5t-6 -64q0 -48 13.5 -77.5t33 -45
t42.5 -20.5t41 -5z" />
    <glyph glyph-name="uni0644" unicode="&#x644;" horiz-adv-x="1335" arabic-form="isolated" 
d="M594 -568q-71 0 -136 16t-122 47t-105 74.5t-84 99.5q-15 24 -30.5 56.5t-27.5 73.5t-20 91t-8 109q0 49 5 100.5t19 109.5t39 125.5t65 150.5l225 -107q-30 -62 -50.5 -113.5t-32.5 -97t-17.5 -86.5t-5.5 -83q0 -57 12.5 -106.5t37.5 -89.5l-1 1q38 -54 101.5 -88
t135.5 -34h46q105 0 171.5 22t104 62t51 97t13.5 127v1438h246v-1438q0 -555 -586 -557h-46z" />
    <glyph glyph-name="uniFEDF" unicode="&#x644;" horiz-adv-x="577" arabic-form="initial" 
d="M-33 234q100 0 156.5 12t79.5 35q16 14 23.5 43.5t7.5 79.5v1023h248v-1023q0 -36 -3.5 -75t-14.5 -79t-32 -78.5t-56 -72.5q-31 -29 -70 -50.5t-88.5 -35.5t-111.5 -21t-139 -7v249z" />
    <glyph glyph-name="uniFEE0" unicode="&#x644;" horiz-adv-x="646" arabic-form="medial" 
d="M-18 234q96 0 149 16.5t78.5 41.5t31 55t5.5 57v1023h248v-1023q0 -66 39.5 -114t111.5 -56h24v-249h-25q-50 1 -87.5 7t-68.5 19.5t-59.5 35.5t-59.5 54q-26 -32 -61.5 -54.5t-83 -36t-107.5 -19.5t-135 -6v249z" />
    <glyph glyph-name="uniFEDE" unicode="&#x644;" horiz-adv-x="1416" arabic-form="final" 
d="M595 -568q-71 0 -136 16t-122 47t-105 74.5t-84 99.5q-15 24 -30.5 56.5t-27.5 73.5t-20 91t-8 109q0 49 5 100.5t18.5 109.5t38 125.5t64.5 150.5l225 -107q-30 -62 -50 -113.5t-32 -97t-17 -86.5t-5 -83q0 -57 12.5 -106.5t37.5 -89.5l-1 1q38 -54 101.5 -88t135.5 -34
h46q105 0 171.5 22t104 62t51 97t13.5 127v1438h246v-1058q0 -31 14.5 -56t37.5 -42.5t52.5 -27t58.5 -9.5h53v-249h-53q-35 0 -58.5 2.5t-41.5 8.5t-32.5 15.5t-30.5 23.5v-46q0 -555 -586 -557h-46z" />
    <glyph glyph-name="uni0645" unicode="&#x645;" horiz-adv-x="1382" arabic-form="isolated" 
d="M955 215q9 0 27.5 1.5t38 19.5t34 60t14.5 122q0 9 -2.5 29t-10 44.5t-20.5 50t-34 46.5t-50 34.5t-69 13.5q-18 0 -37 -2t-38.5 -11.5t-38.5 -29t-36.5 -53.5t-33 -86t-27.5 -127q39 -21 80 -41t78.5 -36t70 -25.5t54.5 -9.5zM879 885q101 0 178 -37.5t129.5 -101.5
t79.5 -149t27 -179q0 -104 -18 -177.5t-47.5 -123.5t-66 -80t-74 -45.5t-72.5 -20t-60 -4.5q-42 0 -95.5 16t-114 42t-127 60t-133.5 69q-25 13 -46.5 24t-42 21.5t-41.5 21t-45 21.5q0 -226 1 -451.5t1 -450.5h-241l-1 1036l234 142l162 -81q17 87 45 168.5t75 144.5
t118 100t175 35z" />
    <glyph glyph-name="uniFEE3" unicode="&#x645;" horiz-adv-x="1148" arabic-form="initial" 
d="M722 174q9 0 28.5 3.5t39.5 21.5t35.5 55.5t15.5 105.5q0 26 -9.5 66.5t-33 79t-63 66t-99.5 27.5q-52 0 -85 -31t-55.5 -77t-38 -99.5t-33.5 -97.5q37 -21 78.5 -42.5t81.5 -38.5t75.5 -28t62.5 -11zM636 847q105 0 183.5 -39t130 -104.5t77 -151.5t25.5 -180
q0 -104 -18 -177t-47.5 -121t-67 -75.5t-75 -41t-72.5 -17t-60 -3.5q-50 0 -95 9.5t-91.5 27t-96.5 43t-109 57.5q-45 -48 -96.5 -68.5t-120.5 -20.5h-123l-2 249h125q22 0 38.5 13t30 36.5t25 57t23.5 74.5q20 72 48 148.5t74.5 139.5t117.5 103.5t176 40.5z" />
    <glyph glyph-name="uniFEE4" unicode="&#x645;" horiz-adv-x="1207" arabic-form="medial" 
d="M713 174q9 0 28.5 3.5t39.5 21.5t35.5 55.5t15.5 105.5q0 26 -9.5 66.5t-33 79t-63 66t-99.5 27.5q-52 0 -85 -31t-55.5 -77t-38 -99.5t-33.5 -97.5q37 -21 78.5 -42.5t81.5 -38.5t75.5 -28t62.5 -11zM627 847q103 0 179.5 -37t128.5 -100t78.5 -146t28.5 -174
q0 -56 22 -87.5t50 -46.5t55 -18.5t37 -3.5h28v-249h-28q-71 0 -130.5 20.5t-108.5 52.5q-30 -42 -66 -66.5t-72 -36.5t-69 -15t-57 -3q-50 0 -95 9.5t-91.5 27t-96.5 43t-109 57.5q-45 -48 -96.5 -68.5t-120.5 -20.5h-123l-2 249h125q22 0 38.5 13t30 36.5t25 57t23.5 74.5
q20 72 48 148.5t74.5 139.5t117.5 103.5t176 40.5z" />
    <glyph glyph-name="uniFEE2" unicode="&#x645;" horiz-adv-x="1510" arabic-form="final" 
d="M933 885q101 0 178 -37.5t129.5 -101.5t79.5 -149t27 -179v-25.5t-1 -23.5q2 -41 22 -67t46 -41t52 -21t40 -6h28v-249h-28q-91 0 -153.5 19.5t-104.5 64.5q-29 -34 -61.5 -54t-65 -30.5t-61.5 -14t-51 -3.5q-42 0 -95.5 16t-114 42t-127 60t-133.5 69q-25 13 -46.5 24
t-42 21.5t-41.5 21t-45 21.5q0 -226 1 -451.5t1 -450.5h-241l-1 1036l234 142l162 -81q17 87 45 168.5t75 144.5t118 100t175 35zM1009 215q9 0 27.5 1.5t38 19.5t34 60t14.5 122q0 9 -2.5 29t-10 44.5t-20.5 50t-34 46.5t-50 34.5t-69 13.5q-18 0 -37 -2t-38.5 -11.5
t-38.5 -29t-36.5 -53.5t-33 -86t-27.5 -127q39 -21 80 -41t78.5 -36t70 -25.5t54.5 -9.5z" />
    <glyph glyph-name="uni0647" unicode="&#x647;" horiz-adv-x="1042" arabic-form="isolated" 
d="M519 -15q-96 0 -176.5 27.5t-138.5 78t-90.5 120.5t-32.5 155q0 84 21 150.5t56.5 124t83 110t100.5 108.5l-63 71l184 167q11 -13 26 -29t30.5 -33t30.5 -33t27 -29q72 -77 140.5 -149.5t122 -145t86 -146t31.5 -152.5q-1 -88 -35 -157.5t-99 -128.5q-60 -51 -136.5 -80
t-167.5 -29zM507 706q-40 -45 -75.5 -85t-61 -80t-39 -82.5t-10.5 -92.5q3 -37 22 -63.5t47 -44t62 -25.5t67 -8q38 0 73 11t61.5 31t42.5 49t16 64q0 43 -17 84t-45.5 81t-65.5 80t-77 81z" />
    <glyph glyph-name="uniFEEB" unicode="&#x647;" horiz-adv-x="1492" arabic-form="initial" 
d="M947 1078q65 -86 132 -174q28 -38 59.5 -79t64 -83.5t63.5 -84.5t60 -80q62 -83 80.5 -181.5t-14.5 -195.5q-20 -60 -58.5 -110t-93.5 -86t-126 -56t-156 -20q-72 0 -149 14.5t-157 54.5q-18 8 -35 16q-15 7 -31 14.5t-27 13.5q-96 -29 -212.5 -42.5t-257.5 -13.5h-113
v249h113q28 0 49.5 -0.5t41 -0.5t39 1t43.5 4q-26 30 -46.5 58.5t-35 60t-22 67t-7.5 78.5q0 82 31.5 151t87 118t130 76.5t160.5 27.5q97 0 172.5 -38.5t127 -97t78 -126.5t26.5 -127q0 -48 -9.5 -88t-26.5 -75.5t-42 -67.5t-56 -63q31 -10 64 -18.5t64 -8.5t65 4.5
t64.5 18t54 37.5t35.5 63q11 37 -8.5 88.5t-62 116.5t-105.5 143.5t-138 171.5l-104 129zM387 502q0 -37 11.5 -65.5t35 -52.5t58 -46.5t80.5 -47.5q31 15 60 34t50.5 42.5t34.5 52.5t13 64q0 42 -18 74t-44 53t-55.5 31t-52.5 10q-34 0 -65.5 -12t-55.5 -32.5t-38 -47.5
t-14 -57z" />
    <glyph glyph-name="uniFEEC" unicode="&#x647;" horiz-adv-x="1260" arabic-form="medial" 
d="M617 856q93 0 167 -24.5t125 -72.5t78.5 -118.5t27.5 -163.5q1 -50 -16 -106.5t-63.5 -112.5t-129 -107t-212.5 -90h1q-38 -13 -82 -22t-83 -16q15 -47 54 -98.5t90 -98.5t108 -84.5t110 -56.5q-39 64 -46.5 130t9 128.5t55 116.5t91 94t117 61.5t133.5 18.5h137v-249
h-145q-47 -2 -81 -20t-56 -46t-30 -64t-3 -74t24.5 -75.5t54.5 -69.5l-82 -202q-138 0 -265 40.5t-230.5 114t-177 176.5t-103.5 227q-57 -4 -113 -5.5t-107 -1.5v249q42 0 93 1t117 6q3 57 8.5 104t13 88t17.5 77t23 71q33 81 78 134.5t95 84.5t101.5 43.5t96.5 12.5z
M617 608q-30 0 -64 -12t-63.5 -48t-48.5 -101.5t-19 -172.5q63 7 129.5 22.5t120.5 40.5t88 60t34 81q0 38 -15 63t-39.5 40t-56.5 21t-66 6z" />
    <glyph glyph-name="uniFEEA" unicode="&#x647;" horiz-adv-x="1250" arabic-form="final" 
d="M1278 -15h-28q-78 0 -150 14.5t-133 44t-108.5 75.5t-77.5 109q-24 -37 -61.5 -65.5t-81.5 -47.5t-91 -28.5t-90 -9.5q-80 0 -151.5 28t-125.5 79.5t-85.5 125.5t-31.5 167q0 108 41 190t109 143.5t156.5 105t183.5 75.5l-24 96l244 57l182 -708q16 -65 52 -104.5
t78.5 -61t87 -29t77.5 -7.5h28v-249zM662 482q6 28 4 56.5t-9 60.5t-18.5 69t-24.5 83q-160 -51 -242.5 -115.5t-82.5 -159.5q0 -37 16.5 -66t43 -48t59 -27.5t65.5 -3.5q75 11 125 44.5t64 106.5z" />
    <glyph glyph-name="uni0648" unicode="&#x648;" horiz-adv-x="1024" arabic-form="isolated" 
d="M178 -303q80 0 142.5 5.5t111 16t85 27t63.5 39.5q42 34 63.5 79t25.5 121h-154q-50 0 -102 8t-100 27.5t-90.5 50.5t-74 76.5t-50 107.5t-18.5 142q0 69 12 122.5t30.5 94.5t41.5 71.5t44 53.5q60 60 136 92.5t164 32.5q109 0 186.5 -37.5t127 -103.5t72.5 -156.5
t23 -196.5v-355q0 -149 -45 -250.5t-137 -174.5q-46 -36 -100 -62.5t-121 -44.5t-149.5 -26.5t-186.5 -8.5v249zM508 615q-85 0 -135 -53t-50 -165q0 -44 17.5 -75t45 -50.5t61.5 -28.5t68 -9h154v136q0 57 -9 97.5t-23.5 67.5t-33 43t-36 24t-33.5 10.5t-26 2.5z" />
    <glyph glyph-name="uniFEEE" unicode="&#x648;" horiz-adv-x="1052" arabic-form="final" 
d="M178 -303q80 0 142.5 5.5t111 16t85 27t63.5 39.5q42 34 63.5 79t25.5 121h-154q-50 0 -102 8t-100 27.5t-90.5 50.5t-74 76.5t-50 107.5t-18.5 142q0 69 12 122.5t30.5 94.5t41.5 71.5t44 53.5q60 60 136 92.5t164 32.5q109 0 186.5 -37.5t127 -103.5t72.5 -156.5
t23 -196.5v-136h170v-249h-171q-4 -137 -48.5 -231t-132.5 -164q-46 -36 -100 -62.5t-121 -44.5t-149.5 -26.5t-186.5 -8.5v249zM508 615q-85 0 -135 -53t-50 -165q0 -44 17.5 -75t45 -50.5t61.5 -28.5t68 -9h154v136q0 57 -9 97.5t-23.5 67.5t-33 43t-36 24t-33.5 10.5
t-26 2.5z" />
    <glyph glyph-name="uni0649" unicode="&#x649;" horiz-adv-x="1671" arabic-form="isolated" 
d="M940 -316q91 0 157.5 11.5t109.5 40t64.5 76.5t22.5 121q-14 4 -44.5 12t-72 19t-90 24t-98.5 26.5t-98.5 26t-89.5 22.5q-26 66 -38.5 128.5t-12.5 122.5q0 114 42 215.5t120 177t190.5 119.5t253.5 44q50 0 99.5 -8t112.5 -25l-63 -240q-47 14 -82 20.5t-72 6.5
q-75 0 -139.5 -21.5t-112 -62.5t-75 -100t-27.5 -134v-12.5t1 -12.5l351 -90q96 -24 139 -81.5t43 -142.5q0 -139 -32 -239.5t-102.5 -166t-183 -97t-273.5 -31.5h-211q-82 0 -157 19t-141 54.5t-121 86t-97 114.5q-99 160 -99 375q0 66 9 131t28.5 133.5t49.5 143.5t72 162
l222 -107q-35 -74 -59.5 -135.5t-41 -116t-24 -105t-7.5 -101.5q0 -145 64 -246q46 -76 125.5 -116.5t176.5 -40.5h211v0z" />
    <glyph glyph-name="uniFEF0" unicode="&#x649;" horiz-adv-x="1781" arabic-form="final" 
d="M1533 -15q23 -33 38 -72.5t15 -71.5q0 -93 -51 -168.5t-138 -128.5t-202.5 -82t-245.5 -29h-256q-82 0 -157 19t-141 54.5t-121 86t-97 114.5q-99 160 -99 375q0 66 7.5 131t25 133.5t46 143t70.5 161.5l222 -107q-35 -74 -58 -135t-37.5 -115.5t-20.5 -105t-6 -101.5
q0 -145 64 -246q46 -76 125.5 -116.5t176.5 -40.5h256q75 0 142 14t118 39t83 57.5t37 70.5q-29 31 -73.5 52.5t-101 36t-122 22t-136.5 10.5l7 248h907v-249h-277z" />
    <glyph glyph-name="uni066E.init" unicode="&#x66e;" horiz-adv-x="671" 
d="M552 825q2 -7 8.5 -33t14.5 -63.5t16.5 -83.5t16 -92.5t12 -90.5t4.5 -77q0 -103 -34 -178.5t-89 -124.5t-123.5 -73t-137.5 -24h-266v249h273q12 0 34.5 3.5t45 18.5t39.5 45.5t17 83.5q0 22 -3.5 53.5t-9.5 67.5t-13.5 73.5t-14.5 71t-14 61t-11 42.5z" />
    <glyph glyph-name="uni066E.medi" unicode="&#x66e;" horiz-adv-x="782" 
d="M801 234v-249h-63q-85 0 -155 23t-118 68q-56 -47 -132.5 -69t-174.5 -22h-177v249h177q61 0 97.5 11.5t55 28.5t24 38t5.5 41v324h248v-317q0 -45 20 -70.5t45.5 -38t50.5 -15t34 -2.5h63z" />
    <glyph glyph-name="uni066E.fina" unicode="&#x66e;" horiz-adv-x="2249" 
d="M2041 676v-293q0 -35 10.5 -59.5t27 -41t36.5 -26t39 -14.5t33.5 -6.5t21.5 -1.5h62v-249h-62q-34 0 -72.5 4.5t-77 15t-74.5 28.5t-64 44q-109 -91 -296 -92h-1154q-74 0 -140 25t-117 73q-20 19 -41.5 46t-38.5 64t-28 83.5t-11 104.5q0 50 10 108.5t22.5 110.5
t23.5 90t14 47l119 -38l118 -37q-9 -27 -19 -64.5t-19 -77.5t-15 -77t-6 -64q0 -48 13.5 -77.5t33 -45t42.5 -20.5t41 -5h1145q55 0 94 10.5t58 30.5q23 26 23 75v329h248z" />
    <glyph glyph-name="uni066F.init" unicode="&#x66f;" horiz-adv-x="1036" 
d="M-36 -15v249h408q84 0 141 9.5t92.5 24.5t53.5 33.5t26 37.5q-133 -18 -239 -3.5t-180 60t-113.5 121.5t-39.5 182q0 84 31 158.5t86.5 130t131 87t165.5 27.5q80 -3 141.5 -28t107 -66t76 -95.5t49 -117.5t27 -131.5t9.5 -137.5l-4 -74q-8 -140 -56 -230.5t-124.5 -143
t-174.5 -73t-206 -20.5h-408zM525 853q-36 3 -70 -5.5t-59.5 -28.5t-41 -49.5t-15.5 -68.5q0 -87 91.5 -125.5t263.5 -10.5q-2 43 -7 91t-22 90t-50 71.5t-90 35.5z" />
    <glyph glyph-name="uni066F.medi" unicode="&#x66f;" horiz-adv-x="1078" 
d="M554 867q93 0 166.5 -34t124.5 -89.5t78 -126.5t27 -146q0 -42 -5 -73.5t-15.5 -58t-25.5 -51t-35 -52.5q18 -1 39.5 -1.5t43 -0.5h41.5h35h72v-249h-72q-64 0 -130.5 4t-130 11.5t-120.5 18t-102 23.5q-91 -26 -204 -41.5t-258 -15.5h-105v249h105q27 0 43 -0.5t29 -0.5
t27 0.5t35 2.5q-42 56 -64 111t-22 124q0 79 33 151t90.5 126.5t134.5 86.5t165 32zM367 469q0 -71 50 -121t130 -81q38 15 70 34t55.5 43.5t37 56t13.5 70.5q0 24 -12 50t-34 47.5t-53 35.5t-70 14q-44 0 -79 -12.5t-59 -33t-36.5 -47.5t-12.5 -56z" />
    <glyph glyph-name="uni066F.fina" unicode="&#x66f;" horiz-adv-x="1652" 
d="M709 -552q-89 0 -169.5 22.5t-148.5 64t-122.5 99t-92.5 128t-58.5 151t-20.5 167.5q0 65 6.5 129t23 132t44.5 142t70 159l223 -106q-36 -73 -59 -134t-36.5 -115.5t-18.5 -105t-5 -102.5q0 -80 25.5 -149.5t73 -121.5t114.5 -81.5t151 -29.5h75q110 0 198 10t150 41
t95.5 87.5t33.5 149.5h-143q-50 0 -102 8.5t-100 28t-90.5 51.5t-74 78.5t-50 108.5t-18.5 142q0 93 27.5 177t81.5 147.5t134 101.5t185 38q106 0 181.5 -39.5t123.5 -107t70.5 -156.5t22.5 -188v-141h169v-249h-170q-5 -158 -59.5 -262t-148.5 -165t-223 -85.5t-283 -24.5
h-85zM1111 629q-85 0 -133.5 -57t-48.5 -170q0 -45 16.5 -76.5t43.5 -52t60.5 -30t68.5 -9.5h143v141q0 93 -17.5 144t-41.5 75.5t-49.5 29.5t-41.5 5z" />
    <glyph glyph-name="uniFBA8" unicode="&#x6c1;" horiz-adv-x="706" arabic-form="initial" 
d="M476 -612q-1 -30 -15 -55t-36.5 -43.5t-50.5 -29t-57 -10.5q-44 0 -77 17t-55.5 46t-34 66.5t-11.5 79.5q0 109 64 207.5t180 176.5l59 -89q-30 -18 -59 -43.5t-52 -53.5t-37 -55t-14 -49q0 -18 14 -30.5t45 -14.5q30 -4 54 -11.5t41.5 -21t28 -35t13.5 -52.5zM558 825
q2 -7 8.5 -33t14.5 -63.5t16.5 -83.5t16 -92.5t12 -90.5t4.5 -77q0 -103 -34 -178.5t-89 -124.5t-123.5 -73t-137.5 -24h-266v249h273q12 0 34.5 3.5t45 18.5t39.5 45.5t17 83.5q0 22 -3.5 53.5t-9.5 67.5t-13.5 73.5t-14.5 71t-14 61t-11 42.5z" />
    <glyph glyph-name="uniFBA9" unicode="&#x6c1;" horiz-adv-x="1186" arabic-form="medial" 
d="M434 38q5 -49 18.5 -113.5t39 -130.5t64.5 -125.5t95 -97.5q-25 70 -29.5 145t10 146t46.5 135.5t80.5 114.5t113 82.5t143.5 39.5h192v-249h-186q-26 -11 -56 -33.5t-57.5 -55t-48.5 -75t-28.5 -93t3 -109.5t46.5 -125l-94 -181q-145 8 -252 66t-179.5 150t-113 210
t-52.5 246h-211v249h447z" />
    <glyph glyph-name="uni06BE" unicode="&#x6be;" horiz-adv-x="1651" arabic-form="isolated" 
d="M1081 1063q65 -86 132 -174q28 -38 59.5 -79t64 -83.5t63.5 -84.5t60 -80q62 -83 80.5 -181.5t-14.5 -195.5q-20 -60 -58.5 -110t-93.5 -86t-126 -56t-156 -20q-72 0 -149 14.5t-157 54.5q-18 8 -35 16q-15 7 -31 14.5t-27 13.5q-48 -14 -105 -28t-131 -21t-168.5 -4
t-216.5 23l54 243q61 -12 101.5 -17t70 -5.5t52 1.5t46.5 5q-26 30 -46.5 58.5t-35 60t-22 67t-7.5 78.5q0 82 31.5 151t87 118t130 76.5t160.5 27.5q97 0 172.5 -38.5t127 -97t78 -126.5t26.5 -127q0 -48 -9.5 -88t-26.5 -75.5t-42 -67.5t-56 -63q31 -10 64 -18.5t64 -8.5
t65 4.5t64.5 18t54 37.5t35.5 63q11 37 -8.5 88.5t-62 116.5t-105.5 143.5t-138 171.5l-104 129zM521 487q0 -37 11.5 -65.5t35 -52.5t58 -46.5t80.5 -47.5q31 15 60 34t50.5 42.5t34.5 52.5t13 64q0 42 -18 74t-44 53t-55.5 31t-52.5 10q-34 0 -65.5 -12t-55.5 -32.5
t-38 -47.5t-14 -57z" />
    <glyph glyph-name="uni06D2" unicode="&#x6d2;" horiz-adv-x="1651" arabic-form="isolated" 
d="M1647 -567h-1158q-91 0 -168.5 29t-134.5 82.5t-89 129t-32 169.5q0 82 35 153.5t94 124.5t135.5 83t159.5 30h420v-249h-412q-38 0 -74.5 -8.5t-65 -27t-46.5 -47.5t-18 -71t17.5 -70.5t45.5 -46t63 -25.5t70 -8h1158v-248z" />
    <glyph glyph-name="uniFBAF" unicode="&#x6d2;" horiz-adv-x="1314" arabic-form="final" 
d="M1294 -567h-805q-91 0 -168.5 29t-134.5 82.5t-89 129t-32 169.5q0 82 35 153.5t94 124.5t135.5 83t159.5 30h854v-249h-846q-37 0 -72 -11.5t-62.5 -32t-44 -49t-16.5 -61.5t16 -61t42.5 -47.5t60 -30.5t68.5 -11h805v-248z" />
    <glyph glyph-name="uni06A9" unicode="&#x6a9;" horiz-adv-x="1997" arabic-form="isolated" 
d="M462 -15q-74 0 -140 25t-117 73q-20 19 -41.5 46t-38.5 64t-28 83.5t-11 104.5q0 50 10 108.5t22.5 110.5t23.5 90t14 47l119 -38l118 -37q-9 -27 -19 -64.5t-19 -77t-15 -76.5t-6 -64q0 -48 13.5 -77.5t33 -45t42.5 -20.5t41 -5l592 1q121 0 213.5 2t157 10.5t102.5 26
t49 47.5q7 20 -3 47t-33.5 60t-56.5 71.5t-72 80.5q-91 96 -166.5 165t-129.5 113.5t-84.5 66t-31.5 21.5l18 268l901 402l100 -228l-758 -330q71 -53 155 -130.5t183 -187.5q41 -46 79 -91t67 -92t46.5 -98.5t17.5 -109.5v-21.5t-2 -20.5q-17 -113 -75 -177.5t-154 -96
t-227.5 -39t-295.5 -7.5h-594z" />
    <glyph glyph-name="uniFB8F" unicode="&#x6a9;" horiz-adv-x="2183" arabic-form="final" 
d="M1057 228q109 0 190.5 6.5t138.5 18.5t90 29.5t47 40.5v-1q5 8 7 21t2 25q0 19 -7.5 43t-20 50.5t-29.5 54t-36 54.5q-76 105 -133 180t-95 124q-45 57 -77 96l53 215l892 420l102 -228l-787 -361l307 -416q55 -75 98.5 -131.5t80.5 -97t70.5 -67t69 -42t75 -22
t88.5 -6.5h19v-249h-19q-86 0 -153 15.5t-121.5 43.5t-100.5 68t-90 90q-41 -82 -108 -127t-152.5 -66t-187.5 -25t-214 -4l-594 5q-74 0 -140 25t-117 73q-20 19 -41.5 46t-38.5 64t-28 83.5t-11 104.5q0 50 10 108.5t22.5 110.5t23.5 90t14 47l119 -38l118 -37
q-9 -27 -19 -64.5t-19 -77t-15 -76.5t-6 -64q0 -48 13.5 -77.5t33 -45t42.5 -20.5t41 -5l592 -4h1v0z" />
    <glyph glyph-name="uni06AF" unicode="&#x6af;" horiz-adv-x="2035" arabic-form="isolated" 
d="M462 -15q-74 0 -140 25t-117 73q-20 19 -41.5 46t-38.5 64t-28 83.5t-11 104.5q0 50 10 108.5t22.5 110.5t23.5 90t14 47l119 -38l118 -37q-9 -27 -19 -64.5t-19 -77t-15 -76.5t-6 -64q0 -48 13.5 -77.5t33 -45t42.5 -20.5t41 -5l592 1q121 0 213.5 2t157 10.5t102.5 26
t49 47.5q7 20 -3 47t-33.5 60t-56.5 71.5t-72 80.5q-91 96 -166.5 165t-129.5 113.5t-84.5 66t-31.5 21.5l18 268l901 402l100 -228l-758 -330q71 -53 155 -130.5t183 -187.5q41 -46 79 -91t67 -92t46.5 -98.5t17.5 -109.5v-21.5t-2 -20.5q-17 -113 -75 -177.5t-154 -96
t-227.5 -39t-295.5 -7.5h-594zM1028.94 1509.06l793.301 338.575l54.1357 -114.562l-860.971 -369.263z" />
    <glyph glyph-name="uniFB94" unicode="&#x6af;" horiz-adv-x="1180" arabic-form="initial" 
d="M-17 -15v249h585q16 0 44 1.5t55 8t46.5 19t19.5 34.5q0 43 -32.5 104t-83.5 130t-114.5 139.5t-126 133t-117.5 110.5t-88 72l20 226l870 398l91 -218l-732 -323q38 -37 85.5 -84t97.5 -99.5t99.5 -109t93 -113t77.5 -110.5t53 -102q17 -42 24 -81t7 -71q0 -40 -7.5 -70
t-16.5 -51q-12 -27 -37 -61t-69.5 -63t-112 -49t-163.5 -20h-568zM202 1509l762 331l52 -112l-827 -361z" />
    <glyph glyph-name="uniFB95" unicode="&#x6af;" horiz-adv-x="1252" arabic-form="medial" 
d="M1272 -15h-30q-88 0 -153 16.5t-117 46t-95.5 71t-88.5 92.5q-24 -63 -76.5 -107t-120 -71t-144.5 -38.5t-152 -9.5h-312v249h326q66 0 122 7.5t97 25t65 46.5t27 71q0 43 -36.5 109t-95 147t-132 171.5t-148.5 183.5l42 203l868 421l102 -228l-759 -351
q94 -126 187.5 -250.5t187.5 -250.5q55 -73 101 -129.5t92.5 -95.5t97.5 -59.5t115 -20.5h30v-249zM261 1499l762 331l52 -112l-827 -361z" />
    <glyph glyph-name="uniFB93" unicode="&#x6af;" horiz-adv-x="2184" arabic-form="final" 
d="M1057 228q109 0 190.5 6.5t138.5 18.5t90 29.5t47 40.5v-1q5 8 7 21t2 25q0 19 -7.5 43t-20 50.5t-29.5 54t-36 54.5q-76 105 -133 180t-95 124q-45 57 -77 96l53 215l892 420l102 -228l-787 -361l307 -416q55 -75 98.5 -131.5t80.5 -97t70.5 -67t69 -42t75 -22
t88.5 -6.5h19v-249h-19q-86 0 -153 15.5t-121.5 43.5t-100.5 68t-90 90q-41 -82 -108 -127t-152.5 -66t-187.5 -25t-214 -4l-594 5q-74 0 -140 25t-117 73q-20 19 -41.5 46t-38.5 64t-28 83.5t-11 104.5q0 50 10 108.5t22.5 110.5t23.5 90t14 47l119 -38l118 -37
q-9 -27 -19 -64.5t-19 -77t-15 -76.5t-6 -64q0 -48 13.5 -77.5t33 -45t42.5 -20.5t41 -5l592 -4h1v0zM1223 1500l762 331l52 -112l-827 -361z" />
    <glyph glyph-name="uni06BA" unicode="&#x6ba;" horiz-adv-x="1600" arabic-form="isolated" 
d="M700 -553q-80 0 -154 19t-139.5 54t-121 86t-96.5 115q-48 78 -74 173.5t-26 199.5q0 66 8 128t25.5 127t46 136t69.5 156l225 -107q-36 -73 -60 -131t-39 -109.5t-21.5 -99t-6.5 -99.5q0 -68 17 -130.5t47 -112.5q48 -71 126.5 -113.5t173.5 -42.5h203q106 0 172.5 22
t103.5 62.5t50.5 97.5t13.5 126v673h249v-673q0 -279 -147.5 -418t-441.5 -139h-203z" />
    <glyph glyph-name="uniFB9F" unicode="&#x6ba;" horiz-adv-x="1696" arabic-form="final" 
d="M700 -553q-80 0 -154 19t-139.5 54t-121 86t-96.5 115q-48 78 -74 173.5t-26 199.5q0 66 8 128t25.5 127t46 136t69.5 156l225 -107q-36 -73 -60 -131t-39 -109.5t-21.5 -99t-6.5 -99.5q0 -68 17 -130.5t47 -112.5q48 -71 126.5 -113.5t173.5 -42.5h203q106 0 172.5 22
t103.5 62.5t50.5 97.5t13.5 126v673h249v-312q2 -66 43.5 -98.5t107.5 -32.5h80v-249h-80q-38 0 -77.5 7t-73.5 20v-8q0 -279 -147.5 -418t-441.5 -139h-203z" />
    <glyph glyph-name="uniFEAA" unicode="&#x62f;" horiz-adv-x="1178" arabic-form="final" 
d="M1207 -15h-81q-133 0 -254 117q-33 -39 -78.5 -64.5t-97.5 -40.5t-105.5 -21t-102.5 -6q-38 0 -77 4.5t-88.5 15t-113.5 28t-153 44.5l72 239q61 -24 126 -42.5t127 -30t119 -15t102 2.5t76.5 22.5t42.5 44.5q5 12 5 21.5t-5.5 22.5t-17.5 31.5t-31 48.5l-355 499
l210 135l357 -541q29 -44 61 -91t64 -85.5t62 -63.5t55 -25h81v-250z" />
    <glyph glyph-name="uniFBA7" unicode="&#x6c1;" horiz-adv-x="1290" arabic-form="final" 
d="M1318 -15h-74q-76 0 -157 21t-154.5 67.5t-131.5 120.5t-88 181l-127 458l-89 -19q-48 -11 -78.5 -30.5t-46.5 -47.5q-14 -26 -21 -59.5t-7 -73.5q0 -67 33 -186.5t83 -288.5l-239 -67q-26 93 -49 171.5t-40 145t-26.5 122.5t-9.5 103q0 69 14.5 134t46.5 122
q44 75 113 124t167 73q20 5 58 12.5l76 15t67.5 13t32.5 5.5l129 -84q15 -66 30 -125.5t33 -125t40 -144.5t52 -184q20 -64 55.5 -104t76.5 -62.5t82.5 -30.5t74.5 -8h74v-249z" />
    <glyph glyph-name="uni0686" unicode="&#x686;" horiz-adv-x="1455" arabic-form="isolated" 
d="M1351 526l-590 -243q-129 -49 -214.5 -84t-136 -69.5t-71 -73.5t-20.5 -95q0 -2 1 -19.5t2 -38.5t2 -39t1 -19q12 -127 54 -205t106 -120.5t148 -56.5t180 -14h461v-249h-461q-158 0 -286.5 30.5t-222.5 105t-150.5 198.5t-71.5 310q0 1 -1 18t-2 38t-2 38t-1 18
q0 123 48.5 209.5t131 149t191 107t229.5 82.5l401 132q-116 40 -235.5 78.5t-234.5 75.5q-21 7 -40.5 12.5t-37.5 5.5q-23 0 -41.5 -4.5t-33.5 -16t-27.5 -32.5t-24.5 -54l-229 69q19 60 47.5 112.5t68.5 91.5t92.5 61.5t119.5 22.5q55 0 120 -20q80 -26 146.5 -51.5
t132.5 -52.5q38 -15 79 -34t93 -41.5t117.5 -49.5t152.5 -58zM576.024 -35.5059l152.309 152.495l152.31 -154.29l-152.31 -152.495zM949.629 -37.3008l154.102 152.496l152.309 -154.29l-152.309 -152.495zM771.338 -288.47l141.558 141.731l143.35 -143.525
l-141.558 -141.731z" />
    <glyph glyph-name="uniFB7B" unicode="&#x686;" horiz-adv-x="1575" arabic-form="final" 
d="M1006 383l-242 -99q-129 -49 -214.5 -84t-136 -69.5t-71 -73.5t-20.5 -95q0 -2 1 -19.5t2 -38.5t2 -39t1 -19q12 -127 54 -205t106 -120.5t148 -56.5t180 -14h461v-249h-461q-158 0 -286.5 30.5t-222.5 105t-150.5 198.5t-71.5 310q0 1 -1 18t-2 38t-2 38t-1 18
q0 123 48.5 209.5t131 149t191 107t229.5 82.5l401 132q-116 40 -235.5 78.5t-234.5 75.5q-21 7 -40.5 12.5t-37.5 5.5q-23 0 -41.5 -4.5t-33.5 -16t-27.5 -32.5t-24.5 -54l-229 69q19 60 47.5 112.5t68.5 91.5t92.5 61.5t119.5 22.5q55 0 120 -20q80 -26 146.5 -51.5
t132.5 -52.5q38 -15 79 -34t93 -41.5t117.5 -49.5t152.5 -58l9 -225l-103 -42zM1189 470q0 -35 10 -76.5t31 -77t52.5 -59t74.5 -23.5h245v-249h-245q-76 0 -135.5 18t-105.5 48t-78.5 69t-53.5 82t-30.5 85.5t-9.5 80.5zM475.769 -81.8164l142.451 142.504l142.452 -144.18
l-142.452 -142.504zM825.194 -83.4922l144.127 142.503l142.452 -144.18l-142.452 -142.504zM658.441 -318.204l132.396 132.444l134.072 -134.121l-132.396 -132.444z" />
    <glyph glyph-name="uni0623" unicode="&#x623;" horiz-adv-x="592" arabic-form="isolated" 
d="M423 -15h-249v1295h249v-1295zM10 1349v149l124 40q-30 31 -49.5 70t-19.5 83q0 34 12 67t33 61t49.5 49t60.5 30q17 5 34.5 7.5t34.5 2.5q36 0 63.5 -8.5t51.5 -17.5l17 -8l-30 -124q-14 3 -31 8t-34 8t-33.5 3.5t-29.5 -3.5q-14 -5 -27.5 -14t-22.5 -20.5t-12.5 -26.5
t2.5 -32q8 -26 37.5 -44t82.5 -18q10 0 21.5 1t30.5 5.5t48.5 13t75.5 23.5l8 -141z" />
    <glyph glyph-name="uniFE84" unicode="&#x623;" horiz-adv-x="656" arabic-form="final" 
d="M675 -15q-79 0 -141 8.5t-111 25.5t-87 42.5t-69 60.5q-32 37 -52 81.5t-30.5 91t-14 94t-3.5 91.5v800h249v-800q0 -81 9 -127.5t29 -69.5q12 -12 29 -21.5t43 -15.5t62.5 -9t86.5 -3v-249zM-12 1355v149l124 40q-30 31 -49.5 70t-19.5 83q0 34 12 67t33 61t49.5 49
t60.5 30q17 5 34.5 7.5t34.5 2.5q36 0 63.5 -8.5t51.5 -17.5l17 -8l-30 -124q-14 3 -31 8t-34 8t-33.5 3.5t-29.5 -3.5q-14 -5 -27.5 -14t-22.5 -20.5t-12.5 -26.5t2.5 -32q8 -26 37.5 -44t82.5 -18q10 0 21.5 1t30.5 5.5t48.5 13t75.5 23.5l8 -141z" />
    <glyph glyph-name="uni0625" unicode="&#x625;" horiz-adv-x="592" arabic-form="isolated" 
d="M420 -15h-249v1442h249v-1442zM48 -701v149l124 40q-30 31 -49.5 70t-19.5 83q0 34 12 67t33 61t49.5 49t60.5 30q17 5 34.5 7.5t34.5 2.5q36 0 63.5 -8.5t51.5 -17.5l17 -8l-30 -124q-14 3 -31 8t-34 8t-33.5 3.5t-29.5 -3.5q-14 -5 -27.5 -14t-22.5 -20.5t-12.5 -26.5
t2.5 -32q8 -26 37.5 -44t82.5 -18q10 0 21.5 1t30.5 5.5t48.5 13t75.5 23.5l8 -141z" />
    <glyph glyph-name="uniFE88" unicode="&#x625;" horiz-adv-x="647" arabic-form="final" 
d="M671 -15q-110 0 -189 13.5t-133 40t-86.5 67.5t-49.5 96t-22.5 124.5t-5.5 153.5v947h249v-947q0 -80 5.5 -128t29 -74.5t71 -35t131.5 -8.5v-249zM72 -692v149l124 40q-30 31 -49.5 70t-19.5 83q0 34 12 67t33 61t49.5 49t60.5 30q17 5 34.5 7.5t34.5 2.5
q36 0 63.5 -8.5t51.5 -17.5l17 -8l-30 -124q-14 3 -31 8t-34 8t-33.5 3.5t-29.5 -3.5q-14 -5 -27.5 -14t-22.5 -20.5t-12.5 -26.5t2.5 -32q8 -26 37.5 -44t82.5 -18q10 0 21.5 1t30.5 5.5t48.5 13t75.5 23.5l8 -141z" />
    <glyph glyph-name="uni0622" unicode="&#x622;" horiz-adv-x="761" arabic-form="isolated" 
d="M490 -15h-249v1295h249v-1295zM790 1424h-490q-59 0 -99.5 -3.5t-69 -18t-47 -42t-33.5 -75.5l-186 55q26 90 71 147t108 89q54 26 117 34.5t139 8.5h490v-195z" />
    <glyph glyph-name="uniFE82" unicode="&#x622;" horiz-adv-x="656" arabic-form="final" 
d="M675 -15q-79 0 -141 8.5t-111 25.5t-87 42.5t-69 60.5q-32 37 -52 81.5t-30.5 91t-14 94t-3.5 91.5v800h249v-800q0 -81 9 -127.5t29 -69.5q12 -12 29 -21.5t43 -15.5t62.5 -9t86.5 -3v-249zM713 1423h-490q-59 0 -99.5 -3.5t-69 -18t-47 -42t-33.5 -75.5l-186 55
q26 90 71 147t108 89q54 26 117 34.5t139 8.5h490v-195z" />
    <glyph glyph-name="uni0671" unicode="&#x671;" horiz-adv-x="592" arabic-form="isolated" 
d="M423 -15h-249v1295h249v-1295zM-29 1421l24 109h132l44 68l83 122q35 52 86 82.5t111 30.5q34 0 68 -13t61 -40t43.5 -68t16.5 -97q0 -54 -18 -91t-46 -60t-62.5 -33t-67.5 -10h-475zM451 1724q-27 0 -53.5 -18t-51 -46t-47.5 -62.5t-43 -67.5h190q36 0 60 20t24 65
q0 53 -20.5 81t-58.5 28z" />
    <glyph glyph-name="uniFB51" unicode="&#x671;" horiz-adv-x="652" arabic-form="final" 
d="M675 -15q-79 0 -141 8.5t-111 25.5t-87 42.5t-69 60.5q-32 37 -52 81.5t-30.5 91t-14 94t-3.5 91.5v800h249v-800q0 -81 9 -127.5t29 -69.5q12 -12 29 -21.5t43 -15.5t62.5 -9t86.5 -3v-249zM-29 1421l24 109h132l44 68l83 122q35 52 86 82.5t111 30.5q34 0 68 -13
t61 -40t43.5 -68t16.5 -97q0 -54 -18 -91t-46 -60t-62.5 -33t-67.5 -10h-475zM451 1724q-27 0 -53.5 -18t-51 -46t-47.5 -62.5t-43 -67.5h190q36 0 60 20t24 65q0 53 -20.5 81t-58.5 28z" />
    <glyph glyph-name="uni0628" unicode="&#x628;" horiz-adv-x="2101" arabic-form="isolated" 
d="M2032 676v-327q0 -148 -90 -244q-112 -119 -326 -120h-1154q-74 0 -140 25t-117 73q-20 19 -41.5 46t-38.5 64t-28 83.5t-11 104.5q0 50 10 108.5t22.5 110.5t23.5 90t14 47l119 -38l118 -37q-9 -27 -19 -64.5t-19 -77t-15 -76.5t-6 -64q0 -48 13.5 -77.5t33 -45
t42.5 -20.5t41 -5h1145q55 0 94 10.5t58 30.5q23 26 23 75v328h248zM877 -349l180 182l184 -184l-182 -182z" />
    <glyph glyph-name="uniFE91" unicode="&#x628;" horiz-adv-x="701" arabic-form="initial" 
d="M552 825q2 -7 8.5 -33t14.5 -63.5t16.5 -83.5t16 -92.5t12 -90.5t4.5 -77q0 -103 -34 -178.5t-89 -124.5t-123.5 -73t-137.5 -24h-266v249h273q12 0 34.5 3.5t45 18.5t39.5 45.5t17 83.5q0 22 -3.5 53.5t-9.5 67.5t-13.5 73.5t-14.5 71t-14 61t-11 42.5zM121 -363
l180 182l184 -184l-182 -182z" />
    <glyph glyph-name="uniFE92" unicode="&#x628;" horiz-adv-x="788" arabic-form="medial" 
d="M801 234v-249h-63q-85 0 -155 23t-118 68q-56 -47 -132.5 -69t-174.5 -22h-177v249h177q61 0 97.5 11.5t55 28.5t24 38t5.5 41v324h248v-317q0 -45 20 -70.5t45.5 -38t50.5 -15t34 -2.5h63zM194 -374l180 182l184 -184l-182 -182z" />
    <glyph glyph-name="uniFE90" unicode="&#x628;" horiz-adv-x="2248" arabic-form="final" 
d="M2041 676v-293q0 -35 10.5 -59.5t27 -41t36.5 -26t39 -14.5t33.5 -6.5t21.5 -1.5h62v-249h-62q-34 0 -72.5 4.5t-77 15t-74.5 28.5t-64 44q-109 -91 -296 -92h-1154q-74 0 -140 25t-117 73q-20 19 -41.5 46t-38.5 64t-28 83.5t-11 104.5q0 50 10 108.5t22.5 110.5
t23.5 90t14 47l119 -38l118 -37q-9 -27 -19 -64.5t-19 -77.5t-15 -77t-6 -64q0 -48 13.5 -77.5t33 -45t42.5 -20.5t41 -5h1145q55 0 94 10.5t58 30.5q23 26 23 75v329h248zM898 -362l180 182l184 -184l-182 -182z" />
    <glyph glyph-name="uni067E" unicode="&#x67e;" horiz-adv-x="2106" arabic-form="isolated" 
d="M2032 676v-327q0 -148 -90 -244q-112 -119 -326 -120h-1154q-74 0 -140 25t-117 73q-20 19 -41.5 46t-38.5 64t-28 83.5t-11 104.5q0 50 10 108.5t22.5 110.5t23.5 90t14 47l119 -38l118 -37q-9 -27 -19 -64.5t-19 -77t-15 -76.5t-6 -64q0 -48 13.5 -77.5t33 -45
t42.5 -20.5t41 -5h1145q55 0 94 10.5t58 30.5q23 26 23 75v328h248zM707 -342l170 170l170 -172l-170 -170zM1124 -344l172 170l170 -172l-170 -170zM925 -624l158 158l160 -160l-158 -158z" />
    <glyph glyph-name="uniFB57" unicode="&#x67e;" horiz-adv-x="2243" arabic-form="final" 
d="M2041 676v-293q0 -35 10.5 -59.5t27 -41t36.5 -26t39 -14.5t33.5 -6.5t21.5 -1.5h62v-249h-62q-34 0 -72.5 4.5t-77 15t-74.5 28.5t-64 44q-109 -91 -296 -92h-1154q-74 0 -140 25t-117 73q-20 19 -41.5 46t-38.5 64t-28 83.5t-11 104.5q0 50 10 108.5t22.5 110.5
t23.5 90t14 47l119 -38l118 -37q-9 -27 -19 -64.5t-19 -77.5t-15 -77t-6 -64q0 -48 13.5 -77.5t33 -45t42.5 -20.5t41 -5h1145q55 0 94 10.5t58 30.5q23 26 23 75v329h248zM706 -341l170 170l170 -172l-170 -170zM1123 -343l172 170l170 -172l-170 -170zM924 -623l158 158
l160 -160l-158 -158z" />
    <glyph glyph-name="uniFB58" unicode="&#x67e;" horiz-adv-x="876" arabic-form="initial" 
d="M728 825q2 -7 8.5 -33t14.5 -63.5t16.5 -83.5t16 -92.5t12 -90.5t4.5 -77q0 -103 -34 -178.5t-89 -124.5t-123.5 -73t-137.5 -24h-431v249h438q12 0 34.5 3.5t45 18.5t39.5 45.5t17 83.5q0 22 -3.5 53.5t-9.5 67.5t-13.5 73.5t-14.5 71t-14 61t-11 42.5zM31 -344l170 170
l170 -172l-170 -170zM448 -346l172 170l170 -172l-170 -170zM249 -626l158 158l160 -160l-158 -158z" />
    <glyph glyph-name="uniFB59" unicode="&#x67e;" horiz-adv-x="1049" arabic-form="medial" 
d="M1061 234v-249h-148q-85 0 -155 23t-118 68q-56 -47 -132.5 -69t-174.5 -22h-346v249h346q61 0 97.5 11.5t55 28.5t24 38t5.5 41v324h248v-317q0 -45 20 -70.5t45.5 -38t50.5 -15t34 -2.5h148zM110 -339l170 170l170 -172l-170 -170zM527 -341l172 170l170 -172
l-170 -170zM328 -621l158 158l160 -160l-158 -158z" />
    <glyph glyph-name="uni062A" unicode="&#x62a;" horiz-adv-x="2101" arabic-form="isolated" 
d="M2032 676v-327q0 -148 -90 -244q-112 -119 -326 -120h-1154q-74 0 -140 25t-117 73q-20 19 -41.5 46t-38.5 64t-28 83.5t-11 104.5q0 50 10 108.5t22.5 110.5t23.5 90t14 47l119 -38l118 -37q-9 -27 -19 -64.5t-19 -77t-15 -76.5t-6 -64q0 -48 13.5 -77.5t33 -45
t42.5 -20.5t41 -5h1145q55 0 94 10.5t58 30.5q23 26 23 75v328h248zM1269 760l-168 170l166 172l172 -172zM850 759l-168 170l165 172l172 -172z" />
    <glyph glyph-name="uniFE97" unicode="&#x62a;" horiz-adv-x="888" arabic-form="initial" 
d="M728 825q2 -7 8.5 -33t14.5 -63.5t16.5 -83.5t16 -92.5t12 -90.5t4.5 -77q0 -103 -34 -178.5t-89 -124.5t-123.5 -73t-137.5 -24h-431v249h438q12 0 34.5 3.5t45 18.5t39.5 45.5t17 83.5q0 22 -3.5 53.5t-9.5 67.5t-13.5 73.5t-14.5 71t-14 61t-11 42.5zM629 1020
l-168 170l166 172l172 -172zM210 1019l-168 170l165 172l172 -172z" />
    <glyph glyph-name="uniFE98" unicode="&#x62a;" horiz-adv-x="1049" arabic-form="medial" 
d="M718 943l-168 170l166 172l172 -172zM299 942l-168 170l165 172l172 -172zM1061 234v-249h-148q-85 0 -155 23t-118 68q-56 -47 -132.5 -69t-174.5 -22h-346v249h346q61 0 97.5 11.5t55 28.5t24 38t5.5 41v324h248v-317q0 -45 20 -70.5t45.5 -38t50.5 -15t34 -2.5h148z
" />
    <glyph glyph-name="uniFE96" unicode="&#x62a;" horiz-adv-x="2252" arabic-form="final" 
d="M2041 676v-293q0 -35 10.5 -59.5t27 -41t36.5 -26t39 -14.5t33.5 -6.5t21.5 -1.5h62v-249h-62q-34 0 -72.5 4.5t-77 15t-74.5 28.5t-64 44q-109 -91 -296 -92h-1154q-74 0 -140 25t-117 73q-20 19 -41.5 46t-38.5 64t-28 83.5t-11 104.5q0 50 10 108.5t22.5 110.5
t23.5 90t14 47l119 -38l118 -37q-9 -27 -19 -64.5t-19 -77.5t-15 -77t-6 -64q0 -48 13.5 -77.5t33 -45t42.5 -20.5t41 -5h1145q55 0 94 10.5t58 30.5q23 26 23 75v329h248zM1269 760l-168 170l166 172l172 -172zM850 759l-168 170l165 172l172 -172z" />
    <glyph glyph-name="uni062B" unicode="&#x62b;" horiz-adv-x="2104" arabic-form="isolated" 
d="M2032 676v-327q0 -148 -90 -244q-112 -119 -326 -120h-1154q-74 0 -140 25t-117 73q-20 19 -41.5 46t-38.5 64t-28 83.5t-11 104.5q0 50 10 108.5t22.5 110.5t23.5 90t14 47l119 -38l118 -37q-9 -27 -19 -64.5t-19 -77t-15 -76.5t-6 -64q0 -48 13.5 -77.5t33 -45
t42.5 -20.5t41 -5h1145q55 0 94 10.5t58 30.5q23 26 23 75v328h248zM1035 887l-170 -172l-170 170l170 172zM1464 891l-168 -170l-175 168l172 172zM1243 1173l-160 -160l-158 158l160 160z" />
    <glyph glyph-name="uniFE9B" unicode="&#x62b;" horiz-adv-x="878" arabic-form="initial" 
d="M728 825q2 -7 8.5 -33t14.5 -63.5t16.5 -83.5t16 -92.5t12 -90.5t4.5 -77q0 -103 -34 -178.5t-89 -124.5t-123.5 -73t-137.5 -24h-431v249h438q12 0 34.5 3.5t45 18.5t39.5 45.5t17 83.5q0 22 -3.5 53.5t-9.5 67.5t-13.5 73.5t-14.5 71t-14 61t-11 42.5zM369 1163
l-170 -172l-170 170l170 172zM798 1167l-168 -170l-175 168l172 172zM577 1449l-160 -160l-158 158l160 160z" />
    <glyph glyph-name="uniFE9C" unicode="&#x62b;" horiz-adv-x="1049" arabic-form="medial" 
d="M1061 234v-249h-148q-85 0 -155 23t-118 68q-56 -47 -132.5 -69t-174.5 -22h-346v249h346q61 0 97.5 11.5t55 28.5t24 38t5.5 41v324h248v-317q0 -45 20 -70.5t45.5 -38t50.5 -15t34 -2.5h148zM438 1101l-170 -172l-170 170l170 172zM867 1105l-168 -170l-175 168
l172 172zM646 1387l-160 -160l-158 158l160 160z" />
    <glyph glyph-name="uniFE9A" unicode="&#x62b;" horiz-adv-x="2243" arabic-form="final" 
d="M2041 676v-293q0 -35 10.5 -59.5t27 -41t36.5 -26t39 -14.5t33.5 -6.5t21.5 -1.5h62v-249h-62q-34 0 -72.5 4.5t-77 15t-74.5 28.5t-64 44q-109 -91 -296 -92h-1154q-74 0 -140 25t-117 73q-20 19 -41.5 46t-38.5 64t-28 83.5t-11 104.5q0 50 10 108.5t22.5 110.5
t23.5 90t14 47l119 -38l118 -37q-9 -27 -19 -64.5t-19 -77.5t-15 -77t-6 -64q0 -48 13.5 -77.5t33 -45t42.5 -20.5t41 -5h1145q55 0 94 10.5t58 30.5q23 26 23 75v329h248zM1035 887l-170 -172l-170 170l170 172zM1464 891l-168 -170l-175 168l172 172zM1243 1173l-160 -160
l-158 158l160 160z" />
    <glyph glyph-name="uni0679" unicode="&#x679;" horiz-adv-x="2135" arabic-form="isolated" 
d="M2032 676v-327q0 -148 -90 -244q-112 -119 -326 -120h-1154q-74 0 -140 25t-117 73q-20 19 -41.5 46t-38.5 64t-28 83.5t-11 104.5q0 50 10 108.5t22.5 110.5t23.5 90t14 47l119 -38l118 -37q-9 -27 -19 -64.5t-19 -77t-15 -76.5t-6 -64q0 -48 13.5 -77.5t33 -45
t42.5 -20.5t41 -5h1145q55 0 94 10.5t58 30.5q23 26 23 75v328h248zM806 658v109h104q3 4 5.5 8.5t7 11.5t12 17.5t18.5 26.5v488h107v-343q36 38 79.5 63t95.5 25q34 0 68 -12t61 -37.5t43.5 -66t16.5 -96.5q0 -54 -18 -91t-46 -60t-62.5 -33t-67.5 -10h-424zM1235 955
q-26 0 -52 -16.5t-51 -43.5t-48 -60.5t-44 -67.5h190q36 0 62 20t26 65q0 53 -22.5 78t-60.5 25z" />
    <glyph glyph-name="uniFB68" unicode="&#x679;" horiz-adv-x="873" arabic-form="initial" 
d="M728 825q2 -7 8.5 -33t14.5 -63.5t16.5 -83.5t16 -92.5t12 -90.5t4.5 -77q0 -103 -34 -178.5t-89 -124.5t-123.5 -73t-137.5 -24h-431v249h438q12 0 34.5 3.5t45 18.5t39.5 45.5t17 83.5q0 22 -3.5 53.5t-9.5 67.5t-13.5 73.5t-14.5 71t-14 61t-11 42.5zM169 978v109h104
q3 4 5.5 8.5t7 11.5t12 17.5t18.5 26.5v488h107v-343q36 38 79.5 63t95.5 25q34 0 68 -12t61 -37.5t43.5 -66t16.5 -96.5q0 -54 -18 -91t-46 -60t-62.5 -33t-67.5 -10h-424zM598 1275q-26 0 -52 -16.5t-51 -43.5t-48 -60.5t-44 -67.5h190q36 0 62 20t26 65q0 53 -22.5 78
t-60.5 25z" />
    <glyph glyph-name="uniFB69" unicode="&#x679;" horiz-adv-x="1049" arabic-form="medial" 
d="M1061 234v-249h-148q-85 0 -155 23t-118 68q-56 -47 -132.5 -69t-174.5 -22h-346v249h346q61 0 97.5 11.5t55 28.5t24 38t5.5 41v324h248v-317q0 -45 20 -70.5t45.5 -38t50.5 -15t34 -2.5h148zM134 844v109h104q3 4 5.5 8.5t7 11.5t12 17.5t18.5 26.5v488h107v-343
q36 38 79.5 63t95.5 25q34 0 68 -12t61 -37.5t43.5 -66t16.5 -96.5q0 -54 -18 -91t-46 -60t-62.5 -33t-67.5 -10h-424zM563 1141q-26 0 -52 -16.5t-51 -43.5t-48 -60.5t-44 -67.5h190q36 0 62 20t26 65q0 53 -22.5 78t-60.5 25z" />
    <glyph glyph-name="uniFB67" unicode="&#x679;" horiz-adv-x="2243" arabic-form="final" 
d="M2041 676v-293q0 -35 10.5 -59.5t27 -41t36.5 -26t39 -14.5t33.5 -6.5t21.5 -1.5h62v-249h-62q-34 0 -72.5 4.5t-77 15t-74.5 28.5t-64 44q-109 -91 -296 -92h-1154q-74 0 -140 25t-117 73q-20 19 -41.5 46t-38.5 64t-28 83.5t-11 104.5q0 50 10 108.5t22.5 110.5
t23.5 90t14 47l119 -38l118 -37q-9 -27 -19 -64.5t-19 -77.5t-15 -77t-6 -64q0 -48 13.5 -77.5t33 -45t42.5 -20.5t41 -5h1145q55 0 94 10.5t58 30.5q23 26 23 75v329h248zM818 668v109h104q3 4 5.5 8.5t7 11.5t12 17.5t18.5 26.5v488h107v-343q36 38 79.5 63t95.5 25
q34 0 68 -12t61 -37.5t43.5 -66t16.5 -96.5q0 -54 -18 -91t-46 -60t-62.5 -33t-67.5 -10h-424zM1247 965q-26 0 -52 -16.5t-51 -43.5t-48 -60.5t-44 -67.5h190q36 0 62 20t26 65q0 53 -22.5 78t-60.5 25z" />
    <glyph glyph-name="uni0629" unicode="&#x629;" horiz-adv-x="1043" arabic-form="isolated" 
d="M519 -15q-96 0 -176.5 27.5t-138.5 78t-90.5 120.5t-32.5 155q0 84 21 150.5t56.5 124t83 110t100.5 108.5l-63 71l184 167q11 -13 26 -29t30.5 -33t30.5 -33t27 -29q72 -77 140.5 -149.5t122 -145t86 -146t31.5 -152.5q-1 -88 -35 -157.5t-99 -128.5q-60 -51 -136.5 -80
t-167.5 -29zM507 706q-40 -45 -75.5 -85t-61 -80t-39 -82.5t-10.5 -92.5q3 -37 22 -63.5t47 -44t62 -25.5t67 -8q38 0 73 11t61.5 31t42.5 49t16 64q0 43 -17 84t-45.5 81t-65.5 80t-77 81zM706 1208l-168 170l166 172l172 -172zM287 1207l-168 170l165 172l172 -172z" />
    <glyph glyph-name="uniFE94" unicode="&#x629;" horiz-adv-x="1268" arabic-form="final" 
d="M1278 -15h-28q-78 0 -150 14.5t-133 44t-108.5 75.5t-77.5 109q-24 -37 -61.5 -65.5t-81.5 -47.5t-91 -28.5t-90 -9.5q-80 0 -151.5 28t-125.5 79.5t-85.5 125.5t-31.5 167q0 108 41 190t109 143.5t156.5 105t183.5 75.5l-24 96l244 57l182 -708q16 -65 52 -104.5
t78.5 -61t87 -29t77.5 -7.5h28v-249zM662 482q6 28 4 56.5t-9 60.5t-18.5 69t-24.5 83q-160 -51 -242.5 -115.5t-82.5 -159.5q0 -37 16.5 -66t43 -48t59 -27.5t65.5 -3.5q75 11 125 44.5t64 106.5zM852 1298l-168 170l166 172l172 -172zM433 1297l-168 170l165 172l172 -172
z" />
    <glyph glyph-name="uniFB7C" unicode="&#x686;" horiz-adv-x="1454" arabic-form="initial" 
d="M1356 383q-6 -4 -52 -35t-122 -75.5t-178 -94.5t-220 -93t-247 -71.5t-259 -28.5h-303v249h303q98 0 209 20t219 51.5t205.5 70.5t169.5 77q-46 14 -99.5 30.5t-109.5 33t-111 32t-103 27.5t-86 19t-60 7q-23 0 -40.5 -5.5t-31.5 -18t-26 -32.5t-25 -48l-229 69
q19 60 46.5 112.5t67 91.5t91.5 61.5t119 22.5q26 0 74 -11t109 -29t130.5 -41t139.5 -48t136 -49t119 -43.5t89 -32.5t46 -16zM309 -354l170 170l170 -172l-170 -170zM726 -356l172 170l170 -172l-170 -170zM527 -636l158 158l160 -160l-158 -158z" />
    <glyph glyph-name="uniFB7D" unicode="&#x686;" horiz-adv-x="1556" arabic-form="medial" 
d="M1356 383q-5 -3 -32 -21.5t-73 -47.5q10 -30 31 -46.5t43 -24t41.5 -8.5t27.5 -1h183v-249h-183q-119 1 -213.5 52.5t-147.5 154.5q-77 -38 -166 -75.5t-186 -66.5t-199 -47t-204 -18h-298v249h298q98 0 209 20t219 51.5t205.5 70.5t169.5 77q-45 14 -99 30.5t-110 33
t-111 32t-103 27.5t-86 19t-60 7q-23 0 -40.5 -5.5t-31.5 -18t-26 -32.5t-25 -48l-229 69q19 60 46.5 112.5t67 91.5t91.5 61.5t119 22.5q26 0 74 -11t109 -29t130.5 -41t139.5 -48t136 -49t119 -43.5t89 -32.5t46 -16zM318 -355l170 170l170 -172l-170 -170zM735 -357
l172 170l170 -172l-170 -170zM536 -637l158 158l160 -160l-158 -158z" />
    <glyph glyph-name="uni062C" unicode="&#x62c;" horiz-adv-x="1491" arabic-form="isolated" 
d="M1377 558l-590 -243q-129 -49 -213.5 -84t-134 -69.5t-69 -73.5t-19.5 -95q0 -71 16 -121t46 -82.5t72.5 -51t95.5 -28t115 -11.5t131 -2h461v-249h-461q-159 0 -291 25.5t-227 87.5t-148 166t-53 261q0 82 21.5 147t61 117.5t94 94t120.5 75t141 61t156 53.5l401 132
q-116 40 -235.5 78.5t-234.5 75.5q-21 7 -40.5 12.5t-37.5 5.5q-23 0 -41.5 -4.5t-33.5 -16t-27.5 -32.5t-24.5 -54l-229 69q19 60 47.5 112.5t68.5 91.5t92.5 61.5t119.5 22.5q55 0 120 -20q80 -26 146.5 -51.5t132.5 -52.5q38 -15 79 -34t93 -41.5t117.5 -49.5t152.5 -58z
M686 42l180 182l184 -184l-182 -182z" />
    <glyph glyph-name="uniFE9F" unicode="&#x62c;" horiz-adv-x="1439" arabic-form="initial" 
d="M1356 383q-6 -4 -52 -35t-122 -75.5t-178 -94.5t-220 -93t-247 -71.5t-259 -28.5h-303v249h303q98 0 209 20t219 51.5t205.5 70.5t169.5 77q-46 14 -99.5 30.5t-109.5 33t-111 32t-103 27.5t-86 19t-60 7q-23 0 -40.5 -5.5t-31.5 -18t-26 -32.5t-25 -48l-229 69
q19 60 46.5 112.5t67 91.5t91.5 61.5t119 22.5q26 0 74 -11t109 -29t130.5 -41t139.5 -48t136 -49t119 -43.5t89 -32.5t46 -16zM492 -358l180 182l184 -184l-182 -182z" />
    <glyph glyph-name="uniFEA0" unicode="&#x62c;" horiz-adv-x="1524" arabic-form="medial" 
d="M1341 383q-5 -3 -32 -21.5t-73 -47.5q10 -30 31 -46.5t43 -24t41.5 -8.5t27.5 -1h183v-249h-183q-119 1 -213.5 52.5t-147.5 154.5q-77 -38 -166 -75.5t-186 -66.5t-199 -47t-204 -18h-298v249h298q98 0 209 20t219 51.5t205.5 70.5t169.5 77q-45 14 -99 30.5t-110 33
t-111 32t-103 27.5t-86 19t-60 7q-23 0 -40.5 -5.5t-31.5 -18t-26 -32.5t-25 -48l-229 69q19 60 46.5 112.5t67 91.5t91.5 61.5t119 22.5q26 0 74 -11t109 -29t130.5 -41t139.5 -48t136 -49t119 -43.5t89 -32.5t46 -16zM509 -358l180 182l184 -184l-182 -182z" />
    <glyph glyph-name="uniFE9E" unicode="&#x62c;" horiz-adv-x="1583" arabic-form="final" 
d="M1358 351l-108 -45q27 -35 56 -53.5t51 -18.5h245v-249h-245q-129 0 -216.5 60t-135.5 160l-237 -97q-129 -49 -213.5 -84t-134 -69.5t-69 -73.5t-19.5 -95q0 -71 16 -121t46 -82.5t72.5 -51t95.5 -28t115 -11.5t131 -2h461v-249h-461q-159 0 -291 25.5t-227 87.5
t-148 166t-53 261q0 82 21.5 147t61 117.5t94 94t120.5 75t141 61t156 53.5l401 132q-116 40 -235.5 78.5t-234.5 75.5q-21 7 -40.5 12.5t-37.5 5.5q-23 0 -41.5 -4.5t-33.5 -16t-27.5 -32.5t-24.5 -54l-229 69q19 60 47.5 112.5t68.5 91.5t92.5 61.5t119.5 22.5
q55 0 120 -20q80 -26 146.5 -51.5t132.5 -52.5q38 -15 79 -34t93 -41.5t117.5 -49.5t152.5 -58zM669 -198l180 182l184 -184l-182 -182z" />
    <glyph glyph-name="uni062E" unicode="&#x62e;" horiz-adv-x="1465" arabic-form="isolated" 
d="M1377 558l-590 -243q-129 -49 -213.5 -84t-134 -69.5t-69 -73.5t-19.5 -95q0 -71 16 -121t46 -82.5t72.5 -51t95.5 -28t115 -11.5t131 -2h461v-249h-461q-159 0 -291 25.5t-227 87.5t-148 166t-53 261q0 82 21.5 147t61 117.5t94 94t120.5 75t141 61t156 53.5l401 132
q-116 40 -235.5 78.5t-234.5 75.5q-21 7 -40.5 12.5t-37.5 5.5q-23 0 -41.5 -4.5t-33.5 -16t-27.5 -32.5t-24.5 -54l-229 69q19 60 47.5 112.5t68.5 91.5t92.5 61.5t119.5 22.5q55 0 120 -20q80 -26 146.5 -51.5t132.5 -52.5q38 -15 79 -34t93 -41.5t117.5 -49.5t152.5 -58z
M322 1466l180 182l184 -184l-182 -182z" />
    <glyph glyph-name="uniFEA7" unicode="&#x62e;" horiz-adv-x="1444" arabic-form="initial" 
d="M1356 383q-6 -4 -52 -35t-122 -75.5t-178 -94.5t-220 -93t-247 -71.5t-259 -28.5h-303v249h303q98 0 209 20t219 51.5t205.5 70.5t169.5 77q-46 14 -99.5 30.5t-109.5 33t-111 32t-103 27.5t-86 19t-60 7q-23 0 -40.5 -5.5t-31.5 -18t-26 -32.5t-25 -48l-229 69
q19 60 46.5 112.5t67 91.5t91.5 61.5t119 22.5q26 0 74 -11t109 -29t130.5 -41t139.5 -48t136 -49t119 -43.5t89 -32.5t46 -16zM256 1261l180 182l184 -184l-182 -182z" />
    <glyph glyph-name="uniFEA8" unicode="&#x62e;" horiz-adv-x="1527" arabic-form="medial" 
d="M1341 383q-5 -3 -32 -21.5t-73 -47.5q10 -30 31 -46.5t43 -24t41.5 -8.5t27.5 -1h183v-249h-183q-119 1 -213.5 52.5t-147.5 154.5q-77 -38 -166 -75.5t-186 -66.5t-199 -47t-204 -18h-298v249h298q98 0 209 20t219 51.5t205.5 70.5t169.5 77q-45 14 -99 30.5t-110 33
t-111 32t-103 27.5t-86 19t-60 7q-23 0 -40.5 -5.5t-31.5 -18t-26 -32.5t-25 -48l-229 69q19 60 46.5 112.5t67 91.5t91.5 61.5t119 22.5q26 0 74 -11t109 -29t130.5 -41t139.5 -48t136 -49t119 -43.5t89 -32.5t46 -16zM261 1261l180 182l184 -184l-182 -182z" />
    <glyph glyph-name="uniFEA6" unicode="&#x62e;" horiz-adv-x="1576" arabic-form="final" 
d="M1358 351l-108 -45q27 -35 56 -53.5t51 -18.5h245v-249h-245q-129 0 -216.5 60t-135.5 160l-237 -97q-129 -49 -213.5 -84t-134 -69.5t-69 -73.5t-19.5 -95q0 -71 16 -121t46 -82.5t72.5 -51t95.5 -28t115 -11.5t131 -2h461v-249h-461q-159 0 -291 25.5t-227 87.5
t-148 166t-53 261q0 82 21.5 147t61 117.5t94 94t120.5 75t141 61t156 53.5l401 132q-116 40 -235.5 78.5t-234.5 75.5q-21 7 -40.5 12.5t-37.5 5.5q-23 0 -41.5 -4.5t-33.5 -16t-27.5 -32.5t-24.5 -54l-229 69q19 60 47.5 112.5t68.5 91.5t92.5 61.5t119.5 22.5
q55 0 120 -20q80 -26 146.5 -51.5t132.5 -52.5q38 -15 79 -34t93 -41.5t117.5 -49.5t152.5 -58zM333 1259l180 182l184 -184l-182 -182z" />
    <glyph glyph-name="uni0630" unicode="&#x630;" horiz-adv-x="1042" arabic-form="isolated" 
d="M515 -16q-38 0 -75 4t-75 11t-78 17.5t-84 23.5l-119 36l72 240q87 -30 180.5 -53t176 -30t143 6.5t81.5 57.5q7 14 1.5 35t-21.5 44l-373 544l210 136l68 -105q0 -1 3.5 -6t14 -21t30 -45.5t51.5 -77.5t78.5 -118.5t111.5 -168.5q51 -77 62.5 -159t-20.5 -156
q-17 -40 -45.5 -73.5t-66.5 -59.5q-71 -49 -171 -67q-84 -15 -155 -15zM187 1372l180 182l184 -184l-182 -182z" />
    <glyph glyph-name="uniFEAC" unicode="&#x630;" horiz-adv-x="1184" arabic-form="final" 
d="M1207 -15h-81q-133 0 -254 117q-33 -39 -78.5 -64.5t-97.5 -40.5t-105.5 -21t-102.5 -6q-38 0 -77 4.5t-88.5 15t-113.5 28t-153 44.5l72 239q61 -24 126 -42.5t127 -30t119 -15t102 2.5t76.5 22.5t42.5 44.5q5 12 5 21.5t-5.5 22.5t-17.5 31.5t-31 48.5l-355 499
l210 135l357 -541q29 -44 61 -91t64 -85.5t62 -63.5t55 -25h81v-250zM251 1418l180 182l184 -184l-182 -182z" />
    <glyph glyph-name="uni0688" unicode="&#x688;" horiz-adv-x="1042" arabic-form="isolated" 
d="M515 -16q-38 0 -75 4t-75 11t-78 17.5t-84 23.5l-119 36l72 240q87 -30 180.5 -53t176 -30t143 6.5t81.5 57.5q7 14 1.5 35t-21.5 44l-373 544l210 136l68 -105q0 -1 3.5 -6t14 -21t30 -45.5t51.5 -77.5t78.5 -118.5t111.5 -168.5q51 -77 62.5 -159t-20.5 -156
q-17 -40 -45.5 -73.5t-66.5 -59.5q-71 -49 -171 -67q-84 -15 -155 -15zM72 1208v109h104q3 4 5.5 8.5t7 11.5t12 17.5t18.5 26.5v488h107v-343q36 38 79.5 63t95.5 25q34 0 68 -12t61 -37.5t43.5 -66t16.5 -96.5q0 -54 -18 -91t-46 -60t-62.5 -33t-67.5 -10h-424zM501 1505
q-26 0 -52 -16.5t-51 -43.5t-48 -60.5t-44 -67.5h190q36 0 62 20t26 65q0 53 -22.5 78t-60.5 25z" />
    <glyph glyph-name="uniFB89" unicode="&#x688;" horiz-adv-x="1184" arabic-form="final" 
d="M1207 -15h-81q-133 0 -254 117q-33 -39 -78.5 -64.5t-97.5 -40.5t-105.5 -21t-102.5 -6q-38 0 -77 4.5t-88.5 15t-113.5 28t-153 44.5l72 239q61 -24 126 -42.5t127 -30t119 -15t102 2.5t76.5 22.5t42.5 44.5q5 12 5 21.5t-5.5 22.5t-17.5 31.5t-31 48.5l-355 499
l210 135l357 -541q29 -44 61 -91t64 -85.5t62 -63.5t55 -25h81v-250zM174 1236v109h104q3 4 5.5 8.5t7 11.5t12 17.5t18.5 26.5v488h107v-343q36 38 79.5 63t95.5 25q34 0 68 -12t61 -37.5t43.5 -66t16.5 -96.5q0 -54 -18 -91t-46 -60t-62.5 -33t-67.5 -10h-424zM603 1533
q-26 0 -52 -16.5t-51 -43.5t-48 -60.5t-44 -67.5h190q36 0 62 20t26 65q0 53 -22.5 78t-60.5 25z" />
    <glyph glyph-name="uni0632" unicode="&#x632;" horiz-adv-x="795" arabic-form="isolated" 
d="M667 46q-6 -138 -51 -248.5t-124 -188t-191 -119.5t-253 -42h-124v249h124q96 0 166 20t115 64t67 114.5t22 171.5v609h249v-630zM357 1109l180 182l184 -184l-182 -182z" />
    <glyph glyph-name="uniFEB0" unicode="&#x632;" horiz-adv-x="840" arabic-form="final" 
d="M852 -15h-38q-41 0 -77.5 5t-71.5 28q-12 -129 -59 -234t-125.5 -179.5t-187.5 -115.5t-245 -41h-125v249h125q96 0 166 20t115 64t67 114.5t22 171.5v609h249v-299q0 -46 19.5 -74t45 -43.5t49.5 -20.5t33 -5h38v-249zM359 1081l180 182l184 -184l-182 -182z" />
    <glyph glyph-name="uni0691" unicode="&#x691;" horiz-adv-x="785" arabic-form="isolated" 
d="M667 46q-6 -138 -51 -248.5t-124 -188t-191 -119.5t-253 -42h-124v249h124q96 0 166 20t115 64t67 114.5t22 171.5v609h249v-630zM113 881v109h104q3 4 5.5 8.5t7 11.5t12 17.5t18.5 26.5v488h107v-343q36 38 79.5 63t95.5 25q34 0 68 -12t61 -37.5t43.5 -66t16.5 -96.5
q0 -54 -18 -91t-46 -60t-62.5 -33t-67.5 -10h-424zM542 1178q-26 0 -52 -16.5t-51 -43.5t-48 -60.5t-44 -67.5h190q36 0 62 20t26 65q0 53 -22.5 78t-60.5 25z" />
    <glyph glyph-name="uniFB8D" unicode="&#x691;" horiz-adv-x="844" arabic-form="final" 
d="M852 -15h-38q-41 0 -77.5 5t-71.5 28q-12 -129 -59 -234t-125.5 -179.5t-187.5 -115.5t-245 -41h-125v249h125q96 0 166 20t115 64t67 114.5t22 171.5v609h249v-299q0 -46 19.5 -74t45 -43.5t49.5 -20.5t33 -5h38v-249zM149 875v109h104q3 4 5.5 8.5t7 11.5t12 17.5
t18.5 26.5v488h107v-343q36 38 79.5 63t95.5 25q34 0 68 -12t61 -37.5t43.5 -66t16.5 -96.5q0 -54 -18 -91t-46 -60t-62.5 -33t-67.5 -10h-424zM578 1172q-26 0 -52 -16.5t-51 -43.5t-48 -60.5t-44 -67.5h190q36 0 62 20t26 65q0 53 -22.5 78t-60.5 25z" />
    <glyph glyph-name="uni0698" unicode="&#x698;" horiz-adv-x="859" arabic-form="isolated" 
d="M667 46q-6 -138 -51 -248.5t-124 -188t-191 -119.5t-253 -42h-124v249h124q96 0 166 20t115 64t67 114.5t22 171.5v609h249v-630zM415 1078l-170 -172l-170 170l170 172zM844 1082l-168 -170l-175 168l172 172zM623 1364l-160 -160l-158 158l160 160z" />
    <glyph glyph-name="uniFB8B" unicode="&#x698;" horiz-adv-x="836" arabic-form="final" 
d="M852 -15h-38q-41 0 -77.5 5t-71.5 28q-12 -129 -59 -234t-125.5 -179.5t-187.5 -115.5t-245 -41h-125v249h125q96 0 166 20t115 64t67 114.5t22 171.5v609h249v-299q0 -46 19.5 -74t45 -43.5t49.5 -20.5t33 -5h38v-249zM404 1082l-170 -172l-170 170l170 172zM833 1086
l-168 -170l-175 168l172 172zM612 1368l-160 -160l-158 158l160 160z" />
    <glyph glyph-name="uni0634" unicode="&#x634;" horiz-adv-x="2742" arabic-form="isolated" 
d="M2258 -15q-94 0 -169 26t-129 74q-30 -29 -63.5 -48t-69 -30.5t-71 -16.5t-68.5 -5q-52 0 -98 8t-88 36v-42q0 -275 -148.5 -407t-440.5 -132h-195q-134 0 -246 44t-193 125.5t-126.5 197t-45.5 259.5q0 66 8.5 132t26.5 135t46.5 144.5t69.5 161.5l224 -109
q-35 -72 -61.5 -133.5t-44 -117t-26 -107t-8.5 -103.5q0 -80 27.5 -149.5t77 -121t119 -81t152.5 -28.5h195q106 0 172.5 19.5t103.5 56.5t50.5 91t13.5 123v689h249v-180q0 -86 16 -138t42 -79.5t59.5 -36.5t68.5 -9q21 0 47.5 7.5t50.5 25.5t40 48.5t16 75.5v286h248v-296
q2 -76 41.5 -111.5t124.5 -35.5h-1q14 1 37.5 6.5t45.5 22t38 47t16 81.5q0 33 -8 84t-19 104.5t-22 100t-18 69.5l235 71q2 -6 8.5 -31t15 -61.5t18 -81t17 -90t12.5 -89t5 -76.5q0 -102 -33.5 -177.5t-87 -126t-121 -75.5t-136.5 -26zM1909 1109l-170 -172l-170 170
l170 172zM2338 1113l-168 -170l-175 168l172 172zM2117 1395l-160 -160l-158 158l160 160z" />
    <glyph glyph-name="uniFEB7" unicode="&#x634;" horiz-adv-x="1767" arabic-form="initial" 
d="M745 -13q-183 0 -290 95q-55 -51 -122 -74t-138 -23h-225v249h225q12 0 34.5 4t45 19.5t39.5 46t17 84.5v4v284h249v-284q0 -82 38.5 -119.5t126.5 -37.5q12 0 34.5 4.5t45 20.5t39.5 47.5t17 84.5v284h248v-284q0 -82 39.5 -120.5t128.5 -38.5q13 0 35.5 5.5t44.5 22
t38 47.5t16 84q0 22 -3.5 53t-9 65.5t-12.5 70t-14 67.5t-13.5 58t-10.5 41l235 77q2 -7 8 -32t14.5 -62t17.5 -82t16.5 -90.5t12.5 -89t5 -76.5q0 -102 -33.5 -178.5t-87.5 -127t-122 -75.5t-137 -26q-186 0 -294 98q-55 -51 -121.5 -73.5t-136.5 -22.5zM981 1118
l-170 -172l-170 170l170 172zM1410 1122l-168 -170l-175 168l172 172zM1189 1404l-160 -160l-158 158l160 160z" />
    <glyph glyph-name="uniFEB8" unicode="&#x634;" horiz-adv-x="1875" arabic-form="medial" 
d="M-32 234h129q59 0 95.5 10t57 29.5t27.5 47.5t7 64v291h249v-286q0 -81 39 -118t124 -38h-1q15 1 36.5 6t42 20.5t35 45t14.5 79.5v291h248v-286q0 -82 39 -119t127 -37q24 0 47.5 7.5t42.5 25t31 45.5t14 69v-1v296h249v-296q2 -77 47 -111.5t138 -34.5h98v-249h-98
q-103 0 -179 22.5t-131 73.5q-51 -47 -119.5 -71.5t-139.5 -24.5q-94 0 -164.5 23t-125.5 74q-52 -46 -116.5 -71t-130.5 -26q-94 -1 -165.5 24t-123.5 69q-117 -93 -314 -93h-129v249zM931 1090l-170 -172l-170 170l170 172zM1360 1094l-168 -170l-175 168l172 172z
M1139 1376l-160 -160l-158 158l160 160z" />
    <glyph glyph-name="uniFEB6" unicode="&#x634;" horiz-adv-x="2935" arabic-form="final" 
d="M2870 -15q-206 0 -315 100q-57 -46 -128.5 -73t-143.5 -27q-188 0 -296 100q-57 -46 -128.5 -73t-143.5 -27q-54 0 -98.5 8t-87.5 28v-34q0 -275 -148.5 -407.5t-440.5 -132.5h-221q-79 0 -153.5 19.5t-140 55t-121 85.5t-96.5 112q-48 78 -74 166t-26 194
q0 66 8.5 131.5t27.5 135t48 144.5t70 161l224 -109q-35 -73 -60 -134.5t-41 -116.5t-23 -106t-7 -103q0 -65 18.5 -124t45.5 -106q48 -71 126.5 -113.5t173.5 -42.5h221q106 0 172.5 19.5t103.5 57t50.5 91.5t13.5 123v689h249v-194q0 -86 16 -135.5t42 -74.5t59.5 -32
t68.5 -7q21 0 47.5 7.5t50.5 25.5t40 48.5t16 75.5v286h248v-296q2 -76 41.5 -111.5t126.5 -35.5q21 0 47.5 7.5t49.5 25.5t39 48t16 76v286h248v-296q2 -76 45.5 -111t139.5 -35h78v-249h-78v0zM1972 1086l-170 -172l-170 170l170 172zM2401 1090l-168 -170l-175 168
l172 172zM2180 1372l-160 -160l-158 158l160 160z" />
    <glyph glyph-name="uni0636" unicode="&#x636;" horiz-adv-x="2784" arabic-form="isolated" 
d="M722 -552q-80 0 -155 19t-140.5 54t-121 86t-96.5 115q-48 79 -73.5 167.5t-25.5 194.5q0 66 8 129.5t26 131t46.5 141t69.5 158.5l225 -107q-35 -72 -59 -133t-39 -115t-22 -104t-7 -101q0 -71 15.5 -125.5t48.5 -105.5q46 -75 124.5 -115.5t175.5 -40.5h219
q106 0 172 20t103 58t50 93t13 124v357v327h248v-319q0 -17 5.5 -33t14.5 -29t20 -21.5t22 -11.5q74 121 150 230t160 190.5t180 129.5t210 48q78 0 154 -23t136 -76.5t96.5 -139.5t36.5 -212q0 -119 -39.5 -200.5t-101.5 -131t-139 -71t-152 -21.5h-573q-18 0 -41.5 1
t-47.5 4t-48 9.5t-43 17.5v-25q0 -278 -147 -411t-439 -133h-219zM2280 234q33 0 72.5 8.5t73.5 28.5t57 54t23 84q0 56 -18 94.5t-48.5 62.5t-69.5 34.5t-81 10.5q-59 0 -122 -31.5t-125 -83.5t-119.5 -120.5t-103.5 -141.5h461zM2077 1229l180 182l184 -184l-182 -182z
" />
    <glyph glyph-name="uniFEBF" unicode="&#x636;" horiz-adv-x="1807" arabic-form="initial" 
d="M-39 -15v249h144q61 0 97 11t54.5 29t24.5 40.5t6 45.5v316h248v-316q0 -18 7 -35t18 -30.5t25 -22t29 -10.5l22 36q40 66 84.5 133t93.5 129.5t104 117t117 95t131 63.5t148 23q78 0 155 -21.5t137.5 -72.5t98 -135.5t37.5 -211.5q0 -120 -40.5 -202.5t-104 -133.5
t-142 -74t-153.5 -23h-572q-36 0 -80 1.5t-88 10t-83.5 26.5t-67.5 52q-109 -87 -299 -90h-151zM1314 611q-60 0 -121 -31t-120.5 -83t-114.5 -120t-101 -143h445q37 0 76 9.5t71 31t53 56.5t21 87q0 56 -17.5 93.5t-46.5 59.5t-66.5 31t-78.5 9zM1115 1238l180 182
l184 -184l-182 -182z" />
    <glyph glyph-name="uniFEC0" unicode="&#x636;" horiz-adv-x="1888" arabic-form="medial" 
d="M636 298q40 66 84.5 133.5t93.5 129.5t104 117t117 95t131 63.5t148 23.5q78 0 154 -21.5t136 -72.5t97 -136t37 -212q0 -55 -9.5 -99.5t-25.5 -84.5h209v-249h-1182q-36 0 -80 6.5t-87 18.5t-82.5 29t-66.5 38q-56 -48 -130 -69t-172 -23h-156v249h149q61 0 97 11
t54.5 28.5t24.5 38t6 40.5v324h248v-316q0 -18 7 -35t18 -30.5t25 -22t29 -10.5zM1314 612q-60 0 -122 -31t-122 -83.5t-115.5 -120.5t-101.5 -143h449q38 0 77 12t70.5 35.5t51 58t19.5 78.5q0 56 -17 93.5t-45.5 60t-65.5 31.5t-78 9zM1132 1243l180 182l184 -184
l-182 -182z" />
    <glyph glyph-name="uniFEBE" unicode="&#x636;" horiz-adv-x="2836" arabic-form="final" 
d="M722 -552q-80 0 -155 19t-140.5 54t-121 86t-96.5 115q-48 79 -73.5 167.5t-25.5 194.5q0 66 8 129.5t26 131t46.5 141t69.5 158.5l225 -107q-35 -72 -59 -133t-39 -115t-22 -104t-7 -101q0 -71 15.5 -125.5t48.5 -105.5q46 -75 124.5 -115.5t175.5 -40.5h219
q106 0 172 20t103 58t50 93t13 124v684h248v-319q0 -17 5.5 -33t14.5 -29t20 -21.5t22 -11.5q74 121 150 230t160 190.5t180 129.5t210 48q78 0 154 -23t136 -76.5t96.5 -139.5t36.5 -212q0 -51 -7.5 -94.5t-21.5 -80.5h186v-249h-1162q-18 0 -41.5 1t-47.5 4t-48 9.5
t-43 17.5v-25q0 -278 -147 -411t-439 -133h-219zM2280 234q33 0 72.5 8.5t73.5 28.5t57 54t23 84q0 56 -18 94.5t-48.5 62.5t-69.5 34.5t-81 10.5q-59 0 -122 -31.5t-125 -83.5t-119.5 -120.5t-103.5 -141.5h461zM2100 1243l180 182l184 -184l-182 -182z" />
    <glyph glyph-name="uni0638" unicode="&#x638;" horiz-adv-x="1532" arabic-form="isolated" 
d="M97 -15v249h199l84 129v1064h248v-759q40 41 84 75.5t92 60t100 40t108 14.5q79 0 155 -23t136 -76t96.5 -139t36.5 -212q0 -120 -40 -201.5t-102.5 -130.5t-140 -70t-152.5 -21h-904zM1012 610q-58 0 -120 -31t-123 -83t-117 -120t-102 -142h451q5 0 24 1t45 5.5t55 15
t53 30t40 49t16 73.5q0 56 -19 94.5t-50 62.5t-71 34.5t-82 10.5zM859 1287l180 182l184 -184l-182 -182z" />
    <glyph glyph-name="uniFEC7" unicode="&#x638;" horiz-adv-x="1395" arabic-form="initial" 
d="M-35 -15v249h199l84 129v1064h248v-759q40 41 84 75.5t92 60t100 40t108 14.5q79 0 155 -23t136 -76t96.5 -139t36.5 -212q0 -120 -40 -201.5t-102.5 -130.5t-140 -70t-152.5 -21h-904zM880 610q-58 0 -120 -31t-123 -83t-117 -120t-102 -142h451q5 0 24 1t45 5.5t55 15
t53 30t40 49t16 73.5q0 56 -19 94.5t-50 62.5t-71 34.5t-82 10.5zM737 1282l180 182l184 -184l-182 -182z" />
    <glyph glyph-name="uniFEC8" unicode="&#x638;" horiz-adv-x="1464" arabic-form="medial" 
d="M-38 -15v249h199l84 129v1064h248v-759q40 41 84 75.5t92 60t100 40t108 14.5q79 0 155 -23t136 -76t96.5 -139t36.5 -212q0 -51 -7.5 -94t-21.5 -80h216v-249h-607h-919zM877 610q-58 0 -120 -31t-123 -83t-117 -120t-102 -142h462q12 0 33.5 2t46 8.5t50 18t46 31
t33.5 47.5t13 67q0 56 -19 94.5t-50 62.5t-71 34.5t-82 10.5zM758 1283l180 182l184 -184l-182 -182z" />
    <glyph glyph-name="uniFEC6" unicode="&#x638;" horiz-adv-x="1596" arabic-form="final" 
d="M127 -15v249h199l84 129v1064h248v-759q40 41 84 75.5t92 60t100 40t108 14.5q79 0 155 -23t136 -76t96.5 -139t36.5 -212q0 -51 -7.5 -94t-21.5 -80h191v-249h-582h-919zM1042 610q-58 0 -120 -31t-123 -83t-117 -120t-102 -142h462q12 0 33.5 2t46 8.5t50 18t46 31
t33.5 47.5t13 67q0 56 -19 94.5t-50 62.5t-71 34.5t-82 10.5zM879 1284l180 182l184 -184l-182 -182z" />
    <glyph glyph-name="uni063A" unicode="&#x63a;" horiz-adv-x="1368" arabic-form="isolated" 
d="M1233 -553h-480q-83 0 -165.5 15t-157.5 45.5t-139 78t-111.5 112t-74 146.5t-26.5 183q0 128 51 235.5t145 188.5q51 43 107.5 74t119.5 49q-31 38 -49.5 75.5t-28.5 72t-13 64t-3 52.5q0 88 35.5 165t95 134.5t138.5 90.5t166 33q56 0 103.5 -12t92 -33t88 -48.5
t90.5 -58.5l-111 -201q-63 36 -102.5 56.5t-66.5 31t-48 13.5t-46 3q-34 0 -69 -12t-63.5 -34.5t-46.5 -54.5t-18 -73q0 -25 19 -63.5t68 -80.5l-1 1q61 -48 162.5 -74t235.5 -26h112v-249h-590q-49 0 -108 -18.5t-110 -57.5t-85.5 -99t-34.5 -144q0 -80 27.5 -136
t70.5 -92.5t95 -57t100.5 -31t88 -12.5t57.5 -2h480v-249zM651 1590l180 182l184 -184l-182 -182z" />
    <glyph glyph-name="uniFECF" unicode="&#x63a;" horiz-adv-x="1187" arabic-form="initial" 
d="M872 -15h-901v249h284q-25 35 -39 69t-21 64.5t-8.5 58t-1.5 48.5q0 89 34 165t92.5 132t136 88t164.5 32q50 0 92 -8.5t85.5 -26t93 -45t112.5 -64.5l-125 -213q-26 17 -58 36t-66.5 35t-69 26.5t-64.5 10.5q-33 0 -67.5 -11t-62.5 -32t-46 -52.5t-18 -72.5
q0 -12 3.5 -28t12.5 -35.5t25.5 -40.5t42.5 -43h-1q60 -49 161.5 -71t237.5 -22h110v-249h-138zM435 1264l180 182l184 -184l-182 -182z" />
    <glyph glyph-name="uniFED0" unicode="&#x63a;" horiz-adv-x="1262" arabic-form="medial" 
d="M1288 -15h-378q-19 0 -42 4t-53.5 16t-69.5 35t-90 61q-60 -29 -136.5 -50.5t-163.5 -36t-182.5 -22t-193.5 -7.5v249q67 0 132 3t123.5 8.5t109 14t90.5 19.5q-85 75 -153.5 132.5t-107.5 97.5l-28 28v54q0 21 2 46.5t9.5 53t20.5 55t36 53.5q43 48 105.5 71.5
t153.5 23.5h350q45 0 88.5 -12t80.5 -34t66.5 -53.5t46.5 -70.5q11 -26 17.5 -58t6.5 -58q0 -24 -10 -50t-38 -64.5t-78.5 -95t-130.5 -142.5q9 -5 23 -8.5t28 -6t25.5 -4.5t14.5 -3h1h325v-249zM452 662q-30 0 -47.5 -5t-25.5 -9l286 -288q33 28 71.5 62.5t72 70t56 69
t24.5 59.5q1 15 -14 28t-38 13h-385zM489 1272l180 182l184 -184l-182 -182z" />
    <glyph glyph-name="uniFECE" unicode="&#x63a;" horiz-adv-x="1380" arabic-form="final" 
d="M1236 -759h-494q-143 0 -266 30t-213 95.5t-141.5 168t-51.5 246.5q0 103 47.5 194.5t144.5 179.5q59 53 123.5 98t134.5 87l-270 264q0 22 4.5 51.5t14 61t25 62t37.5 56.5q45 48 109 71.5t157 23.5h329q45 0 86.5 -12t77 -34t64 -53t46.5 -68q12 -27 18 -56t6 -57
q0 -56 -26 -104t-68 -89.5t-94.5 -78.5t-104.5 -72q48 -38 71.5 -53.5t30.5 -18.5h374v-249h-382q-32 0 -61 6.5t-63.5 25.5t-80 54t-111.5 91q-75 -45 -146 -90.5t-126.5 -92.5t-89 -96.5t-33.5 -101.5q0 -67 21 -114.5t55.5 -80t79 -51.5t92 -29t94.5 -13t86 -3h494v-249z
M576 700q-38 0 -57.5 -1t-23.5 -7q17 -19 41.5 -46.5t55 -60.5t66.5 -70.5t76 -76.5q76 54 140.5 98t115.5 94q11 11 14.5 25.5t0.5 22.5q-5 11 -18 16.5t-30 5.5h-381zM534 1296l180 182l184 -184l-182 -182z" />
    <glyph glyph-name="uniFB90" unicode="&#x6a9;" horiz-adv-x="1153" arabic-form="initial" 
d="M-17 -15v249h585q16 0 44 1.5t55 8t46.5 19t19.5 34.5q0 43 -32.5 104t-83.5 130t-114.5 139.5t-126 133t-117.5 110.5t-88 72l20 226l870 398l91 -218l-732 -323q38 -37 85.5 -84t97.5 -99.5t99.5 -109t93 -113t77.5 -110.5t53 -102q17 -42 24 -81t7 -71q0 -40 -7.5 -70
t-16.5 -51q-12 -27 -37 -61t-69.5 -63t-112 -49t-163.5 -20h-568z" />
    <glyph glyph-name="uniFB91" unicode="&#x6a9;" horiz-adv-x="1248" arabic-form="medial" 
d="M1262 -15h-30q-88 0 -153 16.5t-117 46t-95.5 71t-88.5 92.5q-24 -63 -76.5 -107t-120 -71t-144.5 -38.5t-152 -9.5h-312v249h326q66 0 122 7.5t97 25t65 46.5t27 71q0 43 -36.5 109t-95 147t-132 171.5t-148.5 183.5l42 203l868 421l102 -228l-759 -351
q94 -126 187.5 -250.5t187.5 -250.5q55 -73 101 -129.5t92.5 -95.5t97.5 -59.5t115 -20.5h30v-249z" />
    <glyph glyph-name="uni0641" unicode="&#x641;" horiz-adv-x="2104" arabic-form="isolated" 
d="M462 -15q-74 0 -140 25t-117 73q-20 19 -41.5 46t-38.5 64t-28 83.5t-11 104.5q0 50 10 108.5t22.5 110.5t23.5 90t14 47l119 -38l118 -37q-9 -27 -19 -64.5t-19 -77t-15 -76.5t-6 -64q0 -48 13.5 -77t33 -44.5t42.5 -20t41 -4.5h1005q84 0 141 9.5t92.5 24.5t53.5 33.5
t26 37.5q-133 -18 -239 -3.5t-180 60t-113.5 121.5t-39.5 182q0 84 31 158.5t86.5 130t131 87t165.5 27.5q81 -3 142 -28t106.5 -66t76 -95.5t49 -117.5t27 -131.5t9.5 -137.5l-4 -74q-8 -140 -56 -230.5t-124.5 -143t-174.5 -73t-206 -20.5h-1007zM1622 853q-36 3 -70 -5.5
t-59.5 -28.5t-41 -49.5t-15.5 -68.5q0 -87 91.5 -125.5t263.5 -10.5q-2 43 -7 91t-22 90t-50 71.5t-90 35.5zM1422 1470l180 182l184 -184l-182 -182z" />
    <glyph glyph-name="uniFED3" unicode="&#x641;" horiz-adv-x="1023" arabic-form="initial" 
d="M-27 -15v249h408q84 0 141 9.5t92.5 24.5t53.5 33.5t26 37.5q-133 -18 -239 -3.5t-180 60t-113.5 121.5t-39.5 182q0 84 31 158.5t86.5 130t131 87t165.5 27.5q80 -3 141.5 -28t107 -66t76 -95.5t49 -117.5t27 -131.5t9.5 -137.5l-4 -74q-8 -140 -56 -230.5t-124.5 -143
t-174.5 -73t-206 -20.5h-408zM534 853q-36 3 -70 -5.5t-59.5 -28.5t-41 -49.5t-15.5 -68.5q0 -87 91.5 -125.5t263.5 -10.5q-2 43 -7 91t-22 90t-50 71.5t-90 35.5zM323 1488l180 182l184 -184l-182 -182z" />
    <glyph glyph-name="uniFED4" unicode="&#x641;" horiz-adv-x="1080" arabic-form="medial" 
d="M554 867q93 0 166.5 -34t124.5 -89.5t78 -126.5t27 -146q0 -42 -5 -73.5t-15.5 -58t-25.5 -51t-35 -52.5q18 -1 39.5 -1.5t43 -0.5h41.5h35h72v-249h-72q-64 0 -130.5 4t-130 11.5t-120.5 18t-102 23.5q-91 -26 -204 -41.5t-258 -15.5h-105v249h105q27 0 43 -0.5t29 -0.5
t27 0.5t35 2.5q-42 56 -64 111t-22 124q0 79 33 151t90.5 126.5t134.5 86.5t165 32zM367 469q0 -71 50 -121t130 -81q38 15 70 34t55.5 43.5t37 56t13.5 70.5q0 24 -12 50t-34 47.5t-53 35.5t-70 14q-44 0 -79 -12.5t-59 -33t-36.5 -47.5t-12.5 -56zM364 1290l180 182
l184 -184l-182 -182z" />
    <glyph glyph-name="uniFED2" unicode="&#x641;" horiz-adv-x="2124" arabic-form="final" 
d="M464 240q84 -10 174.5 -16.5t178.5 -10t170 -4t149 0.5t115.5 3.5t69.5 5.5q-50 50 -80 115.5t-30 146.5q0 79 33 150t90.5 124t134.5 84t165 31q93 0 166.5 -32.5t124.5 -87t78 -124.5t27 -145q0 -42 -5 -75t-15.5 -61.5t-25.5 -54.5t-35 -54q26 -2 53.5 -2h56.5h84
v-249h-84q-127 0 -235 11t-198 36q-34 -12 -96.5 -23.5t-148.5 -20.5t-191.5 -14.5t-223.5 -6.5t-246 4.5t-258 19.5q-74 8 -140 29t-117 69q-20 19 -41.5 46t-38.5 64t-28 83.5t-11 104.5q0 50 10 107.5t22.5 108.5t23.5 88t14 46l119 -38l118 -37q-9 -27 -19 -63.5
t-19 -75t-15 -74.5t-6 -63q0 -48 13.5 -76t33 -43t42.5 -20t41 -7zM1452 473q0 -38 12 -67t35 -52.5t55 -41.5t73 -33q38 15 68.5 32t52.5 40t33.5 52.5t11.5 70.5q0 24 -13 50t-35 47.5t-51 35.5t-60 14q-36 0 -69 -12.5t-58 -33t-40 -47.5t-15 -55zM1462 1267l180 182
l184 -184l-182 -182z" />
    <glyph glyph-name="uniFB6A" unicode="&#x6a4;" horiz-adv-x="2097" arabic-form="isolated" 
d="M462 -15q-74 0 -140 25t-117 73q-20 19 -41.5 46t-38.5 64t-28 83.5t-11 104.5q0 50 10 108.5t22.5 110.5t23.5 90t14 47l119 -38l118 -37q-9 -27 -19 -64.5t-19 -77t-15 -76.5t-6 -64q0 -48 13.5 -77t33 -44.5t42.5 -20t41 -4.5h1005q84 0 141 9.5t92.5 24.5t53.5 33.5
t26 37.5q-133 -18 -239 -3.5t-180 60t-113.5 121.5t-39.5 182q0 84 31 158.5t86.5 130t131 87t165.5 27.5q81 -3 142 -28t106.5 -66t76 -95.5t49 -117.5t27 -131.5t9.5 -137.5l-4 -74q-8 -140 -56 -230.5t-124.5 -143t-174.5 -73t-206 -20.5h-1007zM1622 853q-36 3 -70 -5.5
t-59.5 -28.5t-41 -49.5t-15.5 -68.5q0 -87 91.5 -125.5t263.5 -10.5q-2 43 -7 91t-22 90t-50 71.5t-90 35.5zM1580 1432l-170 -172l-170 170l170 172zM2009 1436l-168 -170l-175 168l172 172zM1788 1718l-160 -160l-158 158l160 160z" />
    <glyph glyph-name="uniFB6C" unicode="&#x6a4;" horiz-adv-x="997" arabic-form="initial" 
d="M-36 -15v249h408q84 0 141 9.5t92.5 24.5t53.5 33.5t26 37.5q-133 -18 -239 -3.5t-180 60t-113.5 121.5t-39.5 182q0 84 31 158.5t86.5 130t131 87t165.5 27.5q80 -3 141.5 -28t107 -66t76 -95.5t49 -117.5t27 -131.5t9.5 -137.5l-4 -74q-8 -140 -56 -230.5t-124.5 -143
t-174.5 -73t-206 -20.5h-408zM525 853q-36 3 -70 -5.5t-59.5 -28.5t-41 -49.5t-15.5 -68.5q0 -87 91.5 -125.5t263.5 -10.5q-2 43 -7 91t-22 90t-50 71.5t-90 35.5zM473 1381l-170 -172l-170 170l170 172zM902 1385l-168 -170l-175 168l172 172zM681 1667l-160 -160
l-158 158l160 160z" />
    <glyph glyph-name="uniFB6D" unicode="&#x6a4;" horiz-adv-x="1086" arabic-form="medial" 
d="M554 867q93 0 166.5 -34t124.5 -89.5t78 -126.5t27 -146q0 -42 -5 -73.5t-15.5 -58t-25.5 -51t-35 -52.5q18 -1 39.5 -1.5t43 -0.5h41.5h35h72v-249h-72q-64 0 -130.5 4t-130 11.5t-120.5 18t-102 23.5q-91 -26 -204 -41.5t-258 -15.5h-105v249h105q27 0 43 -0.5t29 -0.5
t27 0.5t35 2.5q-42 56 -64 111t-22 124q0 79 33 151t90.5 126.5t134.5 86.5t165 32zM367 469q0 -71 50 -121t130 -81q38 15 70 34t55.5 43.5t37 56t13.5 70.5q0 24 -12 50t-34 47.5t-53 35.5t-70 14q-44 0 -79 -12.5t-59 -33t-36.5 -47.5t-12.5 -56zM490 1264l-170 -172
l-170 170l170 172zM919 1268l-168 -170l-175 168l172 172zM698 1550l-160 -160l-158 158l160 160z" />
    <glyph glyph-name="uniFB6B" unicode="&#x6a4;" horiz-adv-x="2120" arabic-form="final" 
d="M464 240q84 -10 174.5 -16.5t178.5 -10t170 -4t149 0.5t115.5 3.5t69.5 5.5q-50 50 -80 115.5t-30 146.5q0 79 33 150t90.5 124t134.5 84t165 31q93 0 166.5 -32.5t124.5 -87t78 -124.5t27 -145q0 -42 -5 -75t-15.5 -61.5t-25.5 -54.5t-35 -54q26 -2 53.5 -2h56.5h84
v-249h-84q-127 0 -235 11t-198 36q-34 -12 -96.5 -23.5t-148.5 -20.5t-191.5 -14.5t-223.5 -6.5t-246 4.5t-258 19.5q-74 8 -140 29t-117 69q-20 19 -41.5 46t-38.5 64t-28 83.5t-11 104.5q0 50 10 107.5t22.5 108.5t23.5 88t14 46l119 -38l118 -37q-9 -27 -19 -63.5
t-19 -75t-15 -74.5t-6 -63q0 -48 13.5 -76t33 -43t42.5 -20t41 -7zM1452 473q0 -38 12 -67t35 -52.5t55 -41.5t73 -33q38 15 68.5 32t52.5 40t33.5 52.5t11.5 70.5q0 24 -13 50t-35 47.5t-51 35.5t-60 14q-36 0 -69 -12.5t-58 -33t-40 -47.5t-15 -55zM1596 1247l-170 -172
l-170 170l170 172zM2025 1251l-168 -170l-175 168l172 172zM1804 1533l-160 -160l-158 158l160 160z" />
    <glyph glyph-name="uniFED7" unicode="&#x642;" horiz-adv-x="1008" arabic-form="initial" 
d="M-36 -15v249h408q84 0 141 9.5t92.5 24.5t53.5 33.5t26 37.5q-133 -18 -239 -3.5t-180 60t-113.5 121.5t-39.5 182q0 84 31 158.5t86.5 130t131 87t165.5 27.5q80 -3 141.5 -28t107 -66t76 -95.5t49 -117.5t27 -131.5t9.5 -137.5l-4 -74q-8 -140 -56 -230.5t-124.5 -143
t-174.5 -73t-206 -20.5h-408zM525 853q-36 3 -70 -5.5t-59.5 -28.5t-41 -49.5t-15.5 -68.5q0 -87 91.5 -125.5t263.5 -10.5q-2 43 -7 91t-22 90t-50 71.5t-90 35.5zM705 1264l-168 170l166 172l172 -172zM286 1263l-168 170l165 172l172 -172z" />
    <glyph glyph-name="uniFED8" unicode="&#x642;" horiz-adv-x="1086" arabic-form="medial" 
d="M554 867q93 0 166.5 -34t124.5 -89.5t78 -126.5t27 -146q0 -42 -5 -73.5t-15.5 -58t-25.5 -51t-35 -52.5q18 -1 39.5 -1.5t43 -0.5h41.5h35h72v-249h-72q-64 0 -130.5 4t-130 11.5t-120.5 18t-102 23.5q-91 -26 -204 -41.5t-258 -15.5h-105v249h105q27 0 43 -0.5t29 -0.5
t27 0.5t35 2.5q-42 56 -64 111t-22 124q0 79 33 151t90.5 126.5t134.5 86.5t165 32zM367 469q0 -71 50 -121t130 -81q38 15 70 34t55.5 43.5t37 56t13.5 70.5q0 24 -12 50t-34 47.5t-53 35.5t-70 14q-44 0 -79 -12.5t-59 -33t-36.5 -47.5t-12.5 -56zM738 1098l-168 170
l166 172l172 -172zM319 1097l-168 170l165 172l172 -172z" />
    <glyph glyph-name="uni0642" unicode="&#x642;" horiz-adv-x="1598" arabic-form="isolated" 
d="M709 -552q-80 0 -154.5 19t-140.5 54t-121 86t-95 115q-48 78 -74.5 165.5t-26.5 192.5q0 65 6.5 129t23 132t44.5 142t70 159l223 -106q-36 -73 -59 -134t-36.5 -115.5t-18.5 -105t-5 -102.5q0 -70 16 -122.5t48 -103.5q46 -75 124.5 -115.5t175.5 -40.5h75
q110 0 198 10t150 41t95.5 87.5t33.5 149.5h-143q-50 0 -102 8.5t-100 28t-90.5 51.5t-74 78.5t-50 108.5t-18.5 142q0 93 27.5 177t81.5 147.5t134 101.5t185 38q106 0 181.5 -39.5t123.5 -107t70.5 -156.5t22.5 -188v-360q0 -112 -23.5 -197.5t-68 -148.5t-108 -105.5
t-143 -68t-173.5 -36.5t-199 -11h-85zM1111 629q-85 0 -133.5 -57t-48.5 -170q0 -45 16.5 -76.5t43.5 -52t60.5 -30t68.5 -9.5h143v141q0 93 -17.5 144t-41.5 75.5t-49.5 29.5t-41.5 5zM1290 1064l-168 170l166 172l172 -172zM871 1063l-168 170l165 172l172 -172z" />
    <glyph glyph-name="uniFED6" unicode="&#x642;" horiz-adv-x="1655" arabic-form="final" 
d="M709 -552q-89 0 -169.5 22.5t-148.5 64t-122.5 99t-92.5 128t-58.5 151t-20.5 167.5q0 65 6.5 129t23 132t44.5 142t70 159l223 -106q-36 -73 -59 -134t-36.5 -115.5t-18.5 -105t-5 -102.5q0 -80 25.5 -149.5t73 -121.5t114.5 -81.5t151 -29.5h75q110 0 198 10t150 41
t95.5 87.5t33.5 149.5h-143q-50 0 -102 8.5t-100 28t-90.5 51.5t-74 78.5t-50 108.5t-18.5 142q0 93 27.5 177t81.5 147.5t134 101.5t185 38q106 0 181.5 -39.5t123.5 -107t70.5 -156.5t22.5 -188v-141h169v-249h-170q-5 -158 -59.5 -262t-148.5 -165t-223 -85.5t-283 -24.5
h-85zM1111 629q-85 0 -133.5 -57t-48.5 -170q0 -45 16.5 -76.5t43.5 -52t60.5 -30t68.5 -9.5h143v141q0 93 -17.5 144t-41.5 75.5t-49.5 29.5t-41.5 5zM1288 1061l-168 170l166 172l172 -172zM869 1060l-168 170l165 172l172 -172z" />
    <glyph glyph-name="uniFEE7" unicode="&#x646;" horiz-adv-x="685" arabic-form="initial" 
d="M552 825q2 -7 8.5 -33t14.5 -63.5t16.5 -83.5t16 -92.5t12 -90.5t4.5 -77q0 -103 -34 -178.5t-89 -124.5t-123.5 -73t-137.5 -24h-266v249h273q12 0 34.5 3.5t45 18.5t39.5 45.5t17 83.5q0 22 -3.5 53.5t-9.5 67.5t-13.5 73.5t-14.5 71t-14 61t-11 42.5zM128 1227
l180 182l184 -184l-182 -182z" />
    <glyph glyph-name="uniFEE8" unicode="&#x646;" horiz-adv-x="788" arabic-form="medial" 
d="M801 234v-249h-63q-85 0 -155 23t-118 68q-56 -47 -132.5 -69t-174.5 -22h-177v249h177q61 0 97.5 11.5t55 28.5t24 38t5.5 41v324h248v-317q0 -45 20 -70.5t45.5 -38t50.5 -15t34 -2.5h63zM225 1137l180 182l184 -184l-182 -182z" />
    <glyph glyph-name="uni0646" unicode="&#x646;" horiz-adv-x="1576" arabic-form="isolated" 
d="M700 -553q-80 0 -154 19t-139.5 54t-121 86t-96.5 115q-48 78 -74 173.5t-26 199.5q0 66 8 128t25.5 127t46 136t69.5 156l225 -107q-36 -73 -60 -131t-39 -109.5t-21.5 -99t-6.5 -99.5q0 -68 17 -130.5t47 -112.5q48 -71 126.5 -113.5t173.5 -42.5h203q106 0 172.5 22
t103.5 62.5t50.5 97.5t13.5 126v673h249v-673q0 -279 -147.5 -418t-441.5 -139h-203zM680 755l180 182l184 -184l-182 -182z" />
    <glyph glyph-name="uniFEE6" unicode="&#x646;" horiz-adv-x="1704" arabic-form="final" 
d="M700 -553q-80 0 -154 19t-139.5 54t-121 86t-96.5 115q-48 78 -74 173.5t-26 199.5q0 66 8 128t25.5 127t46 136t69.5 156l225 -107q-36 -73 -60 -131t-39 -109.5t-21.5 -99t-6.5 -99.5q0 -68 17 -130.5t47 -112.5q48 -71 126.5 -113.5t173.5 -42.5h203q106 0 172.5 22
t103.5 62.5t50.5 97.5t13.5 126v673h249v-312q2 -66 43.5 -98.5t107.5 -32.5h80v-249h-80q-38 0 -77.5 7t-73.5 20v-8q0 -279 -147.5 -418t-441.5 -139h-203zM679 751l180 182l184 -184l-182 -182z" />
    <glyph glyph-name="uni06C0" unicode="&#x6c0;" horiz-adv-x="1023" arabic-form="isolated" 
d="M519 -15q-96 0 -176.5 27.5t-138.5 78t-90.5 120.5t-32.5 155q0 84 21 150.5t56.5 124t83 110t100.5 108.5l-63 71l184 167q11 -13 26 -29t30.5 -33t30.5 -33t27 -29q72 -77 140.5 -149.5t122 -145t86 -146t31.5 -152.5q-1 -88 -35 -157.5t-99 -128.5q-60 -51 -136.5 -80
t-167.5 -29zM507 706q-40 -45 -75.5 -85t-61 -80t-39 -82.5t-10.5 -92.5q3 -37 22 -63.5t47 -44t62 -25.5t67 -8q38 0 73 11t61.5 31t42.5 49t16 64q0 43 -17 84t-45.5 81t-65.5 80t-77 81zM180 1168v149l124 40q-30 31 -49.5 70t-19.5 83q0 34 12 67t33 61t49.5 49t60.5 30
q17 5 34.5 7.5t34.5 2.5q36 0 63.5 -8.5t51.5 -17.5l17 -8l-30 -124q-14 3 -31 8t-34 8t-33.5 3.5t-29.5 -3.5q-14 -5 -27.5 -14t-22.5 -20.5t-12.5 -26.5t2.5 -32q8 -26 37.5 -44t82.5 -18q10 0 21.5 1t30.5 5.5t48.5 13t75.5 23.5l8 -141z" />
    <glyph glyph-name="uniFBA5" unicode="&#x6c0;" horiz-adv-x="1268" arabic-form="final" 
d="M1278 -15h-28q-78 0 -150 14.5t-133 44t-108.5 75.5t-77.5 109q-24 -37 -61.5 -65.5t-81.5 -47.5t-91 -28.5t-90 -9.5q-80 0 -151.5 28t-125.5 79.5t-85.5 125.5t-31.5 167q0 108 41 190t109 143.5t156.5 105t183.5 75.5l-24 96l244 57l182 -708q16 -65 52 -104.5
t78.5 -61t87 -29t77.5 -7.5h28v-249zM662 482q6 28 4 56.5t-9 60.5t-18.5 69t-24.5 83q-160 -51 -242.5 -115.5t-82.5 -159.5q0 -37 16.5 -66t43 -48t59 -27.5t65.5 -3.5q75 11 125 44.5t64 106.5zM276 1223v149l124 40q-30 31 -49.5 70t-19.5 83q0 34 12 67t33 61t49.5 49
t60.5 30q17 5 34.5 7.5t34.5 2.5q36 0 63.5 -8.5t51.5 -17.5l17 -8l-30 -124q-14 3 -31 8t-34 8t-33.5 3.5t-29.5 -3.5q-14 -5 -27.5 -14t-22.5 -20.5t-12.5 -26.5t2.5 -32q8 -26 37.5 -44t82.5 -18q10 0 21.5 1t30.5 5.5t48.5 13t75.5 23.5l8 -141z" />
    <glyph glyph-name="uni0624" unicode="&#x624;" horiz-adv-x="973" arabic-form="isolated" 
d="M178 -303q80 0 142.5 5.5t111 16t85 27t63.5 39.5q42 34 63.5 79t25.5 121h-154q-50 0 -102 8t-100 27.5t-90.5 50.5t-74 76.5t-50 107.5t-18.5 142q0 69 12 122.5t30.5 94.5t41.5 71.5t44 53.5q60 60 136 92.5t164 32.5q109 0 186.5 -37.5t127 -103.5t72.5 -156.5
t23 -196.5v-355q0 -149 -45 -250.5t-137 -174.5q-46 -36 -100 -62.5t-121 -44.5t-149.5 -26.5t-186.5 -8.5v249zM508 615q-85 0 -135 -53t-50 -165q0 -44 17.5 -75t45 -50.5t61.5 -28.5t68 -9h154v136q0 57 -9 97.5t-23.5 67.5t-33 43t-36 24t-33.5 10.5t-26 2.5zM164 996
v149l124 40q-30 31 -49.5 70t-19.5 83q0 34 12 67t33 61t49.5 49t60.5 30q17 5 34.5 7.5t34.5 2.5q36 0 63.5 -8.5t51.5 -17.5l17 -8l-30 -124q-14 3 -31 8t-34 8t-33.5 3.5t-29.5 -3.5q-14 -5 -27.5 -14t-22.5 -20.5t-12.5 -26.5t2.5 -32q8 -26 37.5 -44t82.5 -18
q10 0 21.5 1t30.5 5.5t48.5 13t75.5 23.5l8 -141z" />
    <glyph glyph-name="uniFE86" unicode="&#x624;" horiz-adv-x="1064" arabic-form="final" 
d="M178 -303q80 0 142.5 5.5t111 16t85 27t63.5 39.5q42 34 63.5 79t25.5 121h-154q-50 0 -102 8t-100 27.5t-90.5 50.5t-74 76.5t-50 107.5t-18.5 142q0 69 12 122.5t30.5 94.5t41.5 71.5t44 53.5q60 60 136 92.5t164 32.5q109 0 186.5 -37.5t127 -103.5t72.5 -156.5
t23 -196.5v-136h170v-249h-171q-4 -137 -48.5 -231t-132.5 -164q-46 -36 -100 -62.5t-121 -44.5t-149.5 -26.5t-186.5 -8.5v249zM508 615q-85 0 -135 -53t-50 -165q0 -44 17.5 -75t45 -50.5t61.5 -28.5t68 -9h154v136q0 57 -9 97.5t-23.5 67.5t-33 43t-36 24t-33.5 10.5
t-26 2.5zM163 994v149l124 40q-30 31 -49.5 70t-19.5 83q0 34 12 67t33 61t49.5 49t60.5 30q17 5 34.5 7.5t34.5 2.5q36 0 63.5 -8.5t51.5 -17.5l17 -8l-30 -124q-14 3 -31 8t-34 8t-33.5 3.5t-29.5 -3.5q-14 -5 -27.5 -14t-22.5 -20.5t-12.5 -26.5t2.5 -32q8 -26 37.5 -44
t82.5 -18q10 0 21.5 1t30.5 5.5t48.5 13t75.5 23.5l8 -141z" />
    <glyph glyph-name="uniFBE8" unicode="&#x649;" horiz-adv-x="688" arabic-form="initial" 
d="M552 825q2 -7 8.5 -33t14.5 -63.5t16.5 -83.5t16 -92.5t12 -90.5t4.5 -77q0 -103 -34 -178.5t-89 -124.5t-123.5 -73t-137.5 -24h-266v249h273q12 0 34.5 3.5t45 18.5t39.5 45.5t17 83.5q0 22 -3.5 53.5t-9.5 67.5t-13.5 73.5t-14.5 71t-14 61t-11 42.5z" />
    <glyph glyph-name="uniFBE9" unicode="&#x649;" horiz-adv-x="788" arabic-form="medial" 
d="M801 234v-249h-63q-85 0 -155 23t-118 68q-56 -47 -132.5 -69t-174.5 -22h-177v249h177q61 0 97.5 11.5t55 28.5t24 38t5.5 41v324h248v-317q0 -45 20 -70.5t45.5 -38t50.5 -15t34 -2.5h63z" />
    <glyph glyph-name="uniFEF3" unicode="&#x64a;" horiz-adv-x="867" arabic-form="initial" 
d="M728 825q2 -7 8.5 -33t14.5 -63.5t16.5 -83.5t16 -92.5t12 -90.5t4.5 -77q0 -103 -34 -178.5t-89 -124.5t-123.5 -73t-137.5 -24h-431v249h438q12 0 34.5 3.5t45 18.5t39.5 45.5t17 83.5q0 22 -3.5 53.5t-9.5 67.5t-13.5 73.5t-14.5 71t-14 61t-11 42.5zM608 -566
l-168 170l166 172l172 -172zM189 -567l-168 170l165 172l172 -172z" />
    <glyph glyph-name="uniFEF4" unicode="&#x64a;" horiz-adv-x="1049" arabic-form="medial" 
d="M1061 234v-249h-148q-85 0 -155 23t-118 68q-56 -47 -132.5 -69t-174.5 -22h-346v249h346q61 0 97.5 11.5t55 28.5t24 38t5.5 41v324h248v-317q0 -45 20 -70.5t45.5 -38t50.5 -15t34 -2.5h148zM666 -570l-168 170l166 172l172 -172zM247 -571l-168 170l165 172l172 -172z
" />
    <glyph glyph-name="uni064A" unicode="&#x64a;" horiz-adv-x="1695" arabic-form="isolated" 
d="M940 -316q91 0 157.5 11.5t109.5 40t64.5 76.5t22.5 121q-14 4 -44.5 12t-72 19t-90 24t-98.5 26.5t-98.5 26t-89.5 22.5q-26 66 -38.5 128.5t-12.5 122.5q0 114 42 215.5t120 177t190.5 119.5t253.5 44q50 0 99.5 -8t112.5 -25l-63 -240q-47 14 -82 20.5t-72 6.5
q-75 0 -139.5 -21.5t-112 -62.5t-75 -100t-27.5 -134v-12.5t1 -12.5l351 -90q96 -24 139 -81.5t43 -142.5q0 -139 -32 -239.5t-102.5 -166t-183 -97t-273.5 -31.5h-211q-82 0 -157 19t-141 54.5t-121 86t-97 114.5q-99 160 -99 375q0 66 9 131t28.5 133.5t49.5 143.5t72 162
l222 -107q-35 -74 -59.5 -135.5t-41 -116t-24 -105t-7.5 -101.5q0 -145 64 -246q46 -76 125.5 -116.5t176.5 -40.5h211v0zM1050 -988l-168 170l166 172l172 -172zM631 -989l-168 170l165 172l172 -172z" />
    <glyph glyph-name="uniFEF2" unicode="&#x64a;" horiz-adv-x="1778" arabic-form="final" 
d="M1533 -15q23 -33 38 -72.5t15 -71.5q0 -93 -51 -168.5t-138 -128.5t-202.5 -82t-245.5 -29h-256q-82 0 -157 19t-141 54.5t-121 86t-97 114.5q-99 160 -99 375q0 66 7.5 131t25 133.5t46 143t70.5 161.5l222 -107q-35 -74 -58 -135t-37.5 -115.5t-20.5 -105t-6 -101.5
q0 -145 64 -246q46 -76 125.5 -116.5t176.5 -40.5h256q75 0 142 14t118 39t83 57.5t37 70.5q-29 31 -73.5 52.5t-101 36t-122 22t-136.5 10.5l7 248h907v-249h-277zM1064 -1022l-168 170l166 172l172 -172zM645 -1023l-168 170l165 172l172 -172z" />
    <glyph glyph-name="uni06CC" unicode="&#x6cc;" horiz-adv-x="1689" arabic-form="isolated" 
d="M940 -316q91 0 157.5 11.5t109.5 40t64.5 76.5t22.5 121q-14 4 -44.5 12t-72 19t-90 24t-98.5 26.5t-98.5 26t-89.5 22.5q-26 66 -38.5 128.5t-12.5 122.5q0 114 42 215.5t120 177t190.5 119.5t253.5 44q50 0 99.5 -8t112.5 -25l-63 -240q-47 14 -82 20.5t-72 6.5
q-75 0 -139.5 -21.5t-112 -62.5t-75 -100t-27.5 -134v-12.5t1 -12.5l351 -90q96 -24 139 -81.5t43 -142.5q0 -139 -32 -239.5t-102.5 -166t-183 -97t-273.5 -31.5h-211q-82 0 -157 19t-141 54.5t-121 86t-97 114.5q-99 160 -99 375q0 66 9 131t28.5 133.5t49.5 143.5t72 162
l222 -107q-35 -74 -59.5 -135.5t-41 -116t-24 -105t-7.5 -101.5q0 -145 64 -246q46 -76 125.5 -116.5t176.5 -40.5h211v0z" />
    <glyph glyph-name="uniFBFE" unicode="&#x6cc;" horiz-adv-x="873" arabic-form="initial" 
d="M728 825q2 -7 8.5 -33t14.5 -63.5t16.5 -83.5t16 -92.5t12 -90.5t4.5 -77q0 -103 -34 -178.5t-89 -124.5t-123.5 -73t-137.5 -24h-431v249h438q12 0 34.5 3.5t45 18.5t39.5 45.5t17 83.5q0 22 -3.5 53.5t-9.5 67.5t-13.5 73.5t-14.5 71t-14 61t-11 42.5zM607 -559
l-168 170l166 172l172 -172zM188 -560l-168 170l165 172l172 -172z" />
    <glyph glyph-name="uniFBFF" unicode="&#x6cc;" horiz-adv-x="1048" arabic-form="medial" 
d="M1061 234v-249h-148q-85 0 -155 23t-118 68q-56 -47 -132.5 -69t-174.5 -22h-346v249h346q61 0 97.5 11.5t55 28.5t24 38t5.5 41v324h248v-317q0 -45 20 -70.5t45.5 -38t50.5 -15t34 -2.5h148zM654 -565l-168 170l166 172l172 -172zM235 -566l-168 170l165 172l172 -172z
" />
    <glyph glyph-name="uniFBFD" unicode="&#x6cc;" horiz-adv-x="1778" arabic-form="final" 
d="M1533 -15q23 -33 38 -72.5t15 -71.5q0 -93 -51 -168.5t-138 -128.5t-202.5 -82t-245.5 -29h-256q-82 0 -157 19t-141 54.5t-121 86t-97 114.5q-99 160 -99 375q0 66 7.5 131t25 133.5t46 143t70.5 161.5l222 -107q-35 -74 -58 -135t-37.5 -115.5t-20.5 -105t-6 -101.5
q0 -145 64 -246q46 -76 125.5 -116.5t176.5 -40.5h256q75 0 142 14t118 39t83 57.5t37 70.5q-29 31 -73.5 52.5t-101 36t-122 22t-136.5 10.5l7 248h907v-249h-277z" />
    <glyph glyph-name="uni06D3" unicode="&#x6d3;" horiz-adv-x="1647" arabic-form="isolated" 
d="M1647 -567h-1158q-91 0 -168.5 29t-134.5 82.5t-89 129t-32 169.5q0 82 35 153.5t94 124.5t135.5 83t159.5 30h420v-249h-412q-38 0 -74.5 -8.5t-65 -27t-46.5 -47.5t-18 -71t17.5 -70.5t45.5 -46t63 -25.5t70 -8h1158v-248zM164 302v149l124 40q-30 31 -49.5 70
t-19.5 83q0 34 12 67t33 61t49.5 49t60.5 30q17 5 34.5 7.5t34.5 2.5q36 0 63.5 -8.5t51.5 -17.5l17 -8l-30 -124q-14 3 -31 8t-34 8t-33.5 3.5t-29.5 -3.5q-14 -5 -27.5 -14t-22.5 -20.5t-12.5 -26.5t2.5 -32q8 -26 37.5 -44t82.5 -18q10 0 21.5 1t30.5 5.5t48.5 13
t75.5 23.5l8 -141z" />
    <glyph glyph-name="uniFBB1" unicode="&#x6d3;" horiz-adv-x="1320" arabic-form="final" 
d="M1294 -567h-805q-91 0 -168.5 29t-134.5 82.5t-89 129t-32 169.5q0 82 35 153.5t94 124.5t135.5 83t159.5 30h854v-249h-846q-37 0 -72 -11.5t-62.5 -32t-44 -49t-16.5 -61.5t16 -61t42.5 -47.5t60 -30.5t68.5 -11h805v-248zM166 274v149l124 40q-30 31 -49.5 70
t-19.5 83q0 34 12 67t33 61t49.5 49t60.5 30q17 5 34.5 7.5t34.5 2.5q36 0 63.5 -8.5t51.5 -17.5l17 -8l-30 -124q-14 3 -31 8t-34 8t-33.5 3.5t-29.5 -3.5q-14 -5 -27.5 -14t-22.5 -20.5t-12.5 -26.5t2.5 -32q8 -26 37.5 -44t82.5 -18q10 0 21.5 1t30.5 5.5t48.5 13
t75.5 23.5l8 -141z" />
    <glyph glyph-name="uni0626" unicode="&#x626;" horiz-adv-x="1680" arabic-form="isolated" 
d="M940 -316q91 0 157.5 11.5t109.5 40t64.5 76.5t22.5 121q-14 4 -44.5 12t-72 19t-90 24t-98.5 26.5t-98.5 26t-89.5 22.5q-26 66 -38.5 128.5t-12.5 122.5q0 114 42 215.5t120 177t190.5 119.5t253.5 44q50 0 99.5 -8t112.5 -25l-63 -240q-47 14 -82 20.5t-72 6.5
q-75 0 -139.5 -21.5t-112 -62.5t-75 -100t-27.5 -134v-12.5t1 -12.5l351 -90q96 -24 139 -81.5t43 -142.5q0 -139 -32 -239.5t-102.5 -166t-183 -97t-273.5 -31.5h-211q-82 0 -157 19t-141 54.5t-121 86t-97 114.5q-99 160 -99 375q0 66 9 131t28.5 133.5t49.5 143.5t72 162
l222 -107q-35 -74 -59.5 -135.5t-41 -116t-24 -105t-7.5 -101.5q0 -145 64 -246q46 -76 125.5 -116.5t176.5 -40.5h211v0zM91 737v149l124 40q-30 31 -49.5 70t-19.5 83q0 34 12 67t33 61t49.5 49t60.5 30q17 5 34.5 7.5t34.5 2.5q36 0 63.5 -8.5t51.5 -17.5l17 -8l-30 -124
q-14 3 -31 8t-34 8t-33.5 3.5t-29.5 -3.5q-14 -5 -27.5 -14t-22.5 -20.5t-12.5 -26.5t2.5 -32q8 -26 37.5 -44t82.5 -18q10 0 21.5 1t30.5 5.5t48.5 13t75.5 23.5l8 -141z" />
    <glyph glyph-name="uniFE8B" unicode="&#x626;" horiz-adv-x="857" arabic-form="initial" 
d="M728 825q2 -7 8.5 -33t14.5 -63.5t16.5 -83.5t16 -92.5t12 -90.5t4.5 -77q0 -103 -34 -178.5t-89 -124.5t-123.5 -73t-137.5 -24h-431v249h438q12 0 34.5 3.5t45 18.5t39.5 45.5t17 83.5q0 22 -3.5 53.5t-9.5 67.5t-13.5 73.5t-14.5 71t-14 61t-11 42.5zM112 841v149
l124 40q-30 31 -49.5 70t-19.5 83q0 34 12 67t33 61t49.5 49t60.5 30q17 5 34.5 7.5t34.5 2.5q36 0 63.5 -8.5t51.5 -17.5l17 -8l-30 -124q-14 3 -31 8t-34 8t-33.5 3.5t-29.5 -3.5q-14 -5 -27.5 -14t-22.5 -20.5t-12.5 -26.5t2.5 -32q8 -26 37.5 -44t82.5 -18q10 0 21.5 1
t30.5 5.5t48.5 13t75.5 23.5l8 -141z" />
    <glyph glyph-name="uniFE8C" unicode="&#x626;" horiz-adv-x="1054" arabic-form="medial" 
d="M1061 234v-249h-148q-85 0 -155 23t-118 68q-56 -47 -132.5 -69t-174.5 -22h-346v249h346q61 0 97.5 11.5t55 28.5t24 38t5.5 41v324h248v-317q0 -45 20 -70.5t45.5 -38t50.5 -15t34 -2.5h148zM175 784v149l124 40q-30 31 -49.5 70t-19.5 83q0 34 12 67t33 61t49.5 49
t60.5 30q17 5 34.5 7.5t34.5 2.5q36 0 63.5 -8.5t51.5 -17.5l17 -8l-30 -124q-14 3 -31 8t-34 8t-33.5 3.5t-29.5 -3.5q-14 -5 -27.5 -14t-22.5 -20.5t-12.5 -26.5t2.5 -32q8 -26 37.5 -44t82.5 -18q10 0 21.5 1t30.5 5.5t48.5 13t75.5 23.5l8 -141z" />
    <glyph glyph-name="uniFE8A" unicode="&#x626;" horiz-adv-x="1778" arabic-form="final" 
d="M1533 -15q23 -33 38 -72.5t15 -71.5q0 -93 -51 -168.5t-138 -128.5t-202.5 -82t-245.5 -29h-256q-82 0 -157 19t-141 54.5t-121 86t-97 114.5q-99 160 -99 375q0 66 7.5 131t25 133.5t46 143t70.5 161.5l222 -107q-35 -74 -58 -135t-37.5 -115.5t-20.5 -105t-6 -101.5
q0 -145 64 -246q46 -76 125.5 -116.5t176.5 -40.5h256q75 0 142 14t118 39t83 57.5t37 70.5q-29 31 -73.5 52.5t-101 36t-122 22t-136.5 10.5l7 248h907v-249h-277zM670 299v149l124 40q-30 31 -49.5 70t-19.5 83q0 34 12 67t33 61t49.5 49t60.5 30q17 5 34.5 7.5t34.5 2.5
q36 0 63.5 -8.5t51.5 -17.5l17 -8l-30 -124q-14 3 -31 8t-34 8t-33.5 3.5t-29.5 -3.5q-14 -5 -27.5 -14t-22.5 -20.5t-12.5 -26.5t2.5 -32q8 -26 37.5 -44t82.5 -18q10 0 21.5 1t30.5 5.5t48.5 13t75.5 23.5l8 -141z" />
    <glyph glyph-name="uni06C2.fina" unicode="&#x6c2;" horiz-adv-x="1296" 
d="M1318 -15h-74q-76 0 -157 21t-154.5 67.5t-131.5 120.5t-88 181l-127 458l-89 -19q-48 -11 -78.5 -30.5t-46.5 -47.5q-14 -26 -21 -59.5t-7 -73.5q0 -67 33 -186.5t83 -288.5l-239 -67q-26 93 -49 171.5t-40 145t-26.5 122.5t-9.5 103q0 69 14.5 134t46.5 122
q44 75 113 124t167 73q20 5 58 12.5l76 15t67.5 13t32.5 5.5l129 -84q15 -66 30 -125.5t33 -125t40 -144.5t52 -184q20 -64 55.5 -104t76.5 -62.5t82.5 -30.5t74.5 -8h74v-249zM131 1126v149l124 40q-30 31 -49.5 70t-19.5 83q0 34 12 67t33 61t49.5 49t60.5 30
q17 5 34.5 7.5t34.5 2.5q36 0 63.5 -8.5t51.5 -17.5l17 -8l-30 -124q-14 3 -31 8t-34 8t-33.5 3.5t-29.5 -3.5q-14 -5 -27.5 -14t-22.5 -20.5t-12.5 -26.5t2.5 -32q8 -26 37.5 -44t82.5 -18q10 0 21.5 1t30.5 5.5t48.5 13t75.5 23.5l8 -141z" />
    <glyph glyph-name="uni06C1" unicode="&#x6c1;" horiz-adv-x="1040" arabic-form="isolated" 
d="M519 -15q-96 0 -176.5 27.5t-138.5 78t-90.5 120.5t-32.5 155q0 84 21 150.5t56.5 124t83 110t100.5 108.5l-63 71l184 167q11 -13 26 -29t30.5 -33t30.5 -33t27 -29q72 -77 140.5 -149.5t122 -145t86 -146t31.5 -152.5q-1 -88 -35 -157.5t-99 -128.5q-60 -51 -136.5 -80
t-167.5 -29zM507 706q-40 -45 -75.5 -85t-61 -80t-39 -82.5t-10.5 -92.5q3 -37 22 -63.5t47 -44t62 -25.5t67 -8q38 0 73 11t61.5 31t42.5 49t16 64q0 43 -17 84t-45.5 81t-65.5 80t-77 81z" />
    <glyph glyph-name="uni06C3.fina" unicode="&#x6c3;" horiz-adv-x="1291" 
d="M1318 -15h-74q-76 0 -157 21t-154.5 67.5t-131.5 120.5t-88 181l-127 458l-89 -19q-48 -11 -78.5 -30.5t-46.5 -47.5q-14 -26 -21 -59.5t-7 -73.5q0 -67 33 -186.5t83 -288.5l-239 -67q-26 93 -49 171.5t-40 145t-26.5 122.5t-9.5 103q0 69 14.5 134t46.5 122
q44 75 113 124t167 73q20 5 58 12.5l76 15t67.5 13t32.5 5.5l129 -84q15 -66 30 -125.5t33 -125t40 -144.5t52 -184q20 -64 55.5 -104t76.5 -62.5t82.5 -30.5t74.5 -8h74v-249zM680 1209l-168 170l166 172l172 -172zM261 1208l-168 170l165 172l172 -172z" />
    <glyph glyph-name="uniFBAB" unicode="&#x6be;" horiz-adv-x="1744" arabic-form="final" 
d="M1105 1078q65 -86 132 -174q28 -38 59.5 -79t64 -83.5t63.5 -84.5t60 -80q57 -76 77 -165t-1 -178h211v-249h-405q-51 -27 -113.5 -42t-136.5 -15q-72 0 -149 14.5t-157 54.5q-18 8 -35 16q-15 7 -31 14.5t-27 13.5q-96 -29 -212.5 -42.5t-257.5 -13.5h-113l81 249h113
q28 0 37 -0.5t13 -0.5t11 1t31 4q-26 30 -46.5 58.5t-35 60t-22 67t-7.5 78.5q0 82 31.5 151t87 118t130 76.5t160.5 27.5q97 0 172.5 -38.5t127 -97t78 -126.5t26.5 -127q0 -48 -9.5 -88t-26.5 -75.5t-42 -67.5t-56 -63q31 -10 64 -18.5t64 -8.5t65 4.5t64.5 18t54 37.5
t35.5 63q11 37 -8.5 88.5t-62 116.5t-105.5 143.5t-138 171.5l-104 129zM545 502q0 -37 11.5 -65.5t35 -52.5t58 -46.5t80.5 -47.5q31 15 60 34t50.5 42.5t34.5 52.5t13 64q0 42 -18 74t-44 53t-55.5 31t-52.5 10q-34 0 -65.5 -12t-55.5 -32.5t-38 -47.5t-14 -57z" />
    <glyph glyph-name="uniFBAC" unicode="&#x6be;" horiz-adv-x="1455" arabic-form="initial" 
d="M947 1078q65 -86 132 -174q28 -38 59.5 -79t64 -83.5t63.5 -84.5t60 -80q62 -83 80.5 -181.5t-14.5 -195.5q-20 -60 -58.5 -110t-93.5 -86t-126 -56t-156 -20q-72 0 -149 14.5t-157 54.5q-18 8 -35 16q-15 7 -31 14.5t-27 13.5q-96 -29 -212.5 -42.5t-257.5 -13.5h-113
v249h113q28 0 49.5 -0.5t41 -0.5t39 1t43.5 4q-26 30 -46.5 58.5t-35 60t-22 67t-7.5 78.5q0 82 31.5 151t87 118t130 76.5t160.5 27.5q97 0 172.5 -38.5t127 -97t78 -126.5t26.5 -127q0 -48 -9.5 -88t-26.5 -75.5t-42 -67.5t-56 -63q31 -10 64 -18.5t64 -8.5t65 4.5
t64.5 18t54 37.5t35.5 63q11 37 -8.5 88.5t-62 116.5t-105.5 143.5t-138 171.5l-104 129zM387 502q0 -37 11.5 -65.5t35 -52.5t58 -46.5t80.5 -47.5q31 15 60 34t50.5 42.5t34.5 52.5t13 64q0 42 -18 74t-44 53t-55.5 31t-52.5 10q-34 0 -65.5 -12t-55.5 -32.5t-38 -47.5
t-14 -57z" />
    <glyph glyph-name="uniFBAD" unicode="&#x6be;" horiz-adv-x="1264" arabic-form="medial" 
d="M617 856q93 0 167 -24.5t125 -72.5t78.5 -118.5t27.5 -163.5q1 -50 -16 -106.5t-63.5 -112.5t-129 -107t-212.5 -90h1q-38 -13 -82 -22t-83 -16q15 -47 54 -98.5t90 -98.5t108 -84.5t110 -56.5q-39 64 -46.5 130t9 128.5t55 116.5t91 94t117 61.5t133.5 18.5h137v-249
h-145q-47 -2 -81 -20t-56 -46t-30 -64t-3 -74t24.5 -75.5t54.5 -69.5l-82 -202q-138 0 -265 40.5t-230.5 114t-177 176.5t-103.5 227q-57 -4 -113 -5.5t-107 -1.5v249q42 0 93 1t117 6q3 57 8.5 104t13 88t17.5 77t23 71q33 81 78 134.5t95 84.5t101.5 43.5t96.5 12.5z
M617 608q-30 0 -64 -12t-63.5 -48t-48.5 -101.5t-19 -172.5q63 7 129.5 22.5t120.5 40.5t88 60t34 81q0 38 -15 63t-39.5 40t-56.5 21t-66 6z" />
    <glyph glyph-name="uniFE70" unicode="&#xfe70;" arabic-form="isolated" 
d="M-252 1711l504 187v-138l-504 -189v140zM-252 1952l504 187v-137l-504 -189v139z" />
    <glyph glyph-name="uniFE72" unicode="&#xfe72;" arabic-form="isolated" 
d="M-277 1664q4 9 10.5 21t12 26t9.5 29t4 29q0 8 -4 18.5t-7 17.5q-14 17 -35 17q-18 0 -39 -9.5t-35 -20.5l-72 71q3 4 15.5 17t32.5 26t47 22.5t60 8.5q37 -2 67.5 -22t48.5 -51q11 -21 16.5 -46.5t5.5 -48.5q0 -13 -1 -25t-3 -24q42 14 88.5 32.5t83.5 41.5
q-35 13 -63.5 33t-49 44t-31.5 51.5t-11 56.5q0 33 16 65q12 25 32 47.5t44 39t51.5 26t54.5 9.5q34 0 63 -14q55 -26 79.5 -75.5t24.5 -105.5q0 -48 -15.5 -97.5t-42.5 -90.5q-22 -32 -58 -59.5t-77.5 -49.5t-85 -38.5t-80 -28t-63 -17.5t-34.5 -7zM71 2050q-10 0 -23 -3.5
t-26 -9.5t-24.5 -15t-18.5 -20q0 -21 13.5 -39t33 -32t42 -24.5t40.5 -17.5q5 19 8 39.5t3 41.5q0 24 -7 44q-5 14 -15.5 25t-25.5 11z" />
    <glyph glyph-name="uniFE74" unicode="&#xfe74;" arabic-form="isolated" 
d="M-252 -681l504 187v-137l-504 -190v140zM-252 -440l504 188v-138l-504 -189v139z" />
    <glyph glyph-name="uniFE76" unicode="&#xfe76;" arabic-form="isolated" 
d="M-252 1711l504 187v-138l-504 -189v140z" />
    <glyph glyph-name="uniFE78" unicode="&#xfe78;" arabic-form="isolated" 
d="M-298 1635q33 10 70.5 22.5t75 27.5t72.5 32.5t63 38.5q-37 12 -67.5 32t-52.5 46t-34.5 55.5t-12.5 61.5q0 33 13 62q12 25 32 48t44.5 40t52.5 27t56 10q36 0 67 -17q57 -31 81 -78.5t24 -103.5q0 -54 -19.5 -110t-53.5 -104q-33 -47 -86.5 -82.5t-109.5 -60.5
t-106 -40.5t-76 -23.5zM16 2019q-23 0 -51.5 -11.5t-41.5 -35.5q-6 -11 3 -29.5t28.5 -37.5t46.5 -35t57 -20q6 15 10.5 38t4.5 47q0 31 -12.5 56t-45.5 28h1z" />
    <glyph glyph-name="uniFE7A" unicode="&#xfe7a;" arabic-form="isolated" 
d="M-252 -440l504 188v-138l-504 -189v139z" />
    <glyph glyph-name="uniFE7C" unicode="&#xfe7c;" arabic-form="isolated" 
d="M-130 1679q-92 0 -144.5 51.5t-52.5 142.5v108h115v-108q0 -42 19.5 -61t62.5 -19q6 0 17.5 2.5t22.5 10.5t19.5 24t8.5 43v108h116v-108q0 -42 19.5 -61.5t63.5 -19.5q6 0 17 3t21.5 11.5t18.5 24.5t8 42t-9.5 64t-20.5 79l109 37q3 -13 9 -32.5t12 -43.5t10.5 -50.5
t4.5 -53.5q0 -50 -16.5 -86.5t-42.5 -60.5t-58.5 -36t-64.5 -12q-43 0 -79 13t-61 35q-26 -24 -59 -35.5t-66 -11.5z" />
    <glyph glyph-name="uniFE7E" unicode="&#xfe7e;" arabic-form="isolated" 
d="M-2 1659q-54 0 -97 16t-74 45t-47.5 71t-16.5 95t16.5 96t47.5 73t74.5 46t96.5 16q51 0 95.5 -16t76.5 -46t50.5 -72.5t18.5 -94.5t-18 -95t-50 -73t-76.5 -46t-96.5 -15zM-2 1786q22 0 41.5 6.5t34.5 19.5t23.5 31.5t8.5 42.5t-8.5 43.5t-23.5 33t-34.5 21t-41.5 7.5
q-45 0 -77.5 -28t-32.5 -77q0 -51 29.5 -75.5t80.5 -24.5z" />
    <glyph glyph-name="uniFC5E" unicode="&#xfc5e;" arabic-form="isolated" 
d="M-130 1679q-92 0 -144.5 51.5t-52.5 142.5v108h115v-108q0 -42 19.5 -61t62.5 -19q6 0 17.5 2.5t22.5 10.5t19.5 24t8.5 43v108h116v-108q0 -42 19.5 -61.5t63.5 -19.5q6 0 17 3t21.5 11.5t18.5 24.5t8 42t-9.5 64t-20.5 79l109 37q3 -13 9 -32.5t12 -43.5t10.5 -50.5
t4.5 -53.5q0 -50 -16.5 -86.5t-42.5 -60.5t-58.5 -36t-64.5 -12q-43 0 -79 13t-61 35q-26 -24 -59 -35.5t-66 -11.5zM-277 2203q4 9 10.5 21t12 26t9.5 29t4 29q0 8 -4 18.5t-7 17.5q-14 17 -35 17q-18 0 -39 -9.5t-35 -20.5l-72 71q3 4 15.5 17t32.5 26t47 22.5t60 8.5
q37 -2 67.5 -22t48.5 -51q11 -21 16.5 -46.5t5.5 -48.5q0 -13 -1 -25t-3 -24q42 14 88.5 32.5t83.5 41.5q-35 13 -63.5 33t-49 44t-31.5 51.5t-11 56.5q0 33 16 65q12 25 32 47.5t44 39t51.5 26t54.5 9.5q34 0 63 -14q55 -26 79.5 -75.5t24.5 -105.5q0 -48 -15.5 -97.5
t-42.5 -90.5q-22 -32 -58 -59.5t-77.5 -49.5t-85 -38.5t-80 -28t-63 -17.5t-34.5 -7zM71 2589q-10 0 -23 -3.5t-26 -9.5t-24.5 -15t-18.5 -20q0 -21 13.5 -39t33 -32t42 -24.5t40.5 -17.5q5 19 8 39.5t3 41.5q0 24 -7 44q-5 14 -15.5 25t-25.5 11z" />
    <glyph glyph-name="uniFC5F" unicode="&#xfc5f;" arabic-form="isolated" 
d="M1 1741q-92 0 -144.5 51.5t-52.5 142.5v108h115v-108q0 -42 19.5 -61t62.5 -19q6 0 17.5 2.5t22.5 10.5t19.5 24t8.5 43v108h116v-108q0 -42 19.5 -61.5t63.5 -19.5q6 0 17 3t21.5 11.5t18.5 24.5t8 42t-9.5 64t-20.5 79l109 37q3 -13 9 -32.5t12 -43.5t10.5 -50.5
t4.5 -53.5q0 -50 -16.5 -86.5t-42.5 -60.5t-58.5 -36t-64.5 -12q-43 0 -79 13t-61 35q-26 -24 -59 -35.5t-66 -11.5zM-129 1265l504 187v-137l-504 -190v140zM-129 1506l504 188v-138l-504 -189v139z" />
    <glyph glyph-name="uniFC60" unicode="&#xfc60;" arabic-form="isolated" 
d="M-130 1679q-92 0 -144.5 51.5t-52.5 142.5v108h115v-108q0 -42 19.5 -61t62.5 -19q6 0 17.5 2.5t22.5 10.5t19.5 24t8.5 43v108h116v-108q0 -42 19.5 -61.5t63.5 -19.5q6 0 17 3t21.5 11.5t18.5 24.5t8 42t-9.5 64t-20.5 79l109 37q3 -13 9 -32.5t12 -43.5t10.5 -50.5
t4.5 -53.5q0 -50 -16.5 -86.5t-42.5 -60.5t-58.5 -36t-64.5 -12q-43 0 -79 13t-61 35q-26 -24 -59 -35.5t-66 -11.5zM-344 2223l504 187v-138l-504 -189v140z" />
    <glyph glyph-name="uniFC61" unicode="&#xfc61;" arabic-form="isolated" 
d="M-130 1679q-92 0 -144.5 51.5t-52.5 142.5v108h115v-108q0 -42 19.5 -61t62.5 -19q6 0 17.5 2.5t22.5 10.5t19.5 24t8.5 43v108h116v-108q0 -42 19.5 -61.5t63.5 -19.5q6 0 17 3t21.5 11.5t18.5 24.5t8 42t-9.5 64t-20.5 79l109 37q3 -13 9 -32.5t12 -43.5t10.5 -50.5
t4.5 -53.5q0 -50 -16.5 -86.5t-42.5 -60.5t-58.5 -36t-64.5 -12q-43 0 -79 13t-61 35q-26 -24 -59 -35.5t-66 -11.5zM-298 2182q33 10 70.5 22.5t75 27.5t72.5 32.5t63 38.5q-37 12 -67.5 32t-52.5 46t-34.5 55.5t-12.5 61.5q0 33 13 62q12 25 32 48t44.5 40t52.5 27t56 10
q36 0 67 -17q57 -31 81 -78.5t24 -103.5q0 -54 -19.5 -110t-53.5 -104q-33 -47 -86.5 -82.5t-109.5 -60.5t-106 -40.5t-76 -23.5zM16 2566q-23 0 -51.5 -11.5t-41.5 -35.5q-6 -11 3 -29.5t28.5 -37.5t46.5 -35t57 -20q6 15 10.5 38t4.5 47q0 31 -12.5 56t-45.5 28h1z" />
    <glyph glyph-name="uniFC62" unicode="&#xfc62;" arabic-form="isolated" 
d="M-16 1702q-92 0 -144.5 51.5t-52.5 142.5v108h115v-108q0 -42 19.5 -61t62.5 -19q6 0 17.5 2.5t22.5 10.5t19.5 24t8.5 43v108h116v-108q0 -42 19.5 -61.5t63.5 -19.5q6 0 17 3t21.5 11.5t18.5 24.5t8 42t-9.5 64t-20.5 79l109 37q3 -13 9 -32.5t12 -43.5t10.5 -50.5
t4.5 -53.5q0 -50 -16.5 -86.5t-42.5 -60.5t-58.5 -36t-64.5 -12q-43 0 -79 13t-61 35q-26 -24 -59 -35.5t-66 -11.5zM-139 1463l504 188v-138l-504 -189v139z" />
    <glyph glyph-name="uniFC63" unicode="&#xfc63;" arabic-form="isolated" 
d="M-130 1679q-92 0 -144.5 51.5t-52.5 142.5v108h115v-108q0 -42 19.5 -61t62.5 -19q6 0 17.5 2.5t22.5 10.5t19.5 24t8.5 43v108h116v-108q0 -42 19.5 -61.5t63.5 -19.5q6 0 17 3t21.5 11.5t18.5 24.5t8 42t-9.5 64t-20.5 79l109 37q3 -13 9 -32.5t12 -43.5t10.5 -50.5
t4.5 -53.5q0 -50 -16.5 -86.5t-42.5 -60.5t-58.5 -36t-64.5 -12q-43 0 -79 13t-61 35q-26 -24 -59 -35.5t-66 -11.5zM-71 2592h140v-408h-140v408z" />
    <glyph glyph-name=".notdef" horiz-adv-x="1229" 
d="M102 -362v1806h1024v-1806h-1024zM217 -248h795v1577h-795v-1577z" />
    <glyph glyph-name=".null" unicode="&#xfeff;" 
 />
    <glyph glyph-name=".null" 
 />
    <glyph glyph-name="nonmarkingreturn" horiz-adv-x="602" 
 />
    <glyph glyph-name="space" unicode=" " horiz-adv-x="696" 
 />
    <glyph glyph-name="space" unicode="&#xa0;" horiz-adv-x="696" 
 />
    <glyph glyph-name="uni0640" unicode="&#x640;" horiz-adv-x="414" 
d="M416 234q20 0 30.5 -10.5t10.5 -27.5v-171q0 -22 -10.5 -31t-30.5 -9h-418q-22 0 -31 9t-9 31v171q0 17 9 27.5t31 10.5h418z" />
    <glyph glyph-name="uni066E" unicode="&#x66e;" horiz-adv-x="2103" 
d="M2032 676v-327q0 -148 -90 -244q-112 -119 -326 -120h-1154q-74 0 -140 25t-117 73q-20 19 -41.5 46t-38.5 64t-28 83.5t-11 104.5q0 50 10 108.5t22.5 110.5t23.5 90t14 47l119 -38l118 -37q-9 -27 -19 -64.5t-19 -77t-15 -76.5t-6 -64q0 -48 13.5 -77.5t33 -45
t42.5 -20.5t41 -5h1145q55 0 94 10.5t58 30.5q23 26 23 75v328h248z" />
    <glyph glyph-name="feh_dotless.isol" horiz-adv-x="2127" 
d="M462 -15q-74 0 -140 25t-117 73q-20 19 -41.5 46t-38.5 64t-28 83.5t-11 104.5q0 50 10 108.5t22.5 110.5t23.5 90t14 47l119 -38l118 -37q-9 -27 -19 -64.5t-19 -77t-15 -76.5t-6 -64q0 -48 13.5 -77t33 -44.5t42.5 -20t41 -4.5h1005q84 0 141 9.5t92.5 24.5t53.5 33.5
t26 37.5q-133 -18 -239 -3.5t-180 60t-113.5 121.5t-39.5 182q0 84 31 158.5t86.5 130t131 87t165.5 27.5q81 -3 142 -28t106.5 -66t76 -95.5t49 -117.5t27 -131.5t9.5 -137.5l-4 -74q-8 -140 -56 -230.5t-124.5 -143t-174.5 -73t-206 -20.5h-1007zM1622 853q-36 3 -70 -5.5
t-59.5 -28.5t-41 -49.5t-15.5 -68.5q0 -87 91.5 -125.5t263.5 -10.5q-2 43 -7 91t-22 90t-50 71.5t-90 35.5z" />
    <glyph glyph-name="uni06A1.fina" horiz-adv-x="2114" 
d="M464 240q84 -10 174.5 -16.5t178.5 -10t170 -4t149 0.5t115.5 3.5t69.5 5.5q-50 50 -80 115.5t-30 146.5q0 79 33 150t90.5 124t134.5 84t165 31q93 0 166.5 -32.5t124.5 -87t78 -124.5t27 -145q0 -42 -5 -75t-15.5 -61.5t-25.5 -54.5t-35 -54q26 -2 53.5 -2h56.5h84
v-249h-84q-127 0 -235 11t-198 36q-34 -12 -96.5 -23.5t-148.5 -20.5t-191.5 -14.5t-223.5 -6.5t-246 4.5t-258 19.5q-74 8 -140 29t-117 69q-20 19 -41.5 46t-38.5 64t-28 83.5t-11 104.5q0 50 10 107.5t22.5 108.5t23.5 88t14 46l119 -38l118 -37q-9 -27 -19 -63.5
t-19 -75t-15 -74.5t-6 -63q0 -48 13.5 -76t33 -43t42.5 -20t41 -7zM1452 473q0 -38 12 -67t35 -52.5t55 -41.5t73 -33q38 15 68.5 32t52.5 40t33.5 52.5t11.5 70.5q0 24 -13 50t-35 47.5t-51 35.5t-60 14q-36 0 -69 -12.5t-58 -33t-40 -47.5t-15 -55z" />
    <glyph glyph-name="uni066F" unicode="&#x66f;" horiz-adv-x="1620" 
d="M709 -552q-80 0 -154.5 19t-140.5 54t-121 86t-95 115q-48 78 -74.5 165.5t-26.5 192.5q0 65 6.5 129t23 132t44.5 142t70 159l223 -106q-36 -73 -59 -134t-36.5 -115.5t-18.5 -105t-5 -102.5q0 -70 16 -122.5t48 -103.5q46 -75 124.5 -115.5t175.5 -40.5h75
q110 0 198 10t150 41t95.5 87.5t33.5 149.5h-143q-50 0 -102 8.5t-100 28t-90.5 51.5t-74 78.5t-50 108.5t-18.5 142q0 93 27.5 177t81.5 147.5t134 101.5t185 38q106 0 181.5 -39.5t123.5 -107t70.5 -156.5t22.5 -188v-360q0 -112 -23.5 -197.5t-68 -148.5t-108 -105.5
t-143 -68t-173.5 -36.5t-199 -11h-85zM1111 629q-85 0 -133.5 -57t-48.5 -170q0 -45 16.5 -76.5t43.5 -52t60.5 -30t68.5 -9.5h143v141q0 93 -17.5 144t-41.5 75.5t-49.5 29.5t-41.5 5z" />
    <glyph glyph-name="onedot.above" 
d="M-179 1314l180 182l184 -184l-182 -182z" />
    <glyph glyph-name="twodots.above" 
d="M200 1143l-168 170l166 172l172 -172zM-219 1142l-168 170l165 172l172 -172z" />
    <glyph glyph-name="threedots.above" 
d="M-51 1318l-170 -172l-170 170l170 172zM378 1322l-168 -170l-175 168l172 172zM157 1604l-160 -160l-158 158l160 160z" />
    <glyph glyph-name="threedots.below" 
d="M-375 -335l170 170l170 -172l-170 -170zM42 -337l172 170l170 -172l-170 -170zM-157 -617l158 158l160 -160l-158 -158z" />
    <glyph glyph-name="uni0660" unicode="&#x660;" horiz-adv-x="1083" 
d="M544 161q-84 0 -158 32.5t-129 88t-87 130t-32 158.5t32 158t87 129t129 87t158 32t158.5 -32t130 -87t88 -129t32.5 -158t-32.5 -158.5t-88 -130t-130 -88t-158.5 -32.5zM544 734q-34 0 -63.5 -13t-51.5 -35t-35 -52t-13 -64t13 -64.5t35 -53t51.5 -35.5t63.5 -13
t64.5 13t53 35.5t36 53t13.5 64.5t-13.5 64t-36 52t-53 35t-64.5 13z" />
    <glyph glyph-name="uni0661" unicode="&#x661;" horiz-adv-x="624" 
d="M226 -14v40v48t0.5 49t1.5 44v-1q1 48 1.5 99.5t0.5 108.5q0 110 -2.5 228t-14.5 245.5t-37 264t-71 283.5l233 76q51 -163 79.5 -312.5t42 -286t16.5 -261.5t3 -240q0 -57 -0.5 -109.5t-1.5 -100.5q-1 -20 -1.5 -43.5t-0.5 -47.5v-46v-38h-249z" />
    <glyph glyph-name="uni0662" unicode="&#x662;" horiz-adv-x="1149" 
d="M1011 1465q3 -9 13 -43t20 -81.5t18 -102t8 -104.5q0 -103 -34 -179t-88 -125.5t-122.5 -73.5t-137.5 -24q-68 0 -124.5 16.5t-105.5 44.5q9 -87 14 -173t7 -181.5t2.5 -206.5t-0.5 -248h-246v242q0 118 -3.5 249.5t-18.5 276.5t-46 304t-86 332l237 76l41 -122
q5 -15 16.5 -47.5t30.5 -73t45.5 -83t61.5 -78t78.5 -58t96.5 -22.5q12 0 34.5 4t45 19.5t39.5 46.5t17 84q0 31 -5 67.5t-12.5 71t-16 65t-15.5 51.5z" />
    <glyph glyph-name="uni0663" unicode="&#x663;" horiz-adv-x="1459" 
d="M1317 1465q8 -35 17.5 -77t17 -88.5t12.5 -96t5 -99.5q0 -74 -18 -141t-56.5 -118t-98.5 -81t-144 -30q-30 0 -64.5 6t-69.5 20.5t-69.5 39t-65.5 62.5q-47 -58 -101.5 -86t-105.5 -40h1q-15 -4 -33 -5.5t-36 -1.5q-22 0 -46 3.5t-45 10.5q13 -154 15.5 -290.5
t2.5 -248.5v-218h-248v198q0 118 -2.5 265t-17 306.5t-44 322t-83.5 311.5l235 78q10 -34 19 -62t17 -57t16.5 -61t18.5 -74q10 -38 27 -79.5t39.5 -75.5t51 -56t62.5 -22q23 4 43 19t35 46t23.5 79t8.5 118v39.5t-0.5 36t-2.5 41.5t-5 57l246 22q12 -122 24 -208.5t29 -141
t43.5 -79.5t67.5 -25q33 0 58 30t25 84q0 40 -5 83t-12 83t-15 74t-15 56z" />
    <glyph glyph-name="uni0664" unicode="&#x664;" horiz-adv-x="1049" 
d="M634 -16q-86 0 -158.5 16.5t-129.5 47t-98.5 73.5t-65.5 95q-29 63 -30 134t20 136.5t62 120t97 86.5q-53 15 -104 41.5t-91 65.5t-65 89.5t-25 113.5q0 67 26.5 124t71 105.5t102 88t119.5 72.5t124 59.5t115 47.5l80 -237q-70 -23 -137.5 -53t-121.5 -64.5t-89.5 -72
t-40.5 -74.5q-4 -26 32 -44t96.5 -29.5t138.5 -17.5t159 -7l38 -237q-73 -21 -143 -58t-122 -83.5t-76.5 -100t-6.5 -107.5q6 -17 25 -32t48 -26t66.5 -17.5t81.5 -6.5q28 0 52.5 1.5t52 7t60 16t76.5 28.5l93 -232q-55 -26 -100.5 -40t-85.5 -21t-75.5 -8t-70.5 -1z" />
    <glyph glyph-name="uni0665" unicode="&#x665;" horiz-adv-x="1324" 
d="M673 -16q-130 -3 -240.5 31t-191.5 101.5t-127 167.5t-46 229q0 82 28 168t75 176t107 182.5t125 188.5l122 182l96 -47q80 -38 158 -91.5t148.5 -118.5t131 -140t104.5 -157t69 -168.5t25 -174.5q0 -132 -41.5 -232t-118 -166.5t-184.5 -99.5t-240 -31zM1009 513
q0 85 -36 168t-94 158.5t-129.5 139t-142.5 109.5q-58 -86 -110.5 -164.5t-92.5 -150t-63.5 -136.5t-23.5 -124q0 -141 93.5 -212t262.5 -71q80 0 142.5 15t105.5 48.5t65.5 87.5t22.5 132z" />
    <glyph glyph-name="uni0666" unicode="&#x666;" horiz-adv-x="1184" 
d="M880 -55q-45 147 -77.5 309t-52.5 331q-6 56 -10.5 107.5t-7.5 101.5t-4.5 100.5t-1.5 104.5v50t0.5 43l1 42t2.5 48q-57 -8 -128.5 -16t-156.5 -8q-47 0 -92.5 1.5t-93.5 7t-99.5 16t-110.5 28.5l69 238q49 -14 91.5 -22.5t82.5 -12.5t78.5 -5t79.5 -1q68 0 132.5 5.5
t118 12.5t91 14t52.5 10l139 -120q-9 -88 -8.5 -167.5t0.5 -154.5q0 -143 11 -279t30 -262t44.5 -240t54.5 -213z" />
    <glyph glyph-name="uni0667" unicode="&#x667;" horiz-adv-x="1366" 
d="M1290 1340q-110 -130 -195.5 -298.5t-161.5 -387.5q-32 -92 -58 -185.5t-44.5 -181t-28.5 -166t-10 -138.5h-248q0 59 -10.5 137.5t-29.5 167t-45 182.5t-56 184q-75 211 -164 382t-195 300l193 163q65 -78 125 -181t114 -220.5t102 -243.5t90 -250q41 123 88.5 248.5
t101.5 243.5t114 221.5t127 182.5z" />
    <glyph glyph-name="uni0668" unicode="&#x668;" horiz-adv-x="1376" 
d="M931 801q75 -218 173.5 -402.5t208.5 -317.5l-193 -160q-60 73 -118.5 170t-115.5 215.5t-112 256.5t-109 293q-42 -125 -93 -257t-109.5 -256.5t-121.5 -233t-129 -186.5l-195 158q53 62 105 144t101 175.5t93.5 195.5t82.5 205q28 87 54 175t45 170t30.5 154.5
t11.5 129.5h248q0 -61 10.5 -132t29 -151t45 -167t58.5 -179z" />
    <glyph glyph-name="uni0669" unicode="&#x669;" horiz-adv-x="982" 
d="M676 -74q-21 57 -36.5 138.5t-26 177t-17.5 200.5t-10 208h-143q-75 0 -149 18.5t-133.5 62.5t-96.5 116.5t-37 180.5q0 105 30 186.5t84.5 138t129.5 86t165 29.5q99 0 173 -35.5t123 -98t73.5 -147.5t24.5 -185q0 -190 5.5 -350.5t15.5 -286.5t24 -215.5t32 -136.5z
M582 896q-1 29 -1 56v50q0 75 -17.5 119.5t-41.5 68t-48.5 30t-37.5 6.5q-38 0 -70 -12t-55.5 -36.5t-36.5 -62t-13 -87.5q0 -39 19 -64.5t47 -40.5t59.5 -21t56.5 -6h139z" />
    <glyph glyph-name="uni06F4" unicode="&#x6f4;" horiz-adv-x="1366" 
d="M989 925q28 0 55 0.5t54 2.5t56.5 5.5t63.5 9.5l56 -225q-52 -15 -100 -25.5t-99 -17t-108.5 -10t-129.5 -3.5q-104 0 -211.5 16t-204.5 58q6 -81 10.5 -148t6.5 -127t3 -117t1 -118q0 -42 -0.5 -85.5t-0.5 -94.5v-62h-248v63q0 147 -1.5 275t-7 242t-15.5 218t-27 204
t-42 199t-60 203l240 76q16 -52 29.5 -103t26.5 -104q8 -29 14.5 -59.5t14.5 -60.5q18 -71 56.5 -115.5t83.5 -65.5q-6 15 -13 32t-12.5 38.5t-9 47.5t-3.5 58q0 91 35.5 162.5t93 121t130 75t145.5 25.5q58 0 107.5 -13.5t92.5 -34.5t81.5 -46.5t75.5 -49.5l-118 -211
q-35 25 -66 44.5t-60 32.5t-56.5 20.5t-56.5 8.5t-60.5 -8.5t-57.5 -28.5t-43.5 -46.5t-17.5 -62.5q0 -57 27 -95t69.5 -60.5t95.5 -31.5t105 -9z" />
    <glyph glyph-name="uni06F5" unicode="&#x6f5;" horiz-adv-x="1376" 
d="M570 1534q6 -5 40.5 -32.5t87.5 -74t118 -110.5t132.5 -141.5t131 -167t113.5 -187t80 -201.5t30 -211q0 -69 -13 -123.5t-33.5 -96t-46 -71t-49.5 -49.5q-51 -42 -113.5 -63t-128.5 -21q-63 0 -121 18t-109 59q-48 -38 -107.5 -58.5t-118.5 -20.5q-48 0 -96 11.5
t-91.5 34.5t-80.5 57t-64 79q-24 40 -37.5 79.5t-20 73t-8.5 58.5t-2 37q0 94 21.5 183t56.5 171.5t80.5 157t93 139t94 117.5t83.5 92l-74 61zM1003 262q27 23 45.5 59.5t18.5 87.5q0 63 -17.5 127.5t-47 128t-69.5 125t-84.5 119.5t-91 111.5t-90.5 100.5
q-32 -36 -72 -82.5t-81 -102t-79.5 -118.5t-68.5 -129.5t-48.5 -136.5t-18.5 -139q0 -35 11.5 -67.5t31.5 -58.5t48 -41.5t60 -15.5q21 0 46 6t46 24q20 18 28.5 45t9 57.5t-3.5 61t-9 55.5l242 46q0 -1 1 -6t2.5 -18t3 -35t3.5 -58q1 -24 -1 -51t-7 -53q15 -38 45.5 -54
t63.5 -16q22 0 43.5 7t39.5 21z" />
    <glyph glyph-name="uni06F6" unicode="&#x6f6;" horiz-adv-x="1136" 
d="M1073 980l-74 -78q-14 -13 -48.5 -54t-83.5 -104.5t-108.5 -147.5t-122 -185t-124.5 -216t-116 -240l-228 100q37 85 82 168.5t93 162t95.5 150.5t88.5 134q-42 0 -87.5 6t-90 19.5t-85 36t-71.5 55.5q-51 56 -75.5 122t-24.5 137q0 83 32.5 163t95.5 144
q35 31 72.5 52.5t82 37t97 26.5t116.5 20l49 -232q-36 -3 -73 -11t-70 -19t-60 -25.5t-44 -30.5q-21 -20 -35 -48.5t-18.5 -60t2 -62t27.5 -54.5q14 -17 52.5 -32t95.5 -10q68 4 146 50t166 128l78 81z" />
    <glyph glyph-name="uni066A" unicode="&#x66a;" horiz-adv-x="1174" 
d="M766 1555h248l-607 -1542h-246zM916 -4l-213 213l212 211l213 -213zM289 1116l-213 213l212 211l213 -213z" />
    <glyph glyph-name="uni061F" unicode="&#x61f;" horiz-adv-x="1083" 
d="M599 822q27 -22 49.5 -58.5t38.5 -82.5t25 -98.5t9 -105.5v-136h-240v136q0 60 -25.5 114.5t-71.5 96.5q-20 18 -43 36.5t-46 36.5q-29 23 -57 46t-53 46q-57 55 -83.5 132t-26.5 164q0 91 42.5 168.5t110.5 134.5t153 89t171 32q110 0 196.5 -34.5t145.5 -98.5t89 -155
t27 -204h-240q0 70 -17.5 118.5t-47.5 77.5t-69.5 42t-83.5 13q-48 0 -88.5 -13.5t-70 -38t-46 -58t-16.5 -72.5q0 -59 23 -108.5t68 -84.5zM603 -157l-179 182l186 185l180 -185z" />
    <glyph glyph-name="uni060C" unicode="&#x60c;" horiz-adv-x="580" 
d="M485 150q0 -35 -16 -65t-42.5 -51.5t-59.5 -34t-67 -12.5q-49 0 -87 20t-64.5 53.5t-40.5 77t-14 90.5q0 121 57.5 223.5t185.5 192.5l98 -91q-93 -66 -136 -130.5t-48 -128.5q16 7 38.5 13.5t45.5 6.5q31 0 58.5 -12t47.5 -34t32 -52t12 -66z" />
    <glyph glyph-name="uni061B" unicode="&#x61b;" horiz-adv-x="562" 
d="M419 125q0 -28 -11.5 -53t-30.5 -43.5t-44 -29.5t-53 -11t-53.5 11t-44.5 29.5t-30 43.5t-11 53t11 53.5t30 44.5t44.5 30t53.5 11t53 -11.5t44 -30.5t30.5 -44t11.5 -53zM472 570q0 -35 -16.5 -64.5t-43 -51.5t-59.5 -34t-66 -12q-51 0 -89.5 19.5t-64.5 53t-39 77
t-13 91.5q0 245 199 372l101 -92q-68 -45 -98 -96t-34 -112q35 8 68 8q31 0 59.5 -8.5t50 -27.5t34 -49.5t11.5 -73.5z" />
    <glyph glyph-name="uni066B" unicode="&#x66b;" horiz-adv-x="685" 
d="M428 855h172l-493 -1084h-174z" />
    <glyph glyph-name="uni066C" unicode="&#x66c;" horiz-adv-x="513" 
d="M29 -257q121 58 183 119t69 130q-37 -14 -69 -14q-33 0 -62.5 12.5t-51.5 35t-35.5 53.5t-15.5 69q0 39 15 70.5t40 53t58 33.5t69 12q51 1 90.5 -18t66 -51.5t40 -76.5t13.5 -92q3 -73 -16 -137.5t-60.5 -122t-107 -108.5t-156.5 -97l-70 129v0z" />
    <glyph glyph-name="uni066D" unicode="&#x66d;" horiz-adv-x="1126" 
d="M205 725l193 299q-80 13 -162 26t-162 25l31 207l369 -70l-22 351h219l-13 -351l366 70l28 -207l-329 -52l198 -298l-191 -103l-172 310l-156 -310z" />
    <glyph glyph-name="uni064B" unicode="&#x64b;" 
d="M-252 1711l504 187v-138l-504 -189v140zM-252 1952l504 187v-137l-504 -189v139z" />
    <glyph glyph-name="uni064D" unicode="&#x64d;" 
d="M-252 -681l504 187v-137l-504 -190v140zM-252 -440l504 188v-138l-504 -189v139z" />
    <glyph glyph-name="uni064E" unicode="&#x64e;" 
d="M-252 1711l504 187v-138l-504 -189v140z" />
    <glyph glyph-name="uni064F" unicode="&#x64f;" 
d="M-298 1635q33 10 70.5 22.5t75 27.5t72.5 32.5t63 38.5q-37 12 -67.5 32t-52.5 46t-34.5 55.5t-12.5 61.5q0 33 13 62q12 25 32 48t44.5 40t52.5 27t56 10q36 0 67 -17q57 -31 81 -78.5t24 -103.5q0 -54 -19.5 -110t-53.5 -104q-33 -47 -86.5 -82.5t-109.5 -60.5
t-106 -40.5t-76 -23.5zM16 2019q-23 0 -51.5 -11.5t-41.5 -35.5q-6 -11 3 -29.5t28.5 -37.5t46.5 -35t57 -20q6 15 10.5 38t4.5 47q0 31 -12.5 56t-45.5 28h1z" />
    <glyph glyph-name="uni064C" unicode="&#x64c;" 
d="M-277 1664q4 9 10.5 21t12 26t9.5 29t4 29q0 8 -4 18.5t-7 17.5q-14 17 -35 17q-18 0 -39 -9.5t-35 -20.5l-72 71q3 4 15.5 17t32.5 26t47 22.5t60 8.5q37 -2 67.5 -22t48.5 -51q11 -21 16.5 -46.5t5.5 -48.5q0 -13 -1 -25t-3 -24q42 14 88.5 32.5t83.5 41.5
q-35 13 -63.5 33t-49 44t-31.5 51.5t-11 56.5q0 33 16 65q12 25 32 47.5t44 39t51.5 26t54.5 9.5q34 0 63 -14q55 -26 79.5 -75.5t24.5 -105.5q0 -48 -15.5 -97.5t-42.5 -90.5q-22 -32 -58 -59.5t-77.5 -49.5t-85 -38.5t-80 -28t-63 -17.5t-34.5 -7zM71 2050q-10 0 -23 -3.5
t-26 -9.5t-24.5 -15t-18.5 -20q0 -21 13.5 -39t33 -32t42 -24.5t40.5 -17.5q5 19 8 39.5t3 41.5q0 24 -7 44q-5 14 -15.5 25t-25.5 11z" />
    <glyph glyph-name="uni0650" unicode="&#x650;" 
d="M-252 -440l504 188v-138l-504 -189v139z" />
    <glyph glyph-name="uni0651" unicode="&#x651;" 
d="M-130 1679q-92 0 -144.5 51.5t-52.5 142.5v108h115v-108q0 -42 19.5 -61t62.5 -19q6 0 17.5 2.5t22.5 10.5t19.5 24t8.5 43v108h116v-108q0 -42 19.5 -61.5t63.5 -19.5q6 0 17 3t21.5 11.5t18.5 24.5t8 42t-9.5 64t-20.5 79l109 37q3 -13 9 -32.5t12 -43.5t10.5 -50.5
t4.5 -53.5q0 -50 -16.5 -86.5t-42.5 -60.5t-58.5 -36t-64.5 -12q-43 0 -79 13t-61 35q-26 -24 -59 -35.5t-66 -11.5z" />
    <glyph glyph-name="uni0652" unicode="&#x652;" 
d="M-2 1659q-54 0 -97 16t-74 45t-47.5 71t-16.5 95t16.5 96t47.5 73t74.5 46t96.5 16q51 0 95.5 -16t76.5 -46t50.5 -72.5t18.5 -94.5t-18 -95t-50 -73t-76.5 -46t-96.5 -15zM-2 1786q22 0 41.5 6.5t34.5 19.5t23.5 31.5t8.5 42.5t-8.5 43.5t-23.5 33t-34.5 21t-41.5 7.5
q-45 0 -77.5 -28t-32.5 -77q0 -51 29.5 -75.5t80.5 -24.5z" />
    <glyph glyph-name="uni0653" unicode="&#x653;" 
d="M424 1598h-490q-59 0 -99.5 -3.5t-69 -18t-47 -42t-33.5 -75.5l-186 55q26 90 71 147t108 89q54 26 117 34.5t139 8.5h490v-195z" />
    <glyph glyph-name="uni0654" unicode="&#x654;" 
d="M-283 1480v149l124 40q-30 31 -49.5 70t-19.5 83q0 34 12 67t33 61t49.5 49t60.5 30q17 5 34.5 7.5t34.5 2.5q36 0 63.5 -8.5t51.5 -17.5l17 -8l-30 -124q-14 3 -31 8t-34 8t-33.5 3.5t-29.5 -3.5q-14 -5 -27.5 -14t-22.5 -20.5t-12.5 -26.5t2.5 -32q8 -26 37.5 -44
t82.5 -18q10 0 21.5 1t30.5 5.5t48.5 13t75.5 23.5l8 -141z" />
    <glyph glyph-name="uni0655" unicode="&#x655;" 
d="M-240 -651v149l124 40q-30 31 -49.5 70t-19.5 83q0 34 12 67t33 61t49.5 49t60.5 30q17 5 34.5 7.5t34.5 2.5q36 0 63.5 -8.5t51.5 -17.5l17 -8l-30 -124q-14 3 -31 8t-34 8t-33.5 3.5t-29.5 -3.5q-14 -5 -27.5 -14t-22.5 -20.5t-12.5 -26.5t2.5 -32q8 -26 37.5 -44
t82.5 -18q10 0 21.5 1t30.5 5.5t48.5 13t75.5 23.5l8 -141z" />
    <glyph glyph-name="uni0670" unicode="&#x670;" 
d="M-71 2070h140v-408h-140v408z" />
    <glyph glyph-name="uni0656" unicode="&#x656;" 
d="M-71 -383h140v-409h-140v409z" />
    <glyph glyph-name="uni0615" unicode="&#x615;" 
d="M-352 1194v109h104q3 4 5.5 8.5t7 11.5t12 17.5t18.5 26.5v488h107v-343q36 38 79.5 63t95.5 25q34 0 68 -12t61 -37.5t43.5 -66t16.5 -96.5q0 -54 -18 -91t-46 -60t-62.5 -33t-67.5 -10h-424zM77 1491q-26 0 -52 -16.5t-51 -43.5t-48 -60.5t-44 -67.5h190q36 0 62 20
t26 65q0 53 -22.5 78t-60.5 25z" />
    <glyph glyph-name="wasla" 
d="M-322 1562l24 109h132l44 68l83 122q35 52 86 82.5t111 30.5q34 0 68 -13t61 -40t43.5 -68t16.5 -97q0 -54 -18 -91t-46 -60t-62.5 -33t-67.5 -10h-475zM158 1865q-27 0 -53.5 -18t-51 -46t-47.5 -62.5t-43 -67.5h190q36 0 60 20t24 65q0 53 -20.5 81t-58.5 28z" />
    <glyph glyph-name="beh_dotless_alt.init" horiz-adv-x="873" 
d="M728 825q2 -7 8.5 -33t14.5 -63.5t16.5 -83.5t16 -92.5t12 -90.5t4.5 -77q0 -103 -34 -178.5t-89 -124.5t-123.5 -73t-137.5 -24h-431v249h438q12 0 34.5 3.5t45 18.5t39.5 45.5t17 83.5q0 22 -3.5 53.5t-9.5 67.5t-13.5 73.5t-14.5 71t-14 61t-11 42.5z" />
    <glyph glyph-name="beh_dotless_alt.medi" horiz-adv-x="1049" 
d="M1061 234v-249h-148q-85 0 -155 23t-118 68q-56 -47 -132.5 -69t-174.5 -22h-346v249h346q61 0 97.5 11.5t55 28.5t24 38t5.5 41v324h248v-317q0 -45 20 -70.5t45.5 -38t50.5 -15t34 -2.5h148z" />
    <glyph glyph-name="onedot.below" 
d="M-180 -289l180 182l184 -184l-182 -182z" />
    <glyph glyph-name="twodots.below" 
d="M206 -461l-168 170l166 172l172 -172zM-213 -462l-168 170l165 172l172 -172z" />
    <glyph glyph-name="alef_alt.isol" horiz-adv-x="592" 
d="M423 -15h-249v1295h249v-1295z" />
    <glyph glyph-name="alef_alt.fina" horiz-adv-x="647" 
d="M675 -15q-79 0 -141 8.5t-111 25.5t-87 42.5t-69 60.5q-32 37 -52 81.5t-30.5 91t-14 94t-3.5 91.5v800h249v-800q0 -81 9 -127.5t29 -69.5q12 -12 29 -21.5t43 -15.5t62.5 -9t86.5 -3v-249z" />
    <glyph glyph-name="uni06D5" unicode="&#x6d5;" horiz-adv-x="1018" 
d="M519 -15q-96 0 -176.5 27.5t-138.5 78t-90.5 120.5t-32.5 155q0 84 21 150.5t56.5 124t83 110t100.5 108.5l-63 71l184 167q11 -13 26 -29t30.5 -33t30.5 -33t27 -29q72 -77 140.5 -149.5t122 -145t86 -146t31.5 -152.5q-1 -88 -35 -157.5t-99 -128.5q-60 -51 -136.5 -80
t-167.5 -29zM507 706q-40 -45 -75.5 -85t-61 -80t-39 -82.5t-10.5 -92.5q3 -37 22 -63.5t47 -44t62 -25.5t67 -8q38 0 73 11t61.5 31t42.5 49t16 64q0 43 -17 84t-45.5 81t-65.5 80t-77 81z" />
    <glyph glyph-name="heh_ae.fina" horiz-adv-x="1264" 
d="M1278 -15h-28q-78 0 -150 14.5t-133 44t-108.5 75.5t-77.5 109q-24 -37 -61.5 -65.5t-81.5 -47.5t-91 -28.5t-90 -9.5q-80 0 -151.5 28t-125.5 79.5t-85.5 125.5t-31.5 167q0 108 41 190t109 143.5t156.5 105t183.5 75.5l-24 96l244 57l182 -708q16 -65 52 -104.5
t78.5 -61t87 -29t77.5 -7.5h28v-249zM662 482q6 28 4 56.5t-9 60.5t-18.5 69t-24.5 83q-160 -51 -242.5 -115.5t-82.5 -159.5q0 -37 16.5 -66t43 -48t59 -27.5t65.5 -3.5q75 11 125 44.5t64 106.5z" />
    <glyph glyph-name="uni06C2" unicode="&#x6c2;" horiz-adv-x="1029" 
d="M519 -15q-96 0 -176.5 27.5t-138.5 78t-90.5 120.5t-32.5 155q0 84 21 150.5t56.5 124t83 110t100.5 108.5l-63 71l184 167q11 -13 26 -29t30.5 -33t30.5 -33t27 -29q72 -77 140.5 -149.5t122 -145t86 -146t31.5 -152.5q-1 -88 -35 -157.5t-99 -128.5q-60 -51 -136.5 -80
t-167.5 -29zM507 706q-40 -45 -75.5 -85t-61 -80t-39 -82.5t-10.5 -92.5q3 -37 22 -63.5t47 -44t62 -25.5t67 -8q38 0 73 11t61.5 31t42.5 49t16 64q0 43 -17 84t-45.5 81t-65.5 80t-77 81zM166 1148v149l124 40q-30 31 -49.5 70t-19.5 83q0 34 12 67t33 61t49.5 49t60.5 30
q17 5 34.5 7.5t34.5 2.5q36 0 63.5 -8.5t51.5 -17.5l17 -8l-30 -124q-14 3 -31 8t-34 8t-33.5 3.5t-29.5 -3.5q-14 -5 -27.5 -14t-22.5 -20.5t-12.5 -26.5t2.5 -32q8 -26 37.5 -44t82.5 -18q10 0 21.5 1t30.5 5.5t48.5 13t75.5 23.5l8 -141z" />
    <glyph glyph-name="uni06C3" unicode="&#x6c3;" horiz-adv-x="1012" 
d="M519 -15q-96 0 -176.5 27.5t-138.5 78t-90.5 120.5t-32.5 155q0 84 21 150.5t56.5 124t83 110t100.5 108.5l-63 71l184 167q11 -13 26 -29t30.5 -33t30.5 -33t27 -29q72 -77 140.5 -149.5t122 -145t86 -146t31.5 -152.5q-1 -88 -35 -157.5t-99 -128.5q-60 -51 -136.5 -80
t-167.5 -29zM507 706q-40 -45 -75.5 -85t-61 -80t-39 -82.5t-10.5 -92.5q3 -37 22 -63.5t47 -44t62 -25.5t67 -8q38 0 73 11t61.5 31t42.5 49t16 64q0 43 -17 84t-45.5 81t-65.5 80t-77 81zM652 1164l-168 170l166 172l172 -172zM233 1163l-168 170l165 172l172 -172z" />
    <glyph glyph-name="uni06F0" unicode="&#x6f0;" horiz-adv-x="1051" 
d="M544 161q-84 0 -158 32.5t-129 88t-87 130t-32 158.5t32 158t87 129t129 87t158 32t158.5 -32t130 -87t88 -129t32.5 -158t-32.5 -158.5t-88 -130t-130 -88t-158.5 -32.5zM544 734q-34 0 -63.5 -13t-51.5 -35t-35 -52t-13 -64t13 -64.5t35 -53t51.5 -35.5t63.5 -13
t64.5 13t53 35.5t36 53t13.5 64.5t-13.5 64t-36 52t-53 35t-64.5 13z" />
    <glyph glyph-name="uni06F1" unicode="&#x6f1;" horiz-adv-x="596" 
d="M226 -14v40v48t0.5 49t1.5 44v-1q1 48 1.5 99.5t0.5 108.5q0 110 -2.5 228t-14.5 245.5t-37 264t-71 283.5l233 76q51 -163 79.5 -312.5t42 -286t16.5 -261.5t3 -240q0 -57 -0.5 -109.5t-1.5 -100.5q-1 -20 -1.5 -43.5t-0.5 -47.5v-46v-38h-249z" />
    <glyph glyph-name="uni06F2" unicode="&#x6f2;" horiz-adv-x="1138" 
d="M1011 1465q3 -9 13 -43t20 -81.5t18 -102t8 -104.5q0 -103 -34 -179t-88 -125.5t-122.5 -73.5t-137.5 -24q-68 0 -124.5 16.5t-105.5 44.5q9 -87 14 -173t7 -181.5t2.5 -206.5t-0.5 -248h-246v242q0 118 -3.5 249.5t-18.5 276.5t-46 304t-86 332l237 76l41 -122
q5 -15 16.5 -47.5t30.5 -73t45.5 -83t61.5 -78t78.5 -58t96.5 -22.5q12 0 34.5 4t45 19.5t39.5 46.5t17 84q0 31 -5 67.5t-12.5 71t-16 65t-15.5 51.5z" />
    <glyph glyph-name="uni06F3" unicode="&#x6f3;" horiz-adv-x="1439" 
d="M1317 1465q8 -35 17.5 -77t17 -88.5t12.5 -96t5 -99.5q0 -74 -18 -141t-56.5 -118t-98.5 -81t-144 -30q-30 0 -64.5 6t-69.5 20.5t-69.5 39t-65.5 62.5q-47 -58 -101.5 -86t-105.5 -40h1q-15 -4 -33 -5.5t-36 -1.5q-22 0 -46 3.5t-45 10.5q13 -154 15.5 -290.5
t2.5 -248.5v-218h-248v198q0 118 -2.5 265t-17 306.5t-44 322t-83.5 311.5l235 78q10 -34 19 -62t17 -57t16.5 -61t18.5 -74q10 -38 27 -79.5t39.5 -75.5t51 -56t62.5 -22q23 4 43 19t35 46t23.5 79t8.5 118v39.5t-0.5 36t-2.5 41.5t-5 57l246 22q12 -122 24 -208.5t29 -141
t43.5 -79.5t67.5 -25q33 0 58 30t25 84q0 40 -5 83t-12 83t-15 74t-15 56z" />
    <glyph glyph-name="uni06F9" unicode="&#x6f9;" horiz-adv-x="1072" 
d="M716 -74q-21 57 -36.5 138.5t-26 177t-17.5 200.5t-10 208h-143q-75 0 -149 18.5t-133.5 62.5t-96.5 116.5t-37 180.5q0 105 30 186.5t84.5 138t129.5 86t165 29.5q99 0 173 -35.5t123 -98t73.5 -147.5t24.5 -185q0 -190 5.5 -350.5t15.5 -286.5t24 -215.5t32 -136.5z
M622 896q-1 29 -1 56v50q0 75 -17.5 119.5t-41.5 68t-48.5 30t-37.5 6.5q-38 0 -70 -12t-55.5 -36.5t-36.5 -62t-13 -87.5q0 -39 19 -64.5t47 -40.5t59.5 -21t56.5 -6h139z" />
    <glyph glyph-name="uni06F7" unicode="&#x6f7;" horiz-adv-x="1346" 
d="M1290 1340q-110 -130 -195.5 -298.5t-161.5 -387.5q-32 -92 -58 -185.5t-44.5 -181t-28.5 -166t-10 -138.5h-248q0 59 -10.5 137.5t-29.5 167t-45 182.5t-56 184q-75 211 -164 382t-195 300l193 163q65 -78 125 -181t114 -220.5t102 -243.5t90 -250q41 123 88.5 248.5
t101.5 243.5t114 221.5t127 182.5z" />
    <glyph glyph-name="uni06F8" unicode="&#x6f8;" horiz-adv-x="1356" 
d="M931 801q75 -218 173.5 -402.5t208.5 -317.5l-193 -160q-60 73 -118.5 170t-115.5 215.5t-112 256.5t-109 293q-42 -125 -93 -257t-109.5 -256.5t-121.5 -233t-129 -186.5l-195 158q53 62 105 144t101 175.5t93.5 195.5t82.5 205q28 87 54 175t45 170t30.5 154.5
t11.5 129.5h248q0 -61 10.5 -132t29 -151t45 -167t58.5 -179z" />
    <glyph glyph-name="uni06F4.urdu" horiz-adv-x="1133" 
d="M1107 1288q-41 -35 -72 -71t-60 -70q-26 -30 -54 -68.5t-56 -83.5t-53.5 -95t-44.5 -103l-165 -51q-20 97 -48.5 172.5t-65.5 128.5q-35 50 -68.5 79t-65.5 23q-23 -5 -32.5 -24t-9.5 -39q0 -44 28.5 -132t85.5 -209l89 -182q37 -80 64.5 -156t46.5 -144t29 -126t11 -103
l-208 -56q-15 103 -48.5 208t-74.5 202q-41 96 -82 189t-83 183q-15 33 -30 73.5t-27 84t-20 87.5t-8 84t7.5 78.5t24 73t43 64.5t63.5 53q23 15 67.5 28t94.5 13q52 0 105 -17t96 -60q32 -32 60 -82.5t52 -103.5q25 45 58.5 93.5t72 93t79 81t79.5 57.5z" />
    <glyph glyph-name="uni06F7.urdu" horiz-adv-x="1007" 
d="M886 19q-19 -5 -40.5 -10t-38.5 -7q-30 -5 -71 -9t-86.5 -7t-93 -4.5t-91.5 -1.5q-23 0 -43.5 0.5t-41.5 2t-43 4t-49 5.5h1q-52 5 -98 13t-85 19q-11 51 -18 99.5t-7 95.5q0 101 36 202.5t99 207.5q20 34 44 72.5t56 85.5t75 105t100.5 131.5t132.5 164t171 202.5
l145 -168l-121 -151v1l-240 -311q-63 -84 -111 -160.5t-82.5 -140.5t-54.5 -113.5t-26 -80.5q63 -11 124.5 -17.5t117.5 -6.5q94 0 191.5 11.5t203.5 28.5v-244z" />
    <glyph glyph-name="Ghunna_above" 
d="M-66 1189q-89 0 -141 59.5t-52 170.5q0 60 9 109.5t29 97.5l86 -22q-9 -22 -15 -41.5t-9 -40t-4.5 -44t-1.5 -53.5q0 -152 118 -152h24q80 0 116.5 35t36.5 107v213h90v-207q0 -115 -57 -173.5t-181 -58.5h-48zM-56 1843h90v-333h-90v333z" />
    <glyph glyph-name="uni0651064B" 
d="M-220 1679q-92 0 -144.5 51.5t-52.5 142.5v108h115v-108q0 -42 19.5 -61t62.5 -19q6 0 17.5 2.5t22.5 10.5t19.5 24t8.5 43v108h116v-108q0 -42 19.5 -61.5t63.5 -19.5q6 0 17 3t21.5 11.5t18.5 24.5t8 42t-9.5 64t-20.5 79l109 37q3 -13 9 -32.5t12 -43.5t10.5 -50.5
t4.5 -53.5q0 -50 -16.5 -86.5t-42.5 -60.5t-58.5 -36t-64.5 -12q-43 0 -79 13t-61 35q-26 -24 -59 -35.5t-66 -11.5zM-379 2192l504 187v-138l-504 -189v140zM-379 2433l504 187v-137l-504 -189v139z" />
    <glyph glyph-name="uni0654064B" 
d="M-252 2144l504 187v-138l-504 -189v140zM-252 2385l504 187v-137l-504 -189v139zM-253 1453v149l124 40q-30 31 -49.5 70t-19.5 83q0 34 12 67t33 61t49.5 49t60.5 30q17 5 34.5 7.5t34.5 2.5q36 0 63.5 -8.5t51.5 -17.5l17 -8l-30 -124q-14 3 -31 8t-34 8t-33.5 3.5
t-29.5 -3.5q-14 -5 -27.5 -14t-22.5 -20.5t-12.5 -26.5t2.5 -32q8 -26 37.5 -44t82.5 -18q10 0 21.5 1t30.5 5.5t48.5 13t75.5 23.5l8 -141z" />
    <glyph glyph-name="uni0654064E" 
d="M-252 2120l504 187v-138l-504 -189v140zM-237 1442v149l124 40q-30 31 -49.5 70t-19.5 83q0 34 12 67t33 61t49.5 49t60.5 30q17 5 34.5 7.5t34.5 2.5q36 0 63.5 -8.5t51.5 -17.5l17 -8l-30 -124q-14 3 -31 8t-34 8t-33.5 3.5t-29.5 -3.5q-14 -5 -27.5 -14t-22.5 -20.5
t-12.5 -26.5t2.5 -32q8 -26 37.5 -44t82.5 -18q10 0 21.5 1t30.5 5.5t48.5 13t75.5 23.5l8 -141z" />
    <glyph glyph-name="uni0654064C" 
d="M-280 2166q4 9 10.5 21t12 26t9.5 29t4 29q0 8 -4 18.5t-7 17.5q-14 17 -35 17q-18 0 -39 -9.5t-35 -20.5l-72 71q3 4 15.5 17t32.5 26t47 22.5t60 8.5q37 -2 67.5 -22t48.5 -51q11 -21 16.5 -46.5t5.5 -48.5q0 -13 -1 -25t-3 -24q42 14 88.5 32.5t83.5 41.5
q-35 13 -63.5 33t-49 44t-31.5 51.5t-11 56.5q0 33 16 65q12 25 32 47.5t44 39t51.5 26t54.5 9.5q34 0 63 -14q55 -26 79.5 -75.5t24.5 -105.5q0 -48 -15.5 -97.5t-42.5 -90.5q-22 -32 -58 -59.5t-77.5 -49.5t-85 -38.5t-80 -28t-63 -17.5t-34.5 -7zM68 2552q-10 0 -23 -3.5
t-26 -9.5t-24.5 -15t-18.5 -20q0 -21 13.5 -39t33 -32t42 -24.5t40.5 -17.5q5 19 8 39.5t3 41.5q0 24 -7 44q-5 14 -15.5 25t-25.5 11zM-283 1480v149l124 40q-30 31 -49.5 70t-19.5 83q0 34 12 67t33 61t49.5 49t60.5 30q17 5 34.5 7.5t34.5 2.5q36 0 63.5 -8.5t51.5 -17.5
l17 -8l-30 -124q-14 3 -31 8t-34 8t-33.5 3.5t-29.5 -3.5q-14 -5 -27.5 -14t-22.5 -20.5t-12.5 -26.5t2.5 -32q8 -26 37.5 -44t82.5 -18q10 0 21.5 1t30.5 5.5t48.5 13t75.5 23.5l8 -141z" />
    <glyph glyph-name="uni0654064F" 
d="M-298 2158q33 10 70.5 22.5t75 27.5t72.5 32.5t63 38.5q-37 12 -67.5 32t-52.5 46t-34.5 55.5t-12.5 61.5q0 33 13 62q12 25 32 48t44.5 40t52.5 27t56 10q36 0 67 -17q57 -31 81 -78.5t24 -103.5q0 -54 -19.5 -110t-53.5 -104q-33 -47 -86.5 -82.5t-109.5 -60.5
t-106 -40.5t-76 -23.5zM16 2542q-23 0 -51.5 -11.5t-41.5 -35.5q-6 -11 3 -29.5t28.5 -37.5t46.5 -35t57 -20q6 15 10.5 38t4.5 47q0 31 -12.5 56t-45.5 28h1zM-283 1480v149l124 40q-30 31 -49.5 70t-19.5 83q0 34 12 67t33 61t49.5 49t60.5 30q17 5 34.5 7.5t34.5 2.5
q36 0 63.5 -8.5t51.5 -17.5l17 -8l-30 -124q-14 3 -31 8t-34 8t-33.5 3.5t-29.5 -3.5q-14 -5 -27.5 -14t-22.5 -20.5t-12.5 -26.5t2.5 -32q8 -26 37.5 -44t82.5 -18q10 0 21.5 1t30.5 5.5t48.5 13t75.5 23.5l8 -141z" />
    <glyph glyph-name="uni06540652" 
d="M-25 2144q-54 0 -97 16t-74 45t-47.5 71t-16.5 95t16.5 96t47.5 73t74.5 46t96.5 16q51 0 95.5 -16t76.5 -46t50.5 -72.5t18.5 -94.5t-18 -95t-50 -73t-76.5 -46t-96.5 -15zM-25 2271q22 0 41.5 6.5t34.5 19.5t23.5 31.5t8.5 42.5t-8.5 43.5t-23.5 33t-34.5 21t-41.5 7.5
q-45 0 -77.5 -28t-32.5 -77q0 -51 29.5 -75.5t80.5 -24.5zM-283 1480v149l124 40q-30 31 -49.5 70t-19.5 83q0 34 12 67t33 61t49.5 49t60.5 30q17 5 34.5 7.5t34.5 2.5q36 0 63.5 -8.5t51.5 -17.5l17 -8l-30 -124q-14 3 -31 8t-34 8t-33.5 3.5t-29.5 -3.5q-14 -5 -27.5 -14
t-22.5 -20.5t-12.5 -26.5t2.5 -32q8 -26 37.5 -44t82.5 -18q10 0 21.5 1t30.5 5.5t48.5 13t75.5 23.5l8 -141z" />
    <glyph glyph-name="uni0655064D" 
d="M-248 -1000l504 187v-137l-504 -190v140zM-248 -759l504 188v-138l-504 -189v139zM-240 -651v149l124 40q-30 31 -49.5 70t-19.5 83q0 34 12 67t33 61t49.5 49t60.5 30q17 5 34.5 7.5t34.5 2.5q36 0 63.5 -8.5t51.5 -17.5l17 -8l-30 -124q-14 3 -31 8t-34 8t-33.5 3.5
t-29.5 -3.5q-14 -5 -27.5 -14t-22.5 -20.5t-12.5 -26.5t2.5 -32q8 -26 37.5 -44t82.5 -18q10 0 21.5 1t30.5 5.5t48.5 13t75.5 23.5l8 -141z" />
    <glyph glyph-name="uni06550650" 
d="M-252 -761l504 188v-138l-504 -189v139zM-240 -651v149l124 40q-30 31 -49.5 70t-19.5 83q0 34 12 67t33 61t49.5 49t60.5 30q17 5 34.5 7.5t34.5 2.5q36 0 63.5 -8.5t51.5 -17.5l17 -8l-30 -124q-14 3 -31 8t-34 8t-33.5 3.5t-29.5 -3.5q-14 -5 -27.5 -14t-22.5 -20.5
t-12.5 -26.5t2.5 -32q8 -26 37.5 -44t82.5 -18q10 0 21.5 1t30.5 5.5t48.5 13t75.5 23.5l8 -141z" />
    <glyph glyph-name="uni060D" unicode="&#x60d;" horiz-adv-x="690" 
d="M704 -16h-141q-45 0 -85 -22.5t-76 -72t-68 -129.5t-61 -194l-212 53q81 309 204 462t296 153h143v-250z" />
    <glyph glyph-name="patah.wide" horiz-adv-x="729" 
d="M0 257v222h729v-222h-729z" />
    <glyph glyph-name="uniFD3E" unicode="&#xfd3e;" horiz-adv-x="616" 
d="M67 561q0 269 78 495.5t229 406.5h208q-148 -204 -222.5 -430.5t-74.5 -469.5q0 -234 71 -464v1q36 -113 89 -216t131 -210h-207q-152 176 -227 398.5t-75 488.5z" />
    <glyph glyph-name="uniFD3F" unicode="&#xfd3f;" horiz-adv-x="616" 
d="M550 561q0 -269 -76 -491t-227 -396h-207q75 103 128.5 206.5t89.5 212.5q35 112 54 230.5t19 239.5q0 243 -69.5 469t-218.5 430h210q149 -179 223 -404t74 -497z" />
    <glyph glyph-name="hah_alt.isol" horiz-adv-x="1475" 
d="M1351 575l-590 -243q-129 -49 -214.5 -84t-136 -69.5t-71 -73.5t-20.5 -95q0 -2 1 -19.5t2 -38.5t2 -39t1 -19q12 -127 54 -205t106 -120.5t148 -56.5t180 -14h461v-249h-461q-158 0 -286.5 30.5t-222.5 105t-150.5 198.5t-71.5 310q0 1 -1 18t-2 38t-2 38t-1 18
q0 123 48.5 209.5t131 149t191 107t229.5 82.5l401 132q-116 40 -235.5 78.5t-234.5 75.5q-21 7 -40.5 12.5t-37.5 5.5q-23 0 -41.5 -4.5t-33.5 -16t-27.5 -32.5t-24.5 -54l-229 69q19 60 47.5 112.5t68.5 91.5t92.5 61.5t119.5 22.5q55 0 120 -20q80 -26 146.5 -51.5
t132.5 -52.5q38 -15 79 -34t93 -41.5t117.5 -49.5t152.5 -58z" />
    <glyph glyph-name="hah_alt.fina" horiz-adv-x="1579" 
d="M1006 383l-242 -99q-129 -49 -214.5 -84t-136 -69.5t-71 -73.5t-20.5 -95q0 -2 1 -19.5t2 -38.5t2 -39t1 -19q12 -127 54 -205t106 -120.5t148 -56.5t180 -14h461v-249h-461q-158 0 -286.5 30.5t-222.5 105t-150.5 198.5t-71.5 310q0 1 -1 18t-2 38t-2 38t-1 18
q0 123 48.5 209.5t131 149t191 107t229.5 82.5l401 132q-116 40 -235.5 78.5t-234.5 75.5q-21 7 -40.5 12.5t-37.5 5.5q-23 0 -41.5 -4.5t-33.5 -16t-27.5 -32.5t-24.5 -54l-229 69q19 60 47.5 112.5t68.5 91.5t92.5 61.5t119.5 22.5q55 0 120 -20q80 -26 146.5 -51.5
t132.5 -52.5q38 -15 79 -34t93 -41.5t117.5 -49.5t152.5 -58l9 -225l-103 -42zM1189 470q0 -35 10 -76.5t31 -77t52.5 -59t74.5 -23.5h245v-249h-245q-76 0 -135.5 18t-105.5 48t-78.5 69t-53.5 82t-30.5 85.5t-9.5 80.5z" />
    <glyph glyph-name="diagonal" horiz-adv-x="957" 
d="M96 1357l762 331l52 -112l-827 -361z" />
    <glyph glyph-name="uni200B" unicode="&#x200b;" 
 />
    <glyph glyph-name="exclam" unicode="!" horiz-adv-x="590" 
d="M410 461h-224l-25 1103h275zM293 -145l-179 182l186 185l180 -185z" />
    <glyph glyph-name="quotedbl" unicode="&#x22;" horiz-adv-x="713" 
d="M295 1503l-37 -416h-150v563h187v-147zM619 1503l-38 -416h-149v563h187v-147z" />
    <glyph glyph-name="numbersign" unicode="#" horiz-adv-x="1343" 
d="M772 440h-240l-82 -440h-180l81 440h-248v170h280l63 336h-261v171h293l84 447h179l-84 -447h242l84 447h179l-83 -447h223v-171h-256l-62 -336h237v-170h-269l-82 -440h-179zM564 610h241l62 336h-241z" />
    <glyph glyph-name="dollar" unicode="$" horiz-adv-x="1250" 
d="M880 408q0 92 -58 151.5t-193.5 107t-210.5 88.5q-250 134 -250 398q0 178 108.5 293t293.5 136v235h172v-237q187 -27 289 -158.5t102 -341.5h-260q0 135 -60.5 213t-164.5 78q-103 0 -161 -56t-58 -160q0 -94 57.5 -150t195 -106.5t215.5 -93.5t132 -98.5t83 -127.5
t29 -169q0 -181 -111.5 -294t-309.5 -133v-210h-171v209q-213 23 -327.5 152t-114.5 342h261q0 -135 68.5 -209.5t192.5 -74.5q123 0 187 59t64 157z" />
    <glyph glyph-name="percent" unicode="%" horiz-adv-x="1616" 
d="M106 1263q0 142 91.5 233t239.5 91q151 0 241.5 -91t90.5 -238v-77q0 -141 -90.5 -231.5t-239.5 -90.5q-145 0 -239 89t-94 239v76zM289 1181q0 -75 41.5 -120.5t108.5 -45.5t108 45.5t41 124.5v78q0 74 -41.5 120.5t-109 46.5t-108 -47t-40.5 -123v-79zM858 383
q0 144 93.5 233.5t238.5 89.5q146 0 239 -89.5t93 -240.5v-76q0 -140 -89.5 -230.5t-240 -90.5t-242.5 89.5t-92 236.5v78zM1041 300q0 -73 42.5 -120t108.5 -47q69 0 108.5 44.5t39.5 125.5v80q0 76 -42 121t-108 45t-107.5 -45t-41.5 -125v-79zM493 117l-134 77l764 1223
l134 -77z" />
    <glyph glyph-name="ampersand" unicode="&#x26;" horiz-adv-x="1406" 
d="M92 422q0 109 59.5 199.5t233.5 215.5q-92 115 -128 195.5t-36 155.5q0 184 112 291t301 107q171 0 280 -100.5t109 -249.5q0 -97 -49.5 -179.5t-162.5 -163.5l-106 -78l302 -356q65 129 65 287h227q0 -289 -136 -474l230 -272h-303l-88 104q-167 -125 -399 -125
t-371.5 123t-139.5 320zM610 187q132 0 247 88l-341 403l-34 -24q-129 -98 -129 -223q0 -109 70 -176.5t187 -67.5zM466 1195q0 -91 111 -227l119 82l33 26q67 59 67 152q0 61 -46 104.5t-117 43.5q-77 0 -122 -51.5t-45 -129.5z" />
    <glyph glyph-name="quotesingle" unicode="'" horiz-adv-x="372" 
d="M287 1516l-28 -420h-171v554h199v-134z" />
    <glyph glyph-name="parenleft" unicode="(" horiz-adv-x="767" 
d="M138 636q0 248 66.5 471t195.5 398.5t272 246.5l52 -152q-151 -115 -245 -351t-103 -540l-1 -92q0 -326 92 -581t257 -388l-52 -145q-143 71 -272.5 247.5t-195.5 398.5t-66 487z" />
    <glyph glyph-name="parenright" unicode=")" horiz-adv-x="776" 
d="M637 619q0 -239 -65.5 -460.5t-198.5 -404t-278 -251.5l-52 145q161 124 255 380.5t94 584.5v25q0 299 -81.5 544.5t-234.5 393.5l-33 30l52 146q137 -67 266 -236.5t197.5 -379.5t77.5 -433z" />
    <glyph glyph-name="asterisk" unicode="*" horiz-adv-x="972" 
d="M357 1044l-328 95l59 181l325 -125l-17 369h193l-16 -376l319 124l58 -185l-333 -95l214 -285l-155 -114l-194 309l-191 -300l-157 110z" />
    <glyph glyph-name="plus" unicode="+" horiz-adv-x="1226" 
d="M737 860h408v-238h-408v-465h-254v465h-410v238h410v436h254v-436z" />
    <glyph glyph-name="comma" unicode="," horiz-adv-x="483" 
d="M171 -352l-141 83q62 98 85.5 170.5t24.5 147.5v203h235l-1 -188q-1 -113 -57.5 -227.5t-145.5 -188.5z" />
    <glyph glyph-name="hyphen" unicode="-" horiz-adv-x="722" 
d="M640 560h-564v210h564v-210z" />
    <glyph glyph-name="period" unicode="." horiz-adv-x="614" 
d="M296 275q74 0 113.5 -41.5t39.5 -103.5q0 -61 -39.5 -101.5t-113.5 -40.5q-69 0 -110 40t-41 102t40 103.5t111 41.5z" />
    <glyph glyph-name="slash" unicode="/" horiz-adv-x="870" 
d="M207 -134h-205l616 1698h205z" />
    <glyph glyph-name="zero" unicode="0" horiz-adv-x="1083" 
d="M544 161q-84 0 -158 32.5t-129 88t-87 130t-32 158.5t32 158t87 129t129 87t158 32t158.5 -32t130 -87t88 -129t32.5 -158t-32.5 -158.5t-88 -130t-130 -88t-158.5 -32.5zM544 734q-34 0 -63.5 -13t-51.5 -35t-35 -52t-13 -64t13 -64.5t35 -53t51.5 -35.5t63.5 -13
t64.5 13t53 35.5t36 53t13.5 64.5t-13.5 64t-36 52t-53 35t-64.5 13z" />
    <glyph glyph-name="one" unicode="1" horiz-adv-x="624" 
d="M226 -14v40v48t0.5 49t1.5 44v-1q1 48 1.5 99.5t0.5 108.5q0 110 -2.5 228t-14.5 245.5t-37 264t-71 283.5l233 76q51 -163 79.5 -312.5t42 -286t16.5 -261.5t3 -240q0 -57 -0.5 -109.5t-1.5 -100.5q-1 -20 -1.5 -43.5t-0.5 -47.5v-46v-38h-249z" />
    <glyph glyph-name="two" unicode="2" horiz-adv-x="1149" 
d="M1011 1465q3 -9 13 -43t20 -81.5t18 -102t8 -104.5q0 -103 -34 -179t-88 -125.5t-122.5 -73.5t-137.5 -24q-68 0 -124.5 16.5t-105.5 44.5q9 -87 14 -173t7 -181.5t2.5 -206.5t-0.5 -248h-246v242q0 118 -3.5 249.5t-18.5 276.5t-46 304t-86 332l237 76l41 -122
q5 -15 16.5 -47.5t30.5 -73t45.5 -83t61.5 -78t78.5 -58t96.5 -22.5q12 0 34.5 4t45 19.5t39.5 46.5t17 84q0 31 -5 67.5t-12.5 71t-16 65t-15.5 51.5z" />
    <glyph glyph-name="three" unicode="3" horiz-adv-x="1459" 
d="M1317 1465q8 -35 17.5 -77t17 -88.5t12.5 -96t5 -99.5q0 -74 -18 -141t-56.5 -118t-98.5 -81t-144 -30q-30 0 -64.5 6t-69.5 20.5t-69.5 39t-65.5 62.5q-47 -58 -101.5 -86t-105.5 -40h1q-15 -4 -33 -5.5t-36 -1.5q-22 0 -46 3.5t-45 10.5q13 -154 15.5 -290.5
t2.5 -248.5v-218h-248v198q0 118 -2.5 265t-17 306.5t-44 322t-83.5 311.5l235 78q10 -34 19 -62t17 -57t16.5 -61t18.5 -74q10 -38 27 -79.5t39.5 -75.5t51 -56t62.5 -22q23 4 43 19t35 46t23.5 79t8.5 118v39.5t-0.5 36t-2.5 41.5t-5 57l246 22q12 -122 24 -208.5t29 -141
t43.5 -79.5t67.5 -25q33 0 58 30t25 84q0 40 -5 83t-12 83t-15 74t-15 56z" />
    <glyph glyph-name="four" unicode="4" horiz-adv-x="1366" 
d="M989 925q28 0 55 0.5t54 2.5t56.5 5.5t63.5 9.5l56 -225q-52 -15 -100 -25.5t-99 -17t-108.5 -10t-129.5 -3.5q-104 0 -211.5 16t-204.5 58q6 -81 10.5 -148t6.5 -127t3 -117t1 -118q0 -42 -0.5 -85.5t-0.5 -94.5v-62h-248v63q0 147 -1.5 275t-7 242t-15.5 218t-27 204
t-42 199t-60 203l240 76q16 -52 29.5 -103t26.5 -104q8 -29 14.5 -59.5t14.5 -60.5q18 -71 56.5 -115.5t83.5 -65.5q-6 15 -13 32t-12.5 38.5t-9 47.5t-3.5 58q0 91 35.5 162.5t93 121t130 75t145.5 25.5q58 0 107.5 -13.5t92.5 -34.5t81.5 -46.5t75.5 -49.5l-118 -211
q-35 25 -66 44.5t-60 32.5t-56.5 20.5t-56.5 8.5t-60.5 -8.5t-57.5 -28.5t-43.5 -46.5t-17.5 -62.5q0 -57 27 -95t69.5 -60.5t95.5 -31.5t105 -9z" />
    <glyph glyph-name="five" unicode="5" horiz-adv-x="1376" 
d="M570 1534q6 -5 40.5 -32.5t87.5 -74t118 -110.5t132.5 -141.5t131 -167t113.5 -187t80 -201.5t30 -211q0 -69 -13 -123.5t-33.5 -96t-46 -71t-49.5 -49.5q-51 -42 -113.5 -63t-128.5 -21q-63 0 -121 18t-109 59q-48 -38 -107.5 -58.5t-118.5 -20.5q-48 0 -96 11.5
t-91.5 34.5t-80.5 57t-64 79q-24 40 -37.5 79.5t-20 73t-8.5 58.5t-2 37q0 94 21.5 183t56.5 171.5t80.5 157t93 139t94 117.5t83.5 92l-74 61zM1003 262q27 23 45.5 59.5t18.5 87.5q0 63 -17.5 127.5t-47 128t-69.5 125t-84.5 119.5t-91 111.5t-90.5 100.5
q-32 -36 -72 -82.5t-81 -102t-79.5 -118.5t-68.5 -129.5t-48.5 -136.5t-18.5 -139q0 -35 11.5 -67.5t31.5 -58.5t48 -41.5t60 -15.5q21 0 46 6t46 24q20 18 28.5 45t9 57.5t-3.5 61t-9 55.5l242 46q0 -1 1 -6t2.5 -18t3 -35t3.5 -58q1 -24 -1 -51t-7 -53q15 -38 45.5 -54
t63.5 -16q22 0 43.5 7t39.5 21z" />
    <glyph glyph-name="six" unicode="6" horiz-adv-x="1136" 
d="M1073 980l-74 -78q-14 -13 -48.5 -54t-83.5 -104.5t-108.5 -147.5t-122 -185t-124.5 -216t-116 -240l-228 100q37 85 82 168.5t93 162t95.5 150.5t88.5 134q-42 0 -87.5 6t-90 19.5t-85 36t-71.5 55.5q-51 56 -75.5 122t-24.5 137q0 83 32.5 163t95.5 144
q35 31 72.5 52.5t82 37t97 26.5t116.5 20l49 -232q-36 -3 -73 -11t-70 -19t-60 -25.5t-44 -30.5q-21 -20 -35 -48.5t-18.5 -60t2 -62t27.5 -54.5q14 -17 52.5 -32t95.5 -10q68 4 146 50t166 128l78 81z" />
    <glyph glyph-name="seven" unicode="7" horiz-adv-x="1366" 
d="M1290 1340q-110 -130 -195.5 -298.5t-161.5 -387.5q-32 -92 -58 -185.5t-44.5 -181t-28.5 -166t-10 -138.5h-248q0 59 -10.5 137.5t-29.5 167t-45 182.5t-56 184q-75 211 -164 382t-195 300l193 163q65 -78 125 -181t114 -220.5t102 -243.5t90 -250q41 123 88.5 248.5
t101.5 243.5t114 221.5t127 182.5z" />
    <glyph glyph-name="eight" unicode="8" horiz-adv-x="1376" 
d="M931 801q75 -218 173.5 -402.5t208.5 -317.5l-193 -160q-60 73 -118.5 170t-115.5 215.5t-112 256.5t-109 293q-42 -125 -93 -257t-109.5 -256.5t-121.5 -233t-129 -186.5l-195 158q53 62 105 144t101 175.5t93.5 195.5t82.5 205q28 87 54 175t45 170t30.5 154.5
t11.5 129.5h248q0 -61 10.5 -132t29 -151t45 -167t58.5 -179z" />
    <glyph glyph-name="nine" unicode="9" horiz-adv-x="982" 
d="M676 -74q-21 57 -36.5 138.5t-26 177t-17.5 200.5t-10 208h-143q-75 0 -149 18.5t-133.5 62.5t-96.5 116.5t-37 180.5q0 105 30 186.5t84.5 138t129.5 86t165 29.5q99 0 173 -35.5t123 -98t73.5 -147.5t24.5 -185q0 -190 5.5 -350.5t15.5 -286.5t24 -215.5t32 -136.5z
M582 896q-1 29 -1 56v50q0 75 -17.5 119.5t-41.5 68t-48.5 30t-37.5 6.5q-38 0 -70 -12t-55.5 -36.5t-36.5 -62t-13 -87.5q0 -39 19 -64.5t47 -40.5t59.5 -21t56.5 -6h139z" />
    <glyph glyph-name="colon" unicode=":" horiz-adv-x="583" 
d="M291 275q73 0 113 -41.5t40 -103.5q0 -61 -40 -101.5t-113 -40.5q-70 0 -110.5 40t-40.5 102t39.5 103.5t111.5 41.5zM291 1087q73 0 113 -41.5t40 -103.5q0 -61 -40 -101.5t-113 -40.5q-70 0 -110.5 40t-40.5 102t39.5 103.5t111.5 41.5z" />
    <glyph glyph-name="semicolon" unicode=";" horiz-adv-x="523" 
d="M269 1087q73 0 112.5 -41.5t39.5 -103.5q0 -61 -39.5 -101.5t-112.5 -40.5q-70 0 -111 40t-41 102t40 103.5t112 41.5zM190 -352l-141 83q63 98 86 170.5t24 147.5v203h235l-1 -188q-1 -113 -57.5 -227.5t-145.5 -188.5z" />
    <glyph glyph-name="less" unicode="&#x3c;" horiz-adv-x="1118" 
d="M333 678l634 -241v-261l-899 401v207l899 400v-261z" />
    <glyph glyph-name="equal" unicode="=" horiz-adv-x="1231" 
d="M1082 838h-926v217h926v-217zM1082 382h-926v216h926v-216z" />
    <glyph glyph-name="greater" unicode="&#x3e;" horiz-adv-x="1145" 
d="M801 683l-663 244v257l928 -400v-207l-928 -400v257z" />
    <glyph glyph-name="question" unicode="?" horiz-adv-x="1070" 
d="M376 460q0 143 35.5 227.5t140 186t132.5 144.5q43 66 43 142q0 101 -50 154t-146 53q-93 0 -149.5 -52t-56.5 -141h-261q3 190 130 301t337 111q216 0 336.5 -110t120.5 -306q0 -175 -163 -345l-132 -130q-71 -81 -73 -235h-244zM358 126q0 63 39.5 102t107.5 39
q69 0 108.5 -40t39.5 -101q0 -59 -38.5 -99t-109.5 -40t-109 40t-38 99z" />
    <glyph glyph-name="at" unicode="@" horiz-adv-x="1968" 
d="M1870 556q-13 -268 -132 -423.5t-323 -155.5q-195 0 -260 166q-55 -82 -127.5 -122.5t-152.5 -40.5q-156 0 -237.5 128.5t-61.5 344.5q17 175 85 316t173 217.5t223 76.5q90 0 159.5 -22.5t162.5 -93.5l-56 -604q-20 -213 123 -213q109 0 179.5 117.5t77.5 304.5
q18 397 -153.5 607.5t-515.5 210.5q-210 0 -373 -105.5t-258.5 -304.5t-104.5 -454q-13 -259 61.5 -446.5t228.5 -285t377 -97.5q90 0 188 21.5t167 57.5l41 -147q-65 -43 -176.5 -69.5t-224.5 -26.5q-272 0 -468 115.5t-293 334.5q-101 227 -89 543q12 294 131.5 529
t326.5 365t471 130q267 0 460 -118t288.5 -338.5t82.5 -517.5zM786 453q-14 -146 26 -221.5t127 -75.5q58 0 109.5 51t83.5 140l49 530q-54 20 -105 20q-119 0 -194 -112.5t-96 -331.5z" />
    <glyph glyph-name="A" unicode="A" horiz-adv-x="1464" 
d="M1034 364h-605l-127 -364h-283l591 1564h244l592 -1564h-284zM505 583h453l-226 649z" />
    <glyph glyph-name="B" unicode="B" horiz-adv-x="1388" 
d="M159 0v1564h536q265 0 404 -106.5t139 -316.5q0 -108 -58.5 -193.5t-169.5 -133.5q127 -34 196 -129t69 -228q0 -221 -141 -339t-405 -118h-570zM431 706v-489h302q127 0 199 63.5t72 176.5q0 243 -249 249h-324zM431 906h266q127 0 198.5 57.5t71.5 162.5
q0 116 -66 167.5t-206 51.5h-264v-439z" />
    <glyph glyph-name="C" unicode="C" horiz-adv-x="1436" 
d="M1352 509q-23 -250 -184 -390t-429 -140q-187 0 -329.5 88.5t-219.5 251.5t-80 379v146q0 222 78 390.5t225 260t339 91.5q259 0 417 -141t183 -398h-270q-20 169 -99 243.5t-231 74.5q-177 0 -272 -129.5t-98 -379.5v-138q0 -254 91 -387t266 -133q160 0 240.5 72
t102.5 239h270z" />
    <glyph glyph-name="D" unicode="D" horiz-adv-x="1437" 
d="M159 0v1564h462q207 0 367.5 -92.5t249 -262t88.5 -388.5v-79q0 -222 -89 -390.5t-252.5 -260t-375.5 -91.5h-450zM431 1345v-1128h177q214 0 328.5 133.5t116.5 384.5v87q0 254 -111 388.5t-321 134.5h-190z" />
    <glyph glyph-name="E" unicode="E" horiz-adv-x="1244" 
d="M1073 698h-642v-481h751v-217h-1023v1564h1015v-219h-743v-432h642v-215z" />
    <glyph glyph-name="F" unicode="F" horiz-adv-x="1208" 
d="M1060 663h-629v-663h-272v1564h994v-219h-722v-465h629v-217z" />
    <glyph glyph-name="G" unicode="G" horiz-adv-x="1497" 
d="M1358 203q-85 -111 -235.5 -167.5t-341.5 -56.5q-197 0 -348.5 89t-233.5 255t-85 387v123q0 354 169.5 553.5t473.5 199.5q261 0 415 -129t185 -372h-267q-45 282 -327 282q-183 0 -278 -131.5t-98 -385.5v-121q0 -253 106.5 -393t297.5 -140q208 0 296 94v306h-322v206
h593v-599z" />
    <glyph glyph-name="H" unicode="H" horiz-adv-x="1563" 
d="M1401 0h-271v695h-699v-695h-272v1564h272v-651h699v651h271v-1564z" />
    <glyph glyph-name="I" unicode="I" horiz-adv-x="621" 
d="M446 0h-271v1564h271v-1564z" />
    <glyph glyph-name="J" unicode="J" horiz-adv-x="1221" 
d="M799 1564h271v-1097q0 -224 -140 -356t-370 -132q-245 0 -378.5 123.5t-133.5 343.5h271q0 -125 62 -187.5t179 -62.5q109 0 174 72.5t65 199.5v1096z" />
    <glyph glyph-name="K" unicode="K" horiz-adv-x="1387" 
d="M608 676l-177 -188v-488h-272v1564h272v-734l150 186l458 548h328l-581 -693l615 -871h-322z" />
    <glyph glyph-name="L" unicode="L" horiz-adv-x="1190" 
d="M431 217h710v-217h-982v1564h272v-1347z" />
    <glyph glyph-name="M" unicode="M" horiz-adv-x="1926" 
d="M511 1564l452 -1199l450 1199h351v-1564h-271v516l27 689l-462 -1205h-194l-461 1204l27 -688v-516h-271v1564h352z" />
    <glyph glyph-name="N" unicode="N" horiz-adv-x="1562" 
d="M1400 0h-272l-697 1110v-1110h-272v1564h272l699 -1114v1114h270v-1564z" />
    <glyph glyph-name="O" unicode="O" horiz-adv-x="1519" 
d="M1407 741q0 -230 -79.5 -403.5t-227 -266t-339.5 -92.5q-191 0 -339.5 92.5t-229.5 264.5t-82 397v88q0 229 81 404t228.5 268t339 93t339 -92t228 -264.5t81.5 -401.5v-87zM1135 823q0 260 -98 398.5t-279 138.5q-176 0 -275.5 -138t-101.5 -391v-90
q0 -258 100.5 -398.5t279.5 -140.5q180 0 277 137.5t97 401.5v82z" />
    <glyph glyph-name="P" unicode="P" horiz-adv-x="1406" 
d="M431 581v-581h-272v1564h598q262 0 416.5 -136.5t154.5 -360.5q0 -230 -151 -358t-423 -128h-323zM431 799h326q145 0 221.5 68.5t76.5 197.5q0 126 -77.5 202t-212.5 78h-334v-546z" />
    <glyph glyph-name="Q" unicode="Q" horiz-adv-x="1519" 
d="M1402 741q0 -222 -70.5 -385t-197.5 -258l269 -210l-176 -159l-333 263q-66 -13 -141 -13q-189 0 -338 92.5t-230 264.5t-82 397v88q0 229 81 404t229 268t338 93q193 0 341 -92t228.5 -264.5t81.5 -401.5v-87zM1129 823q0 264 -99 400.5t-279 136.5q-175 0 -274.5 -138
t-101.5 -389v-92q0 -253 99.5 -396t278.5 -143q182 0 279 137.5t97 401.5v82z" />
    <glyph glyph-name="R" unicode="R" horiz-adv-x="1373" 
d="M734 603h-303v-603h-272v1564h550q271 0 418 -121.5t147 -351.5q0 -156 -75.5 -262t-211.5 -163l351 -652v-14h-291zM431 821h279q138 0 215 69t77 190q0 125 -71.5 194t-212.5 71h-287v-524z" />
    <glyph glyph-name="S" unicode="S" horiz-adv-x="1328" 
d="M976 403q0 103 -72.5 159t-261.5 113t-300 126q-214 135 -214 351q0 189 154 311.5t400 122.5q163 0 291 -60.5t201 -171.5t73 -246h-271q0 122 -76.5 191.5t-219.5 69.5q-133 0 -206.5 -57t-73.5 -159q0 -86 79.5 -143.5t262 -112t293 -123.5t162 -159t51.5 -210
q0 -196 -149.5 -311t-406.5 -115q-170 0 -312.5 62.5t-221.5 173t-79 258.5h272q0 -134 88 -207t253 -73q142 0 213 57.5t71 152.5z" />
    <glyph glyph-name="T" unicode="T" horiz-adv-x="1335" 
d="M1289 1345h-488v-1345h-269v1345h-484v219h1241v-219z" />
    <glyph glyph-name="U" unicode="U" horiz-adv-x="1434" 
d="M1303 1564v-1045q0 -249 -159.5 -394.5t-424.5 -145.5q-269 0 -427 143t-158 398v1044h271v-1046q0 -157 79.5 -239.5t234.5 -82.5q313 0 313 330v1038h271z" />
    <glyph glyph-name="V" unicode="V" horiz-adv-x="1423" 
d="M710 341l398 1223h298l-563 -1564h-263l-561 1564h298z" />
    <glyph glyph-name="W" unicode="W" horiz-adv-x="1936" 
d="M1386 387l240 1177h270l-361 -1564h-260l-297 1142l-304 -1142h-261l-361 1564h269l243 -1175l299 1175h227z" />
    <glyph glyph-name="X" unicode="X" horiz-adv-x="1392" 
d="M697 999l329 565h314l-473 -776l483 -788h-317l-336 574l-337 -574h-316l485 788l-474 776h313z" />
    <glyph glyph-name="Y" unicode="Y" horiz-adv-x="1341" 
d="M669 823l360 741h301l-524 -988v-576h-273v576l-525 988h301z" />
    <glyph glyph-name="Z" unicode="Z" horiz-adv-x="1325" 
d="M415 217h835v-217h-1164v176l809 1169h-804v219h1134v-172z" />
    <glyph glyph-name="bracketleft" unicode="[" horiz-adv-x="603" 
d="M580 1598h-177v-1743h177v-203h-438v2151h438v-205z" />
    <glyph glyph-name="backslash" unicode="\" horiz-adv-x="920" 
d="M21 1564h258l653 -1698h-257z" />
    <glyph glyph-name="bracketright" unicode="]" horiz-adv-x="603" 
d="M13 1803h440v-2151h-440v203h179v1743h-179v205z" />
    <glyph glyph-name="asciicircum" unicode="^" horiz-adv-x="940" 
d="M469 1278l-191 -495h-221l321 781h184l320 -781h-220z" />
    <glyph glyph-name="underscore" unicode="_" horiz-adv-x="993" 
d="M988 -205h-985v205h985v-205z" />
    <glyph glyph-name="grave" unicode="`" horiz-adv-x="709" 
d="M560 1325h-217l-290 325h297z" />
    <glyph glyph-name="a" unicode="a" horiz-adv-x="1190" 
d="M828 0q-17 33 -30 108q-124 -129 -305 -129q-175 0 -285.5 99.5t-110.5 246.5q0 186 138 285.5t394 99.5h161v76q0 91 -50.5 145t-154.5 54q-89 0 -146 -44.5t-57 -113.5h-261q0 96 63.5 179t172.5 130.5t243 47.5q205 0 326 -102.5t125 -288.5v-524q0 -157 44 -251v-18
h-267zM541 188q78 0 146 37.5t103 101.5v219h-141q-145 0 -218 -50.5t-73 -143.5q0 -75 50 -119.5t133 -44.5z" />
    <glyph glyph-name="b" unicode="b" horiz-adv-x="1239" 
d="M1154 569q0 -270 -121 -430t-333 -160q-204 0 -318 147l-12 -126h-237v1650h261v-599q113 133 304 133q213 0 334.5 -158t121.5 -442v-15zM893 592q0 189 -67 283.5t-193 94.5q-170 0 -239 -148v-479q70 -152 241 -152q122 0 189 91.5t69 276.5v33z" />
    <glyph glyph-name="c" unicode="c" horiz-adv-x="1152" 
d="M611 187q98 0 162.5 57t68.5 141h246q-4 -109 -67.5 -203t-172 -148.5t-234.5 -54.5q-243 0 -386 157.5t-143 436.5v26q0 266 141.5 425.5t386.5 159.5q208 0 338.5 -121t136.5 -317h-246q-4 99 -68 163.5t-163 64.5q-127 0 -195.5 -91.5t-69.5 -278.5v-42
q0 -189 68 -282t197 -93z" />
    <glyph glyph-name="d" unicode="d" horiz-adv-x="1242" 
d="M85 590q0 268 124.5 431t334.5 163q184 0 298 -129v595h261v-1650h-236l-13 120q-117 -141 -313 -141q-204 0 -330 164t-126 447zM346 567q0 -177 68 -276.5t194 -99.5q160 0 234 143v496q-72 140 -232 140q-127 0 -195.5 -100.5t-68.5 -302.5z" />
    <glyph glyph-name="e" unicode="e" horiz-adv-x="1181" 
d="M646 -21q-249 0 -403 156t-154 416v32q0 174 67 311t188.5 213.5t271.5 76.5q237 0 366.5 -151.5t129.5 -428.5v-106h-760q12 -144 96.5 -227.5t212.5 -83.5q179 0 292 145l141 -134q-70 -105 -186.5 -162t-261.5 -57zM614 974q-107 0 -173 -75t-84 -209h497v19
q-9 131 -70 198t-170 67z" />
    <glyph glyph-name="f" unicode="f" horiz-adv-x="780" 
d="M226 0v969h-178v193h178v107q0 193 107 298.5t301 105.5q69 0 146 -20l-7 -204q-43 9 -99 9q-187 0 -187 -193v-103h236v-193h-236v-969h-261z" />
    <glyph glyph-name="g" unicode="g" horiz-adv-x="1247" 
d="M88 590q0 270 127.5 432t337.5 162q199 0 313 -139l12 117h235v-1127q0 -228 -142.5 -360.5t-383.5 -132.5q-128 0 -250 53.5t-186 139.5l124 157q120 -143 296 -143q130 0 205.5 70t75.5 207v78q-113 -125 -301 -125q-204 0 -333.5 162t-129.5 449zM348 567
q0 -175 71.5 -275.5t198.5 -100.5q158 0 234 136v511q-74 132 -232 132q-129 0 -200.5 -102t-71.5 -301z" />
    <glyph glyph-name="h" unicode="h" horiz-adv-x="1221" 
d="M391 1036q128 148 323 148q372 0 377 -425v-759h-261v750q0 120 -52 170t-153 50q-157 0 -234 -140v-830h-261v1650h261v-614z" />
    <glyph glyph-name="i" unicode="i" horiz-adv-x="562" 
d="M411 0h-261v1162h261v-1162zM134 1464q0 60 38.5 100t109 40t109.5 -40t39 -100q0 -59 -39 -98t-109.5 -39t-109 39t-38.5 98z" />
    <glyph glyph-name="j" unicode="j" horiz-adv-x="551" 
d="M406 1162v-1265q0 -178 -88.5 -272t-259.5 -94q-72 0 -139 18v206q41 -10 93 -10q130 0 133 142v1275h261zM122 1464q0 60 38.5 100t109.5 40t109.5 -40t38.5 -100q0 -59 -38.5 -98t-109.5 -39t-109.5 39t-38.5 98z" />
    <glyph glyph-name="k" unicode="k" horiz-adv-x="1148" 
d="M511 498l-116 -119v-379h-261v1650h261v-952l82 102l321 362h314l-432 -484l478 -678h-302z" />
    <glyph glyph-name="l" unicode="l" horiz-adv-x="562" 
d="M411 0h-261v1650h261v-1650z" />
    <glyph glyph-name="m" unicode="m" horiz-adv-x="1914" 
d="M379 1162l8 -121q122 143 335 143q233 0 319 -179q127 179 357 179q192 0 286 -106.5t96 -313.5v-764h-261v756q0 111 -48.5 162.5t-159.5 51.5q-90 0 -146 -48t-79 -125l1 -797h-261v765q-5 205 -209 205q-157 0 -223 -128v-842h-261v1162h246z" />
    <glyph glyph-name="n" unicode="n" horiz-adv-x="1224" 
d="M376 1162l7 -134q129 156 339 156q363 0 369 -416v-768h-261v753q0 111 -47.5 164t-156.5 53q-158 0 -235 -143v-827h-261v1162h246z" />
    <glyph glyph-name="o" unicode="o" horiz-adv-x="1253" 
d="M85 592q0 171 67.5 308t190 210.5t281.5 73.5q235 0 382 -151.5t158 -401.5l2 -62q0 -172 -66.5 -307t-189.5 -209t-284 -74q-246 0 -393.5 163.5t-147.5 436.5v13zM346 569q0 -179 74 -280.5t206 -101.5t206 103t74 302q0 176 -76 279t-206 103q-128 0 -203 -101.5
t-75 -303.5z" />
    <glyph glyph-name="p" unicode="p" horiz-adv-x="1239" 
d="M1152 569q0 -269 -122.5 -429.5t-329.5 -160.5q-191 0 -306 125v-551h-261v1609h241l11 -118q115 140 312 140q213 0 334 -158.5t121 -440.5v-16zM892 592q0 174 -69.5 276t-198.5 102q-160 0 -230 -132v-516q71 -135 232 -135q125 0 195.5 100.5t70.5 304.5z" />
    <glyph glyph-name="q" unicode="q" horiz-adv-x="1249" 
d="M85 591q0 273 124.5 433t337.5 160q194 0 308 -137l15 115h232v-1609h-261v546q-114 -120 -296 -120q-209 0 -334.5 162.5t-125.5 449.5zM346 568q0 -178 70.5 -279.5t194.5 -101.5q155 0 230 132v529q-75 126 -228 126q-124 0 -195.5 -99.5t-71.5 -306.5z" />
    <glyph glyph-name="r" unicode="r" horiz-adv-x="773" 
d="M742 924q-51 8 -106 8q-179 0 -242 -137v-795h-261v1162h249l7 -130q94 152 262 152q56 0 92 -15z" />
    <glyph glyph-name="s" unicode="s" horiz-adv-x="1135" 
d="M785 316q0 70 -57.5 106.5t-190.5 64.5t-222 71q-196 94 -196 273q0 151 127 252t322 101q209 0 337 -103t128 -268h-261q0 75 -55.5 125t-148.5 50q-86 0 -140 -39.5t-54 -106.5q0 -60 50.5 -93.5t204 -67t241 -80.5t130 -112.5t42.5 -158.5q0 -157 -130 -254t-341 -97
q-142 0 -254 51.5t-174 141.5t-62 194h253q5 -92 69.5 -142t171.5 -50q103 0 156.5 39t53.5 103z" />
    <glyph glyph-name="t" unicode="t" horiz-adv-x="732" 
d="M461 1445v-283h205v-193h-205v-649q0 -66 26 -96t94 -30q45 0 91 11v-202q-89 -24 -171 -24q-301 0 -301 331v659h-191v193h191v283h261z" />
    <glyph glyph-name="u" unicode="u" horiz-adv-x="1222" 
d="M838 114q-115 -135 -327 -135q-189 0 -286 110.5t-97 319.5v753h261v-749q0 -222 184 -222q190 0 256 137v834h261v-1162h-246z" />
    <glyph glyph-name="v" unicode="v" horiz-adv-x="1088" 
d="M544 331l246 831h269l-403 -1162h-226l-406 1162h270z" />
    <glyph glyph-name="w" unicode="w" horiz-adv-x="1635" 
d="M1155 360l185 802h254l-317 -1162h-215l-249 798l-245 -798h-215l-318 1162h255l188 -794l239 794h196z" />
    <glyph glyph-name="x" unicode="x" horiz-adv-x="1106" 
d="M551 780l221 382h290l-355 -572l367 -590h-288l-232 397l-231 -397h-290l368 590l-355 572h288z" />
    <glyph glyph-name="y" unicode="y" horiz-adv-x="1071" 
d="M540 374l237 788h278l-462 -1338q-106 -293 -361 -293q-57 0 -126 19v202l50 -3q99 0 148.5 36t78.5 120l38 100l-408 1157h281z" />
    <glyph glyph-name="z" unicode="z" horiz-adv-x="1106" 
d="M413 208h618v-208h-943v171l590 781h-579v210h910v-165z" />
    <glyph glyph-name="braceleft" unicode="{" horiz-adv-x="738" 
d="M654 -387q-379 107 -387 485v229q0 241 -207 241v191q207 0 207 243v228q4 193 101 312.5t286 173.5l52 -151q-186 -60 -193 -329v-232q0 -241 -185 -339q185 -99 185 -343v-229q7 -268 193 -328z" />
    <glyph glyph-name="bar" unicode="|" horiz-adv-x="552" 
d="M366 -290h-179v1854h179v-1854z" />
    <glyph glyph-name="braceright" unicode="}" horiz-adv-x="738" 
d="M29 -235q189 61 193 335v223q0 248 196 341q-196 92 -196 344v222q-4 274 -193 335l52 151q195 -55 290.5 -178t95.5 -322v-215q0 -242 209 -242v-191q-209 0 -209 -241v-212q0 -201 -96 -324t-290 -178z" />
    <glyph glyph-name="asciitilde" unicode="~" horiz-adv-x="1462" 
d="M1336 844q0 -189 -102 -308.5t-254 -119.5q-80 0 -147 30t-150 103.5t-118.5 91t-76.5 17.5q-72 0 -113.5 -55.5t-41.5 -145.5h-207q0 183 97.5 300.5t256.5 117.5q80 0 151.5 -31.5t149 -102.5t113.5 -89t78 -18q72 0 117 60t45 150h202z" />
    <glyph glyph-name="exclamdown" unicode="&#xa1;" horiz-adv-x="582" 
d="M183 711h224l26 -1102h-276zM439 1043q0 -60 -38.5 -100.5t-108.5 -40.5q-71 0 -109.5 40.5t-38.5 100.5q0 59 38.5 99.5t109.5 40.5q70 0 108.5 -40.5t38.5 -99.5z" />
    <glyph glyph-name="cent" unicode="&#xa2;" horiz-adv-x="1234" 
d="M635 187q95 0 159.5 56t71.5 142h245q-5 -147 -110.5 -257t-262.5 -140v-251h-215v251q-196 37 -306 191t-110 390v30q0 229 110 384t306 191v242h215v-241q170 -30 269 -146t104 -283h-245q-8 103 -71 165.5t-161 62.5q-247 0 -264 -335l-2 -77q0 -189 68.5 -282
t198.5 -93z" />
    <glyph glyph-name="sterling" unicode="&#xa3;" horiz-adv-x="1294" 
d="M547 642l7 -189q0 -145 -68 -236h747l-1 -217h-1127v217h88q42 10 65 69.5t23 157.5l-7 198h-173v214h166l-8 260q0 217 134 342.5t352.5 125.5t343 -117t124.5 -314h-263q0 102 -56.5 158t-157.5 56q-96 0 -151 -69.5t-55 -181.5l9 -260h334v-214h-326z" />
    <glyph glyph-name="currency" unicode="&#xa4;" horiz-adv-x="1544" 
d="M1166 115q-171 -136 -389 -136q-217 0 -387 135l-139 -142l-151 155l145 147q-107 168 -107 379q0 215 117 392l-155 158l151 155l153 -156q166 124 373 124q208 0 375 -126l155 159l153 -156l-159 -162q115 -171 115 -388q0 -207 -105 -375l149 -151l-153 -156zM336 653
q0 -129 59 -239.5t161 -173.5t220.5 -63t220.5 63.5t160.5 174t58.5 238.5t-58.5 237.5t-160 172.5t-221 63t-221.5 -63t-160.5 -172.5t-58.5 -237.5z" />
    <glyph glyph-name="yen" unicode="&#xa5;" horiz-adv-x="1341" 
d="M667 881l338 683h301l-422 -767h289v-163h-375v-148h375v-163h-375v-323h-271v323h-380v163h380v148h-380v163h302l-422 767h302z" />
    <glyph glyph-name="brokenbar" unicode="&#xa6;" horiz-adv-x="546" 
d="M146 -290v854h246v-854h-246zM392 750h-246v814h246v-814z" />
    <glyph glyph-name="section" unicode="&#xa7;" horiz-adv-x="1366" 
d="M1250 489q0 -198 -183 -293q145 -108 145 -307q0 -185 -145 -291.5t-397 -106.5q-264 0 -418.5 116.5t-154.5 338.5l260 1q0 -118 83.5 -182.5t229.5 -64.5q130 0 206 51t76 136q0 83 -72 132t-273 108q-202 55 -304 114t-152 141.5t-50 199.5q0 198 182 295
q-70 53 -106.5 126t-36.5 181q0 182 147.5 292t394.5 110q258 0 402 -121t144 -340h-261q0 114 -78 182.5t-207 68.5q-132 0 -206.5 -51t-74.5 -139q0 -90 64.5 -137t272 -102.5t312 -116.5t152.5 -143t48 -198zM646 723q-87 23 -169 53q-116 -43 -116 -177q0 -87 53 -133
t213 -96l193 -57l49 -18q124 51 124 177q0 87 -73.5 139t-273.5 112z" />
    <glyph glyph-name="dieresis" unicode="&#xa8;" horiz-adv-x="968" 
d="M100 1467q0 54 36 90.5t99.5 36.5t100 -36.5t36.5 -90t-36.5 -90t-100 -36.5t-99.5 36.5t-36 89.5zM590 1466q0 54 36.5 90.5t100 36.5t100 -36.5t36.5 -90t-36.5 -90t-100 -36.5t-100 36.5t-36.5 89.5z" />
    <glyph glyph-name="copyright" unicode="&#xa9;" horiz-adv-x="1723" 
d="M1201 640q0 -163 -94 -250t-266 -87t-273.5 114.5t-101.5 307.5v121q0 187 102.5 301.5t272.5 114.5q175 0 268 -88.5t93 -248.5h-168q0 103 -49 147.5t-144 44.5q-99 0 -154 -73t-55 -200v-125q0 -127 55.5 -199t153.5 -72q96 0 144 43.5t48 148.5h168zM1487 783
q0 178 -80.5 331.5t-228 245t-322.5 91.5q-171 0 -317.5 -88t-230 -242.5t-83.5 -337.5t83 -337.5t229.5 -244t318.5 -89.5t319.5 91t229.5 246t82 334zM93 783q0 217 100.5 403t278.5 293t384 107t383.5 -107t278 -293t100.5 -403t-100.5 -403t-276.5 -293.5t-385 -107.5
q-207 0 -384 107t-278 293t-101 404z" />
    <glyph glyph-name="ordfeminine" unicode="&#xaa;" horiz-adv-x="981" 
d="M653 757l-18 73q-83 -88 -216 -88q-127 0 -197.5 66t-70.5 179q0 118 90.5 183t276.5 65h109v55q0 137 -124 137q-70 0 -109.5 -27.5t-39.5 -79.5l-185 15q0 112 94 181.5t240 69.5q147 0 229.5 -78t82.5 -220v-339q0 -105 28 -192h-190zM465 897q43 0 88 19.5t74 46.5
v147h-114q-81 -1 -127.5 -33.5t-46.5 -84.5q0 -95 126 -95z" />
    <glyph glyph-name="guillemotleft" unicode="&#xab;" horiz-adv-x="1068" 
d="M317 577l265 -429h-179l-310 419v21l310 419h179zM703 577l265 -429h-180l-309 419v21l309 419h180z" />
    <glyph glyph-name="logicalnot" unicode="&#xac;" horiz-adv-x="1217" 
d="M1033 402h-214v279h-683v184h897v-463z" />
    <glyph glyph-name="uni00AD" unicode="&#xad;" horiz-adv-x="722" 
d="M640 560h-564v210h564v-210z" />
    <glyph glyph-name="registered" unicode="&#xae;" horiz-adv-x="1723" 
d="M93 783q0 217 100.5 403t278.5 293t384 107t383.5 -107t278 -293t100.5 -403t-100.5 -403t-276.5 -293.5t-385 -107.5q-207 0 -384 107t-278 293t-101 404zM1487 783q0 178 -80.5 331.5t-228 245t-322.5 91.5q-171 0 -317.5 -88t-230 -242.5t-83.5 -337.5t83 -337.5
t229.5 -244t318.5 -89.5t319.5 91t229.5 246t82 334zM701 701v-362h-162v914h302q164 0 256.5 -72.5t92.5 -207.5q0 -125 -129 -193q70 -31 98 -91t28 -147.5t4 -124t14 -60.5v-18h-166q-14 37 -14 209q0 81 -35.5 117t-118.5 36h-170zM701 845h154q74 0 124 33.5t50 91.5
q0 75 -38 107t-138 33h-152v-265z" />
    <glyph glyph-name="macron" unicode="&#xaf;" horiz-adv-x="1060" 
d="M926 1394h-781v170h781v-170z" />
    <glyph glyph-name="degree" unicode="&#xb0;" horiz-adv-x="836" 
d="M420 1586q114 0 196.5 -85t82.5 -203.5t-81.5 -201.5t-197.5 -83q-117 0 -200.5 83t-83.5 201.5t84.5 203.5t199.5 85zM420 1164q57 0 94 38.5t37 95.5q0 56 -37 96.5t-94 40.5t-95.5 -40.5t-38.5 -96.5t39 -95t95 -39z" />
    <glyph glyph-name="plusminus" unicode="&#xb1;" horiz-adv-x="1179" 
d="M718 966h368v-214h-368v-417h-232v417h-384v214h384v405h232v-405zM1046 1h-912v211h912v-211z" />
    <glyph glyph-name="uni00B2" unicode="&#xb2;" horiz-adv-x="814" 
d="M741 717h-657v134l306 280q121 111 121 183q0 45 -29 73.5t-85 28.5q-62 0 -97.5 -35.5t-35.5 -93.5h-200q0 125 91 207t236 82q154 0 237.5 -69t83.5 -192q0 -115 -114 -225l-105 -93l-150 -122h398v-158z" />
    <glyph glyph-name="uni00B3" unicode="&#xb3;" horiz-adv-x="814" 
d="M288 1216h87q142 0 142 104q0 38 -29 66.5t-96 28.5q-51 0 -86 -21t-35 -59h-200q0 107 88.5 173.5t228.5 66.5q153 0 241 -65t88 -178q0 -128 -146 -183q161 -44 161 -196q0 -114 -95.5 -181.5t-248.5 -67.5q-145 0 -237 68t-92 189h200q0 -40 37 -68.5t101 -28.5
q68 0 101 29.5t33 74.5q0 108 -144 109h-99v139z" />
    <glyph glyph-name="acute" unicode="&#xb4;" horiz-adv-x="717" 
d="M330 1650h297l-297 -325h-210z" />
    <glyph glyph-name="mu" unicode="&#xb5;" horiz-adv-x="1301" 
d="M417 1162v-683q2 -151 50 -221t161 -70q181 0 244 130v844h261v-1162h-239l-8 92q-99 -115 -257 -115q-129 0 -212 60v-484h-260v1609h260z" />
    <glyph glyph-name="paragraph" unicode="&#xb6;" horiz-adv-x="1080" 
d="M692 0v559h-86q-247 0 -389.5 136t-142.5 366q0 229 143 366t390 137h310v-1564h-225z" />
    <glyph glyph-name="periodcentered" unicode="&#xb7;" horiz-adv-x="621" 
d="M153 767q0 62 39.5 104t111.5 42t112.5 -42t40.5 -104q0 -63 -42 -103t-111 -40q-70 0 -110.5 40t-40.5 103z" />
    <glyph glyph-name="cedilla" unicode="&#xb8;" horiz-adv-x="567" 
d="M342 3l-12 -58q161 -29 161 -186q0 -112 -92.5 -175.5t-258.5 -63.5l-8 147q71 0 109 25t38 71q0 48 -38 67t-124 24l34 149h191z" />
    <glyph glyph-name="uni00B9" unicode="&#xb9;" horiz-adv-x="814" 
d="M552 722h-199v612l-215 -51v156l394 128h20v-845z" />
    <glyph glyph-name="ordmasculine" unicode="&#xba;" horiz-adv-x="1004" 
d="M128 1204q0 172 102.5 277t269 105t269.5 -104.5t103 -282.5v-78q0 -170 -101 -275t-269 -105q-170 0 -272 105.5t-102 280.5v77zM316 1121q0 -105 50 -164t136 -59q83 0 132 58t50 162v86q0 104 -50 163.5t-134 59.5t-134 -59t-50 -168v-79z" />
    <glyph glyph-name="guillemotright" unicode="&#xbb;" horiz-adv-x="1068" 
d="M279 1007l310 -419v-21l-310 -419h-179l265 429l-265 430h179zM680 1007l309 -419v-21l-309 -419h-179l265 429l-265 430h179z" />
    <glyph glyph-name="onequarter" unicode="&#xbc;" horiz-adv-x="1598" 
d="M510 713h-198v613l-216 -52v157l394 128h20v-846zM487 126l-135 77l764 1222l134 -77zM1414 337h102v-162h-102v-175h-201v175h-385l-9 130l392 543h203v-511zM1013 337h200v260l-15 -23z" />
    <glyph glyph-name="onehalf" unicode="&#xbd;" horiz-adv-x="1696" 
d="M440 126l-134 77l764 1222l134 -77zM501 717h-199v612l-216 -52v157l394 128h21v-845zM1594 0h-657v134l306 281q121 110 121 182q0 45 -29 73.5t-85 28.5q-62 0 -97.5 -35.5t-35.5 -93.5h-200q0 125 91 207t236 82q154 0 237.5 -68.5t83.5 -192.5q0 -115 -114 -224
l-105 -94l-150 -121h398v-159z" />
    <glyph glyph-name="threequarters" unicode="&#xbe;" horiz-adv-x="1743" 
d="M638 126l-134 77l764 1222l134 -77zM1544 337h102v-162h-102v-175h-201v175h-385l-9 130l392 543h203v-511zM1143 337h200v260l-15 -23zM339 1217h87q142 0 142 104q0 38 -29 66.5t-95 28.5q-52 0 -87 -21t-35 -59h-200q0 107 89 173.5t228 66.5q154 0 241.5 -65
t87.5 -178q0 -128 -145 -183q160 -44 160 -196q0 -114 -95 -181.5t-249 -67.5q-145 0 -236.5 68t-91.5 190h199q0 -41 37.5 -69.5t101.5 -28.5q68 0 100.5 29.5t32.5 74.5q0 108 -144 110h-99v138z" />
    <glyph glyph-name="questiondown" unicode="&#xbf;" horiz-adv-x="1070" 
d="M677 710q-2 -133 -30.5 -211t-107.5 -163l-110 -114q-97 -104 -97 -218q0 -101 52.5 -151t148.5 -50q94 0 151 54t57 143h261q-2 -190 -130.5 -302t-336.5 -112q-221 0 -342.5 108t-121.5 306q0 177 166 352l99 100q84 78 95 201l2 57h244zM698 1044q0 -60 -38 -100.5
t-109 -40.5t-109.5 40.5t-38.5 100.5q0 59 38.5 99.5t109.5 40.5t109 -40.5t38 -99.5z" />
    <glyph glyph-name="Agrave" unicode="&#xc0;" horiz-adv-x="1464" 
d="M1034 364h-605l-127 -364h-283l591 1564h244l592 -1564h-284zM505 583h453l-226 649zM872 1658h-217l-290 325h298z" />
    <glyph glyph-name="Aacute" unicode="&#xc1;" horiz-adv-x="1464" 
d="M1034 364h-605l-127 -364h-283l591 1564h244l592 -1564h-284zM505 583h453l-226 649zM813 1983h298l-298 -325h-209z" />
    <glyph glyph-name="Acircumflex" unicode="&#xc2;" horiz-adv-x="1464" 
d="M1034 364h-605l-127 -364h-283l591 1564h244l592 -1564h-284zM505 583h453l-226 649zM1106 1685v-11h-209l-161 167l-160 -167h-208v14l292 296h153z" />
    <glyph glyph-name="Atilde" unicode="&#xc3;" horiz-adv-x="1464" 
d="M1034 364h-605l-127 -364h-283l591 1564h244l592 -1564h-284zM505 583h453l-226 649zM1130 1959q0 -118 -68 -196.5t-171 -78.5q-42 0 -73 9.5t-87 41.5t-79.5 38.5t-51.5 6.5q-40 0 -68.5 -30.5t-28.5 -80.5l-160 9q0 118 68 198.5t170 80.5q61 0 147.5 -48t142.5 -48
q41 0 70 30.5t29 80.5z" />
    <glyph glyph-name="Adieresis" unicode="&#xc4;" horiz-adv-x="1464" 
d="M1034 364h-605l-127 -364h-283l591 1564h244l592 -1564h-284zM505 583h453l-226 649zM356 1800q0 54 36 90.5t99 36.5t99.5 -36.5t36.5 -90t-36.5 -90t-99.5 -36.5t-99 36.5t-36 89.5zM845 1799q0 54 36.5 90.5t100 36.5t100 -36.5t36.5 -90t-36.5 -90t-100 -36.5
t-100 36.5t-36.5 89.5z" />
    <glyph glyph-name="Aring" unicode="&#xc5;" horiz-adv-x="1464" 
d="M1034 364h-605l-127 -364h-283l591 1564h244l592 -1564h-284zM505 583h453l-226 649zM737 2084q100 0 168.5 -66t68.5 -157.5t-67 -156t-170 -64.5q-104 0 -171.5 64.5t-67.5 156t68.5 157.5t170.5 66zM617 1861q0 -51 35.5 -86t84.5 -35q50 0 85 34.5t35 86.5
q0 49 -33.5 85t-86.5 36t-86.5 -36t-33.5 -85z" />
    <glyph glyph-name="AE" unicode="&#xc6;" horiz-adv-x="2068" 
d="M2018 0h-964l-16 365h-540l-197 -365h-312l897 1564h1066v-212h-694l18 -438h589v-211h-580l21 -492h712v-211zM623 596h405l-29 696z" />
    <glyph glyph-name="Ccedilla" unicode="&#xc7;" horiz-adv-x="1436" 
d="M1352 509q-23 -250 -184 -390t-429 -140q-187 0 -329.5 88.5t-219.5 251.5t-80 379v146q0 222 78 390.5t225 260t339 91.5q259 0 417 -141t183 -398h-270q-20 169 -99 243.5t-231 74.5q-177 0 -272 -129.5t-98 -379.5v-138q0 -254 91 -387t266 -133q160 0 240.5 72
t102.5 239h270zM833 -2l-12 -58q161 -29 161 -186q0 -113 -92.5 -176.5t-258.5 -63.5l-8 148q71 0 109 25t38 70q0 49 -38 67.5t-124 24.5l34 149h191z" />
    <glyph glyph-name="Egrave" unicode="&#xc8;" horiz-adv-x="1244" 
d="M1073 698h-642v-481h751v-217h-1023v1564h1015v-219h-743v-432h642v-215zM809 1665h-217l-290 326h297z" />
    <glyph glyph-name="Eacute" unicode="&#xc9;" horiz-adv-x="1244" 
d="M1073 698h-642v-481h751v-217h-1023v1564h1015v-219h-743v-432h642v-215zM750 1991h297l-297 -326h-210z" />
    <glyph glyph-name="Ecircumflex" unicode="&#xca;" horiz-adv-x="1244" 
d="M1073 698h-642v-481h751v-217h-1023v1564h1015v-219h-743v-432h642v-215zM1043 1693v-12h-209l-162 168l-160 -168h-207v14l291 297h154z" />
    <glyph glyph-name="Edieresis" unicode="&#xcb;" horiz-adv-x="1244" 
d="M1073 698h-642v-481h751v-217h-1023v1564h1015v-219h-743v-432h642v-215zM292 1808q0 54 36 90.5t99.5 36.5t100 -36.5t36.5 -90.5t-36.5 -90.5t-100 -36.5t-99.5 36.5t-36 90.5zM782 1807q0 54 36.5 90.5t100 36.5t100 -36.5t36.5 -90.5t-36.5 -90.5t-100 -36.5
t-100 36.5t-36.5 90.5z" />
    <glyph glyph-name="Igrave" unicode="&#xcc;" horiz-adv-x="621" 
d="M446 0h-271v1564h271v-1564zM447 1665h-217l-290 326h297z" />
    <glyph glyph-name="Iacute" unicode="&#xcd;" horiz-adv-x="621" 
d="M446 0h-271v1564h271v-1564zM387 1991h297l-297 -326h-210z" />
    <glyph glyph-name="Icircumflex" unicode="&#xce;" horiz-adv-x="621" 
d="M446 0h-271v1564h271v-1564zM681 1693v-12h-209l-162 168l-160 -168h-207v14l291 297h154z" />
    <glyph glyph-name="Idieresis" unicode="&#xcf;" horiz-adv-x="621" 
d="M446 0h-271v1564h271v-1564zM-70 1808q0 54 36 90.5t99.5 36.5t100 -36.5t36.5 -90.5t-36.5 -90.5t-100 -36.5t-99.5 36.5t-36 90.5zM420 1807q0 54 36.5 90.5t100 36.5t100 -36.5t36.5 -90.5t-36.5 -90.5t-100 -36.5t-100 36.5t-36.5 90.5z" />
    <glyph glyph-name="Eth" unicode="&#xd0;" horiz-adv-x="1470" 
d="M191 0v700h-201v183h201v681h462q207 0 368 -92.5t249 -262t88 -388.5v-79q0 -222 -88.5 -390.5t-252.5 -260t-376 -91.5h-450zM709 700h-246v-483h175q218 0 332.5 136t114.5 394v75q0 254 -110.5 388.5t-321.5 134.5h-190v-462h246v-183z" />
    <glyph glyph-name="Ntilde" unicode="&#xd1;" horiz-adv-x="1562" 
d="M1400 0h-272l-697 1110v-1110h-272v1564h272l699 -1114v1114h270v-1564zM1174 1959q0 -118 -68 -196.5t-171 -78.5q-42 0 -73 9.5t-87 41.5t-79.5 38.5t-50.5 6.5q-41 0 -69.5 -30.5t-28.5 -80.5l-160 9q0 118 68 198.5t170 80.5q61 0 147.5 -48t142.5 -48q41 0 70 30.5
t29 80.5z" />
    <glyph glyph-name="Ograve" unicode="&#xd2;" horiz-adv-x="1519" 
d="M1407 741q0 -230 -79.5 -403.5t-227 -266t-339.5 -92.5q-191 0 -339.5 92.5t-229.5 264.5t-82 397v88q0 229 81 404t228.5 268t339 93t339 -92t228 -264.5t81.5 -401.5v-87zM1135 823q0 260 -98 398.5t-279 138.5q-176 0 -275.5 -138t-101.5 -391v-90
q0 -258 100.5 -398.5t279.5 -140.5q180 0 277 137.5t97 401.5v82zM897 1658h-217l-290 325h298z" />
    <glyph glyph-name="Oacute" unicode="&#xd3;" horiz-adv-x="1519" 
d="M1407 741q0 -230 -79.5 -403.5t-227 -266t-339.5 -92.5q-191 0 -339.5 92.5t-229.5 264.5t-82 397v88q0 229 81 404t228.5 268t339 93t339 -92t228 -264.5t81.5 -401.5v-87zM1135 823q0 260 -98 398.5t-279 138.5q-176 0 -275.5 -138t-101.5 -391v-90
q0 -258 100.5 -398.5t279.5 -140.5q180 0 277 137.5t97 401.5v82zM838 1983h297l-297 -325h-210z" />
    <glyph glyph-name="Ocircumflex" unicode="&#xd4;" horiz-adv-x="1519" 
d="M1407 741q0 -230 -79.5 -403.5t-227 -266t-339.5 -92.5q-191 0 -339.5 92.5t-229.5 264.5t-82 397v88q0 229 81 404t228.5 268t339 93t339 -92t228 -264.5t81.5 -401.5v-87zM1135 823q0 260 -98 398.5t-279 138.5q-176 0 -275.5 -138t-101.5 -391v-90
q0 -258 100.5 -398.5t279.5 -140.5q180 0 277 137.5t97 401.5v82zM1131 1685v-11h-209l-161 167l-161 -167h-207v14l291 296h154z" />
    <glyph glyph-name="Otilde" unicode="&#xd5;" horiz-adv-x="1519" 
d="M1407 741q0 -230 -79.5 -403.5t-227 -266t-339.5 -92.5q-191 0 -339.5 92.5t-229.5 264.5t-82 397v88q0 229 81 404t228.5 268t339 93t339 -92t228 -264.5t81.5 -401.5v-87zM1135 823q0 260 -98 398.5t-279 138.5q-176 0 -275.5 -138t-101.5 -391v-90
q0 -258 100.5 -398.5t279.5 -140.5q180 0 277 137.5t97 401.5v82zM1155 1959q0 -118 -68.5 -196.5t-171.5 -78.5q-42 0 -72.5 9.5t-87 41.5t-79.5 38.5t-51 6.5q-41 0 -69.5 -30.5t-28.5 -80.5l-160 9q0 118 68.5 198.5t170.5 80.5q61 0 147.5 -48t142.5 -48q41 0 70 30.5
t29 80.5z" />
    <glyph glyph-name="Odieresis" unicode="&#xd6;" horiz-adv-x="1519" 
d="M1407 741q0 -230 -79.5 -403.5t-227 -266t-339.5 -92.5q-191 0 -339.5 92.5t-229.5 264.5t-82 397v88q0 229 81 404t228.5 268t339 93t339 -92t228 -264.5t81.5 -401.5v-87zM1135 823q0 260 -98 398.5t-279 138.5q-176 0 -275.5 -138t-101.5 -391v-90
q0 -258 100.5 -398.5t279.5 -140.5q180 0 277 137.5t97 401.5v82zM380 1800q0 54 36 90.5t99.5 36.5t100 -36.5t36.5 -90t-36.5 -90t-100 -36.5t-99.5 36.5t-36 89.5zM870 1799q0 54 36.5 90.5t100 36.5t100 -36.5t36.5 -90t-36.5 -90t-100 -36.5t-100 36.5t-36.5 89.5z" />
    <glyph glyph-name="multiply" unicode="&#xd7;" horiz-adv-x="1173" 
d="M83 391l339 346l-339 346l159 161l338 -346l340 346l159 -161l-340 -346l340 -346l-159 -161l-340 345l-338 -345z" />
    <glyph glyph-name="Oslash" unicode="&#xd8;" horiz-adv-x="1517" 
d="M1412 741q0 -230 -79.5 -403.5t-227.5 -266t-341 -92.5q-176 0 -318 80l-98 -161h-181l155 256q-209 209 -209 595v72q0 229 80.5 403t228.5 268t340 94q211 0 365 -109l93 154h180l-158 -261q168 -208 170 -548v-81zM385 741q0 -222 76 -360l539 888q-93 91 -238 91
q-177 0 -276 -138t-101 -391v-90zM1140 823q0 178 -48 301l-525 -864q84 -58 197 -58q181 0 278.5 137.5t97.5 401.5v82z" />
    <glyph glyph-name="Ugrave" unicode="&#xd9;" horiz-adv-x="1434" 
d="M1303 1564v-1045q0 -249 -159.5 -394.5t-424.5 -145.5q-269 0 -427 143t-158 398v1044h271v-1046q0 -157 79.5 -239.5t234.5 -82.5q313 0 313 330v1038h271zM853 1658h-217l-290 325h297z" />
    <glyph glyph-name="Uacute" unicode="&#xda;" horiz-adv-x="1434" 
d="M1303 1564v-1045q0 -249 -159.5 -394.5t-424.5 -145.5q-269 0 -427 143t-158 398v1044h271v-1046q0 -157 79.5 -239.5t234.5 -82.5q313 0 313 330v1038h271zM794 1983h297l-297 -325h-210z" />
    <glyph glyph-name="Ucircumflex" unicode="&#xdb;" horiz-adv-x="1434" 
d="M1303 1564v-1045q0 -249 -159.5 -394.5t-424.5 -145.5q-269 0 -427 143t-158 398v1044h271v-1046q0 -157 79.5 -239.5t234.5 -82.5q313 0 313 330v1038h271zM1087 1685v-11h-209l-161 167l-161 -167h-207v14l291 296h154z" />
    <glyph glyph-name="Udieresis" unicode="&#xdc;" horiz-adv-x="1434" 
d="M1303 1564v-1045q0 -249 -159.5 -394.5t-424.5 -145.5q-269 0 -427 143t-158 398v1044h271v-1046q0 -157 79.5 -239.5t234.5 -82.5q313 0 313 330v1038h271zM336 1800q0 54 36 90.5t99.5 36.5t100 -36.5t36.5 -90t-36.5 -90t-100 -36.5t-99.5 36.5t-36 89.5zM826 1799
q0 54 36.5 90.5t100 36.5t100 -36.5t36.5 -90t-36.5 -90t-100 -36.5t-100 36.5t-36.5 89.5z" />
    <glyph glyph-name="Yacute" unicode="&#xdd;" horiz-adv-x="1341" 
d="M669 823l360 741h301l-524 -988v-576h-273v576l-525 988h301zM750 1983h297l-297 -325h-210z" />
    <glyph glyph-name="Thorn" unicode="&#xde;" horiz-adv-x="1317" 
d="M420 1564v-301h259q262 0 409 -127.5t147 -342.5q0 -214 -147 -342.5t-408 -128.5h-260v-322h-261v1564h261zM420 1054v-522h264q135 0 212.5 69.5t77.5 189t-75 190.5t-206 73h-273z" />
    <glyph glyph-name="germandbls" unicode="&#xdf;" horiz-adv-x="1348" 
d="M406 0h-260v1187q0 230 123 358t344 128q201 0 316.5 -100.5t115.5 -282.5q0 -66 -14.5 -119t-51.5 -113.5t-49 -95.5t-12 -77q0 -47 35 -92t130.5 -124.5t139.5 -153t44 -154.5q0 -184 -117 -283t-329 -99q-86 0 -178 20.5t-133 47.5l53 210q48 -30 116.5 -50t126.5 -20
q104 0 152.5 46t48.5 118q0 53 -38 102t-131.5 122t-137 146t-43.5 159q0 94 68 202t68 191q0 87 -49.5 139t-135.5 52q-198 0 -202 -265v-1199z" />
    <glyph glyph-name="agrave" unicode="&#xe0;" horiz-adv-x="1190" 
d="M828 0q-17 33 -30 108q-124 -129 -305 -129q-175 0 -285.5 99.5t-110.5 246.5q0 186 138 285.5t394 99.5h161v76q0 91 -50.5 145t-154.5 54q-89 0 -146 -44.5t-57 -113.5h-261q0 96 63.5 179t172.5 130.5t243 47.5q205 0 326 -102.5t125 -288.5v-524q0 -157 44 -251v-18
h-267zM541 188q78 0 146 37.5t103 101.5v219h-141q-145 0 -218 -50.5t-73 -143.5q0 -75 50 -119.5t133 -44.5zM746 1325h-217l-291 325h298z" />
    <glyph glyph-name="aacute" unicode="&#xe1;" horiz-adv-x="1190" 
d="M828 0q-17 33 -30 108q-124 -129 -305 -129q-175 0 -285.5 99.5t-110.5 246.5q0 186 138 285.5t394 99.5h161v76q0 91 -50.5 145t-154.5 54q-89 0 -146 -44.5t-57 -113.5h-261q0 96 63.5 179t172.5 130.5t243 47.5q205 0 326 -102.5t125 -288.5v-524q0 -157 44 -251v-18
h-267zM541 188q78 0 146 37.5t103 101.5v219h-141q-145 0 -218 -50.5t-73 -143.5q0 -75 50 -119.5t133 -44.5zM686 1650h298l-298 -325h-209z" />
    <glyph glyph-name="acircumflex" unicode="&#xe2;" horiz-adv-x="1190" 
d="M828 0q-17 33 -30 108q-124 -129 -305 -129q-175 0 -285.5 99.5t-110.5 246.5q0 186 138 285.5t394 99.5h161v76q0 91 -50.5 145t-154.5 54q-89 0 -146 -44.5t-57 -113.5h-261q0 96 63.5 179t172.5 130.5t243 47.5q205 0 326 -102.5t125 -288.5v-524q0 -157 44 -251v-18
h-267zM541 188q78 0 146 37.5t103 101.5v219h-141q-145 0 -218 -50.5t-73 -143.5q0 -75 50 -119.5t133 -44.5zM980 1352v-11h-210l-161 167l-160 -167h-207v14l291 296h153z" />
    <glyph glyph-name="atilde" unicode="&#xe3;" horiz-adv-x="1190" 
d="M828 0q-17 33 -30 108q-124 -129 -305 -129q-175 0 -285.5 99.5t-110.5 246.5q0 186 138 285.5t394 99.5h161v76q0 91 -50.5 145t-154.5 54q-89 0 -146 -44.5t-57 -113.5h-261q0 96 63.5 179t172.5 130.5t243 47.5q205 0 326 -102.5t125 -288.5v-524q0 -157 44 -251v-18
h-267zM541 188q78 0 146 37.5t103 101.5v219h-141q-145 0 -218 -50.5t-73 -143.5q0 -75 50 -119.5t133 -44.5zM1003 1626q0 -118 -68 -196.5t-171 -78.5q-42 0 -72.5 9.5t-87 41.5t-79.5 38.5t-51 6.5q-41 0 -69.5 -30.5t-28.5 -80.5l-160 9q0 118 68 198.5t170 80.5
q62 0 148.5 -48t141.5 -48q41 0 70 30.5t29 80.5z" />
    <glyph glyph-name="adieresis" unicode="&#xe4;" horiz-adv-x="1190" 
d="M828 0q-17 33 -30 108q-124 -129 -305 -129q-175 0 -285.5 99.5t-110.5 246.5q0 186 138 285.5t394 99.5h161v76q0 91 -50.5 145t-154.5 54q-89 0 -146 -44.5t-57 -113.5h-261q0 96 63.5 179t172.5 130.5t243 47.5q205 0 326 -102.5t125 -288.5v-524q0 -157 44 -251v-18
h-267zM541 188q78 0 146 37.5t103 101.5v219h-141q-145 0 -218 -50.5t-73 -143.5q0 -75 50 -119.5t133 -44.5zM229 1467q0 54 36 90.5t99.5 36.5t100 -36.5t36.5 -90t-36.5 -90t-100 -36.5t-99.5 36.5t-36 89.5zM719 1466q0 54 36.5 90.5t99.5 36.5t100 -36.5t37 -90
t-37 -90t-100 -36.5t-99.5 36.5t-36.5 89.5z" />
    <glyph glyph-name="aring" unicode="&#xe5;" horiz-adv-x="1190" 
d="M828 0q-17 33 -30 108q-124 -129 -305 -129q-175 0 -285.5 99.5t-110.5 246.5q0 186 138 285.5t394 99.5h161v76q0 91 -50.5 145t-154.5 54q-89 0 -146 -44.5t-57 -113.5h-261q0 96 63.5 179t172.5 130.5t243 47.5q205 0 326 -102.5t125 -288.5v-524q0 -157 44 -251v-18
h-267zM541 188q78 0 146 37.5t103 101.5v219h-141q-145 0 -218 -50.5t-73 -143.5q0 -75 50 -119.5t133 -44.5zM610 1751q100 0 169 -66t69 -157.5t-67.5 -156t-170.5 -64.5q-104 0 -171 64.5t-67 156t68 157.5t170 66zM490 1528q0 -51 35.5 -86t84.5 -35q51 0 85.5 34.5
t34.5 86.5q0 49 -33.5 85t-86 36t-86.5 -36t-34 -85z" />
    <glyph glyph-name="ae" unicode="&#xe6;" horiz-adv-x="1857" 
d="M1347 -21q-272 0 -422 172q-70 -82 -185 -127t-259 -45q-189 0 -296.5 94.5t-107.5 261.5q0 170 128 262.5t378 92.5h205v76q0 98 -51 153t-145 55q-98 0 -159.5 -47.5t-61.5 -118.5l-260 20q0 157 135.5 256.5t347.5 99.5q240 0 359 -143q141 145 355 143
q228 0 356 -139t128 -392v-147h-747q10 -149 91.5 -234t225.5 -85q147 0 262 62l66 37l78 -179q-75 -60 -187.5 -94t-233.5 -34zM532 176q62 0 135 32t121 78v224h-210q-112 -2 -176.5 -53t-64.5 -126q0 -70 50 -112.5t145 -42.5zM1308 974q-106 0 -174 -74t-86 -210h486v32
q0 121 -58.5 186.5t-167.5 65.5z" />
    <glyph glyph-name="ccedilla" unicode="&#xe7;" horiz-adv-x="1152" 
d="M611 187q98 0 162.5 57t68.5 141h246q-4 -109 -67.5 -203t-172 -148.5t-234.5 -54.5q-243 0 -386 157.5t-143 436.5v26q0 266 141.5 425.5t386.5 159.5q208 0 338.5 -121t136.5 -317h-246q-4 99 -68 163.5t-163 64.5q-127 0 -195.5 -91.5t-69.5 -278.5v-42
q0 -189 68 -282t197 -93zM682 -2l-12 -58q161 -29 161 -186q0 -113 -92 -176.5t-259 -63.5l-7 148q71 0 109 25t38 70q0 49 -38 67.5t-124 24.5l34 149h190z" />
    <glyph glyph-name="egrave" unicode="&#xe8;" horiz-adv-x="1181" 
d="M646 -21q-249 0 -403 156t-154 416v32q0 174 67 311t188.5 213.5t271.5 76.5q237 0 366.5 -151.5t129.5 -428.5v-106h-760q12 -144 96.5 -227.5t212.5 -83.5q179 0 292 145l141 -134q-70 -105 -186.5 -162t-261.5 -57zM614 974q-107 0 -173 -75t-84 -209h497v19
q-9 131 -70 198t-170 67zM733 1325h-217l-290 325h297z" />
    <glyph glyph-name="eacute" unicode="&#xe9;" horiz-adv-x="1181" 
d="M646 -21q-249 0 -403 156t-154 416v32q0 174 67 311t188.5 213.5t271.5 76.5q237 0 366.5 -151.5t129.5 -428.5v-106h-760q12 -144 96.5 -227.5t212.5 -83.5q179 0 292 145l141 -134q-70 -105 -186.5 -162t-261.5 -57zM614 974q-107 0 -173 -75t-84 -209h497v19
q-9 131 -70 198t-170 67zM674 1650h297l-297 -325h-210z" />
    <glyph glyph-name="ecircumflex" unicode="&#xea;" horiz-adv-x="1181" 
d="M646 -21q-249 0 -403 156t-154 416v32q0 174 67 311t188.5 213.5t271.5 76.5q237 0 366.5 -151.5t129.5 -428.5v-106h-760q12 -144 96.5 -227.5t212.5 -83.5q179 0 292 145l141 -134q-70 -105 -186.5 -162t-261.5 -57zM614 974q-107 0 -173 -75t-84 -209h497v19
q-9 131 -70 198t-170 67zM967 1352v-11h-210l-161 167l-160 -167h-207v14l291 296h154z" />
    <glyph glyph-name="edieresis" unicode="&#xeb;" horiz-adv-x="1181" 
d="M646 -21q-249 0 -403 156t-154 416v32q0 174 67 311t188.5 213.5t271.5 76.5q237 0 366.5 -151.5t129.5 -428.5v-106h-760q12 -144 96.5 -227.5t212.5 -83.5q179 0 292 145l141 -134q-70 -105 -186.5 -162t-261.5 -57zM614 974q-107 0 -173 -75t-84 -209h497v19
q-9 131 -70 198t-170 67zM216 1467q0 54 36 90.5t99.5 36.5t100 -36.5t36.5 -90t-36.5 -90t-100 -36.5t-99.5 36.5t-36 89.5zM706 1466q0 54 36.5 90.5t100 36.5t100 -36.5t36.5 -90t-36.5 -90t-100 -36.5t-100 36.5t-36.5 89.5z" />
    <glyph glyph-name="igrave" unicode="&#xec;" horiz-adv-x="578" 
d="M415 0h-261v1162h261v-1162zM425 1317h-217l-290 325h298z" />
    <glyph glyph-name="iacute" unicode="&#xed;" horiz-adv-x="578" 
d="M415 0h-261v1162h261v-1162zM365 1642h298l-298 -325h-209z" />
    <glyph glyph-name="icircumflex" unicode="&#xee;" horiz-adv-x="578" 
d="M415 0h-261v1162h261v-1162zM660 1345v-12h-210l-161 168l-160 -168h-207v14l291 297h153z" />
    <glyph glyph-name="idieresis" unicode="&#xef;" horiz-adv-x="578" 
d="M415 0h-261v1162h261v-1162zM-91 1460q0 54 36 90.5t99 36.5t99.5 -36.5t36.5 -90.5t-36.5 -90.5t-99.5 -36.5t-99 36.5t-36 90.5zM399 1459q0 54 36.5 90.5t99.5 36.5t99.5 -36.5t36.5 -90.5t-36.5 -90.5t-99.5 -36.5t-99.5 36.5t-36.5 90.5z" />
    <glyph glyph-name="eth" unicode="&#xf0;" horiz-adv-x="1279" 
d="M896 1400q273 -285 273 -716v-88q0 -178 -68 -319.5t-191 -219.5t-273 -78q-148 0 -269.5 67.5t-189 189t-67.5 267.5q0 160 60.5 284t171 191t252.5 67q157 0 278 -98q-52 182 -188 313l-219 -145l-84 117l185 123q-135 88 -309 133l80 209q256 -53 446 -198l194 128
l83 -117zM908 712l-1 20q-35 51 -101 81t-150 30q-135 0 -209.5 -90t-74.5 -250q0 -136 75.5 -226t193.5 -90q120 0 193.5 107.5t73.5 293.5v124z" />
    <glyph glyph-name="ntilde" unicode="&#xf1;" horiz-adv-x="1224" 
d="M376 1162l7 -134q129 156 339 156q363 0 369 -416v-768h-261v753q0 111 -47.5 164t-156.5 53q-158 0 -235 -143v-827h-261v1162h246zM1010 1626q0 -118 -68.5 -196.5t-171.5 -78.5q-42 0 -72.5 9.5t-87 41.5t-79.5 38.5t-51 6.5q-41 0 -69.5 -30.5t-28.5 -80.5l-160 9
q0 118 68.5 198.5t170.5 80.5q61 0 147.5 -48t142.5 -48q41 0 70 30.5t29 80.5z" />
    <glyph glyph-name="ograve" unicode="&#xf2;" horiz-adv-x="1253" 
d="M85 592q0 171 67.5 308t190 210.5t281.5 73.5q235 0 382 -151.5t158 -401.5l2 -62q0 -172 -66.5 -307t-189.5 -209t-284 -74q-246 0 -393.5 163.5t-147.5 436.5v13zM346 569q0 -179 74 -280.5t206 -101.5t206 103t74 302q0 176 -76 279t-206 103q-128 0 -203 -101.5
t-75 -303.5zM755 1325h-217l-290 325h298z" />
    <glyph glyph-name="oacute" unicode="&#xf3;" horiz-adv-x="1253" 
d="M85 592q0 171 67.5 308t190 210.5t281.5 73.5q235 0 382 -151.5t158 -401.5l2 -62q0 -172 -66.5 -307t-189.5 -209t-284 -74q-246 0 -393.5 163.5t-147.5 436.5v13zM346 569q0 -179 74 -280.5t206 -101.5t206 103t74 302q0 176 -76 279t-206 103q-128 0 -203 -101.5
t-75 -303.5zM696 1650h298l-298 -325h-209z" />
    <glyph glyph-name="ocircumflex" unicode="&#xf4;" horiz-adv-x="1253" 
d="M85 592q0 171 67.5 308t190 210.5t281.5 73.5q235 0 382 -151.5t158 -401.5l2 -62q0 -172 -66.5 -307t-189.5 -209t-284 -74q-246 0 -393.5 163.5t-147.5 436.5v13zM346 569q0 -179 74 -280.5t206 -101.5t206 103t74 302q0 176 -76 279t-206 103q-128 0 -203 -101.5
t-75 -303.5zM989 1352v-11h-209l-161 167l-160 -167h-208v14l291 296h154z" />
    <glyph glyph-name="otilde" unicode="&#xf5;" horiz-adv-x="1253" 
d="M85 592q0 171 67.5 308t190 210.5t281.5 73.5q235 0 382 -151.5t158 -401.5l2 -62q0 -172 -66.5 -307t-189.5 -209t-284 -74q-246 0 -393.5 163.5t-147.5 436.5v13zM346 569q0 -179 74 -280.5t206 -101.5t206 103t74 302q0 176 -76 279t-206 103q-128 0 -203 -101.5
t-75 -303.5zM1013 1626q0 -118 -68 -196.5t-172 -78.5q-41 0 -72 9.5t-87 41.5t-79.5 38.5t-51.5 6.5q-40 0 -68.5 -30.5t-28.5 -80.5l-160 9q0 118 68 198.5t170 80.5q61 0 147.5 -48t142.5 -48q41 0 70 30.5t29 80.5z" />
    <glyph glyph-name="odieresis" unicode="&#xf6;" horiz-adv-x="1253" 
d="M85 592q0 171 67.5 308t190 210.5t281.5 73.5q235 0 382 -151.5t158 -401.5l2 -62q0 -172 -66.5 -307t-189.5 -209t-284 -74q-246 0 -393.5 163.5t-147.5 436.5v13zM346 569q0 -179 74 -280.5t206 -101.5t206 103t74 302q0 176 -76 279t-206 103q-128 0 -203 -101.5
t-75 -303.5zM238 1467q0 54 36 90.5t99.5 36.5t100 -36.5t36.5 -90t-36.5 -90t-100 -36.5t-99.5 36.5t-36 89.5zM728 1466q0 54 36.5 90.5t100 36.5t100 -36.5t36.5 -90t-36.5 -90t-100 -36.5t-100 36.5t-36.5 89.5z" />
    <glyph glyph-name="divide" unicode="&#xf7;" horiz-adv-x="1256" 
d="M1159 625h-1087v228h1087v-228zM619 1319q73 0 112.5 -40.5t39.5 -102t-39.5 -102t-112.5 -40.5q-72 0 -112 40.5t-40 102t40 102t112 40.5zM467 299q0 62 40 103t112 41q73 0 112.5 -41t39.5 -103t-39.5 -101.5t-112.5 -39.5q-72 0 -112 39.5t-40 101.5z" />
    <glyph glyph-name="oslash" unicode="&#xf8;" horiz-adv-x="1246" 
d="M85 592q0 171 67.5 308t190 210.5t281.5 73.5q114 0 209 -37l76 154h156l-110 -224q211 -164 211 -508q0 -172 -66.5 -307t-189.5 -209t-284 -74q-100 0 -196 32l-78 -158h-155l109 222q-221 161 -221 517zM346 569q0 -167 69 -273l321 655q-51 23 -112 23
q-128 0 -203 -101.5t-75 -303.5zM906 592q0 159 -63 259l-318 -646q46 -18 101 -18q132 0 206 103t74 302z" />
    </font>
</defs>
</svg>
